%TF.GenerationSoftware,KiCad,Pcbnew,9.0.3*%
%TF.CreationDate,2025-07-27T16:58:04-04:00*%
%TF.ProjectId,hackpad,6861636b-7061-4642-9e6b-696361645f70,rev?*%
%TF.SameCoordinates,Original*%
%TF.FileFunction,Drillmap*%
%TF.FilePolarity,Positive*%
%FSLAX45Y45*%
G04 Gerber Fmt 4.5, Leading zero omitted, Abs format (unit mm)*
G04 Created by KiCad (PCBNEW 9.0.3) date 2025-07-27 16:58:04*
%MOMM*%
%LPD*%
G01*
G04 APERTURE LIST*
%ADD10C,0.050000*%
%ADD11C,0.200000*%
%ADD12C,0.170000*%
%ADD13C,0.400000*%
G04 APERTURE END LIST*
D10*
X17355647Y-13151666D02*
X12105647Y-13151666D01*
X11605647Y-12651666D02*
X11605647Y-7401666D01*
X17855647Y-7401666D02*
X17855647Y-12651666D01*
X12105647Y-13151666D02*
G75*
G02*
X11605644Y-12651666I3J500006D01*
G01*
X17355647Y-6901666D02*
G75*
G02*
X17855644Y-7401666I3J-499994D01*
G01*
X12105647Y-6901666D02*
X17355647Y-6901666D01*
X17855647Y-12651666D02*
G75*
G02*
X17355647Y-13151657I-499997J6D01*
G01*
X11605647Y-7401666D02*
G75*
G02*
X12105647Y-6901666I499998J2D01*
G01*
D11*
D12*
X12238000Y-8025650D02*
X12408000Y-8195650D01*
X12408000Y-8025650D02*
X12238000Y-8195650D01*
X12238000Y-9930650D02*
X12408000Y-10100650D01*
X12408000Y-9930650D02*
X12238000Y-10100650D01*
X12238000Y-11835650D02*
X12408000Y-12005650D01*
X12408000Y-11835650D02*
X12238000Y-12005650D01*
X13254000Y-8025650D02*
X13424000Y-8195650D01*
X13424000Y-8025650D02*
X13254000Y-8195650D01*
X13254000Y-9930650D02*
X13424000Y-10100650D01*
X13424000Y-9930650D02*
X13254000Y-10100650D01*
X13254000Y-11835650D02*
X13424000Y-12005650D01*
X13424000Y-11835650D02*
X13254000Y-12005650D01*
X14143000Y-8025650D02*
X14313000Y-8195650D01*
X14313000Y-8025650D02*
X14143000Y-8195650D01*
X14143000Y-9930650D02*
X14313000Y-10100650D01*
X14313000Y-9930650D02*
X14143000Y-10100650D01*
X14143000Y-11835650D02*
X14313000Y-12005650D01*
X14313000Y-11835650D02*
X14143000Y-12005650D01*
X15159000Y-8025650D02*
X15329000Y-8195650D01*
X15329000Y-8025650D02*
X15159000Y-8195650D01*
X15159000Y-9930650D02*
X15329000Y-10100650D01*
X15329000Y-9930650D02*
X15159000Y-10100650D01*
X15159000Y-11835650D02*
X15329000Y-12005650D01*
X15329000Y-11835650D02*
X15159000Y-12005650D01*
X16048000Y-9930650D02*
X16218000Y-10100650D01*
X16218000Y-9930650D02*
X16048000Y-10100650D01*
X16048000Y-11835650D02*
X16218000Y-12005650D01*
X16218000Y-11835650D02*
X16048000Y-12005650D01*
X17064000Y-9930650D02*
X17234000Y-10100650D01*
X17234000Y-9930650D02*
X17064000Y-10100650D01*
X17064000Y-11835650D02*
X17234000Y-12005650D01*
X17234000Y-11835650D02*
X17064000Y-12005650D01*
D13*
X13031000Y-8110650D02*
G75*
G02*
X12631000Y-8110650I-200000J0D01*
G01*
X12631000Y-8110650D02*
G75*
G02*
X13031000Y-8110650I200000J0D01*
G01*
X13031000Y-10015650D02*
G75*
G02*
X12631000Y-10015650I-200000J0D01*
G01*
X12631000Y-10015650D02*
G75*
G02*
X13031000Y-10015650I200000J0D01*
G01*
X13031000Y-11920650D02*
G75*
G02*
X12631000Y-11920650I-200000J0D01*
G01*
X12631000Y-11920650D02*
G75*
G02*
X13031000Y-11920650I200000J0D01*
G01*
X14936000Y-8110650D02*
G75*
G02*
X14536000Y-8110650I-200000J0D01*
G01*
X14536000Y-8110650D02*
G75*
G02*
X14936000Y-8110650I200000J0D01*
G01*
X14936000Y-10015650D02*
G75*
G02*
X14536000Y-10015650I-200000J0D01*
G01*
X14536000Y-10015650D02*
G75*
G02*
X14936000Y-10015650I200000J0D01*
G01*
X14936000Y-11920650D02*
G75*
G02*
X14536000Y-11920650I-200000J0D01*
G01*
X14536000Y-11920650D02*
G75*
G02*
X14936000Y-11920650I200000J0D01*
G01*
X16841000Y-10015650D02*
G75*
G02*
X16441000Y-10015650I-200000J0D01*
G01*
X16441000Y-10015650D02*
G75*
G02*
X16841000Y-10015650I200000J0D01*
G01*
X16841000Y-11920650D02*
G75*
G02*
X16441000Y-11920650I-200000J0D01*
G01*
X16441000Y-11920650D02*
G75*
G02*
X16841000Y-11920650I200000J0D01*
G01*
D11*
X11863924Y-13465650D02*
X11863924Y-13265650D01*
X11863924Y-13265650D02*
X11911543Y-13265650D01*
X11911543Y-13265650D02*
X11940114Y-13275174D01*
X11940114Y-13275174D02*
X11959162Y-13294221D01*
X11959162Y-13294221D02*
X11968686Y-13313269D01*
X11968686Y-13313269D02*
X11978210Y-13351364D01*
X11978210Y-13351364D02*
X11978210Y-13379936D01*
X11978210Y-13379936D02*
X11968686Y-13418031D01*
X11968686Y-13418031D02*
X11959162Y-13437078D01*
X11959162Y-13437078D02*
X11940114Y-13456126D01*
X11940114Y-13456126D02*
X11911543Y-13465650D01*
X11911543Y-13465650D02*
X11863924Y-13465650D01*
X12063924Y-13465650D02*
X12063924Y-13332316D01*
X12063924Y-13370412D02*
X12073448Y-13351364D01*
X12073448Y-13351364D02*
X12082972Y-13341840D01*
X12082972Y-13341840D02*
X12102019Y-13332316D01*
X12102019Y-13332316D02*
X12121067Y-13332316D01*
X12187733Y-13465650D02*
X12187733Y-13332316D01*
X12187733Y-13265650D02*
X12178210Y-13275174D01*
X12178210Y-13275174D02*
X12187733Y-13284697D01*
X12187733Y-13284697D02*
X12197257Y-13275174D01*
X12197257Y-13275174D02*
X12187733Y-13265650D01*
X12187733Y-13265650D02*
X12187733Y-13284697D01*
X12311543Y-13465650D02*
X12292495Y-13456126D01*
X12292495Y-13456126D02*
X12282972Y-13437078D01*
X12282972Y-13437078D02*
X12282972Y-13265650D01*
X12416305Y-13465650D02*
X12397257Y-13456126D01*
X12397257Y-13456126D02*
X12387733Y-13437078D01*
X12387733Y-13437078D02*
X12387733Y-13265650D01*
X12644876Y-13465650D02*
X12644876Y-13265650D01*
X12644876Y-13265650D02*
X12711543Y-13408507D01*
X12711543Y-13408507D02*
X12778210Y-13265650D01*
X12778210Y-13265650D02*
X12778210Y-13465650D01*
X12959162Y-13465650D02*
X12959162Y-13360888D01*
X12959162Y-13360888D02*
X12949638Y-13341840D01*
X12949638Y-13341840D02*
X12930591Y-13332316D01*
X12930591Y-13332316D02*
X12892495Y-13332316D01*
X12892495Y-13332316D02*
X12873448Y-13341840D01*
X12959162Y-13456126D02*
X12940114Y-13465650D01*
X12940114Y-13465650D02*
X12892495Y-13465650D01*
X12892495Y-13465650D02*
X12873448Y-13456126D01*
X12873448Y-13456126D02*
X12863924Y-13437078D01*
X12863924Y-13437078D02*
X12863924Y-13418031D01*
X12863924Y-13418031D02*
X12873448Y-13398983D01*
X12873448Y-13398983D02*
X12892495Y-13389459D01*
X12892495Y-13389459D02*
X12940114Y-13389459D01*
X12940114Y-13389459D02*
X12959162Y-13379936D01*
X13054400Y-13332316D02*
X13054400Y-13532316D01*
X13054400Y-13341840D02*
X13073448Y-13332316D01*
X13073448Y-13332316D02*
X13111543Y-13332316D01*
X13111543Y-13332316D02*
X13130591Y-13341840D01*
X13130591Y-13341840D02*
X13140114Y-13351364D01*
X13140114Y-13351364D02*
X13149638Y-13370412D01*
X13149638Y-13370412D02*
X13149638Y-13427555D01*
X13149638Y-13427555D02*
X13140114Y-13446602D01*
X13140114Y-13446602D02*
X13130591Y-13456126D01*
X13130591Y-13456126D02*
X13111543Y-13465650D01*
X13111543Y-13465650D02*
X13073448Y-13465650D01*
X13073448Y-13465650D02*
X13054400Y-13456126D01*
X13235353Y-13446602D02*
X13244876Y-13456126D01*
X13244876Y-13456126D02*
X13235353Y-13465650D01*
X13235353Y-13465650D02*
X13225829Y-13456126D01*
X13225829Y-13456126D02*
X13235353Y-13446602D01*
X13235353Y-13446602D02*
X13235353Y-13465650D01*
X13235353Y-13341840D02*
X13244876Y-13351364D01*
X13244876Y-13351364D02*
X13235353Y-13360888D01*
X13235353Y-13360888D02*
X13225829Y-13351364D01*
X13225829Y-13351364D02*
X13235353Y-13341840D01*
X13235353Y-13341840D02*
X13235353Y-13360888D01*
D12*
X11433147Y-13709166D02*
X11603147Y-13879166D01*
X11603147Y-13709166D02*
X11433147Y-13879166D01*
D11*
X11968686Y-13885650D02*
X11854400Y-13885650D01*
X11911543Y-13885650D02*
X11911543Y-13685650D01*
X11911543Y-13685650D02*
X11892495Y-13714221D01*
X11892495Y-13714221D02*
X11873448Y-13733269D01*
X11873448Y-13733269D02*
X11854400Y-13742793D01*
X12054400Y-13866602D02*
X12063924Y-13876126D01*
X12063924Y-13876126D02*
X12054400Y-13885650D01*
X12054400Y-13885650D02*
X12044876Y-13876126D01*
X12044876Y-13876126D02*
X12054400Y-13866602D01*
X12054400Y-13866602D02*
X12054400Y-13885650D01*
X12130591Y-13685650D02*
X12263924Y-13685650D01*
X12263924Y-13685650D02*
X12178210Y-13885650D01*
X12378210Y-13685650D02*
X12397257Y-13685650D01*
X12397257Y-13685650D02*
X12416305Y-13695174D01*
X12416305Y-13695174D02*
X12425829Y-13704697D01*
X12425829Y-13704697D02*
X12435353Y-13723745D01*
X12435353Y-13723745D02*
X12444876Y-13761840D01*
X12444876Y-13761840D02*
X12444876Y-13809459D01*
X12444876Y-13809459D02*
X12435353Y-13847555D01*
X12435353Y-13847555D02*
X12425829Y-13866602D01*
X12425829Y-13866602D02*
X12416305Y-13876126D01*
X12416305Y-13876126D02*
X12397257Y-13885650D01*
X12397257Y-13885650D02*
X12378210Y-13885650D01*
X12378210Y-13885650D02*
X12359162Y-13876126D01*
X12359162Y-13876126D02*
X12349638Y-13866602D01*
X12349638Y-13866602D02*
X12340114Y-13847555D01*
X12340114Y-13847555D02*
X12330591Y-13809459D01*
X12330591Y-13809459D02*
X12330591Y-13761840D01*
X12330591Y-13761840D02*
X12340114Y-13723745D01*
X12340114Y-13723745D02*
X12349638Y-13704697D01*
X12349638Y-13704697D02*
X12359162Y-13695174D01*
X12359162Y-13695174D02*
X12378210Y-13685650D01*
X12568686Y-13685650D02*
X12587734Y-13685650D01*
X12587734Y-13685650D02*
X12606781Y-13695174D01*
X12606781Y-13695174D02*
X12616305Y-13704697D01*
X12616305Y-13704697D02*
X12625829Y-13723745D01*
X12625829Y-13723745D02*
X12635353Y-13761840D01*
X12635353Y-13761840D02*
X12635353Y-13809459D01*
X12635353Y-13809459D02*
X12625829Y-13847555D01*
X12625829Y-13847555D02*
X12616305Y-13866602D01*
X12616305Y-13866602D02*
X12606781Y-13876126D01*
X12606781Y-13876126D02*
X12587734Y-13885650D01*
X12587734Y-13885650D02*
X12568686Y-13885650D01*
X12568686Y-13885650D02*
X12549638Y-13876126D01*
X12549638Y-13876126D02*
X12540114Y-13866602D01*
X12540114Y-13866602D02*
X12530591Y-13847555D01*
X12530591Y-13847555D02*
X12521067Y-13809459D01*
X12521067Y-13809459D02*
X12521067Y-13761840D01*
X12521067Y-13761840D02*
X12530591Y-13723745D01*
X12530591Y-13723745D02*
X12540114Y-13704697D01*
X12540114Y-13704697D02*
X12549638Y-13695174D01*
X12549638Y-13695174D02*
X12568686Y-13685650D01*
X12721067Y-13885650D02*
X12721067Y-13752316D01*
X12721067Y-13771364D02*
X12730591Y-13761840D01*
X12730591Y-13761840D02*
X12749638Y-13752316D01*
X12749638Y-13752316D02*
X12778210Y-13752316D01*
X12778210Y-13752316D02*
X12797257Y-13761840D01*
X12797257Y-13761840D02*
X12806781Y-13780888D01*
X12806781Y-13780888D02*
X12806781Y-13885650D01*
X12806781Y-13780888D02*
X12816305Y-13761840D01*
X12816305Y-13761840D02*
X12835353Y-13752316D01*
X12835353Y-13752316D02*
X12863924Y-13752316D01*
X12863924Y-13752316D02*
X12882972Y-13761840D01*
X12882972Y-13761840D02*
X12892495Y-13780888D01*
X12892495Y-13780888D02*
X12892495Y-13885650D01*
X12987734Y-13885650D02*
X12987734Y-13752316D01*
X12987734Y-13771364D02*
X12997257Y-13761840D01*
X12997257Y-13761840D02*
X13016305Y-13752316D01*
X13016305Y-13752316D02*
X13044876Y-13752316D01*
X13044876Y-13752316D02*
X13063924Y-13761840D01*
X13063924Y-13761840D02*
X13073448Y-13780888D01*
X13073448Y-13780888D02*
X13073448Y-13885650D01*
X13073448Y-13780888D02*
X13082972Y-13761840D01*
X13082972Y-13761840D02*
X13102019Y-13752316D01*
X13102019Y-13752316D02*
X13130591Y-13752316D01*
X13130591Y-13752316D02*
X13149638Y-13761840D01*
X13149638Y-13761840D02*
X13159162Y-13780888D01*
X13159162Y-13780888D02*
X13159162Y-13885650D01*
X13549638Y-13676126D02*
X13378210Y-13933269D01*
X13806781Y-13685650D02*
X13825829Y-13685650D01*
X13825829Y-13685650D02*
X13844877Y-13695174D01*
X13844877Y-13695174D02*
X13854400Y-13704697D01*
X13854400Y-13704697D02*
X13863924Y-13723745D01*
X13863924Y-13723745D02*
X13873448Y-13761840D01*
X13873448Y-13761840D02*
X13873448Y-13809459D01*
X13873448Y-13809459D02*
X13863924Y-13847555D01*
X13863924Y-13847555D02*
X13854400Y-13866602D01*
X13854400Y-13866602D02*
X13844877Y-13876126D01*
X13844877Y-13876126D02*
X13825829Y-13885650D01*
X13825829Y-13885650D02*
X13806781Y-13885650D01*
X13806781Y-13885650D02*
X13787734Y-13876126D01*
X13787734Y-13876126D02*
X13778210Y-13866602D01*
X13778210Y-13866602D02*
X13768686Y-13847555D01*
X13768686Y-13847555D02*
X13759162Y-13809459D01*
X13759162Y-13809459D02*
X13759162Y-13761840D01*
X13759162Y-13761840D02*
X13768686Y-13723745D01*
X13768686Y-13723745D02*
X13778210Y-13704697D01*
X13778210Y-13704697D02*
X13787734Y-13695174D01*
X13787734Y-13695174D02*
X13806781Y-13685650D01*
X13959162Y-13866602D02*
X13968686Y-13876126D01*
X13968686Y-13876126D02*
X13959162Y-13885650D01*
X13959162Y-13885650D02*
X13949638Y-13876126D01*
X13949638Y-13876126D02*
X13959162Y-13866602D01*
X13959162Y-13866602D02*
X13959162Y-13885650D01*
X14092496Y-13685650D02*
X14111543Y-13685650D01*
X14111543Y-13685650D02*
X14130591Y-13695174D01*
X14130591Y-13695174D02*
X14140115Y-13704697D01*
X14140115Y-13704697D02*
X14149638Y-13723745D01*
X14149638Y-13723745D02*
X14159162Y-13761840D01*
X14159162Y-13761840D02*
X14159162Y-13809459D01*
X14159162Y-13809459D02*
X14149638Y-13847555D01*
X14149638Y-13847555D02*
X14140115Y-13866602D01*
X14140115Y-13866602D02*
X14130591Y-13876126D01*
X14130591Y-13876126D02*
X14111543Y-13885650D01*
X14111543Y-13885650D02*
X14092496Y-13885650D01*
X14092496Y-13885650D02*
X14073448Y-13876126D01*
X14073448Y-13876126D02*
X14063924Y-13866602D01*
X14063924Y-13866602D02*
X14054400Y-13847555D01*
X14054400Y-13847555D02*
X14044877Y-13809459D01*
X14044877Y-13809459D02*
X14044877Y-13761840D01*
X14044877Y-13761840D02*
X14054400Y-13723745D01*
X14054400Y-13723745D02*
X14063924Y-13704697D01*
X14063924Y-13704697D02*
X14073448Y-13695174D01*
X14073448Y-13695174D02*
X14092496Y-13685650D01*
X14330591Y-13685650D02*
X14292496Y-13685650D01*
X14292496Y-13685650D02*
X14273448Y-13695174D01*
X14273448Y-13695174D02*
X14263924Y-13704697D01*
X14263924Y-13704697D02*
X14244877Y-13733269D01*
X14244877Y-13733269D02*
X14235353Y-13771364D01*
X14235353Y-13771364D02*
X14235353Y-13847555D01*
X14235353Y-13847555D02*
X14244877Y-13866602D01*
X14244877Y-13866602D02*
X14254400Y-13876126D01*
X14254400Y-13876126D02*
X14273448Y-13885650D01*
X14273448Y-13885650D02*
X14311543Y-13885650D01*
X14311543Y-13885650D02*
X14330591Y-13876126D01*
X14330591Y-13876126D02*
X14340115Y-13866602D01*
X14340115Y-13866602D02*
X14349638Y-13847555D01*
X14349638Y-13847555D02*
X14349638Y-13799936D01*
X14349638Y-13799936D02*
X14340115Y-13780888D01*
X14340115Y-13780888D02*
X14330591Y-13771364D01*
X14330591Y-13771364D02*
X14311543Y-13761840D01*
X14311543Y-13761840D02*
X14273448Y-13761840D01*
X14273448Y-13761840D02*
X14254400Y-13771364D01*
X14254400Y-13771364D02*
X14244877Y-13780888D01*
X14244877Y-13780888D02*
X14235353Y-13799936D01*
X14521067Y-13685650D02*
X14482972Y-13685650D01*
X14482972Y-13685650D02*
X14463924Y-13695174D01*
X14463924Y-13695174D02*
X14454400Y-13704697D01*
X14454400Y-13704697D02*
X14435353Y-13733269D01*
X14435353Y-13733269D02*
X14425829Y-13771364D01*
X14425829Y-13771364D02*
X14425829Y-13847555D01*
X14425829Y-13847555D02*
X14435353Y-13866602D01*
X14435353Y-13866602D02*
X14444877Y-13876126D01*
X14444877Y-13876126D02*
X14463924Y-13885650D01*
X14463924Y-13885650D02*
X14502019Y-13885650D01*
X14502019Y-13885650D02*
X14521067Y-13876126D01*
X14521067Y-13876126D02*
X14530591Y-13866602D01*
X14530591Y-13866602D02*
X14540115Y-13847555D01*
X14540115Y-13847555D02*
X14540115Y-13799936D01*
X14540115Y-13799936D02*
X14530591Y-13780888D01*
X14530591Y-13780888D02*
X14521067Y-13771364D01*
X14521067Y-13771364D02*
X14502019Y-13761840D01*
X14502019Y-13761840D02*
X14463924Y-13761840D01*
X14463924Y-13761840D02*
X14444877Y-13771364D01*
X14444877Y-13771364D02*
X14435353Y-13780888D01*
X14435353Y-13780888D02*
X14425829Y-13799936D01*
X14635353Y-13885650D02*
X14673448Y-13885650D01*
X14673448Y-13885650D02*
X14692496Y-13876126D01*
X14692496Y-13876126D02*
X14702019Y-13866602D01*
X14702019Y-13866602D02*
X14721067Y-13838031D01*
X14721067Y-13838031D02*
X14730591Y-13799936D01*
X14730591Y-13799936D02*
X14730591Y-13723745D01*
X14730591Y-13723745D02*
X14721067Y-13704697D01*
X14721067Y-13704697D02*
X14711543Y-13695174D01*
X14711543Y-13695174D02*
X14692496Y-13685650D01*
X14692496Y-13685650D02*
X14654400Y-13685650D01*
X14654400Y-13685650D02*
X14635353Y-13695174D01*
X14635353Y-13695174D02*
X14625829Y-13704697D01*
X14625829Y-13704697D02*
X14616305Y-13723745D01*
X14616305Y-13723745D02*
X14616305Y-13771364D01*
X14616305Y-13771364D02*
X14625829Y-13790412D01*
X14625829Y-13790412D02*
X14635353Y-13799936D01*
X14635353Y-13799936D02*
X14654400Y-13809459D01*
X14654400Y-13809459D02*
X14692496Y-13809459D01*
X14692496Y-13809459D02*
X14711543Y-13799936D01*
X14711543Y-13799936D02*
X14721067Y-13790412D01*
X14721067Y-13790412D02*
X14730591Y-13771364D01*
X14806781Y-13685650D02*
X14806781Y-13723745D01*
X14882972Y-13685650D02*
X14882972Y-13723745D01*
X15178210Y-13961840D02*
X15168686Y-13952316D01*
X15168686Y-13952316D02*
X15149639Y-13923745D01*
X15149639Y-13923745D02*
X15140115Y-13904697D01*
X15140115Y-13904697D02*
X15130591Y-13876126D01*
X15130591Y-13876126D02*
X15121067Y-13828507D01*
X15121067Y-13828507D02*
X15121067Y-13790412D01*
X15121067Y-13790412D02*
X15130591Y-13742793D01*
X15130591Y-13742793D02*
X15140115Y-13714221D01*
X15140115Y-13714221D02*
X15149639Y-13695174D01*
X15149639Y-13695174D02*
X15168686Y-13666602D01*
X15168686Y-13666602D02*
X15178210Y-13657078D01*
X15359162Y-13885650D02*
X15244877Y-13885650D01*
X15302019Y-13885650D02*
X15302019Y-13685650D01*
X15302019Y-13685650D02*
X15282972Y-13714221D01*
X15282972Y-13714221D02*
X15263924Y-13733269D01*
X15263924Y-13733269D02*
X15244877Y-13742793D01*
X15530591Y-13685650D02*
X15492496Y-13685650D01*
X15492496Y-13685650D02*
X15473448Y-13695174D01*
X15473448Y-13695174D02*
X15463924Y-13704697D01*
X15463924Y-13704697D02*
X15444877Y-13733269D01*
X15444877Y-13733269D02*
X15435353Y-13771364D01*
X15435353Y-13771364D02*
X15435353Y-13847555D01*
X15435353Y-13847555D02*
X15444877Y-13866602D01*
X15444877Y-13866602D02*
X15454400Y-13876126D01*
X15454400Y-13876126D02*
X15473448Y-13885650D01*
X15473448Y-13885650D02*
X15511543Y-13885650D01*
X15511543Y-13885650D02*
X15530591Y-13876126D01*
X15530591Y-13876126D02*
X15540115Y-13866602D01*
X15540115Y-13866602D02*
X15549639Y-13847555D01*
X15549639Y-13847555D02*
X15549639Y-13799936D01*
X15549639Y-13799936D02*
X15540115Y-13780888D01*
X15540115Y-13780888D02*
X15530591Y-13771364D01*
X15530591Y-13771364D02*
X15511543Y-13761840D01*
X15511543Y-13761840D02*
X15473448Y-13761840D01*
X15473448Y-13761840D02*
X15454400Y-13771364D01*
X15454400Y-13771364D02*
X15444877Y-13780888D01*
X15444877Y-13780888D02*
X15435353Y-13799936D01*
X15787734Y-13885650D02*
X15787734Y-13685650D01*
X15873448Y-13885650D02*
X15873448Y-13780888D01*
X15873448Y-13780888D02*
X15863924Y-13761840D01*
X15863924Y-13761840D02*
X15844877Y-13752316D01*
X15844877Y-13752316D02*
X15816305Y-13752316D01*
X15816305Y-13752316D02*
X15797258Y-13761840D01*
X15797258Y-13761840D02*
X15787734Y-13771364D01*
X15997258Y-13885650D02*
X15978210Y-13876126D01*
X15978210Y-13876126D02*
X15968686Y-13866602D01*
X15968686Y-13866602D02*
X15959162Y-13847555D01*
X15959162Y-13847555D02*
X15959162Y-13790412D01*
X15959162Y-13790412D02*
X15968686Y-13771364D01*
X15968686Y-13771364D02*
X15978210Y-13761840D01*
X15978210Y-13761840D02*
X15997258Y-13752316D01*
X15997258Y-13752316D02*
X16025829Y-13752316D01*
X16025829Y-13752316D02*
X16044877Y-13761840D01*
X16044877Y-13761840D02*
X16054401Y-13771364D01*
X16054401Y-13771364D02*
X16063924Y-13790412D01*
X16063924Y-13790412D02*
X16063924Y-13847555D01*
X16063924Y-13847555D02*
X16054401Y-13866602D01*
X16054401Y-13866602D02*
X16044877Y-13876126D01*
X16044877Y-13876126D02*
X16025829Y-13885650D01*
X16025829Y-13885650D02*
X15997258Y-13885650D01*
X16178210Y-13885650D02*
X16159162Y-13876126D01*
X16159162Y-13876126D02*
X16149639Y-13857078D01*
X16149639Y-13857078D02*
X16149639Y-13685650D01*
X16330591Y-13876126D02*
X16311543Y-13885650D01*
X16311543Y-13885650D02*
X16273448Y-13885650D01*
X16273448Y-13885650D02*
X16254401Y-13876126D01*
X16254401Y-13876126D02*
X16244877Y-13857078D01*
X16244877Y-13857078D02*
X16244877Y-13780888D01*
X16244877Y-13780888D02*
X16254401Y-13761840D01*
X16254401Y-13761840D02*
X16273448Y-13752316D01*
X16273448Y-13752316D02*
X16311543Y-13752316D01*
X16311543Y-13752316D02*
X16330591Y-13761840D01*
X16330591Y-13761840D02*
X16340115Y-13780888D01*
X16340115Y-13780888D02*
X16340115Y-13799936D01*
X16340115Y-13799936D02*
X16244877Y-13818983D01*
X16416305Y-13876126D02*
X16435353Y-13885650D01*
X16435353Y-13885650D02*
X16473448Y-13885650D01*
X16473448Y-13885650D02*
X16492496Y-13876126D01*
X16492496Y-13876126D02*
X16502020Y-13857078D01*
X16502020Y-13857078D02*
X16502020Y-13847555D01*
X16502020Y-13847555D02*
X16492496Y-13828507D01*
X16492496Y-13828507D02*
X16473448Y-13818983D01*
X16473448Y-13818983D02*
X16444877Y-13818983D01*
X16444877Y-13818983D02*
X16425829Y-13809459D01*
X16425829Y-13809459D02*
X16416305Y-13790412D01*
X16416305Y-13790412D02*
X16416305Y-13780888D01*
X16416305Y-13780888D02*
X16425829Y-13761840D01*
X16425829Y-13761840D02*
X16444877Y-13752316D01*
X16444877Y-13752316D02*
X16473448Y-13752316D01*
X16473448Y-13752316D02*
X16492496Y-13761840D01*
X16568686Y-13961840D02*
X16578210Y-13952316D01*
X16578210Y-13952316D02*
X16597258Y-13923745D01*
X16597258Y-13923745D02*
X16606782Y-13904697D01*
X16606782Y-13904697D02*
X16616305Y-13876126D01*
X16616305Y-13876126D02*
X16625829Y-13828507D01*
X16625829Y-13828507D02*
X16625829Y-13790412D01*
X16625829Y-13790412D02*
X16616305Y-13742793D01*
X16616305Y-13742793D02*
X16606782Y-13714221D01*
X16606782Y-13714221D02*
X16597258Y-13695174D01*
X16597258Y-13695174D02*
X16578210Y-13666602D01*
X16578210Y-13666602D02*
X16568686Y-13657078D01*
X16930591Y-13961840D02*
X16921067Y-13952316D01*
X16921067Y-13952316D02*
X16902020Y-13923745D01*
X16902020Y-13923745D02*
X16892496Y-13904697D01*
X16892496Y-13904697D02*
X16882972Y-13876126D01*
X16882972Y-13876126D02*
X16873448Y-13828507D01*
X16873448Y-13828507D02*
X16873448Y-13790412D01*
X16873448Y-13790412D02*
X16882972Y-13742793D01*
X16882972Y-13742793D02*
X16892496Y-13714221D01*
X16892496Y-13714221D02*
X16902020Y-13695174D01*
X16902020Y-13695174D02*
X16921067Y-13666602D01*
X16921067Y-13666602D02*
X16930591Y-13657078D01*
X17006782Y-13752316D02*
X17006782Y-13885650D01*
X17006782Y-13771364D02*
X17016305Y-13761840D01*
X17016305Y-13761840D02*
X17035353Y-13752316D01*
X17035353Y-13752316D02*
X17063925Y-13752316D01*
X17063925Y-13752316D02*
X17082972Y-13761840D01*
X17082972Y-13761840D02*
X17092496Y-13780888D01*
X17092496Y-13780888D02*
X17092496Y-13885650D01*
X17216305Y-13885650D02*
X17197258Y-13876126D01*
X17197258Y-13876126D02*
X17187734Y-13866602D01*
X17187734Y-13866602D02*
X17178210Y-13847555D01*
X17178210Y-13847555D02*
X17178210Y-13790412D01*
X17178210Y-13790412D02*
X17187734Y-13771364D01*
X17187734Y-13771364D02*
X17197258Y-13761840D01*
X17197258Y-13761840D02*
X17216305Y-13752316D01*
X17216305Y-13752316D02*
X17244877Y-13752316D01*
X17244877Y-13752316D02*
X17263925Y-13761840D01*
X17263925Y-13761840D02*
X17273448Y-13771364D01*
X17273448Y-13771364D02*
X17282972Y-13790412D01*
X17282972Y-13790412D02*
X17282972Y-13847555D01*
X17282972Y-13847555D02*
X17273448Y-13866602D01*
X17273448Y-13866602D02*
X17263925Y-13876126D01*
X17263925Y-13876126D02*
X17244877Y-13885650D01*
X17244877Y-13885650D02*
X17216305Y-13885650D01*
X17340115Y-13752316D02*
X17416305Y-13752316D01*
X17368686Y-13685650D02*
X17368686Y-13857078D01*
X17368686Y-13857078D02*
X17378210Y-13876126D01*
X17378210Y-13876126D02*
X17397258Y-13885650D01*
X17397258Y-13885650D02*
X17416305Y-13885650D01*
X17635353Y-13752316D02*
X17635353Y-13952316D01*
X17635353Y-13761840D02*
X17654401Y-13752316D01*
X17654401Y-13752316D02*
X17692496Y-13752316D01*
X17692496Y-13752316D02*
X17711544Y-13761840D01*
X17711544Y-13761840D02*
X17721067Y-13771364D01*
X17721067Y-13771364D02*
X17730591Y-13790412D01*
X17730591Y-13790412D02*
X17730591Y-13847555D01*
X17730591Y-13847555D02*
X17721067Y-13866602D01*
X17721067Y-13866602D02*
X17711544Y-13876126D01*
X17711544Y-13876126D02*
X17692496Y-13885650D01*
X17692496Y-13885650D02*
X17654401Y-13885650D01*
X17654401Y-13885650D02*
X17635353Y-13876126D01*
X17844877Y-13885650D02*
X17825829Y-13876126D01*
X17825829Y-13876126D02*
X17816306Y-13857078D01*
X17816306Y-13857078D02*
X17816306Y-13685650D01*
X18006782Y-13885650D02*
X18006782Y-13780888D01*
X18006782Y-13780888D02*
X17997258Y-13761840D01*
X17997258Y-13761840D02*
X17978210Y-13752316D01*
X17978210Y-13752316D02*
X17940115Y-13752316D01*
X17940115Y-13752316D02*
X17921067Y-13761840D01*
X18006782Y-13876126D02*
X17987734Y-13885650D01*
X17987734Y-13885650D02*
X17940115Y-13885650D01*
X17940115Y-13885650D02*
X17921067Y-13876126D01*
X17921067Y-13876126D02*
X17911544Y-13857078D01*
X17911544Y-13857078D02*
X17911544Y-13838031D01*
X17911544Y-13838031D02*
X17921067Y-13818983D01*
X17921067Y-13818983D02*
X17940115Y-13809459D01*
X17940115Y-13809459D02*
X17987734Y-13809459D01*
X17987734Y-13809459D02*
X18006782Y-13799936D01*
X18073448Y-13752316D02*
X18149639Y-13752316D01*
X18102020Y-13685650D02*
X18102020Y-13857078D01*
X18102020Y-13857078D02*
X18111544Y-13876126D01*
X18111544Y-13876126D02*
X18130591Y-13885650D01*
X18130591Y-13885650D02*
X18149639Y-13885650D01*
X18292496Y-13876126D02*
X18273448Y-13885650D01*
X18273448Y-13885650D02*
X18235353Y-13885650D01*
X18235353Y-13885650D02*
X18216306Y-13876126D01*
X18216306Y-13876126D02*
X18206782Y-13857078D01*
X18206782Y-13857078D02*
X18206782Y-13780888D01*
X18206782Y-13780888D02*
X18216306Y-13761840D01*
X18216306Y-13761840D02*
X18235353Y-13752316D01*
X18235353Y-13752316D02*
X18273448Y-13752316D01*
X18273448Y-13752316D02*
X18292496Y-13761840D01*
X18292496Y-13761840D02*
X18302020Y-13780888D01*
X18302020Y-13780888D02*
X18302020Y-13799936D01*
X18302020Y-13799936D02*
X18206782Y-13818983D01*
X18473448Y-13885650D02*
X18473448Y-13685650D01*
X18473448Y-13876126D02*
X18454401Y-13885650D01*
X18454401Y-13885650D02*
X18416306Y-13885650D01*
X18416306Y-13885650D02*
X18397258Y-13876126D01*
X18397258Y-13876126D02*
X18387734Y-13866602D01*
X18387734Y-13866602D02*
X18378210Y-13847555D01*
X18378210Y-13847555D02*
X18378210Y-13790412D01*
X18378210Y-13790412D02*
X18387734Y-13771364D01*
X18387734Y-13771364D02*
X18397258Y-13761840D01*
X18397258Y-13761840D02*
X18416306Y-13752316D01*
X18416306Y-13752316D02*
X18454401Y-13752316D01*
X18454401Y-13752316D02*
X18473448Y-13761840D01*
X18549639Y-13961840D02*
X18559163Y-13952316D01*
X18559163Y-13952316D02*
X18578210Y-13923745D01*
X18578210Y-13923745D02*
X18587734Y-13904697D01*
X18587734Y-13904697D02*
X18597258Y-13876126D01*
X18597258Y-13876126D02*
X18606782Y-13828507D01*
X18606782Y-13828507D02*
X18606782Y-13790412D01*
X18606782Y-13790412D02*
X18597258Y-13742793D01*
X18597258Y-13742793D02*
X18587734Y-13714221D01*
X18587734Y-13714221D02*
X18578210Y-13695174D01*
X18578210Y-13695174D02*
X18559163Y-13666602D01*
X18559163Y-13666602D02*
X18549639Y-13657078D01*
X11603147Y-14084166D02*
G75*
G02*
X11403147Y-14084166I-100000J0D01*
G01*
X11403147Y-14084166D02*
G75*
G02*
X11603147Y-14084166I100000J0D01*
G01*
X11949638Y-14042316D02*
X11949638Y-14175650D01*
X11902019Y-13966126D02*
X11854400Y-14108983D01*
X11854400Y-14108983D02*
X11978210Y-14108983D01*
X12054400Y-14156602D02*
X12063924Y-14166126D01*
X12063924Y-14166126D02*
X12054400Y-14175650D01*
X12054400Y-14175650D02*
X12044876Y-14166126D01*
X12044876Y-14166126D02*
X12054400Y-14156602D01*
X12054400Y-14156602D02*
X12054400Y-14175650D01*
X12187733Y-13975650D02*
X12206781Y-13975650D01*
X12206781Y-13975650D02*
X12225829Y-13985174D01*
X12225829Y-13985174D02*
X12235353Y-13994697D01*
X12235353Y-13994697D02*
X12244876Y-14013745D01*
X12244876Y-14013745D02*
X12254400Y-14051840D01*
X12254400Y-14051840D02*
X12254400Y-14099459D01*
X12254400Y-14099459D02*
X12244876Y-14137555D01*
X12244876Y-14137555D02*
X12235353Y-14156602D01*
X12235353Y-14156602D02*
X12225829Y-14166126D01*
X12225829Y-14166126D02*
X12206781Y-14175650D01*
X12206781Y-14175650D02*
X12187733Y-14175650D01*
X12187733Y-14175650D02*
X12168686Y-14166126D01*
X12168686Y-14166126D02*
X12159162Y-14156602D01*
X12159162Y-14156602D02*
X12149638Y-14137555D01*
X12149638Y-14137555D02*
X12140114Y-14099459D01*
X12140114Y-14099459D02*
X12140114Y-14051840D01*
X12140114Y-14051840D02*
X12149638Y-14013745D01*
X12149638Y-14013745D02*
X12159162Y-13994697D01*
X12159162Y-13994697D02*
X12168686Y-13985174D01*
X12168686Y-13985174D02*
X12187733Y-13975650D01*
X12378210Y-13975650D02*
X12397257Y-13975650D01*
X12397257Y-13975650D02*
X12416305Y-13985174D01*
X12416305Y-13985174D02*
X12425829Y-13994697D01*
X12425829Y-13994697D02*
X12435353Y-14013745D01*
X12435353Y-14013745D02*
X12444876Y-14051840D01*
X12444876Y-14051840D02*
X12444876Y-14099459D01*
X12444876Y-14099459D02*
X12435353Y-14137555D01*
X12435353Y-14137555D02*
X12425829Y-14156602D01*
X12425829Y-14156602D02*
X12416305Y-14166126D01*
X12416305Y-14166126D02*
X12397257Y-14175650D01*
X12397257Y-14175650D02*
X12378210Y-14175650D01*
X12378210Y-14175650D02*
X12359162Y-14166126D01*
X12359162Y-14166126D02*
X12349638Y-14156602D01*
X12349638Y-14156602D02*
X12340114Y-14137555D01*
X12340114Y-14137555D02*
X12330591Y-14099459D01*
X12330591Y-14099459D02*
X12330591Y-14051840D01*
X12330591Y-14051840D02*
X12340114Y-14013745D01*
X12340114Y-14013745D02*
X12349638Y-13994697D01*
X12349638Y-13994697D02*
X12359162Y-13985174D01*
X12359162Y-13985174D02*
X12378210Y-13975650D01*
X12568686Y-13975650D02*
X12587734Y-13975650D01*
X12587734Y-13975650D02*
X12606781Y-13985174D01*
X12606781Y-13985174D02*
X12616305Y-13994697D01*
X12616305Y-13994697D02*
X12625829Y-14013745D01*
X12625829Y-14013745D02*
X12635353Y-14051840D01*
X12635353Y-14051840D02*
X12635353Y-14099459D01*
X12635353Y-14099459D02*
X12625829Y-14137555D01*
X12625829Y-14137555D02*
X12616305Y-14156602D01*
X12616305Y-14156602D02*
X12606781Y-14166126D01*
X12606781Y-14166126D02*
X12587734Y-14175650D01*
X12587734Y-14175650D02*
X12568686Y-14175650D01*
X12568686Y-14175650D02*
X12549638Y-14166126D01*
X12549638Y-14166126D02*
X12540114Y-14156602D01*
X12540114Y-14156602D02*
X12530591Y-14137555D01*
X12530591Y-14137555D02*
X12521067Y-14099459D01*
X12521067Y-14099459D02*
X12521067Y-14051840D01*
X12521067Y-14051840D02*
X12530591Y-14013745D01*
X12530591Y-14013745D02*
X12540114Y-13994697D01*
X12540114Y-13994697D02*
X12549638Y-13985174D01*
X12549638Y-13985174D02*
X12568686Y-13975650D01*
X12721067Y-14175650D02*
X12721067Y-14042316D01*
X12721067Y-14061364D02*
X12730591Y-14051840D01*
X12730591Y-14051840D02*
X12749638Y-14042316D01*
X12749638Y-14042316D02*
X12778210Y-14042316D01*
X12778210Y-14042316D02*
X12797257Y-14051840D01*
X12797257Y-14051840D02*
X12806781Y-14070888D01*
X12806781Y-14070888D02*
X12806781Y-14175650D01*
X12806781Y-14070888D02*
X12816305Y-14051840D01*
X12816305Y-14051840D02*
X12835353Y-14042316D01*
X12835353Y-14042316D02*
X12863924Y-14042316D01*
X12863924Y-14042316D02*
X12882972Y-14051840D01*
X12882972Y-14051840D02*
X12892495Y-14070888D01*
X12892495Y-14070888D02*
X12892495Y-14175650D01*
X12987734Y-14175650D02*
X12987734Y-14042316D01*
X12987734Y-14061364D02*
X12997257Y-14051840D01*
X12997257Y-14051840D02*
X13016305Y-14042316D01*
X13016305Y-14042316D02*
X13044876Y-14042316D01*
X13044876Y-14042316D02*
X13063924Y-14051840D01*
X13063924Y-14051840D02*
X13073448Y-14070888D01*
X13073448Y-14070888D02*
X13073448Y-14175650D01*
X13073448Y-14070888D02*
X13082972Y-14051840D01*
X13082972Y-14051840D02*
X13102019Y-14042316D01*
X13102019Y-14042316D02*
X13130591Y-14042316D01*
X13130591Y-14042316D02*
X13149638Y-14051840D01*
X13149638Y-14051840D02*
X13159162Y-14070888D01*
X13159162Y-14070888D02*
X13159162Y-14175650D01*
X13549638Y-13966126D02*
X13378210Y-14223269D01*
X13806781Y-13975650D02*
X13825829Y-13975650D01*
X13825829Y-13975650D02*
X13844877Y-13985174D01*
X13844877Y-13985174D02*
X13854400Y-13994697D01*
X13854400Y-13994697D02*
X13863924Y-14013745D01*
X13863924Y-14013745D02*
X13873448Y-14051840D01*
X13873448Y-14051840D02*
X13873448Y-14099459D01*
X13873448Y-14099459D02*
X13863924Y-14137555D01*
X13863924Y-14137555D02*
X13854400Y-14156602D01*
X13854400Y-14156602D02*
X13844877Y-14166126D01*
X13844877Y-14166126D02*
X13825829Y-14175650D01*
X13825829Y-14175650D02*
X13806781Y-14175650D01*
X13806781Y-14175650D02*
X13787734Y-14166126D01*
X13787734Y-14166126D02*
X13778210Y-14156602D01*
X13778210Y-14156602D02*
X13768686Y-14137555D01*
X13768686Y-14137555D02*
X13759162Y-14099459D01*
X13759162Y-14099459D02*
X13759162Y-14051840D01*
X13759162Y-14051840D02*
X13768686Y-14013745D01*
X13768686Y-14013745D02*
X13778210Y-13994697D01*
X13778210Y-13994697D02*
X13787734Y-13985174D01*
X13787734Y-13985174D02*
X13806781Y-13975650D01*
X13959162Y-14156602D02*
X13968686Y-14166126D01*
X13968686Y-14166126D02*
X13959162Y-14175650D01*
X13959162Y-14175650D02*
X13949638Y-14166126D01*
X13949638Y-14166126D02*
X13959162Y-14156602D01*
X13959162Y-14156602D02*
X13959162Y-14175650D01*
X14159162Y-14175650D02*
X14044877Y-14175650D01*
X14102019Y-14175650D02*
X14102019Y-13975650D01*
X14102019Y-13975650D02*
X14082972Y-14004221D01*
X14082972Y-14004221D02*
X14063924Y-14023269D01*
X14063924Y-14023269D02*
X14044877Y-14032793D01*
X14340115Y-13975650D02*
X14244877Y-13975650D01*
X14244877Y-13975650D02*
X14235353Y-14070888D01*
X14235353Y-14070888D02*
X14244877Y-14061364D01*
X14244877Y-14061364D02*
X14263924Y-14051840D01*
X14263924Y-14051840D02*
X14311543Y-14051840D01*
X14311543Y-14051840D02*
X14330591Y-14061364D01*
X14330591Y-14061364D02*
X14340115Y-14070888D01*
X14340115Y-14070888D02*
X14349638Y-14089936D01*
X14349638Y-14089936D02*
X14349638Y-14137555D01*
X14349638Y-14137555D02*
X14340115Y-14156602D01*
X14340115Y-14156602D02*
X14330591Y-14166126D01*
X14330591Y-14166126D02*
X14311543Y-14175650D01*
X14311543Y-14175650D02*
X14263924Y-14175650D01*
X14263924Y-14175650D02*
X14244877Y-14166126D01*
X14244877Y-14166126D02*
X14235353Y-14156602D01*
X14416305Y-13975650D02*
X14549638Y-13975650D01*
X14549638Y-13975650D02*
X14463924Y-14175650D01*
X14721067Y-13975650D02*
X14625829Y-13975650D01*
X14625829Y-13975650D02*
X14616305Y-14070888D01*
X14616305Y-14070888D02*
X14625829Y-14061364D01*
X14625829Y-14061364D02*
X14644877Y-14051840D01*
X14644877Y-14051840D02*
X14692496Y-14051840D01*
X14692496Y-14051840D02*
X14711543Y-14061364D01*
X14711543Y-14061364D02*
X14721067Y-14070888D01*
X14721067Y-14070888D02*
X14730591Y-14089936D01*
X14730591Y-14089936D02*
X14730591Y-14137555D01*
X14730591Y-14137555D02*
X14721067Y-14156602D01*
X14721067Y-14156602D02*
X14711543Y-14166126D01*
X14711543Y-14166126D02*
X14692496Y-14175650D01*
X14692496Y-14175650D02*
X14644877Y-14175650D01*
X14644877Y-14175650D02*
X14625829Y-14166126D01*
X14625829Y-14166126D02*
X14616305Y-14156602D01*
X14806781Y-13975650D02*
X14806781Y-14013745D01*
X14882972Y-13975650D02*
X14882972Y-14013745D01*
X15178210Y-14251840D02*
X15168686Y-14242316D01*
X15168686Y-14242316D02*
X15149639Y-14213745D01*
X15149639Y-14213745D02*
X15140115Y-14194697D01*
X15140115Y-14194697D02*
X15130591Y-14166126D01*
X15130591Y-14166126D02*
X15121067Y-14118507D01*
X15121067Y-14118507D02*
X15121067Y-14080412D01*
X15121067Y-14080412D02*
X15130591Y-14032793D01*
X15130591Y-14032793D02*
X15140115Y-14004221D01*
X15140115Y-14004221D02*
X15149639Y-13985174D01*
X15149639Y-13985174D02*
X15168686Y-13956602D01*
X15168686Y-13956602D02*
X15178210Y-13947078D01*
X15282972Y-14061364D02*
X15263924Y-14051840D01*
X15263924Y-14051840D02*
X15254400Y-14042316D01*
X15254400Y-14042316D02*
X15244877Y-14023269D01*
X15244877Y-14023269D02*
X15244877Y-14013745D01*
X15244877Y-14013745D02*
X15254400Y-13994697D01*
X15254400Y-13994697D02*
X15263924Y-13985174D01*
X15263924Y-13985174D02*
X15282972Y-13975650D01*
X15282972Y-13975650D02*
X15321067Y-13975650D01*
X15321067Y-13975650D02*
X15340115Y-13985174D01*
X15340115Y-13985174D02*
X15349639Y-13994697D01*
X15349639Y-13994697D02*
X15359162Y-14013745D01*
X15359162Y-14013745D02*
X15359162Y-14023269D01*
X15359162Y-14023269D02*
X15349639Y-14042316D01*
X15349639Y-14042316D02*
X15340115Y-14051840D01*
X15340115Y-14051840D02*
X15321067Y-14061364D01*
X15321067Y-14061364D02*
X15282972Y-14061364D01*
X15282972Y-14061364D02*
X15263924Y-14070888D01*
X15263924Y-14070888D02*
X15254400Y-14080412D01*
X15254400Y-14080412D02*
X15244877Y-14099459D01*
X15244877Y-14099459D02*
X15244877Y-14137555D01*
X15244877Y-14137555D02*
X15254400Y-14156602D01*
X15254400Y-14156602D02*
X15263924Y-14166126D01*
X15263924Y-14166126D02*
X15282972Y-14175650D01*
X15282972Y-14175650D02*
X15321067Y-14175650D01*
X15321067Y-14175650D02*
X15340115Y-14166126D01*
X15340115Y-14166126D02*
X15349639Y-14156602D01*
X15349639Y-14156602D02*
X15359162Y-14137555D01*
X15359162Y-14137555D02*
X15359162Y-14099459D01*
X15359162Y-14099459D02*
X15349639Y-14080412D01*
X15349639Y-14080412D02*
X15340115Y-14070888D01*
X15340115Y-14070888D02*
X15321067Y-14061364D01*
X15597258Y-14175650D02*
X15597258Y-13975650D01*
X15682972Y-14175650D02*
X15682972Y-14070888D01*
X15682972Y-14070888D02*
X15673448Y-14051840D01*
X15673448Y-14051840D02*
X15654401Y-14042316D01*
X15654401Y-14042316D02*
X15625829Y-14042316D01*
X15625829Y-14042316D02*
X15606781Y-14051840D01*
X15606781Y-14051840D02*
X15597258Y-14061364D01*
X15806781Y-14175650D02*
X15787734Y-14166126D01*
X15787734Y-14166126D02*
X15778210Y-14156602D01*
X15778210Y-14156602D02*
X15768686Y-14137555D01*
X15768686Y-14137555D02*
X15768686Y-14080412D01*
X15768686Y-14080412D02*
X15778210Y-14061364D01*
X15778210Y-14061364D02*
X15787734Y-14051840D01*
X15787734Y-14051840D02*
X15806781Y-14042316D01*
X15806781Y-14042316D02*
X15835353Y-14042316D01*
X15835353Y-14042316D02*
X15854401Y-14051840D01*
X15854401Y-14051840D02*
X15863924Y-14061364D01*
X15863924Y-14061364D02*
X15873448Y-14080412D01*
X15873448Y-14080412D02*
X15873448Y-14137555D01*
X15873448Y-14137555D02*
X15863924Y-14156602D01*
X15863924Y-14156602D02*
X15854401Y-14166126D01*
X15854401Y-14166126D02*
X15835353Y-14175650D01*
X15835353Y-14175650D02*
X15806781Y-14175650D01*
X15987734Y-14175650D02*
X15968686Y-14166126D01*
X15968686Y-14166126D02*
X15959162Y-14147078D01*
X15959162Y-14147078D02*
X15959162Y-13975650D01*
X16140115Y-14166126D02*
X16121067Y-14175650D01*
X16121067Y-14175650D02*
X16082972Y-14175650D01*
X16082972Y-14175650D02*
X16063924Y-14166126D01*
X16063924Y-14166126D02*
X16054401Y-14147078D01*
X16054401Y-14147078D02*
X16054401Y-14070888D01*
X16054401Y-14070888D02*
X16063924Y-14051840D01*
X16063924Y-14051840D02*
X16082972Y-14042316D01*
X16082972Y-14042316D02*
X16121067Y-14042316D01*
X16121067Y-14042316D02*
X16140115Y-14051840D01*
X16140115Y-14051840D02*
X16149639Y-14070888D01*
X16149639Y-14070888D02*
X16149639Y-14089936D01*
X16149639Y-14089936D02*
X16054401Y-14108983D01*
X16225829Y-14166126D02*
X16244877Y-14175650D01*
X16244877Y-14175650D02*
X16282972Y-14175650D01*
X16282972Y-14175650D02*
X16302020Y-14166126D01*
X16302020Y-14166126D02*
X16311543Y-14147078D01*
X16311543Y-14147078D02*
X16311543Y-14137555D01*
X16311543Y-14137555D02*
X16302020Y-14118507D01*
X16302020Y-14118507D02*
X16282972Y-14108983D01*
X16282972Y-14108983D02*
X16254401Y-14108983D01*
X16254401Y-14108983D02*
X16235353Y-14099459D01*
X16235353Y-14099459D02*
X16225829Y-14080412D01*
X16225829Y-14080412D02*
X16225829Y-14070888D01*
X16225829Y-14070888D02*
X16235353Y-14051840D01*
X16235353Y-14051840D02*
X16254401Y-14042316D01*
X16254401Y-14042316D02*
X16282972Y-14042316D01*
X16282972Y-14042316D02*
X16302020Y-14051840D01*
X16378210Y-14251840D02*
X16387734Y-14242316D01*
X16387734Y-14242316D02*
X16406782Y-14213745D01*
X16406782Y-14213745D02*
X16416305Y-14194697D01*
X16416305Y-14194697D02*
X16425829Y-14166126D01*
X16425829Y-14166126D02*
X16435353Y-14118507D01*
X16435353Y-14118507D02*
X16435353Y-14080412D01*
X16435353Y-14080412D02*
X16425829Y-14032793D01*
X16425829Y-14032793D02*
X16416305Y-14004221D01*
X16416305Y-14004221D02*
X16406782Y-13985174D01*
X16406782Y-13985174D02*
X16387734Y-13956602D01*
X16387734Y-13956602D02*
X16378210Y-13947078D01*
X16740115Y-14251840D02*
X16730591Y-14242316D01*
X16730591Y-14242316D02*
X16711543Y-14213745D01*
X16711543Y-14213745D02*
X16702020Y-14194697D01*
X16702020Y-14194697D02*
X16692496Y-14166126D01*
X16692496Y-14166126D02*
X16682972Y-14118507D01*
X16682972Y-14118507D02*
X16682972Y-14080412D01*
X16682972Y-14080412D02*
X16692496Y-14032793D01*
X16692496Y-14032793D02*
X16702020Y-14004221D01*
X16702020Y-14004221D02*
X16711543Y-13985174D01*
X16711543Y-13985174D02*
X16730591Y-13956602D01*
X16730591Y-13956602D02*
X16740115Y-13947078D01*
X16816305Y-14042316D02*
X16816305Y-14175650D01*
X16816305Y-14061364D02*
X16825829Y-14051840D01*
X16825829Y-14051840D02*
X16844877Y-14042316D01*
X16844877Y-14042316D02*
X16873448Y-14042316D01*
X16873448Y-14042316D02*
X16892496Y-14051840D01*
X16892496Y-14051840D02*
X16902020Y-14070888D01*
X16902020Y-14070888D02*
X16902020Y-14175650D01*
X17025829Y-14175650D02*
X17006782Y-14166126D01*
X17006782Y-14166126D02*
X16997258Y-14156602D01*
X16997258Y-14156602D02*
X16987734Y-14137555D01*
X16987734Y-14137555D02*
X16987734Y-14080412D01*
X16987734Y-14080412D02*
X16997258Y-14061364D01*
X16997258Y-14061364D02*
X17006782Y-14051840D01*
X17006782Y-14051840D02*
X17025829Y-14042316D01*
X17025829Y-14042316D02*
X17054401Y-14042316D01*
X17054401Y-14042316D02*
X17073448Y-14051840D01*
X17073448Y-14051840D02*
X17082972Y-14061364D01*
X17082972Y-14061364D02*
X17092496Y-14080412D01*
X17092496Y-14080412D02*
X17092496Y-14137555D01*
X17092496Y-14137555D02*
X17082972Y-14156602D01*
X17082972Y-14156602D02*
X17073448Y-14166126D01*
X17073448Y-14166126D02*
X17054401Y-14175650D01*
X17054401Y-14175650D02*
X17025829Y-14175650D01*
X17149639Y-14042316D02*
X17225829Y-14042316D01*
X17178210Y-13975650D02*
X17178210Y-14147078D01*
X17178210Y-14147078D02*
X17187734Y-14166126D01*
X17187734Y-14166126D02*
X17206782Y-14175650D01*
X17206782Y-14175650D02*
X17225829Y-14175650D01*
X17444877Y-14042316D02*
X17444877Y-14242316D01*
X17444877Y-14051840D02*
X17463925Y-14042316D01*
X17463925Y-14042316D02*
X17502020Y-14042316D01*
X17502020Y-14042316D02*
X17521067Y-14051840D01*
X17521067Y-14051840D02*
X17530591Y-14061364D01*
X17530591Y-14061364D02*
X17540115Y-14080412D01*
X17540115Y-14080412D02*
X17540115Y-14137555D01*
X17540115Y-14137555D02*
X17530591Y-14156602D01*
X17530591Y-14156602D02*
X17521067Y-14166126D01*
X17521067Y-14166126D02*
X17502020Y-14175650D01*
X17502020Y-14175650D02*
X17463925Y-14175650D01*
X17463925Y-14175650D02*
X17444877Y-14166126D01*
X17654401Y-14175650D02*
X17635353Y-14166126D01*
X17635353Y-14166126D02*
X17625829Y-14147078D01*
X17625829Y-14147078D02*
X17625829Y-13975650D01*
X17816306Y-14175650D02*
X17816306Y-14070888D01*
X17816306Y-14070888D02*
X17806782Y-14051840D01*
X17806782Y-14051840D02*
X17787734Y-14042316D01*
X17787734Y-14042316D02*
X17749639Y-14042316D01*
X17749639Y-14042316D02*
X17730591Y-14051840D01*
X17816306Y-14166126D02*
X17797258Y-14175650D01*
X17797258Y-14175650D02*
X17749639Y-14175650D01*
X17749639Y-14175650D02*
X17730591Y-14166126D01*
X17730591Y-14166126D02*
X17721067Y-14147078D01*
X17721067Y-14147078D02*
X17721067Y-14128031D01*
X17721067Y-14128031D02*
X17730591Y-14108983D01*
X17730591Y-14108983D02*
X17749639Y-14099459D01*
X17749639Y-14099459D02*
X17797258Y-14099459D01*
X17797258Y-14099459D02*
X17816306Y-14089936D01*
X17882972Y-14042316D02*
X17959163Y-14042316D01*
X17911544Y-13975650D02*
X17911544Y-14147078D01*
X17911544Y-14147078D02*
X17921067Y-14166126D01*
X17921067Y-14166126D02*
X17940115Y-14175650D01*
X17940115Y-14175650D02*
X17959163Y-14175650D01*
X18102020Y-14166126D02*
X18082972Y-14175650D01*
X18082972Y-14175650D02*
X18044877Y-14175650D01*
X18044877Y-14175650D02*
X18025829Y-14166126D01*
X18025829Y-14166126D02*
X18016306Y-14147078D01*
X18016306Y-14147078D02*
X18016306Y-14070888D01*
X18016306Y-14070888D02*
X18025829Y-14051840D01*
X18025829Y-14051840D02*
X18044877Y-14042316D01*
X18044877Y-14042316D02*
X18082972Y-14042316D01*
X18082972Y-14042316D02*
X18102020Y-14051840D01*
X18102020Y-14051840D02*
X18111544Y-14070888D01*
X18111544Y-14070888D02*
X18111544Y-14089936D01*
X18111544Y-14089936D02*
X18016306Y-14108983D01*
X18282972Y-14175650D02*
X18282972Y-13975650D01*
X18282972Y-14166126D02*
X18263925Y-14175650D01*
X18263925Y-14175650D02*
X18225829Y-14175650D01*
X18225829Y-14175650D02*
X18206782Y-14166126D01*
X18206782Y-14166126D02*
X18197258Y-14156602D01*
X18197258Y-14156602D02*
X18187734Y-14137555D01*
X18187734Y-14137555D02*
X18187734Y-14080412D01*
X18187734Y-14080412D02*
X18197258Y-14061364D01*
X18197258Y-14061364D02*
X18206782Y-14051840D01*
X18206782Y-14051840D02*
X18225829Y-14042316D01*
X18225829Y-14042316D02*
X18263925Y-14042316D01*
X18263925Y-14042316D02*
X18282972Y-14051840D01*
X18359163Y-14251840D02*
X18368687Y-14242316D01*
X18368687Y-14242316D02*
X18387734Y-14213745D01*
X18387734Y-14213745D02*
X18397258Y-14194697D01*
X18397258Y-14194697D02*
X18406782Y-14166126D01*
X18406782Y-14166126D02*
X18416306Y-14118507D01*
X18416306Y-14118507D02*
X18416306Y-14080412D01*
X18416306Y-14080412D02*
X18406782Y-14032793D01*
X18406782Y-14032793D02*
X18397258Y-14004221D01*
X18397258Y-14004221D02*
X18387734Y-13985174D01*
X18387734Y-13985174D02*
X18368687Y-13956602D01*
X18368687Y-13956602D02*
X18359163Y-13947078D01*
M02*
