%TF.GenerationSoftware,KiCad,Pcbnew,9.0.3*%
%TF.CreationDate,2025-07-27T16:49:54-04:00*%
%TF.ProjectId,hackpad,6861636b-7061-4642-9e6b-696361645f70,rev?*%
%TF.SameCoordinates,Original*%
%TF.FileFunction,Soldermask,Bot*%
%TF.FilePolarity,Negative*%
%FSLAX46Y46*%
G04 Gerber Fmt 4.6, Leading zero omitted, Abs format (unit mm)*
G04 Created by KiCad (PCBNEW 9.0.3) date 2025-07-27 16:49:54*
%MOMM*%
%LPD*%
G01*
G04 APERTURE LIST*
G04 Aperture macros list*
%AMRoundRect*
0 Rectangle with rounded corners*
0 $1 Rounding radius*
0 $2 $3 $4 $5 $6 $7 $8 $9 X,Y pos of 4 corners*
0 Add a 4 corners polygon primitive as box body*
4,1,4,$2,$3,$4,$5,$6,$7,$8,$9,$2,$3,0*
0 Add four circle primitives for the rounded corners*
1,1,$1+$1,$2,$3*
1,1,$1+$1,$4,$5*
1,1,$1+$1,$6,$7*
1,1,$1+$1,$8,$9*
0 Add four rect primitives between the rounded corners*
20,1,$1+$1,$2,$3,$4,$5,0*
20,1,$1+$1,$4,$5,$6,$7,0*
20,1,$1+$1,$6,$7,$8,$9,0*
20,1,$1+$1,$8,$9,$2,$3,0*%
%AMRotRect*
0 Rectangle, with rotation*
0 The origin of the aperture is its center*
0 $1 length*
0 $2 width*
0 $3 Rotation angle, in degrees counterclockwise*
0 Add horizontal line*
21,1,$1,$2,0,0,$3*%
G04 Aperture macros list end*
%ADD10C,0.000000*%
%ADD11R,1.600000X0.850000*%
%ADD12R,0.850000X1.600000*%
%ADD13RotRect,1.600000X0.850000X225.000000*%
%ADD14RotRect,1.600000X0.850000X45.000000*%
%ADD15RotRect,1.600000X0.850000X135.000000*%
%ADD16RotRect,1.600000X0.850000X315.000000*%
%ADD17C,3.500000*%
%ADD18C,1.700000*%
%ADD19C,4.000000*%
%ADD20C,2.200000*%
%ADD21R,1.600000X1.600000*%
%ADD22O,1.600000X1.600000*%
%ADD23R,1.700000X1.700000*%
%ADD24O,1.700000X1.700000*%
%ADD25RoundRect,0.152400X-1.063600X-0.609600X1.063600X-0.609600X1.063600X0.609600X-1.063600X0.609600X0*%
%ADD26C,1.524000*%
%ADD27RoundRect,0.152400X1.063600X0.609600X-1.063600X0.609600X-1.063600X-0.609600X1.063600X-0.609600X0*%
%ADD28R,2.000000X2.000000*%
%ADD29C,2.000000*%
%ADD30R,3.200000X2.000000*%
G04 APERTURE END LIST*
D10*
G36*
X149772515Y-123097039D02*
G01*
X149805676Y-123125799D01*
X149825306Y-123165059D01*
X149828417Y-123208844D01*
X149323528Y-124730350D01*
X149314536Y-124750488D01*
X149309271Y-124756558D01*
X149305676Y-124763749D01*
X149295018Y-124772991D01*
X149285776Y-124783649D01*
X149278585Y-124787244D01*
X149272515Y-124792509D01*
X149259136Y-124796968D01*
X149246516Y-124803279D01*
X149238497Y-124803848D01*
X149230871Y-124806391D01*
X149216796Y-124805390D01*
X149202731Y-124806390D01*
X149195108Y-124803849D01*
X149187086Y-124803279D01*
X149174463Y-124796967D01*
X149161087Y-124792509D01*
X149155016Y-124787244D01*
X149147826Y-124783649D01*
X149138583Y-124772991D01*
X149127926Y-124763749D01*
X149124330Y-124756558D01*
X149119066Y-124750488D01*
X149114546Y-124736989D01*
X149108296Y-124724489D01*
X149107739Y-124716661D01*
X148610074Y-123230350D01*
X148605185Y-123208844D01*
X148608296Y-123165059D01*
X148627926Y-123125799D01*
X148661087Y-123097039D01*
X148702731Y-123083158D01*
X148746516Y-123086269D01*
X148785776Y-123105899D01*
X148814536Y-123139060D01*
X149217449Y-124342389D01*
X149610074Y-123159198D01*
X149619066Y-123139060D01*
X149647826Y-123105899D01*
X149687086Y-123086269D01*
X149730871Y-123083157D01*
X149772515Y-123097039D01*
G37*
G36*
X147870586Y-123084436D02*
G01*
X147881607Y-123084436D01*
X147891897Y-123088698D01*
X147902819Y-123090883D01*
X147911975Y-123097015D01*
X147922161Y-123101234D01*
X147930039Y-123109112D01*
X147939291Y-123115308D01*
X147945722Y-123124795D01*
X147953199Y-123132272D01*
X147956981Y-123141404D01*
X148094853Y-123344786D01*
X148215289Y-123462919D01*
X148338542Y-123522723D01*
X148357206Y-123534472D01*
X148385966Y-123567633D01*
X148399846Y-123609275D01*
X148396734Y-123653060D01*
X148377103Y-123692322D01*
X148343943Y-123721082D01*
X148302301Y-123734962D01*
X148258516Y-123731851D01*
X148095061Y-123652540D01*
X148085612Y-123646592D01*
X148082872Y-123645457D01*
X148081192Y-123643810D01*
X148076397Y-123640791D01*
X148066608Y-123629504D01*
X147970511Y-123535246D01*
X147972000Y-124583051D01*
X148288230Y-124582274D01*
X148310178Y-124584436D01*
X148350732Y-124601234D01*
X148381770Y-124632272D01*
X148398568Y-124672826D01*
X148398568Y-124716722D01*
X148381770Y-124757276D01*
X148350732Y-124788314D01*
X148310178Y-124805112D01*
X147431087Y-124807274D01*
X147409139Y-124805112D01*
X147368585Y-124788314D01*
X147337547Y-124757276D01*
X147320749Y-124716722D01*
X147320749Y-124672826D01*
X147337547Y-124632272D01*
X147368585Y-124601234D01*
X147409139Y-124584436D01*
X147749131Y-124583599D01*
X147747159Y-123194774D01*
X147747166Y-123194695D01*
X147747159Y-123194656D01*
X147747181Y-123194541D01*
X147749321Y-123172826D01*
X147753583Y-123162535D01*
X147755768Y-123151614D01*
X147761900Y-123142457D01*
X147766119Y-123132272D01*
X147773997Y-123124393D01*
X147780193Y-123115142D01*
X147789361Y-123109029D01*
X147797157Y-123101234D01*
X147807449Y-123096970D01*
X147816716Y-123090793D01*
X147827527Y-123088654D01*
X147837711Y-123084436D01*
X147848849Y-123084436D01*
X147859777Y-123082274D01*
X147870586Y-123084436D01*
G37*
D11*
%TO.C,D12*%
X158750000Y-71576500D03*
X158750000Y-73326500D03*
X162250000Y-73326500D03*
X162250000Y-71576500D03*
%TD*%
D12*
%TO.C,D20*%
X118677000Y-110823653D03*
X120427000Y-110823653D03*
X120427000Y-107323653D03*
X118677000Y-107323653D03*
%TD*%
D13*
%TO.C,D10*%
X118339690Y-73688936D03*
X119577127Y-74926373D03*
X122052000Y-72451500D03*
X120814563Y-71214063D03*
%TD*%
D12*
%TO.C,D15*%
X176052000Y-107402797D03*
X174302000Y-107402797D03*
X174302000Y-110902797D03*
X176052000Y-110902797D03*
%TD*%
D11*
%TO.C,D18*%
X140236171Y-128701500D03*
X140236171Y-126951500D03*
X136736171Y-126951500D03*
X136736171Y-128701500D03*
%TD*%
D14*
%TO.C,D16*%
X176408155Y-126832782D03*
X175170718Y-125595345D03*
X172695845Y-128070218D03*
X173933282Y-129307655D03*
%TD*%
D15*
%TO.C,D13*%
X173814564Y-71214063D03*
X172577127Y-72451500D03*
X175052000Y-74926373D03*
X176289437Y-73688936D03*
%TD*%
D12*
%TO.C,D14*%
X176052000Y-89618919D03*
X174302000Y-89618919D03*
X174302000Y-93118919D03*
X176052000Y-93118919D03*
%TD*%
%TO.C,D21*%
X118677000Y-93079347D03*
X120427000Y-93079347D03*
X120427000Y-89579347D03*
X118677000Y-89579347D03*
%TD*%
D16*
%TO.C,D19*%
X120814563Y-129188937D03*
X122052000Y-127951500D03*
X119577127Y-125476627D03*
X118339690Y-126714064D03*
%TD*%
D11*
%TO.C,D11*%
X132802000Y-71576500D03*
X132802000Y-73326500D03*
X136302000Y-73326500D03*
X136302000Y-71576500D03*
%TD*%
%TO.C,D17*%
X158011674Y-128826500D03*
X158011674Y-127076500D03*
X154511674Y-127076500D03*
X154511674Y-128826500D03*
%TD*%
D17*
%TO.C,REF\u002A\u002A*%
X166422000Y-128791661D03*
%TD*%
D18*
%TO.C,SW4*%
X123230000Y-100156500D03*
D19*
X128310000Y-100156500D03*
D18*
X133390000Y-100156500D03*
D20*
X130850000Y-95076500D03*
X124500000Y-97616500D03*
%TD*%
D18*
%TO.C,SW1*%
X123230000Y-81106500D03*
D19*
X128310000Y-81106500D03*
D18*
X133390000Y-81106500D03*
D20*
X130850000Y-76026500D03*
X124500000Y-78566500D03*
%TD*%
D18*
%TO.C,SW9*%
X161330000Y-119206500D03*
D19*
X166410000Y-119206500D03*
D18*
X171490000Y-119206500D03*
D20*
X168950000Y-114126500D03*
X162600000Y-116666500D03*
%TD*%
D17*
%TO.C,REF\u002A\u002A*%
X118922000Y-100266661D03*
%TD*%
D18*
%TO.C,SW7*%
X123230000Y-119206500D03*
D19*
X128310000Y-119206500D03*
D18*
X133390000Y-119206500D03*
D20*
X130850000Y-114126500D03*
X124500000Y-116666500D03*
%TD*%
D17*
%TO.C,REF\u002A\u002A*%
X175672000Y-100266661D03*
%TD*%
%TO.C,REF\u002A\u002A*%
X128285000Y-72016661D03*
%TD*%
D18*
%TO.C,SW5*%
X142280000Y-100156500D03*
D19*
X147360000Y-100156500D03*
D18*
X152440000Y-100156500D03*
D20*
X149900000Y-95076500D03*
X143550000Y-97616500D03*
%TD*%
D18*
%TO.C,SW8*%
X142280000Y-119206500D03*
D19*
X147360000Y-119206500D03*
D18*
X152440000Y-119206500D03*
D20*
X149900000Y-114126500D03*
X143550000Y-116666500D03*
%TD*%
D18*
%TO.C,SW6*%
X161330000Y-100156500D03*
D19*
X166410000Y-100156500D03*
D18*
X171490000Y-100156500D03*
D20*
X168950000Y-95076500D03*
X162600000Y-97616500D03*
%TD*%
D17*
%TO.C,REF\u002A\u002A*%
X166422000Y-71766661D03*
%TD*%
%TO.C,REF\u002A\u002A*%
X128285000Y-128516661D03*
%TD*%
D21*
%TO.C,D7*%
X128932000Y-110951500D03*
D22*
X136552000Y-110951500D03*
%TD*%
D21*
%TO.C,D8*%
X142052000Y-110951500D03*
D22*
X149672000Y-110951500D03*
%TD*%
D21*
%TO.C,D2*%
X141100000Y-90800000D03*
D22*
X148720000Y-90800000D03*
%TD*%
D21*
%TO.C,D6*%
X158742000Y-108451500D03*
D22*
X166362000Y-108451500D03*
%TD*%
D21*
%TO.C,D5*%
X139552000Y-108451500D03*
D22*
X147172000Y-108451500D03*
%TD*%
D23*
%TO.C,OL1*%
X157552000Y-103324000D03*
D24*
X157552000Y-100784000D03*
X157552000Y-98244000D03*
X157552000Y-95704000D03*
%TD*%
D21*
%TO.C,D3*%
X154200000Y-91800000D03*
D22*
X161820000Y-91800000D03*
%TD*%
D21*
%TO.C,D9*%
X161052000Y-110951500D03*
D22*
X168672000Y-110951500D03*
%TD*%
D21*
%TO.C,D1*%
X130552000Y-89451500D03*
D22*
X122932000Y-89451500D03*
%TD*%
D21*
%TO.C,D4*%
X125742000Y-108451500D03*
D22*
X133362000Y-108451500D03*
%TD*%
D18*
%TO.C,SW2*%
X142280000Y-81106500D03*
D19*
X147360000Y-81106500D03*
D18*
X152440000Y-81106500D03*
D20*
X149900000Y-76026500D03*
X143550000Y-78566500D03*
%TD*%
D25*
%TO.C,U1*%
X155875000Y-70500000D03*
D26*
X155040000Y-70500000D03*
D25*
X155875000Y-73040000D03*
D26*
X155040000Y-73040000D03*
D25*
X155875000Y-75580000D03*
D26*
X155040000Y-75580000D03*
D25*
X155875000Y-78120000D03*
D26*
X155040000Y-78120000D03*
D25*
X155875000Y-80660000D03*
D26*
X155040000Y-80660000D03*
D25*
X155875000Y-83200000D03*
D26*
X155040000Y-83200000D03*
D25*
X155875000Y-85740000D03*
D26*
X155040000Y-85740000D03*
X139800000Y-85740000D03*
D27*
X138965000Y-85740000D03*
D26*
X139800000Y-83200000D03*
D27*
X138965000Y-83200000D03*
D26*
X139800000Y-80660000D03*
D27*
X138965000Y-80660000D03*
D26*
X139800000Y-78120000D03*
D27*
X138965000Y-78120000D03*
D26*
X139800000Y-75580000D03*
D27*
X138965000Y-75580000D03*
D26*
X139800000Y-73040000D03*
D27*
X138965000Y-73040000D03*
D26*
X139800000Y-70500000D03*
D27*
X138965000Y-70500000D03*
%TD*%
D28*
%TO.C,SW3*%
X159160000Y-78606500D03*
D29*
X159160000Y-83606500D03*
X159160000Y-81106500D03*
D30*
X166660000Y-75506500D03*
X166660000Y-86706500D03*
D29*
X173660000Y-83606500D03*
X173660000Y-78606500D03*
%TD*%
M02*
