M48
; DRILL file {KiCad 9.0.3} date 2025-07-27T16:58:04-0400
; FORMAT={-:-/ absolute / metric / decimal}
; #@! TF.CreationDate,2025-07-27T16:58:04-04:00
; #@! TF.GenerationSoftware,Kicad,Pcbnew,9.0.3
; #@! TF.FileFunction,Plated,1,2,PTH
FMAT,2
METRIC
; #@! TA.AperFunction,Plated,PTH,ComponentDrill
T1C0.800
; #@! TA.AperFunction,Plated,PTH,ComponentDrill
T2C0.889
; #@! TA.AperFunction,Plated,PTH,ComponentDrill
T3C1.000
; #@! TA.AperFunction,Plated,PTH,ComponentDrill
T4C1.500
; #@! TA.AperFunction,Plated,PTH,ComponentDrill
T5C2.200
%
G90
G05
T1
X122.932Y-89.451
X125.742Y-108.451
X128.932Y-110.951
X130.552Y-89.451
X133.362Y-108.451
X136.552Y-110.951
X139.552Y-108.451
X141.1Y-90.8
X142.052Y-110.951
X147.172Y-108.451
X148.72Y-90.8
X149.672Y-110.951
X154.2Y-91.8
X158.742Y-108.451
X161.052Y-110.951
X161.82Y-91.8
X166.362Y-108.451
X168.672Y-110.951
T2
X139.8Y-70.5
X139.8Y-73.04
X139.8Y-75.58
X139.8Y-78.12
X139.8Y-80.66
X139.8Y-83.2
X139.8Y-85.74
X155.04Y-70.5
X155.04Y-73.04
X155.04Y-75.58
X155.04Y-78.12
X155.04Y-80.66
X155.04Y-83.2
X155.04Y-85.74
T3
X157.552Y-95.704
X157.552Y-98.244
X157.552Y-100.784
X157.552Y-103.324
X159.16Y-78.606
X159.16Y-81.106
X159.16Y-83.606
X173.66Y-78.606
X173.66Y-83.606
T4
X124.5Y-78.566
X124.5Y-97.617
X124.5Y-116.666
X130.85Y-76.026
X130.85Y-95.076
X130.85Y-114.126
X143.55Y-78.566
X143.55Y-97.617
X143.55Y-116.666
X149.9Y-76.026
X149.9Y-95.076
X149.9Y-114.126
X162.6Y-97.617
X162.6Y-116.666
X168.95Y-95.076
X168.95Y-114.126
T5
X118.922Y-100.267
X128.285Y-72.017
X128.285Y-128.517
X166.422Y-71.767
X166.422Y-128.792
X175.672Y-100.267
T4
X166.01Y-75.507G85X167.31Y-75.507
G05
X166.01Y-86.706G85X167.31Y-86.706
G05
M30
