%TF.GenerationSoftware,KiCad,Pcbnew,9.0.3*%
%TF.CreationDate,2025-07-27T16:49:54-04:00*%
%TF.ProjectId,hackpad,6861636b-7061-4642-9e6b-696361645f70,rev?*%
%TF.SameCoordinates,Original*%
%TF.FileFunction,Legend,Bot*%
%TF.FilePolarity,Positive*%
%FSLAX46Y46*%
G04 Gerber Fmt 4.6, Leading zero omitted, Abs format (unit mm)*
G04 Created by KiCad (PCBNEW 9.0.3) date 2025-07-27 16:49:54*
%MOMM*%
%LPD*%
G01*
G04 APERTURE LIST*
%ADD10C,0.150000*%
%ADD11C,0.225000*%
%ADD12C,0.300000*%
%ADD13C,0.120000*%
%ADD14C,0.040000*%
%ADD15C,0.100000*%
%ADD16C,0.127000*%
%ADD17C,0.504000*%
G04 APERTURE END LIST*
D10*
X150930458Y-85136480D02*
X150263792Y-86136480D01*
X150263792Y-85136480D02*
X150930458Y-86136480D01*
X149882839Y-86136480D02*
X149882839Y-85136480D01*
X149454268Y-85850765D02*
X148978078Y-85850765D01*
X149549506Y-86136480D02*
X149216173Y-85136480D01*
X149216173Y-85136480D02*
X148882840Y-86136480D01*
X148359030Y-85136480D02*
X148168554Y-85136480D01*
X148168554Y-85136480D02*
X148073316Y-85184099D01*
X148073316Y-85184099D02*
X147978078Y-85279337D01*
X147978078Y-85279337D02*
X147930459Y-85469813D01*
X147930459Y-85469813D02*
X147930459Y-85803146D01*
X147930459Y-85803146D02*
X147978078Y-85993622D01*
X147978078Y-85993622D02*
X148073316Y-86088861D01*
X148073316Y-86088861D02*
X148168554Y-86136480D01*
X148168554Y-86136480D02*
X148359030Y-86136480D01*
X148359030Y-86136480D02*
X148454268Y-86088861D01*
X148454268Y-86088861D02*
X148549506Y-85993622D01*
X148549506Y-85993622D02*
X148597125Y-85803146D01*
X148597125Y-85803146D02*
X148597125Y-85469813D01*
X148597125Y-85469813D02*
X148549506Y-85279337D01*
X148549506Y-85279337D02*
X148454268Y-85184099D01*
X148454268Y-85184099D02*
X148359030Y-85136480D01*
X146739982Y-86136480D02*
X146739982Y-85136480D01*
X146739982Y-85612670D02*
X146168554Y-85612670D01*
X146168554Y-86136480D02*
X146168554Y-85136480D01*
X145692363Y-85612670D02*
X145359030Y-85612670D01*
X145216173Y-86136480D02*
X145692363Y-86136480D01*
X145692363Y-86136480D02*
X145692363Y-85136480D01*
X145692363Y-85136480D02*
X145216173Y-85136480D01*
X144216173Y-86136480D02*
X144549506Y-85660289D01*
X144787601Y-86136480D02*
X144787601Y-85136480D01*
X144787601Y-85136480D02*
X144406649Y-85136480D01*
X144406649Y-85136480D02*
X144311411Y-85184099D01*
X144311411Y-85184099D02*
X144263792Y-85231718D01*
X144263792Y-85231718D02*
X144216173Y-85326956D01*
X144216173Y-85326956D02*
X144216173Y-85469813D01*
X144216173Y-85469813D02*
X144263792Y-85565051D01*
X144263792Y-85565051D02*
X144311411Y-85612670D01*
X144311411Y-85612670D02*
X144406649Y-85660289D01*
X144406649Y-85660289D02*
X144787601Y-85660289D01*
X143787601Y-85612670D02*
X143454268Y-85612670D01*
X143311411Y-86136480D02*
X143787601Y-86136480D01*
X143787601Y-86136480D02*
X143787601Y-85136480D01*
X143787601Y-85136480D02*
X143311411Y-85136480D01*
D11*
X137266831Y-123735675D02*
X137052545Y-123807103D01*
X137052545Y-123807103D02*
X136981116Y-123878532D01*
X136981116Y-123878532D02*
X136909688Y-124021389D01*
X136909688Y-124021389D02*
X136909688Y-124235675D01*
X136909688Y-124235675D02*
X136981116Y-124378532D01*
X136981116Y-124378532D02*
X137052545Y-124449961D01*
X137052545Y-124449961D02*
X137195402Y-124521389D01*
X137195402Y-124521389D02*
X137766831Y-124521389D01*
X137766831Y-124521389D02*
X137766831Y-123021389D01*
X137766831Y-123021389D02*
X137266831Y-123021389D01*
X137266831Y-123021389D02*
X137123974Y-123092818D01*
X137123974Y-123092818D02*
X137052545Y-123164246D01*
X137052545Y-123164246D02*
X136981116Y-123307103D01*
X136981116Y-123307103D02*
X136981116Y-123449961D01*
X136981116Y-123449961D02*
X137052545Y-123592818D01*
X137052545Y-123592818D02*
X137123974Y-123664246D01*
X137123974Y-123664246D02*
X137266831Y-123735675D01*
X137266831Y-123735675D02*
X137766831Y-123735675D01*
X135981116Y-123807103D02*
X135981116Y-124521389D01*
X136481116Y-123021389D02*
X135981116Y-123807103D01*
X135981116Y-123807103D02*
X135481116Y-123021389D01*
X133909688Y-124449961D02*
X133695403Y-124521389D01*
X133695403Y-124521389D02*
X133338260Y-124521389D01*
X133338260Y-124521389D02*
X133195403Y-124449961D01*
X133195403Y-124449961D02*
X133123974Y-124378532D01*
X133123974Y-124378532D02*
X133052545Y-124235675D01*
X133052545Y-124235675D02*
X133052545Y-124092818D01*
X133052545Y-124092818D02*
X133123974Y-123949961D01*
X133123974Y-123949961D02*
X133195403Y-123878532D01*
X133195403Y-123878532D02*
X133338260Y-123807103D01*
X133338260Y-123807103D02*
X133623974Y-123735675D01*
X133623974Y-123735675D02*
X133766831Y-123664246D01*
X133766831Y-123664246D02*
X133838260Y-123592818D01*
X133838260Y-123592818D02*
X133909688Y-123449961D01*
X133909688Y-123449961D02*
X133909688Y-123307103D01*
X133909688Y-123307103D02*
X133838260Y-123164246D01*
X133838260Y-123164246D02*
X133766831Y-123092818D01*
X133766831Y-123092818D02*
X133623974Y-123021389D01*
X133623974Y-123021389D02*
X133266831Y-123021389D01*
X133266831Y-123021389D02*
X133052545Y-123092818D01*
X132481117Y-124092818D02*
X131766832Y-124092818D01*
X132623974Y-124521389D02*
X132123974Y-123021389D01*
X132123974Y-123021389D02*
X131623974Y-124521389D01*
X131123975Y-124521389D02*
X131123975Y-123021389D01*
X131123975Y-123021389D02*
X130623975Y-124092818D01*
X130623975Y-124092818D02*
X130123975Y-123021389D01*
X130123975Y-123021389D02*
X130123975Y-124521389D01*
X127552546Y-124521389D02*
X128266832Y-124521389D01*
X128266832Y-124521389D02*
X128266832Y-123021389D01*
X127052546Y-124521389D02*
X127052546Y-123021389D01*
X126338260Y-123021389D02*
X126338260Y-124235675D01*
X126338260Y-124235675D02*
X126266831Y-124378532D01*
X126266831Y-124378532D02*
X126195403Y-124449961D01*
X126195403Y-124449961D02*
X126052545Y-124521389D01*
X126052545Y-124521389D02*
X125766831Y-124521389D01*
X125766831Y-124521389D02*
X125623974Y-124449961D01*
X125623974Y-124449961D02*
X125552545Y-124378532D01*
X125552545Y-124378532D02*
X125481117Y-124235675D01*
X125481117Y-124235675D02*
X125481117Y-123021389D01*
D12*
X169393679Y-124561061D02*
X169107965Y-124656299D01*
X169107965Y-124656299D02*
X168631774Y-124656299D01*
X168631774Y-124656299D02*
X168441298Y-124561061D01*
X168441298Y-124561061D02*
X168346060Y-124465822D01*
X168346060Y-124465822D02*
X168250822Y-124275346D01*
X168250822Y-124275346D02*
X168250822Y-124084870D01*
X168250822Y-124084870D02*
X168346060Y-123894394D01*
X168346060Y-123894394D02*
X168441298Y-123799156D01*
X168441298Y-123799156D02*
X168631774Y-123703918D01*
X168631774Y-123703918D02*
X169012727Y-123608680D01*
X169012727Y-123608680D02*
X169203203Y-123513441D01*
X169203203Y-123513441D02*
X169298441Y-123418203D01*
X169298441Y-123418203D02*
X169393679Y-123227727D01*
X169393679Y-123227727D02*
X169393679Y-123037251D01*
X169393679Y-123037251D02*
X169298441Y-122846775D01*
X169298441Y-122846775D02*
X169203203Y-122751537D01*
X169203203Y-122751537D02*
X169012727Y-122656299D01*
X169012727Y-122656299D02*
X168536536Y-122656299D01*
X168536536Y-122656299D02*
X168250822Y-122751537D01*
X166060346Y-124846775D02*
X166250822Y-124751537D01*
X166250822Y-124751537D02*
X166441298Y-124561061D01*
X166441298Y-124561061D02*
X166727012Y-124275346D01*
X166727012Y-124275346D02*
X166917489Y-124180108D01*
X166917489Y-124180108D02*
X167107965Y-124180108D01*
X167012727Y-124656299D02*
X167203203Y-124561061D01*
X167203203Y-124561061D02*
X167393679Y-124370584D01*
X167393679Y-124370584D02*
X167488917Y-123989632D01*
X167488917Y-123989632D02*
X167488917Y-123322965D01*
X167488917Y-123322965D02*
X167393679Y-122942013D01*
X167393679Y-122942013D02*
X167203203Y-122751537D01*
X167203203Y-122751537D02*
X167012727Y-122656299D01*
X167012727Y-122656299D02*
X166631774Y-122656299D01*
X166631774Y-122656299D02*
X166441298Y-122751537D01*
X166441298Y-122751537D02*
X166250822Y-122942013D01*
X166250822Y-122942013D02*
X166155584Y-123322965D01*
X166155584Y-123322965D02*
X166155584Y-123989632D01*
X166155584Y-123989632D02*
X166250822Y-124370584D01*
X166250822Y-124370584D02*
X166441298Y-124561061D01*
X166441298Y-124561061D02*
X166631774Y-124656299D01*
X166631774Y-124656299D02*
X167012727Y-124656299D01*
X165298441Y-122656299D02*
X165298441Y-124275346D01*
X165298441Y-124275346D02*
X165203203Y-124465822D01*
X165203203Y-124465822D02*
X165107965Y-124561061D01*
X165107965Y-124561061D02*
X164917489Y-124656299D01*
X164917489Y-124656299D02*
X164536536Y-124656299D01*
X164536536Y-124656299D02*
X164346060Y-124561061D01*
X164346060Y-124561061D02*
X164250822Y-124465822D01*
X164250822Y-124465822D02*
X164155584Y-124275346D01*
X164155584Y-124275346D02*
X164155584Y-122656299D01*
X163298441Y-124084870D02*
X162346060Y-124084870D01*
X163488917Y-124656299D02*
X162822251Y-122656299D01*
X162822251Y-122656299D02*
X162155584Y-124656299D01*
X160346060Y-124656299D02*
X161012727Y-123703918D01*
X161488917Y-124656299D02*
X161488917Y-122656299D01*
X161488917Y-122656299D02*
X160727012Y-122656299D01*
X160727012Y-122656299D02*
X160536536Y-122751537D01*
X160536536Y-122751537D02*
X160441298Y-122846775D01*
X160441298Y-122846775D02*
X160346060Y-123037251D01*
X160346060Y-123037251D02*
X160346060Y-123322965D01*
X160346060Y-123322965D02*
X160441298Y-123513441D01*
X160441298Y-123513441D02*
X160536536Y-123608680D01*
X160536536Y-123608680D02*
X160727012Y-123703918D01*
X160727012Y-123703918D02*
X161488917Y-123703918D01*
X159488917Y-123608680D02*
X158822250Y-123608680D01*
X158536536Y-124656299D02*
X159488917Y-124656299D01*
X159488917Y-124656299D02*
X159488917Y-122656299D01*
X159488917Y-122656299D02*
X158536536Y-122656299D01*
X156155583Y-124656299D02*
X156155583Y-122656299D01*
X156155583Y-122656299D02*
X155393678Y-122656299D01*
X155393678Y-122656299D02*
X155203202Y-122751537D01*
X155203202Y-122751537D02*
X155107964Y-122846775D01*
X155107964Y-122846775D02*
X155012726Y-123037251D01*
X155012726Y-123037251D02*
X155012726Y-123322965D01*
X155012726Y-123322965D02*
X155107964Y-123513441D01*
X155107964Y-123513441D02*
X155203202Y-123608680D01*
X155203202Y-123608680D02*
X155393678Y-123703918D01*
X155393678Y-123703918D02*
X156155583Y-123703918D01*
X154250821Y-124084870D02*
X153298440Y-124084870D01*
X154441297Y-124656299D02*
X153774631Y-122656299D01*
X153774631Y-122656299D02*
X153107964Y-124656299D01*
X152441297Y-124656299D02*
X152441297Y-122656299D01*
X152441297Y-122656299D02*
X151965107Y-122656299D01*
X151965107Y-122656299D02*
X151679392Y-122751537D01*
X151679392Y-122751537D02*
X151488916Y-122942013D01*
X151488916Y-122942013D02*
X151393678Y-123132489D01*
X151393678Y-123132489D02*
X151298440Y-123513441D01*
X151298440Y-123513441D02*
X151298440Y-123799156D01*
X151298440Y-123799156D02*
X151393678Y-124180108D01*
X151393678Y-124180108D02*
X151488916Y-124370584D01*
X151488916Y-124370584D02*
X151679392Y-124561061D01*
X151679392Y-124561061D02*
X151965107Y-124656299D01*
X151965107Y-124656299D02*
X152441297Y-124656299D01*
D10*
X162084285Y-75721480D02*
X162084285Y-74721480D01*
X162084285Y-74721480D02*
X161846190Y-74721480D01*
X161846190Y-74721480D02*
X161703333Y-74769099D01*
X161703333Y-74769099D02*
X161608095Y-74864337D01*
X161608095Y-74864337D02*
X161560476Y-74959575D01*
X161560476Y-74959575D02*
X161512857Y-75150051D01*
X161512857Y-75150051D02*
X161512857Y-75292908D01*
X161512857Y-75292908D02*
X161560476Y-75483384D01*
X161560476Y-75483384D02*
X161608095Y-75578622D01*
X161608095Y-75578622D02*
X161703333Y-75673861D01*
X161703333Y-75673861D02*
X161846190Y-75721480D01*
X161846190Y-75721480D02*
X162084285Y-75721480D01*
X160560476Y-75721480D02*
X161131904Y-75721480D01*
X160846190Y-75721480D02*
X160846190Y-74721480D01*
X160846190Y-74721480D02*
X160941428Y-74864337D01*
X160941428Y-74864337D02*
X161036666Y-74959575D01*
X161036666Y-74959575D02*
X161131904Y-75007194D01*
X160179523Y-74816718D02*
X160131904Y-74769099D01*
X160131904Y-74769099D02*
X160036666Y-74721480D01*
X160036666Y-74721480D02*
X159798571Y-74721480D01*
X159798571Y-74721480D02*
X159703333Y-74769099D01*
X159703333Y-74769099D02*
X159655714Y-74816718D01*
X159655714Y-74816718D02*
X159608095Y-74911956D01*
X159608095Y-74911956D02*
X159608095Y-75007194D01*
X159608095Y-75007194D02*
X159655714Y-75150051D01*
X159655714Y-75150051D02*
X160227142Y-75721480D01*
X160227142Y-75721480D02*
X159608095Y-75721480D01*
X163714285Y-72031319D02*
X164285713Y-72031319D01*
X163999999Y-72031319D02*
X163999999Y-71031319D01*
X163999999Y-71031319D02*
X164095237Y-71174176D01*
X164095237Y-71174176D02*
X164190475Y-71269414D01*
X164190475Y-71269414D02*
X164285713Y-71317033D01*
X120886285Y-105971480D02*
X120886285Y-104971480D01*
X120886285Y-104971480D02*
X120648190Y-104971480D01*
X120648190Y-104971480D02*
X120505333Y-105019099D01*
X120505333Y-105019099D02*
X120410095Y-105114337D01*
X120410095Y-105114337D02*
X120362476Y-105209575D01*
X120362476Y-105209575D02*
X120314857Y-105400051D01*
X120314857Y-105400051D02*
X120314857Y-105542908D01*
X120314857Y-105542908D02*
X120362476Y-105733384D01*
X120362476Y-105733384D02*
X120410095Y-105828622D01*
X120410095Y-105828622D02*
X120505333Y-105923861D01*
X120505333Y-105923861D02*
X120648190Y-105971480D01*
X120648190Y-105971480D02*
X120886285Y-105971480D01*
X119933904Y-105066718D02*
X119886285Y-105019099D01*
X119886285Y-105019099D02*
X119791047Y-104971480D01*
X119791047Y-104971480D02*
X119552952Y-104971480D01*
X119552952Y-104971480D02*
X119457714Y-105019099D01*
X119457714Y-105019099D02*
X119410095Y-105066718D01*
X119410095Y-105066718D02*
X119362476Y-105161956D01*
X119362476Y-105161956D02*
X119362476Y-105257194D01*
X119362476Y-105257194D02*
X119410095Y-105400051D01*
X119410095Y-105400051D02*
X119981523Y-105971480D01*
X119981523Y-105971480D02*
X119362476Y-105971480D01*
X118743428Y-104971480D02*
X118648190Y-104971480D01*
X118648190Y-104971480D02*
X118552952Y-105019099D01*
X118552952Y-105019099D02*
X118505333Y-105066718D01*
X118505333Y-105066718D02*
X118457714Y-105161956D01*
X118457714Y-105161956D02*
X118410095Y-105352432D01*
X118410095Y-105352432D02*
X118410095Y-105590527D01*
X118410095Y-105590527D02*
X118457714Y-105781003D01*
X118457714Y-105781003D02*
X118505333Y-105876241D01*
X118505333Y-105876241D02*
X118552952Y-105923861D01*
X118552952Y-105923861D02*
X118648190Y-105971480D01*
X118648190Y-105971480D02*
X118743428Y-105971480D01*
X118743428Y-105971480D02*
X118838666Y-105923861D01*
X118838666Y-105923861D02*
X118886285Y-105876241D01*
X118886285Y-105876241D02*
X118933904Y-105781003D01*
X118933904Y-105781003D02*
X118981523Y-105590527D01*
X118981523Y-105590527D02*
X118981523Y-105352432D01*
X118981523Y-105352432D02*
X118933904Y-105161956D01*
X118933904Y-105161956D02*
X118886285Y-105066718D01*
X118886285Y-105066718D02*
X118838666Y-105019099D01*
X118838666Y-105019099D02*
X118743428Y-104971480D01*
X119131819Y-105859367D02*
X119131819Y-105287939D01*
X119131819Y-105573653D02*
X118131819Y-105573653D01*
X118131819Y-105573653D02*
X118274676Y-105478415D01*
X118274676Y-105478415D02*
X118369914Y-105383177D01*
X118369914Y-105383177D02*
X118417533Y-105287939D01*
X125636284Y-71721480D02*
X125636284Y-70721480D01*
X125636284Y-70721480D02*
X125398189Y-70721480D01*
X125398189Y-70721480D02*
X125255332Y-70769099D01*
X125255332Y-70769099D02*
X125160094Y-70864337D01*
X125160094Y-70864337D02*
X125112475Y-70959575D01*
X125112475Y-70959575D02*
X125064856Y-71150051D01*
X125064856Y-71150051D02*
X125064856Y-71292908D01*
X125064856Y-71292908D02*
X125112475Y-71483384D01*
X125112475Y-71483384D02*
X125160094Y-71578622D01*
X125160094Y-71578622D02*
X125255332Y-71673861D01*
X125255332Y-71673861D02*
X125398189Y-71721480D01*
X125398189Y-71721480D02*
X125636284Y-71721480D01*
X124112475Y-71721480D02*
X124683903Y-71721480D01*
X124398189Y-71721480D02*
X124398189Y-70721480D01*
X124398189Y-70721480D02*
X124493427Y-70864337D01*
X124493427Y-70864337D02*
X124588665Y-70959575D01*
X124588665Y-70959575D02*
X124683903Y-71007194D01*
X123493427Y-70721480D02*
X123398189Y-70721480D01*
X123398189Y-70721480D02*
X123302951Y-70769099D01*
X123302951Y-70769099D02*
X123255332Y-70816718D01*
X123255332Y-70816718D02*
X123207713Y-70911956D01*
X123207713Y-70911956D02*
X123160094Y-71102432D01*
X123160094Y-71102432D02*
X123160094Y-71340527D01*
X123160094Y-71340527D02*
X123207713Y-71531003D01*
X123207713Y-71531003D02*
X123255332Y-71626241D01*
X123255332Y-71626241D02*
X123302951Y-71673861D01*
X123302951Y-71673861D02*
X123398189Y-71721480D01*
X123398189Y-71721480D02*
X123493427Y-71721480D01*
X123493427Y-71721480D02*
X123588665Y-71673861D01*
X123588665Y-71673861D02*
X123636284Y-71626241D01*
X123636284Y-71626241D02*
X123683903Y-71531003D01*
X123683903Y-71531003D02*
X123731522Y-71340527D01*
X123731522Y-71340527D02*
X123731522Y-71102432D01*
X123731522Y-71102432D02*
X123683903Y-70911956D01*
X123683903Y-70911956D02*
X123636284Y-70816718D01*
X123636284Y-70816718D02*
X123588665Y-70769099D01*
X123588665Y-70769099D02*
X123493427Y-70721480D01*
X122171574Y-70500262D02*
X122575635Y-70096201D01*
X122373605Y-70298231D02*
X121666498Y-69591125D01*
X121666498Y-69591125D02*
X121834857Y-69624796D01*
X121834857Y-69624796D02*
X121969544Y-69624796D01*
X121969544Y-69624796D02*
X122070559Y-69591125D01*
X176386285Y-105971480D02*
X176386285Y-104971480D01*
X176386285Y-104971480D02*
X176148190Y-104971480D01*
X176148190Y-104971480D02*
X176005333Y-105019099D01*
X176005333Y-105019099D02*
X175910095Y-105114337D01*
X175910095Y-105114337D02*
X175862476Y-105209575D01*
X175862476Y-105209575D02*
X175814857Y-105400051D01*
X175814857Y-105400051D02*
X175814857Y-105542908D01*
X175814857Y-105542908D02*
X175862476Y-105733384D01*
X175862476Y-105733384D02*
X175910095Y-105828622D01*
X175910095Y-105828622D02*
X176005333Y-105923861D01*
X176005333Y-105923861D02*
X176148190Y-105971480D01*
X176148190Y-105971480D02*
X176386285Y-105971480D01*
X174862476Y-105971480D02*
X175433904Y-105971480D01*
X175148190Y-105971480D02*
X175148190Y-104971480D01*
X175148190Y-104971480D02*
X175243428Y-105114337D01*
X175243428Y-105114337D02*
X175338666Y-105209575D01*
X175338666Y-105209575D02*
X175433904Y-105257194D01*
X173957714Y-104971480D02*
X174433904Y-104971480D01*
X174433904Y-104971480D02*
X174481523Y-105447670D01*
X174481523Y-105447670D02*
X174433904Y-105400051D01*
X174433904Y-105400051D02*
X174338666Y-105352432D01*
X174338666Y-105352432D02*
X174100571Y-105352432D01*
X174100571Y-105352432D02*
X174005333Y-105400051D01*
X174005333Y-105400051D02*
X173957714Y-105447670D01*
X173957714Y-105447670D02*
X173910095Y-105542908D01*
X173910095Y-105542908D02*
X173910095Y-105781003D01*
X173910095Y-105781003D02*
X173957714Y-105876241D01*
X173957714Y-105876241D02*
X174005333Y-105923861D01*
X174005333Y-105923861D02*
X174100571Y-105971480D01*
X174100571Y-105971480D02*
X174338666Y-105971480D01*
X174338666Y-105971480D02*
X174433904Y-105923861D01*
X174433904Y-105923861D02*
X174481523Y-105876241D01*
X176506819Y-112938511D02*
X176506819Y-112367083D01*
X176506819Y-112652797D02*
X175506819Y-112652797D01*
X175506819Y-112652797D02*
X175649676Y-112557559D01*
X175649676Y-112557559D02*
X175744914Y-112462321D01*
X175744914Y-112462321D02*
X175792533Y-112367083D01*
X135136285Y-129471480D02*
X135136285Y-128471480D01*
X135136285Y-128471480D02*
X134898190Y-128471480D01*
X134898190Y-128471480D02*
X134755333Y-128519099D01*
X134755333Y-128519099D02*
X134660095Y-128614337D01*
X134660095Y-128614337D02*
X134612476Y-128709575D01*
X134612476Y-128709575D02*
X134564857Y-128900051D01*
X134564857Y-128900051D02*
X134564857Y-129042908D01*
X134564857Y-129042908D02*
X134612476Y-129233384D01*
X134612476Y-129233384D02*
X134660095Y-129328622D01*
X134660095Y-129328622D02*
X134755333Y-129423861D01*
X134755333Y-129423861D02*
X134898190Y-129471480D01*
X134898190Y-129471480D02*
X135136285Y-129471480D01*
X133612476Y-129471480D02*
X134183904Y-129471480D01*
X133898190Y-129471480D02*
X133898190Y-128471480D01*
X133898190Y-128471480D02*
X133993428Y-128614337D01*
X133993428Y-128614337D02*
X134088666Y-128709575D01*
X134088666Y-128709575D02*
X134183904Y-128757194D01*
X133041047Y-128900051D02*
X133136285Y-128852432D01*
X133136285Y-128852432D02*
X133183904Y-128804813D01*
X133183904Y-128804813D02*
X133231523Y-128709575D01*
X133231523Y-128709575D02*
X133231523Y-128661956D01*
X133231523Y-128661956D02*
X133183904Y-128566718D01*
X133183904Y-128566718D02*
X133136285Y-128519099D01*
X133136285Y-128519099D02*
X133041047Y-128471480D01*
X133041047Y-128471480D02*
X132850571Y-128471480D01*
X132850571Y-128471480D02*
X132755333Y-128519099D01*
X132755333Y-128519099D02*
X132707714Y-128566718D01*
X132707714Y-128566718D02*
X132660095Y-128661956D01*
X132660095Y-128661956D02*
X132660095Y-128709575D01*
X132660095Y-128709575D02*
X132707714Y-128804813D01*
X132707714Y-128804813D02*
X132755333Y-128852432D01*
X132755333Y-128852432D02*
X132850571Y-128900051D01*
X132850571Y-128900051D02*
X133041047Y-128900051D01*
X133041047Y-128900051D02*
X133136285Y-128947670D01*
X133136285Y-128947670D02*
X133183904Y-128995289D01*
X133183904Y-128995289D02*
X133231523Y-129090527D01*
X133231523Y-129090527D02*
X133231523Y-129281003D01*
X133231523Y-129281003D02*
X133183904Y-129376241D01*
X133183904Y-129376241D02*
X133136285Y-129423861D01*
X133136285Y-129423861D02*
X133041047Y-129471480D01*
X133041047Y-129471480D02*
X132850571Y-129471480D01*
X132850571Y-129471480D02*
X132755333Y-129423861D01*
X132755333Y-129423861D02*
X132707714Y-129376241D01*
X132707714Y-129376241D02*
X132660095Y-129281003D01*
X132660095Y-129281003D02*
X132660095Y-129090527D01*
X132660095Y-129090527D02*
X132707714Y-128995289D01*
X132707714Y-128995289D02*
X132755333Y-128947670D01*
X132755333Y-128947670D02*
X132850571Y-128900051D01*
X134700456Y-129156319D02*
X135271884Y-129156319D01*
X134986170Y-129156319D02*
X134986170Y-128156319D01*
X134986170Y-128156319D02*
X135081408Y-128299176D01*
X135081408Y-128299176D02*
X135176646Y-128394414D01*
X135176646Y-128394414D02*
X135271884Y-128442033D01*
X171386285Y-129850863D02*
X171386285Y-128850863D01*
X171386285Y-128850863D02*
X171148190Y-128850863D01*
X171148190Y-128850863D02*
X171005333Y-128898482D01*
X171005333Y-128898482D02*
X170910095Y-128993720D01*
X170910095Y-128993720D02*
X170862476Y-129088958D01*
X170862476Y-129088958D02*
X170814857Y-129279434D01*
X170814857Y-129279434D02*
X170814857Y-129422291D01*
X170814857Y-129422291D02*
X170862476Y-129612767D01*
X170862476Y-129612767D02*
X170910095Y-129708005D01*
X170910095Y-129708005D02*
X171005333Y-129803244D01*
X171005333Y-129803244D02*
X171148190Y-129850863D01*
X171148190Y-129850863D02*
X171386285Y-129850863D01*
X169862476Y-129850863D02*
X170433904Y-129850863D01*
X170148190Y-129850863D02*
X170148190Y-128850863D01*
X170148190Y-128850863D02*
X170243428Y-128993720D01*
X170243428Y-128993720D02*
X170338666Y-129088958D01*
X170338666Y-129088958D02*
X170433904Y-129136577D01*
X169005333Y-128850863D02*
X169195809Y-128850863D01*
X169195809Y-128850863D02*
X169291047Y-128898482D01*
X169291047Y-128898482D02*
X169338666Y-128946101D01*
X169338666Y-128946101D02*
X169433904Y-129088958D01*
X169433904Y-129088958D02*
X169481523Y-129279434D01*
X169481523Y-129279434D02*
X169481523Y-129660386D01*
X169481523Y-129660386D02*
X169433904Y-129755624D01*
X169433904Y-129755624D02*
X169386285Y-129803244D01*
X169386285Y-129803244D02*
X169291047Y-129850863D01*
X169291047Y-129850863D02*
X169100571Y-129850863D01*
X169100571Y-129850863D02*
X169005333Y-129803244D01*
X169005333Y-129803244D02*
X168957714Y-129755624D01*
X168957714Y-129755624D02*
X168910095Y-129660386D01*
X168910095Y-129660386D02*
X168910095Y-129422291D01*
X168910095Y-129422291D02*
X168957714Y-129327053D01*
X168957714Y-129327053D02*
X169005333Y-129279434D01*
X169005333Y-129279434D02*
X169100571Y-129231815D01*
X169100571Y-129231815D02*
X169291047Y-129231815D01*
X169291047Y-129231815D02*
X169386285Y-129279434D01*
X169386285Y-129279434D02*
X169433904Y-129327053D01*
X169433904Y-129327053D02*
X169481523Y-129422291D01*
X172815419Y-131068728D02*
X173219480Y-130664667D01*
X173017450Y-130866697D02*
X172310343Y-130159591D01*
X172310343Y-130159591D02*
X172478702Y-130193262D01*
X172478702Y-130193262D02*
X172613389Y-130193262D01*
X172613389Y-130193262D02*
X172714404Y-130159591D01*
X171136285Y-71721481D02*
X171136285Y-70721481D01*
X171136285Y-70721481D02*
X170898190Y-70721481D01*
X170898190Y-70721481D02*
X170755333Y-70769100D01*
X170755333Y-70769100D02*
X170660095Y-70864338D01*
X170660095Y-70864338D02*
X170612476Y-70959576D01*
X170612476Y-70959576D02*
X170564857Y-71150052D01*
X170564857Y-71150052D02*
X170564857Y-71292909D01*
X170564857Y-71292909D02*
X170612476Y-71483385D01*
X170612476Y-71483385D02*
X170660095Y-71578623D01*
X170660095Y-71578623D02*
X170755333Y-71673862D01*
X170755333Y-71673862D02*
X170898190Y-71721481D01*
X170898190Y-71721481D02*
X171136285Y-71721481D01*
X169612476Y-71721481D02*
X170183904Y-71721481D01*
X169898190Y-71721481D02*
X169898190Y-70721481D01*
X169898190Y-70721481D02*
X169993428Y-70864338D01*
X169993428Y-70864338D02*
X170088666Y-70959576D01*
X170088666Y-70959576D02*
X170183904Y-71007195D01*
X169279142Y-70721481D02*
X168660095Y-70721481D01*
X168660095Y-70721481D02*
X168993428Y-71102433D01*
X168993428Y-71102433D02*
X168850571Y-71102433D01*
X168850571Y-71102433D02*
X168755333Y-71150052D01*
X168755333Y-71150052D02*
X168707714Y-71197671D01*
X168707714Y-71197671D02*
X168660095Y-71292909D01*
X168660095Y-71292909D02*
X168660095Y-71531004D01*
X168660095Y-71531004D02*
X168707714Y-71626242D01*
X168707714Y-71626242D02*
X168755333Y-71673862D01*
X168755333Y-71673862D02*
X168850571Y-71721481D01*
X168850571Y-71721481D02*
X169136285Y-71721481D01*
X169136285Y-71721481D02*
X169231523Y-71673862D01*
X169231523Y-71673862D02*
X169279142Y-71626242D01*
X177003237Y-75045947D02*
X177407298Y-75450008D01*
X177205268Y-75247978D02*
X177912374Y-74540871D01*
X177912374Y-74540871D02*
X177878703Y-74709230D01*
X177878703Y-74709230D02*
X177878703Y-74843917D01*
X177878703Y-74843917D02*
X177912374Y-74944932D01*
X176386285Y-88221480D02*
X176386285Y-87221480D01*
X176386285Y-87221480D02*
X176148190Y-87221480D01*
X176148190Y-87221480D02*
X176005333Y-87269099D01*
X176005333Y-87269099D02*
X175910095Y-87364337D01*
X175910095Y-87364337D02*
X175862476Y-87459575D01*
X175862476Y-87459575D02*
X175814857Y-87650051D01*
X175814857Y-87650051D02*
X175814857Y-87792908D01*
X175814857Y-87792908D02*
X175862476Y-87983384D01*
X175862476Y-87983384D02*
X175910095Y-88078622D01*
X175910095Y-88078622D02*
X176005333Y-88173861D01*
X176005333Y-88173861D02*
X176148190Y-88221480D01*
X176148190Y-88221480D02*
X176386285Y-88221480D01*
X174862476Y-88221480D02*
X175433904Y-88221480D01*
X175148190Y-88221480D02*
X175148190Y-87221480D01*
X175148190Y-87221480D02*
X175243428Y-87364337D01*
X175243428Y-87364337D02*
X175338666Y-87459575D01*
X175338666Y-87459575D02*
X175433904Y-87507194D01*
X174005333Y-87554813D02*
X174005333Y-88221480D01*
X174243428Y-87173861D02*
X174481523Y-87888146D01*
X174481523Y-87888146D02*
X173862476Y-87888146D01*
X176506819Y-95154633D02*
X176506819Y-94583205D01*
X176506819Y-94868919D02*
X175506819Y-94868919D01*
X175506819Y-94868919D02*
X175649676Y-94773681D01*
X175649676Y-94773681D02*
X175744914Y-94678443D01*
X175744914Y-94678443D02*
X175792533Y-94583205D01*
X120886285Y-88221480D02*
X120886285Y-87221480D01*
X120886285Y-87221480D02*
X120648190Y-87221480D01*
X120648190Y-87221480D02*
X120505333Y-87269099D01*
X120505333Y-87269099D02*
X120410095Y-87364337D01*
X120410095Y-87364337D02*
X120362476Y-87459575D01*
X120362476Y-87459575D02*
X120314857Y-87650051D01*
X120314857Y-87650051D02*
X120314857Y-87792908D01*
X120314857Y-87792908D02*
X120362476Y-87983384D01*
X120362476Y-87983384D02*
X120410095Y-88078622D01*
X120410095Y-88078622D02*
X120505333Y-88173861D01*
X120505333Y-88173861D02*
X120648190Y-88221480D01*
X120648190Y-88221480D02*
X120886285Y-88221480D01*
X119933904Y-87316718D02*
X119886285Y-87269099D01*
X119886285Y-87269099D02*
X119791047Y-87221480D01*
X119791047Y-87221480D02*
X119552952Y-87221480D01*
X119552952Y-87221480D02*
X119457714Y-87269099D01*
X119457714Y-87269099D02*
X119410095Y-87316718D01*
X119410095Y-87316718D02*
X119362476Y-87411956D01*
X119362476Y-87411956D02*
X119362476Y-87507194D01*
X119362476Y-87507194D02*
X119410095Y-87650051D01*
X119410095Y-87650051D02*
X119981523Y-88221480D01*
X119981523Y-88221480D02*
X119362476Y-88221480D01*
X118410095Y-88221480D02*
X118981523Y-88221480D01*
X118695809Y-88221480D02*
X118695809Y-87221480D01*
X118695809Y-87221480D02*
X118791047Y-87364337D01*
X118791047Y-87364337D02*
X118886285Y-87459575D01*
X118886285Y-87459575D02*
X118981523Y-87507194D01*
X119131819Y-88115061D02*
X119131819Y-87543633D01*
X119131819Y-87829347D02*
X118131819Y-87829347D01*
X118131819Y-87829347D02*
X118274676Y-87734109D01*
X118274676Y-87734109D02*
X118369914Y-87638871D01*
X118369914Y-87638871D02*
X118417533Y-87543633D01*
X125636285Y-129721480D02*
X125636285Y-128721480D01*
X125636285Y-128721480D02*
X125398190Y-128721480D01*
X125398190Y-128721480D02*
X125255333Y-128769099D01*
X125255333Y-128769099D02*
X125160095Y-128864337D01*
X125160095Y-128864337D02*
X125112476Y-128959575D01*
X125112476Y-128959575D02*
X125064857Y-129150051D01*
X125064857Y-129150051D02*
X125064857Y-129292908D01*
X125064857Y-129292908D02*
X125112476Y-129483384D01*
X125112476Y-129483384D02*
X125160095Y-129578622D01*
X125160095Y-129578622D02*
X125255333Y-129673861D01*
X125255333Y-129673861D02*
X125398190Y-129721480D01*
X125398190Y-129721480D02*
X125636285Y-129721480D01*
X124112476Y-129721480D02*
X124683904Y-129721480D01*
X124398190Y-129721480D02*
X124398190Y-128721480D01*
X124398190Y-128721480D02*
X124493428Y-128864337D01*
X124493428Y-128864337D02*
X124588666Y-128959575D01*
X124588666Y-128959575D02*
X124683904Y-129007194D01*
X123636285Y-129721480D02*
X123445809Y-129721480D01*
X123445809Y-129721480D02*
X123350571Y-129673861D01*
X123350571Y-129673861D02*
X123302952Y-129626241D01*
X123302952Y-129626241D02*
X123207714Y-129483384D01*
X123207714Y-129483384D02*
X123160095Y-129292908D01*
X123160095Y-129292908D02*
X123160095Y-128911956D01*
X123160095Y-128911956D02*
X123207714Y-128816718D01*
X123207714Y-128816718D02*
X123255333Y-128769099D01*
X123255333Y-128769099D02*
X123350571Y-128721480D01*
X123350571Y-128721480D02*
X123541047Y-128721480D01*
X123541047Y-128721480D02*
X123636285Y-128769099D01*
X123636285Y-128769099D02*
X123683904Y-128816718D01*
X123683904Y-128816718D02*
X123731523Y-128911956D01*
X123731523Y-128911956D02*
X123731523Y-129150051D01*
X123731523Y-129150051D02*
X123683904Y-129245289D01*
X123683904Y-129245289D02*
X123636285Y-129292908D01*
X123636285Y-129292908D02*
X123541047Y-129340527D01*
X123541047Y-129340527D02*
X123350571Y-129340527D01*
X123350571Y-129340527D02*
X123255333Y-129292908D01*
X123255333Y-129292908D02*
X123207714Y-129245289D01*
X123207714Y-129245289D02*
X123160095Y-129150051D01*
X116578616Y-125596201D02*
X116982677Y-126000262D01*
X116780647Y-125798232D02*
X117487753Y-125091125D01*
X117487753Y-125091125D02*
X117454082Y-125259484D01*
X117454082Y-125259484D02*
X117454082Y-125394171D01*
X117454082Y-125394171D02*
X117487753Y-125495186D01*
X135386285Y-75971480D02*
X135386285Y-74971480D01*
X135386285Y-74971480D02*
X135148190Y-74971480D01*
X135148190Y-74971480D02*
X135005333Y-75019099D01*
X135005333Y-75019099D02*
X134910095Y-75114337D01*
X134910095Y-75114337D02*
X134862476Y-75209575D01*
X134862476Y-75209575D02*
X134814857Y-75400051D01*
X134814857Y-75400051D02*
X134814857Y-75542908D01*
X134814857Y-75542908D02*
X134862476Y-75733384D01*
X134862476Y-75733384D02*
X134910095Y-75828622D01*
X134910095Y-75828622D02*
X135005333Y-75923861D01*
X135005333Y-75923861D02*
X135148190Y-75971480D01*
X135148190Y-75971480D02*
X135386285Y-75971480D01*
X133862476Y-75971480D02*
X134433904Y-75971480D01*
X134148190Y-75971480D02*
X134148190Y-74971480D01*
X134148190Y-74971480D02*
X134243428Y-75114337D01*
X134243428Y-75114337D02*
X134338666Y-75209575D01*
X134338666Y-75209575D02*
X134433904Y-75257194D01*
X132910095Y-75971480D02*
X133481523Y-75971480D01*
X133195809Y-75971480D02*
X133195809Y-74971480D01*
X133195809Y-74971480D02*
X133291047Y-75114337D01*
X133291047Y-75114337D02*
X133386285Y-75209575D01*
X133386285Y-75209575D02*
X133481523Y-75257194D01*
X137766285Y-72031319D02*
X138337713Y-72031319D01*
X138051999Y-72031319D02*
X138051999Y-71031319D01*
X138051999Y-71031319D02*
X138147237Y-71174176D01*
X138147237Y-71174176D02*
X138242475Y-71269414D01*
X138242475Y-71269414D02*
X138337713Y-71317033D01*
X162136285Y-129721480D02*
X162136285Y-128721480D01*
X162136285Y-128721480D02*
X161898190Y-128721480D01*
X161898190Y-128721480D02*
X161755333Y-128769099D01*
X161755333Y-128769099D02*
X161660095Y-128864337D01*
X161660095Y-128864337D02*
X161612476Y-128959575D01*
X161612476Y-128959575D02*
X161564857Y-129150051D01*
X161564857Y-129150051D02*
X161564857Y-129292908D01*
X161564857Y-129292908D02*
X161612476Y-129483384D01*
X161612476Y-129483384D02*
X161660095Y-129578622D01*
X161660095Y-129578622D02*
X161755333Y-129673861D01*
X161755333Y-129673861D02*
X161898190Y-129721480D01*
X161898190Y-129721480D02*
X162136285Y-129721480D01*
X160612476Y-129721480D02*
X161183904Y-129721480D01*
X160898190Y-129721480D02*
X160898190Y-128721480D01*
X160898190Y-128721480D02*
X160993428Y-128864337D01*
X160993428Y-128864337D02*
X161088666Y-128959575D01*
X161088666Y-128959575D02*
X161183904Y-129007194D01*
X160279142Y-128721480D02*
X159612476Y-128721480D01*
X159612476Y-128721480D02*
X160041047Y-129721480D01*
X152475959Y-129281319D02*
X153047387Y-129281319D01*
X152761673Y-129281319D02*
X152761673Y-128281319D01*
X152761673Y-128281319D02*
X152856911Y-128424176D01*
X152856911Y-128424176D02*
X152952149Y-128519414D01*
X152952149Y-128519414D02*
X153047387Y-128567033D01*
X133790094Y-111406319D02*
X133790094Y-110406319D01*
X133790094Y-110406319D02*
X133551999Y-110406319D01*
X133551999Y-110406319D02*
X133409142Y-110453938D01*
X133409142Y-110453938D02*
X133313904Y-110549176D01*
X133313904Y-110549176D02*
X133266285Y-110644414D01*
X133266285Y-110644414D02*
X133218666Y-110834890D01*
X133218666Y-110834890D02*
X133218666Y-110977747D01*
X133218666Y-110977747D02*
X133266285Y-111168223D01*
X133266285Y-111168223D02*
X133313904Y-111263461D01*
X133313904Y-111263461D02*
X133409142Y-111358700D01*
X133409142Y-111358700D02*
X133551999Y-111406319D01*
X133551999Y-111406319D02*
X133790094Y-111406319D01*
X132885332Y-110406319D02*
X132218666Y-110406319D01*
X132218666Y-110406319D02*
X132647237Y-111406319D01*
X146790094Y-111406319D02*
X146790094Y-110406319D01*
X146790094Y-110406319D02*
X146551999Y-110406319D01*
X146551999Y-110406319D02*
X146409142Y-110453938D01*
X146409142Y-110453938D02*
X146313904Y-110549176D01*
X146313904Y-110549176D02*
X146266285Y-110644414D01*
X146266285Y-110644414D02*
X146218666Y-110834890D01*
X146218666Y-110834890D02*
X146218666Y-110977747D01*
X146218666Y-110977747D02*
X146266285Y-111168223D01*
X146266285Y-111168223D02*
X146313904Y-111263461D01*
X146313904Y-111263461D02*
X146409142Y-111358700D01*
X146409142Y-111358700D02*
X146551999Y-111406319D01*
X146551999Y-111406319D02*
X146790094Y-111406319D01*
X145647237Y-110834890D02*
X145742475Y-110787271D01*
X145742475Y-110787271D02*
X145790094Y-110739652D01*
X145790094Y-110739652D02*
X145837713Y-110644414D01*
X145837713Y-110644414D02*
X145837713Y-110596795D01*
X145837713Y-110596795D02*
X145790094Y-110501557D01*
X145790094Y-110501557D02*
X145742475Y-110453938D01*
X145742475Y-110453938D02*
X145647237Y-110406319D01*
X145647237Y-110406319D02*
X145456761Y-110406319D01*
X145456761Y-110406319D02*
X145361523Y-110453938D01*
X145361523Y-110453938D02*
X145313904Y-110501557D01*
X145313904Y-110501557D02*
X145266285Y-110596795D01*
X145266285Y-110596795D02*
X145266285Y-110644414D01*
X145266285Y-110644414D02*
X145313904Y-110739652D01*
X145313904Y-110739652D02*
X145361523Y-110787271D01*
X145361523Y-110787271D02*
X145456761Y-110834890D01*
X145456761Y-110834890D02*
X145647237Y-110834890D01*
X145647237Y-110834890D02*
X145742475Y-110882509D01*
X145742475Y-110882509D02*
X145790094Y-110930128D01*
X145790094Y-110930128D02*
X145837713Y-111025366D01*
X145837713Y-111025366D02*
X145837713Y-111215842D01*
X145837713Y-111215842D02*
X145790094Y-111311080D01*
X145790094Y-111311080D02*
X145742475Y-111358700D01*
X145742475Y-111358700D02*
X145647237Y-111406319D01*
X145647237Y-111406319D02*
X145456761Y-111406319D01*
X145456761Y-111406319D02*
X145361523Y-111358700D01*
X145361523Y-111358700D02*
X145313904Y-111311080D01*
X145313904Y-111311080D02*
X145266285Y-111215842D01*
X145266285Y-111215842D02*
X145266285Y-111025366D01*
X145266285Y-111025366D02*
X145313904Y-110930128D01*
X145313904Y-110930128D02*
X145361523Y-110882509D01*
X145361523Y-110882509D02*
X145456761Y-110834890D01*
X145838094Y-91254819D02*
X145838094Y-90254819D01*
X145838094Y-90254819D02*
X145599999Y-90254819D01*
X145599999Y-90254819D02*
X145457142Y-90302438D01*
X145457142Y-90302438D02*
X145361904Y-90397676D01*
X145361904Y-90397676D02*
X145314285Y-90492914D01*
X145314285Y-90492914D02*
X145266666Y-90683390D01*
X145266666Y-90683390D02*
X145266666Y-90826247D01*
X145266666Y-90826247D02*
X145314285Y-91016723D01*
X145314285Y-91016723D02*
X145361904Y-91111961D01*
X145361904Y-91111961D02*
X145457142Y-91207200D01*
X145457142Y-91207200D02*
X145599999Y-91254819D01*
X145599999Y-91254819D02*
X145838094Y-91254819D01*
X144885713Y-90350057D02*
X144838094Y-90302438D01*
X144838094Y-90302438D02*
X144742856Y-90254819D01*
X144742856Y-90254819D02*
X144504761Y-90254819D01*
X144504761Y-90254819D02*
X144409523Y-90302438D01*
X144409523Y-90302438D02*
X144361904Y-90350057D01*
X144361904Y-90350057D02*
X144314285Y-90445295D01*
X144314285Y-90445295D02*
X144314285Y-90540533D01*
X144314285Y-90540533D02*
X144361904Y-90683390D01*
X144361904Y-90683390D02*
X144933332Y-91254819D01*
X144933332Y-91254819D02*
X144314285Y-91254819D01*
X163290094Y-108906319D02*
X163290094Y-107906319D01*
X163290094Y-107906319D02*
X163051999Y-107906319D01*
X163051999Y-107906319D02*
X162909142Y-107953938D01*
X162909142Y-107953938D02*
X162813904Y-108049176D01*
X162813904Y-108049176D02*
X162766285Y-108144414D01*
X162766285Y-108144414D02*
X162718666Y-108334890D01*
X162718666Y-108334890D02*
X162718666Y-108477747D01*
X162718666Y-108477747D02*
X162766285Y-108668223D01*
X162766285Y-108668223D02*
X162813904Y-108763461D01*
X162813904Y-108763461D02*
X162909142Y-108858700D01*
X162909142Y-108858700D02*
X163051999Y-108906319D01*
X163051999Y-108906319D02*
X163290094Y-108906319D01*
X161861523Y-107906319D02*
X162051999Y-107906319D01*
X162051999Y-107906319D02*
X162147237Y-107953938D01*
X162147237Y-107953938D02*
X162194856Y-108001557D01*
X162194856Y-108001557D02*
X162290094Y-108144414D01*
X162290094Y-108144414D02*
X162337713Y-108334890D01*
X162337713Y-108334890D02*
X162337713Y-108715842D01*
X162337713Y-108715842D02*
X162290094Y-108811080D01*
X162290094Y-108811080D02*
X162242475Y-108858700D01*
X162242475Y-108858700D02*
X162147237Y-108906319D01*
X162147237Y-108906319D02*
X161956761Y-108906319D01*
X161956761Y-108906319D02*
X161861523Y-108858700D01*
X161861523Y-108858700D02*
X161813904Y-108811080D01*
X161813904Y-108811080D02*
X161766285Y-108715842D01*
X161766285Y-108715842D02*
X161766285Y-108477747D01*
X161766285Y-108477747D02*
X161813904Y-108382509D01*
X161813904Y-108382509D02*
X161861523Y-108334890D01*
X161861523Y-108334890D02*
X161956761Y-108287271D01*
X161956761Y-108287271D02*
X162147237Y-108287271D01*
X162147237Y-108287271D02*
X162242475Y-108334890D01*
X162242475Y-108334890D02*
X162290094Y-108382509D01*
X162290094Y-108382509D02*
X162337713Y-108477747D01*
X144290094Y-108906319D02*
X144290094Y-107906319D01*
X144290094Y-107906319D02*
X144051999Y-107906319D01*
X144051999Y-107906319D02*
X143909142Y-107953938D01*
X143909142Y-107953938D02*
X143813904Y-108049176D01*
X143813904Y-108049176D02*
X143766285Y-108144414D01*
X143766285Y-108144414D02*
X143718666Y-108334890D01*
X143718666Y-108334890D02*
X143718666Y-108477747D01*
X143718666Y-108477747D02*
X143766285Y-108668223D01*
X143766285Y-108668223D02*
X143813904Y-108763461D01*
X143813904Y-108763461D02*
X143909142Y-108858700D01*
X143909142Y-108858700D02*
X144051999Y-108906319D01*
X144051999Y-108906319D02*
X144290094Y-108906319D01*
X142813904Y-107906319D02*
X143290094Y-107906319D01*
X143290094Y-107906319D02*
X143337713Y-108382509D01*
X143337713Y-108382509D02*
X143290094Y-108334890D01*
X143290094Y-108334890D02*
X143194856Y-108287271D01*
X143194856Y-108287271D02*
X142956761Y-108287271D01*
X142956761Y-108287271D02*
X142861523Y-108334890D01*
X142861523Y-108334890D02*
X142813904Y-108382509D01*
X142813904Y-108382509D02*
X142766285Y-108477747D01*
X142766285Y-108477747D02*
X142766285Y-108715842D01*
X142766285Y-108715842D02*
X142813904Y-108811080D01*
X142813904Y-108811080D02*
X142861523Y-108858700D01*
X142861523Y-108858700D02*
X142956761Y-108906319D01*
X142956761Y-108906319D02*
X143194856Y-108906319D01*
X143194856Y-108906319D02*
X143290094Y-108858700D01*
X143290094Y-108858700D02*
X143337713Y-108811080D01*
X157398190Y-105971480D02*
X157207714Y-105971480D01*
X157207714Y-105971480D02*
X157112476Y-106019099D01*
X157112476Y-106019099D02*
X157017238Y-106114337D01*
X157017238Y-106114337D02*
X156969619Y-106304813D01*
X156969619Y-106304813D02*
X156969619Y-106638146D01*
X156969619Y-106638146D02*
X157017238Y-106828622D01*
X157017238Y-106828622D02*
X157112476Y-106923861D01*
X157112476Y-106923861D02*
X157207714Y-106971480D01*
X157207714Y-106971480D02*
X157398190Y-106971480D01*
X157398190Y-106971480D02*
X157493428Y-106923861D01*
X157493428Y-106923861D02*
X157588666Y-106828622D01*
X157588666Y-106828622D02*
X157636285Y-106638146D01*
X157636285Y-106638146D02*
X157636285Y-106304813D01*
X157636285Y-106304813D02*
X157588666Y-106114337D01*
X157588666Y-106114337D02*
X157493428Y-106019099D01*
X157493428Y-106019099D02*
X157398190Y-105971480D01*
X156064857Y-106971480D02*
X156541047Y-106971480D01*
X156541047Y-106971480D02*
X156541047Y-105971480D01*
X155207714Y-106971480D02*
X155779142Y-106971480D01*
X155493428Y-106971480D02*
X155493428Y-105971480D01*
X155493428Y-105971480D02*
X155588666Y-106114337D01*
X155588666Y-106114337D02*
X155683904Y-106209575D01*
X155683904Y-106209575D02*
X155779142Y-106257194D01*
X155876200Y-94732571D02*
X155914295Y-94846857D01*
X155914295Y-94846857D02*
X155914295Y-95037333D01*
X155914295Y-95037333D02*
X155876200Y-95113524D01*
X155876200Y-95113524D02*
X155838104Y-95151619D01*
X155838104Y-95151619D02*
X155761914Y-95189714D01*
X155761914Y-95189714D02*
X155685723Y-95189714D01*
X155685723Y-95189714D02*
X155609533Y-95151619D01*
X155609533Y-95151619D02*
X155571438Y-95113524D01*
X155571438Y-95113524D02*
X155533342Y-95037333D01*
X155533342Y-95037333D02*
X155495247Y-94884952D01*
X155495247Y-94884952D02*
X155457152Y-94808762D01*
X155457152Y-94808762D02*
X155419057Y-94770667D01*
X155419057Y-94770667D02*
X155342866Y-94732571D01*
X155342866Y-94732571D02*
X155266676Y-94732571D01*
X155266676Y-94732571D02*
X155190485Y-94770667D01*
X155190485Y-94770667D02*
X155152390Y-94808762D01*
X155152390Y-94808762D02*
X155114295Y-94884952D01*
X155114295Y-94884952D02*
X155114295Y-95075429D01*
X155114295Y-95075429D02*
X155152390Y-95189714D01*
X155914295Y-95532572D02*
X155114295Y-95532572D01*
X155114295Y-95532572D02*
X155114295Y-95723048D01*
X155114295Y-95723048D02*
X155152390Y-95837334D01*
X155152390Y-95837334D02*
X155228580Y-95913524D01*
X155228580Y-95913524D02*
X155304771Y-95951619D01*
X155304771Y-95951619D02*
X155457152Y-95989715D01*
X155457152Y-95989715D02*
X155571438Y-95989715D01*
X155571438Y-95989715D02*
X155723819Y-95951619D01*
X155723819Y-95951619D02*
X155800009Y-95913524D01*
X155800009Y-95913524D02*
X155876200Y-95837334D01*
X155876200Y-95837334D02*
X155914295Y-95723048D01*
X155914295Y-95723048D02*
X155914295Y-95532572D01*
X155685723Y-96294476D02*
X155685723Y-96675429D01*
X155914295Y-96218286D02*
X155114295Y-96484953D01*
X155114295Y-96484953D02*
X155914295Y-96751619D01*
X155876200Y-97291618D02*
X155914295Y-97405904D01*
X155914295Y-97405904D02*
X155914295Y-97596380D01*
X155914295Y-97596380D02*
X155876200Y-97672571D01*
X155876200Y-97672571D02*
X155838104Y-97710666D01*
X155838104Y-97710666D02*
X155761914Y-97748761D01*
X155761914Y-97748761D02*
X155685723Y-97748761D01*
X155685723Y-97748761D02*
X155609533Y-97710666D01*
X155609533Y-97710666D02*
X155571438Y-97672571D01*
X155571438Y-97672571D02*
X155533342Y-97596380D01*
X155533342Y-97596380D02*
X155495247Y-97443999D01*
X155495247Y-97443999D02*
X155457152Y-97367809D01*
X155457152Y-97367809D02*
X155419057Y-97329714D01*
X155419057Y-97329714D02*
X155342866Y-97291618D01*
X155342866Y-97291618D02*
X155266676Y-97291618D01*
X155266676Y-97291618D02*
X155190485Y-97329714D01*
X155190485Y-97329714D02*
X155152390Y-97367809D01*
X155152390Y-97367809D02*
X155114295Y-97443999D01*
X155114295Y-97443999D02*
X155114295Y-97634476D01*
X155114295Y-97634476D02*
X155152390Y-97748761D01*
X155838104Y-98548762D02*
X155876200Y-98510666D01*
X155876200Y-98510666D02*
X155914295Y-98396381D01*
X155914295Y-98396381D02*
X155914295Y-98320190D01*
X155914295Y-98320190D02*
X155876200Y-98205904D01*
X155876200Y-98205904D02*
X155800009Y-98129714D01*
X155800009Y-98129714D02*
X155723819Y-98091619D01*
X155723819Y-98091619D02*
X155571438Y-98053523D01*
X155571438Y-98053523D02*
X155457152Y-98053523D01*
X155457152Y-98053523D02*
X155304771Y-98091619D01*
X155304771Y-98091619D02*
X155228580Y-98129714D01*
X155228580Y-98129714D02*
X155152390Y-98205904D01*
X155152390Y-98205904D02*
X155114295Y-98320190D01*
X155114295Y-98320190D02*
X155114295Y-98396381D01*
X155114295Y-98396381D02*
X155152390Y-98510666D01*
X155152390Y-98510666D02*
X155190485Y-98548762D01*
X155914295Y-99272571D02*
X155914295Y-98891619D01*
X155914295Y-98891619D02*
X155114295Y-98891619D01*
X158124380Y-92221480D02*
X157933904Y-92221480D01*
X157933904Y-92221480D02*
X157838666Y-92269099D01*
X157838666Y-92269099D02*
X157743428Y-92364337D01*
X157743428Y-92364337D02*
X157695809Y-92554813D01*
X157695809Y-92554813D02*
X157695809Y-92888146D01*
X157695809Y-92888146D02*
X157743428Y-93078622D01*
X157743428Y-93078622D02*
X157838666Y-93173861D01*
X157838666Y-93173861D02*
X157933904Y-93221480D01*
X157933904Y-93221480D02*
X158124380Y-93221480D01*
X158124380Y-93221480D02*
X158219618Y-93173861D01*
X158219618Y-93173861D02*
X158314856Y-93078622D01*
X158314856Y-93078622D02*
X158362475Y-92888146D01*
X158362475Y-92888146D02*
X158362475Y-92554813D01*
X158362475Y-92554813D02*
X158314856Y-92364337D01*
X158314856Y-92364337D02*
X158219618Y-92269099D01*
X158219618Y-92269099D02*
X158124380Y-92221480D01*
X156791047Y-93221480D02*
X157267237Y-93221480D01*
X157267237Y-93221480D02*
X157267237Y-92221480D01*
X156457713Y-92697670D02*
X156124380Y-92697670D01*
X155981523Y-93221480D02*
X156457713Y-93221480D01*
X156457713Y-93221480D02*
X156457713Y-92221480D01*
X156457713Y-92221480D02*
X155981523Y-92221480D01*
X155552951Y-93221480D02*
X155552951Y-92221480D01*
X155552951Y-92221480D02*
X155314856Y-92221480D01*
X155314856Y-92221480D02*
X155171999Y-92269099D01*
X155171999Y-92269099D02*
X155076761Y-92364337D01*
X155076761Y-92364337D02*
X155029142Y-92459575D01*
X155029142Y-92459575D02*
X154981523Y-92650051D01*
X154981523Y-92650051D02*
X154981523Y-92792908D01*
X154981523Y-92792908D02*
X155029142Y-92983384D01*
X155029142Y-92983384D02*
X155076761Y-93078622D01*
X155076761Y-93078622D02*
X155171999Y-93173861D01*
X155171999Y-93173861D02*
X155314856Y-93221480D01*
X155314856Y-93221480D02*
X155552951Y-93221480D01*
X155152390Y-102714476D02*
X155114295Y-102638286D01*
X155114295Y-102638286D02*
X155114295Y-102524000D01*
X155114295Y-102524000D02*
X155152390Y-102409714D01*
X155152390Y-102409714D02*
X155228580Y-102333524D01*
X155228580Y-102333524D02*
X155304771Y-102295429D01*
X155304771Y-102295429D02*
X155457152Y-102257333D01*
X155457152Y-102257333D02*
X155571438Y-102257333D01*
X155571438Y-102257333D02*
X155723819Y-102295429D01*
X155723819Y-102295429D02*
X155800009Y-102333524D01*
X155800009Y-102333524D02*
X155876200Y-102409714D01*
X155876200Y-102409714D02*
X155914295Y-102524000D01*
X155914295Y-102524000D02*
X155914295Y-102600191D01*
X155914295Y-102600191D02*
X155876200Y-102714476D01*
X155876200Y-102714476D02*
X155838104Y-102752572D01*
X155838104Y-102752572D02*
X155571438Y-102752572D01*
X155571438Y-102752572D02*
X155571438Y-102600191D01*
X155914295Y-103095429D02*
X155114295Y-103095429D01*
X155114295Y-103095429D02*
X155914295Y-103552572D01*
X155914295Y-103552572D02*
X155114295Y-103552572D01*
X155914295Y-103933524D02*
X155114295Y-103933524D01*
X155114295Y-103933524D02*
X155114295Y-104124000D01*
X155114295Y-104124000D02*
X155152390Y-104238286D01*
X155152390Y-104238286D02*
X155228580Y-104314476D01*
X155228580Y-104314476D02*
X155304771Y-104352571D01*
X155304771Y-104352571D02*
X155457152Y-104390667D01*
X155457152Y-104390667D02*
X155571438Y-104390667D01*
X155571438Y-104390667D02*
X155723819Y-104352571D01*
X155723819Y-104352571D02*
X155800009Y-104314476D01*
X155800009Y-104314476D02*
X155876200Y-104238286D01*
X155876200Y-104238286D02*
X155914295Y-104124000D01*
X155914295Y-104124000D02*
X155914295Y-103933524D01*
X155114295Y-99717333D02*
X155914295Y-99984000D01*
X155914295Y-99984000D02*
X155114295Y-100250666D01*
X155838104Y-100974476D02*
X155876200Y-100936380D01*
X155876200Y-100936380D02*
X155914295Y-100822095D01*
X155914295Y-100822095D02*
X155914295Y-100745904D01*
X155914295Y-100745904D02*
X155876200Y-100631618D01*
X155876200Y-100631618D02*
X155800009Y-100555428D01*
X155800009Y-100555428D02*
X155723819Y-100517333D01*
X155723819Y-100517333D02*
X155571438Y-100479237D01*
X155571438Y-100479237D02*
X155457152Y-100479237D01*
X155457152Y-100479237D02*
X155304771Y-100517333D01*
X155304771Y-100517333D02*
X155228580Y-100555428D01*
X155228580Y-100555428D02*
X155152390Y-100631618D01*
X155152390Y-100631618D02*
X155114295Y-100745904D01*
X155114295Y-100745904D02*
X155114295Y-100822095D01*
X155114295Y-100822095D02*
X155152390Y-100936380D01*
X155152390Y-100936380D02*
X155190485Y-100974476D01*
X155838104Y-101774476D02*
X155876200Y-101736380D01*
X155876200Y-101736380D02*
X155914295Y-101622095D01*
X155914295Y-101622095D02*
X155914295Y-101545904D01*
X155914295Y-101545904D02*
X155876200Y-101431618D01*
X155876200Y-101431618D02*
X155800009Y-101355428D01*
X155800009Y-101355428D02*
X155723819Y-101317333D01*
X155723819Y-101317333D02*
X155571438Y-101279237D01*
X155571438Y-101279237D02*
X155457152Y-101279237D01*
X155457152Y-101279237D02*
X155304771Y-101317333D01*
X155304771Y-101317333D02*
X155228580Y-101355428D01*
X155228580Y-101355428D02*
X155152390Y-101431618D01*
X155152390Y-101431618D02*
X155114295Y-101545904D01*
X155114295Y-101545904D02*
X155114295Y-101622095D01*
X155114295Y-101622095D02*
X155152390Y-101736380D01*
X155152390Y-101736380D02*
X155190485Y-101774476D01*
X158938094Y-92254819D02*
X158938094Y-91254819D01*
X158938094Y-91254819D02*
X158699999Y-91254819D01*
X158699999Y-91254819D02*
X158557142Y-91302438D01*
X158557142Y-91302438D02*
X158461904Y-91397676D01*
X158461904Y-91397676D02*
X158414285Y-91492914D01*
X158414285Y-91492914D02*
X158366666Y-91683390D01*
X158366666Y-91683390D02*
X158366666Y-91826247D01*
X158366666Y-91826247D02*
X158414285Y-92016723D01*
X158414285Y-92016723D02*
X158461904Y-92111961D01*
X158461904Y-92111961D02*
X158557142Y-92207200D01*
X158557142Y-92207200D02*
X158699999Y-92254819D01*
X158699999Y-92254819D02*
X158938094Y-92254819D01*
X158033332Y-91254819D02*
X157414285Y-91254819D01*
X157414285Y-91254819D02*
X157747618Y-91635771D01*
X157747618Y-91635771D02*
X157604761Y-91635771D01*
X157604761Y-91635771D02*
X157509523Y-91683390D01*
X157509523Y-91683390D02*
X157461904Y-91731009D01*
X157461904Y-91731009D02*
X157414285Y-91826247D01*
X157414285Y-91826247D02*
X157414285Y-92064342D01*
X157414285Y-92064342D02*
X157461904Y-92159580D01*
X157461904Y-92159580D02*
X157509523Y-92207200D01*
X157509523Y-92207200D02*
X157604761Y-92254819D01*
X157604761Y-92254819D02*
X157890475Y-92254819D01*
X157890475Y-92254819D02*
X157985713Y-92207200D01*
X157985713Y-92207200D02*
X158033332Y-92159580D01*
X165790094Y-111406319D02*
X165790094Y-110406319D01*
X165790094Y-110406319D02*
X165551999Y-110406319D01*
X165551999Y-110406319D02*
X165409142Y-110453938D01*
X165409142Y-110453938D02*
X165313904Y-110549176D01*
X165313904Y-110549176D02*
X165266285Y-110644414D01*
X165266285Y-110644414D02*
X165218666Y-110834890D01*
X165218666Y-110834890D02*
X165218666Y-110977747D01*
X165218666Y-110977747D02*
X165266285Y-111168223D01*
X165266285Y-111168223D02*
X165313904Y-111263461D01*
X165313904Y-111263461D02*
X165409142Y-111358700D01*
X165409142Y-111358700D02*
X165551999Y-111406319D01*
X165551999Y-111406319D02*
X165790094Y-111406319D01*
X164742475Y-111406319D02*
X164551999Y-111406319D01*
X164551999Y-111406319D02*
X164456761Y-111358700D01*
X164456761Y-111358700D02*
X164409142Y-111311080D01*
X164409142Y-111311080D02*
X164313904Y-111168223D01*
X164313904Y-111168223D02*
X164266285Y-110977747D01*
X164266285Y-110977747D02*
X164266285Y-110596795D01*
X164266285Y-110596795D02*
X164313904Y-110501557D01*
X164313904Y-110501557D02*
X164361523Y-110453938D01*
X164361523Y-110453938D02*
X164456761Y-110406319D01*
X164456761Y-110406319D02*
X164647237Y-110406319D01*
X164647237Y-110406319D02*
X164742475Y-110453938D01*
X164742475Y-110453938D02*
X164790094Y-110501557D01*
X164790094Y-110501557D02*
X164837713Y-110596795D01*
X164837713Y-110596795D02*
X164837713Y-110834890D01*
X164837713Y-110834890D02*
X164790094Y-110930128D01*
X164790094Y-110930128D02*
X164742475Y-110977747D01*
X164742475Y-110977747D02*
X164647237Y-111025366D01*
X164647237Y-111025366D02*
X164456761Y-111025366D01*
X164456761Y-111025366D02*
X164361523Y-110977747D01*
X164361523Y-110977747D02*
X164313904Y-110930128D01*
X164313904Y-110930128D02*
X164266285Y-110834890D01*
X127290094Y-89906319D02*
X127290094Y-88906319D01*
X127290094Y-88906319D02*
X127051999Y-88906319D01*
X127051999Y-88906319D02*
X126909142Y-88953938D01*
X126909142Y-88953938D02*
X126813904Y-89049176D01*
X126813904Y-89049176D02*
X126766285Y-89144414D01*
X126766285Y-89144414D02*
X126718666Y-89334890D01*
X126718666Y-89334890D02*
X126718666Y-89477747D01*
X126718666Y-89477747D02*
X126766285Y-89668223D01*
X126766285Y-89668223D02*
X126813904Y-89763461D01*
X126813904Y-89763461D02*
X126909142Y-89858700D01*
X126909142Y-89858700D02*
X127051999Y-89906319D01*
X127051999Y-89906319D02*
X127290094Y-89906319D01*
X125766285Y-89906319D02*
X126337713Y-89906319D01*
X126051999Y-89906319D02*
X126051999Y-88906319D01*
X126051999Y-88906319D02*
X126147237Y-89049176D01*
X126147237Y-89049176D02*
X126242475Y-89144414D01*
X126242475Y-89144414D02*
X126337713Y-89192033D01*
X130290094Y-108906319D02*
X130290094Y-107906319D01*
X130290094Y-107906319D02*
X130051999Y-107906319D01*
X130051999Y-107906319D02*
X129909142Y-107953938D01*
X129909142Y-107953938D02*
X129813904Y-108049176D01*
X129813904Y-108049176D02*
X129766285Y-108144414D01*
X129766285Y-108144414D02*
X129718666Y-108334890D01*
X129718666Y-108334890D02*
X129718666Y-108477747D01*
X129718666Y-108477747D02*
X129766285Y-108668223D01*
X129766285Y-108668223D02*
X129813904Y-108763461D01*
X129813904Y-108763461D02*
X129909142Y-108858700D01*
X129909142Y-108858700D02*
X130051999Y-108906319D01*
X130051999Y-108906319D02*
X130290094Y-108906319D01*
X128861523Y-108239652D02*
X128861523Y-108906319D01*
X129099618Y-107858700D02*
X129337713Y-108572985D01*
X129337713Y-108572985D02*
X128718666Y-108572985D01*
X147861904Y-69754819D02*
X147861904Y-70564342D01*
X147861904Y-70564342D02*
X147814285Y-70659580D01*
X147814285Y-70659580D02*
X147766666Y-70707200D01*
X147766666Y-70707200D02*
X147671428Y-70754819D01*
X147671428Y-70754819D02*
X147480952Y-70754819D01*
X147480952Y-70754819D02*
X147385714Y-70707200D01*
X147385714Y-70707200D02*
X147338095Y-70659580D01*
X147338095Y-70659580D02*
X147290476Y-70564342D01*
X147290476Y-70564342D02*
X147290476Y-69754819D01*
X146290476Y-70754819D02*
X146861904Y-70754819D01*
X146576190Y-70754819D02*
X146576190Y-69754819D01*
X146576190Y-69754819D02*
X146671428Y-69897676D01*
X146671428Y-69897676D02*
X146766666Y-69992914D01*
X146766666Y-69992914D02*
X146861904Y-70040533D01*
D13*
%TO.C,D12*%
X163450000Y-70501500D02*
X157550000Y-70501500D01*
X163450000Y-74401500D02*
X157550000Y-74401500D01*
X157550000Y-74401500D02*
X157550000Y-73326500D01*
%TO.C,D20*%
X117602000Y-106123653D02*
X117602000Y-112023653D01*
X121502000Y-106123653D02*
X121502000Y-112023653D01*
X121502000Y-112023653D02*
X120427000Y-112023653D01*
%TO.C,D10*%
X120902952Y-69605395D02*
X116731022Y-73777325D01*
X123660668Y-72363111D02*
X119488738Y-76535041D01*
X119488738Y-76535041D02*
X118728598Y-75774901D01*
%TO.C,D15*%
X177127000Y-112102797D02*
X177127000Y-106202797D01*
X173227000Y-112102797D02*
X173227000Y-106202797D01*
X173227000Y-106202797D02*
X174302000Y-106202797D01*
%TO.C,D18*%
X135536171Y-129776500D02*
X141436171Y-129776500D01*
X135536171Y-125876500D02*
X141436171Y-125876500D01*
X141436171Y-125876500D02*
X141436171Y-126951500D01*
%TO.C,D16*%
X173844893Y-130916323D02*
X178016823Y-126744393D01*
X171087177Y-128158607D02*
X175259107Y-123986677D01*
X175259107Y-123986677D02*
X176019247Y-124746817D01*
%TO.C,D13*%
X177898105Y-73777325D02*
X173726175Y-69605395D01*
X175140389Y-76535041D02*
X170968459Y-72363111D01*
X170968459Y-72363111D02*
X171728599Y-71602971D01*
%TO.C,D14*%
X177127000Y-94318919D02*
X177127000Y-88418919D01*
X173227000Y-94318919D02*
X173227000Y-88418919D01*
X173227000Y-88418919D02*
X174302000Y-88418919D01*
%TO.C,D21*%
X117602000Y-88379347D02*
X117602000Y-94279347D01*
X121502000Y-88379347D02*
X121502000Y-94279347D01*
X121502000Y-94279347D02*
X120427000Y-94279347D01*
%TO.C,D19*%
X116731022Y-126625675D02*
X120902952Y-130797605D01*
X119488738Y-123867959D02*
X123660668Y-128039889D01*
X123660668Y-128039889D02*
X122900528Y-128800029D01*
%TO.C,D11*%
X137502000Y-70501500D02*
X131602000Y-70501500D01*
X137502000Y-74401500D02*
X131602000Y-74401500D01*
X131602000Y-74401500D02*
X131602000Y-73326500D01*
%TO.C,D17*%
X153311674Y-129901500D02*
X159211674Y-129901500D01*
X153311674Y-126001500D02*
X159211674Y-126001500D01*
X159211674Y-126001500D02*
X159211674Y-127076500D01*
%TO.C,D7*%
X130622000Y-109831500D02*
X130622000Y-112071500D01*
X130622000Y-110951500D02*
X129972000Y-110951500D01*
X130622000Y-112071500D02*
X134862000Y-112071500D01*
X131222000Y-109831500D02*
X131222000Y-112071500D01*
X131342000Y-109831500D02*
X131342000Y-112071500D01*
X131462000Y-109831500D02*
X131462000Y-112071500D01*
X134862000Y-109831500D02*
X130622000Y-109831500D01*
X134862000Y-110951500D02*
X135512000Y-110951500D01*
X134862000Y-112071500D02*
X134862000Y-109831500D01*
%TO.C,D8*%
X143742000Y-109831500D02*
X143742000Y-112071500D01*
X143742000Y-110951500D02*
X143092000Y-110951500D01*
X143742000Y-112071500D02*
X147982000Y-112071500D01*
X144342000Y-109831500D02*
X144342000Y-112071500D01*
X144462000Y-109831500D02*
X144462000Y-112071500D01*
X144582000Y-109831500D02*
X144582000Y-112071500D01*
X147982000Y-109831500D02*
X143742000Y-109831500D01*
X147982000Y-110951500D02*
X148632000Y-110951500D01*
X147982000Y-112071500D02*
X147982000Y-109831500D01*
%TO.C,D2*%
X142790000Y-89680000D02*
X142790000Y-91920000D01*
X142790000Y-90800000D02*
X142140000Y-90800000D01*
X142790000Y-91920000D02*
X147030000Y-91920000D01*
X143390000Y-89680000D02*
X143390000Y-91920000D01*
X143510000Y-89680000D02*
X143510000Y-91920000D01*
X143630000Y-89680000D02*
X143630000Y-91920000D01*
X147030000Y-89680000D02*
X142790000Y-89680000D01*
X147030000Y-90800000D02*
X147680000Y-90800000D01*
X147030000Y-91920000D02*
X147030000Y-89680000D01*
%TO.C,D6*%
X160432000Y-107331500D02*
X160432000Y-109571500D01*
X160432000Y-108451500D02*
X159782000Y-108451500D01*
X160432000Y-109571500D02*
X164672000Y-109571500D01*
X161032000Y-107331500D02*
X161032000Y-109571500D01*
X161152000Y-107331500D02*
X161152000Y-109571500D01*
X161272000Y-107331500D02*
X161272000Y-109571500D01*
X164672000Y-107331500D02*
X160432000Y-107331500D01*
X164672000Y-108451500D02*
X165322000Y-108451500D01*
X164672000Y-109571500D02*
X164672000Y-107331500D01*
%TO.C,D5*%
X141242000Y-107331500D02*
X141242000Y-109571500D01*
X141242000Y-108451500D02*
X140592000Y-108451500D01*
X141242000Y-109571500D02*
X145482000Y-109571500D01*
X141842000Y-107331500D02*
X141842000Y-109571500D01*
X141962000Y-107331500D02*
X141962000Y-109571500D01*
X142082000Y-107331500D02*
X142082000Y-109571500D01*
X145482000Y-107331500D02*
X141242000Y-107331500D01*
X145482000Y-108451500D02*
X146132000Y-108451500D01*
X145482000Y-109571500D02*
X145482000Y-107331500D01*
D14*
%TO.C,OL1*%
X154052000Y-93514000D02*
X154052000Y-105514000D01*
D15*
X154052000Y-93514000D02*
X159052000Y-93514000D01*
X159052000Y-105514000D02*
X154052000Y-105514000D01*
D14*
X159052000Y-105514000D02*
X159052000Y-93514000D01*
D13*
%TO.C,D3*%
X155890000Y-90680000D02*
X155890000Y-92920000D01*
X155890000Y-91800000D02*
X155240000Y-91800000D01*
X155890000Y-92920000D02*
X160130000Y-92920000D01*
X156490000Y-90680000D02*
X156490000Y-92920000D01*
X156610000Y-90680000D02*
X156610000Y-92920000D01*
X156730000Y-90680000D02*
X156730000Y-92920000D01*
X160130000Y-90680000D02*
X155890000Y-90680000D01*
X160130000Y-91800000D02*
X160780000Y-91800000D01*
X160130000Y-92920000D02*
X160130000Y-90680000D01*
%TO.C,D9*%
X162742000Y-109831500D02*
X162742000Y-112071500D01*
X162742000Y-110951500D02*
X162092000Y-110951500D01*
X162742000Y-112071500D02*
X166982000Y-112071500D01*
X163342000Y-109831500D02*
X163342000Y-112071500D01*
X163462000Y-109831500D02*
X163462000Y-112071500D01*
X163582000Y-109831500D02*
X163582000Y-112071500D01*
X166982000Y-109831500D02*
X162742000Y-109831500D01*
X166982000Y-110951500D02*
X167632000Y-110951500D01*
X166982000Y-112071500D02*
X166982000Y-109831500D01*
%TO.C,D1*%
X124622000Y-88331500D02*
X124622000Y-90571500D01*
X124622000Y-89451500D02*
X123972000Y-89451500D01*
X124622000Y-90571500D02*
X128862000Y-90571500D01*
X128022000Y-90571500D02*
X128022000Y-88331500D01*
X128142000Y-90571500D02*
X128142000Y-88331500D01*
X128262000Y-90571500D02*
X128262000Y-88331500D01*
X128862000Y-88331500D02*
X124622000Y-88331500D01*
X128862000Y-89451500D02*
X129512000Y-89451500D01*
X128862000Y-90571500D02*
X128862000Y-88331500D01*
%TO.C,D4*%
X127432000Y-107331500D02*
X127432000Y-109571500D01*
X127432000Y-108451500D02*
X126782000Y-108451500D01*
X127432000Y-109571500D02*
X131672000Y-109571500D01*
X128032000Y-107331500D02*
X128032000Y-109571500D01*
X128152000Y-107331500D02*
X128152000Y-109571500D01*
X128272000Y-107331500D02*
X128272000Y-109571500D01*
X131672000Y-107331500D02*
X127432000Y-107331500D01*
X131672000Y-108451500D02*
X132322000Y-108451500D01*
X131672000Y-109571500D02*
X131672000Y-107331500D01*
D16*
%TO.C,U1*%
X138530000Y-69484000D02*
X138530000Y-86629000D01*
X140435000Y-88534000D02*
X154405000Y-88534000D01*
X142916000Y-67579000D02*
X142916000Y-66669000D01*
X143416000Y-66169000D02*
X151411272Y-66169000D01*
X151911272Y-66668728D02*
X151915000Y-67579000D01*
D15*
X154405000Y-67579000D02*
X140435000Y-67579000D01*
D16*
X154405000Y-67579000D02*
X140435000Y-67579000D01*
X156310000Y-69484000D02*
X156310000Y-86629000D01*
X138530000Y-69484000D02*
G75*
G02*
X140435000Y-67579000I1905000J0D01*
G01*
X140435000Y-88534000D02*
G75*
G02*
X138530000Y-86629000I0J1905000D01*
G01*
X142916000Y-66669000D02*
G75*
G02*
X143416000Y-66169000I500000J0D01*
G01*
X151411272Y-66169000D02*
G75*
G02*
X151911273Y-66668728I-18J-500019D01*
G01*
X154405000Y-67579000D02*
G75*
G02*
X156310000Y-69484000I-1J-1905001D01*
G01*
X156310000Y-86629000D02*
G75*
G02*
X154405000Y-88534000I-1905001J1D01*
G01*
D17*
X155479000Y-68700000D02*
G75*
G02*
X154975000Y-68700000I-252000J0D01*
G01*
X154975000Y-68700000D02*
G75*
G02*
X155479000Y-68700000I252000J0D01*
G01*
X156622000Y-67820000D02*
G75*
G02*
X156118000Y-67820000I-252000J0D01*
G01*
X156118000Y-67820000D02*
G75*
G02*
X156622000Y-67820000I252000J0D01*
G01*
%TD*%
M02*
