M48
; DRILL file {KiCad 9.0.3} date 2025-07-27T16:58:04-0400
; FORMAT={-:-/ absolute / metric / decimal}
; #@! TF.CreationDate,2025-07-27T16:58:04-04:00
; #@! TF.GenerationSoftware,Kicad,Pcbnew,9.0.3
; #@! TF.FileFunction,NonPlated,1,2,NPTH
FMAT,2
METRIC
; #@! TA.AperFunction,NonPlated,NPTH,ComponentDrill
T1C1.700
; #@! TA.AperFunction,NonPlated,NPTH,ComponentDrill
T2C4.000
%
G90
G05
T1
X123.23Y-81.106
X123.23Y-100.156
X123.23Y-119.206
X133.39Y-81.106
X133.39Y-100.156
X133.39Y-119.206
X142.28Y-81.106
X142.28Y-100.156
X142.28Y-119.206
X152.44Y-81.106
X152.44Y-100.156
X152.44Y-119.206
X161.33Y-100.156
X161.33Y-119.206
X171.49Y-100.156
X171.49Y-119.206
T2
X128.31Y-81.106
X128.31Y-100.156
X128.31Y-119.206
X147.36Y-81.106
X147.36Y-100.156
X147.36Y-119.206
X166.41Y-100.156
X166.41Y-119.206
M30
