%TF.GenerationSoftware,KiCad,Pcbnew,9.0.3*%
%TF.CreationDate,2025-07-27T16:49:54-04:00*%
%TF.ProjectId,hackpad,6861636b-7061-4642-9e6b-696361645f70,rev?*%
%TF.SameCoordinates,Original*%
%TF.FileFunction,Copper,L2,Bot*%
%TF.FilePolarity,Positive*%
%FSLAX46Y46*%
G04 Gerber Fmt 4.6, Leading zero omitted, Abs format (unit mm)*
G04 Created by KiCad (PCBNEW 9.0.3) date 2025-07-27 16:49:54*
%MOMM*%
%LPD*%
G01*
G04 APERTURE LIST*
G04 Aperture macros list*
%AMRoundRect*
0 Rectangle with rounded corners*
0 $1 Rounding radius*
0 $2 $3 $4 $5 $6 $7 $8 $9 X,Y pos of 4 corners*
0 Add a 4 corners polygon primitive as box body*
4,1,4,$2,$3,$4,$5,$6,$7,$8,$9,$2,$3,0*
0 Add four circle primitives for the rounded corners*
1,1,$1+$1,$2,$3*
1,1,$1+$1,$4,$5*
1,1,$1+$1,$6,$7*
1,1,$1+$1,$8,$9*
0 Add four rect primitives between the rounded corners*
20,1,$1+$1,$2,$3,$4,$5,0*
20,1,$1+$1,$4,$5,$6,$7,0*
20,1,$1+$1,$6,$7,$8,$9,0*
20,1,$1+$1,$8,$9,$2,$3,0*%
%AMRotRect*
0 Rectangle, with rotation*
0 The origin of the aperture is its center*
0 $1 length*
0 $2 width*
0 $3 Rotation angle, in degrees counterclockwise*
0 Add horizontal line*
21,1,$1,$2,0,0,$3*%
G04 Aperture macros list end*
%TA.AperFunction,SMDPad,CuDef*%
%ADD10R,1.600000X0.850000*%
%TD*%
%TA.AperFunction,SMDPad,CuDef*%
%ADD11R,0.850000X1.600000*%
%TD*%
%TA.AperFunction,SMDPad,CuDef*%
%ADD12RotRect,1.600000X0.850000X225.000000*%
%TD*%
%TA.AperFunction,SMDPad,CuDef*%
%ADD13RotRect,1.600000X0.850000X45.000000*%
%TD*%
%TA.AperFunction,SMDPad,CuDef*%
%ADD14RotRect,1.600000X0.850000X135.000000*%
%TD*%
%TA.AperFunction,SMDPad,CuDef*%
%ADD15RotRect,1.600000X0.850000X315.000000*%
%TD*%
%TA.AperFunction,ComponentPad*%
%ADD16C,3.500000*%
%TD*%
%TA.AperFunction,ComponentPad*%
%ADD17C,2.200000*%
%TD*%
%TA.AperFunction,ComponentPad*%
%ADD18R,1.600000X1.600000*%
%TD*%
%TA.AperFunction,ComponentPad*%
%ADD19O,1.600000X1.600000*%
%TD*%
%TA.AperFunction,ComponentPad*%
%ADD20R,1.700000X1.700000*%
%TD*%
%TA.AperFunction,ComponentPad*%
%ADD21O,1.700000X1.700000*%
%TD*%
%TA.AperFunction,SMDPad,CuDef*%
%ADD22RoundRect,0.152400X-1.063600X-0.609600X1.063600X-0.609600X1.063600X0.609600X-1.063600X0.609600X0*%
%TD*%
%TA.AperFunction,ComponentPad*%
%ADD23C,1.524000*%
%TD*%
%TA.AperFunction,SMDPad,CuDef*%
%ADD24RoundRect,0.152400X1.063600X0.609600X-1.063600X0.609600X-1.063600X-0.609600X1.063600X-0.609600X0*%
%TD*%
%TA.AperFunction,ComponentPad*%
%ADD25R,2.000000X2.000000*%
%TD*%
%TA.AperFunction,ComponentPad*%
%ADD26C,2.000000*%
%TD*%
%TA.AperFunction,ComponentPad*%
%ADD27R,3.200000X2.000000*%
%TD*%
%TA.AperFunction,Conductor*%
%ADD28C,0.200000*%
%TD*%
%TA.AperFunction,Conductor*%
%ADD29C,0.500000*%
%TD*%
G04 APERTURE END LIST*
D10*
%TO.P,D12,1,DOUT*%
%TO.N,Net-(D12-DOUT)*%
X158750000Y-71576500D03*
%TO.P,D12,2,VSS*%
%TO.N,GND*%
X158750000Y-73326500D03*
%TO.P,D12,3,DIN*%
%TO.N,Net-(D11-DOUT)*%
X162250000Y-73326500D03*
%TO.P,D12,4,VDD*%
%TO.N,+5V*%
X162250000Y-71576500D03*
%TD*%
D11*
%TO.P,D20,1,DOUT*%
%TO.N,Net-(D20-DOUT)*%
X118677000Y-110823653D03*
%TO.P,D20,2,VSS*%
%TO.N,GND*%
X120427000Y-110823653D03*
%TO.P,D20,3,DIN*%
%TO.N,Net-(D19-DOUT)*%
X120427000Y-107323653D03*
%TO.P,D20,4,VDD*%
%TO.N,+5V*%
X118677000Y-107323653D03*
%TD*%
D12*
%TO.P,D10,1,DOUT*%
%TO.N,Net-(D10-DOUT)*%
X118339690Y-73688936D03*
%TO.P,D10,2,VSS*%
%TO.N,GND*%
X119577127Y-74926373D03*
%TO.P,D10,3,DIN*%
%TO.N,LED*%
X122052000Y-72451500D03*
%TO.P,D10,4,VDD*%
%TO.N,+5V*%
X120814563Y-71214063D03*
%TD*%
D11*
%TO.P,D15,1,DOUT*%
%TO.N,Net-(D15-DOUT)*%
X176052000Y-107402797D03*
%TO.P,D15,2,VSS*%
%TO.N,GND*%
X174302000Y-107402797D03*
%TO.P,D15,3,DIN*%
%TO.N,Net-(D14-DOUT)*%
X174302000Y-110902797D03*
%TO.P,D15,4,VDD*%
%TO.N,+5V*%
X176052000Y-110902797D03*
%TD*%
D10*
%TO.P,D18,1,DOUT*%
%TO.N,Net-(D18-DOUT)*%
X140236171Y-128701500D03*
%TO.P,D18,2,VSS*%
%TO.N,GND*%
X140236171Y-126951500D03*
%TO.P,D18,3,DIN*%
%TO.N,Net-(D17-DOUT)*%
X136736171Y-126951500D03*
%TO.P,D18,4,VDD*%
%TO.N,+5V*%
X136736171Y-128701500D03*
%TD*%
D13*
%TO.P,D16,1,DOUT*%
%TO.N,Net-(D16-DOUT)*%
X176408155Y-126832782D03*
%TO.P,D16,2,VSS*%
%TO.N,GND*%
X175170718Y-125595345D03*
%TO.P,D16,3,DIN*%
%TO.N,Net-(D15-DOUT)*%
X172695845Y-128070218D03*
%TO.P,D16,4,VDD*%
%TO.N,+5V*%
X173933282Y-129307655D03*
%TD*%
D14*
%TO.P,D13,1,DOUT*%
%TO.N,Net-(D13-DOUT)*%
X173814564Y-71214063D03*
%TO.P,D13,2,VSS*%
%TO.N,GND*%
X172577127Y-72451500D03*
%TO.P,D13,3,DIN*%
%TO.N,Net-(D12-DOUT)*%
X175052000Y-74926373D03*
%TO.P,D13,4,VDD*%
%TO.N,+5V*%
X176289437Y-73688936D03*
%TD*%
D11*
%TO.P,D14,1,DOUT*%
%TO.N,Net-(D14-DOUT)*%
X176052000Y-89618919D03*
%TO.P,D14,2,VSS*%
%TO.N,GND*%
X174302000Y-89618919D03*
%TO.P,D14,3,DIN*%
%TO.N,Net-(D13-DOUT)*%
X174302000Y-93118919D03*
%TO.P,D14,4,VDD*%
%TO.N,+5V*%
X176052000Y-93118919D03*
%TD*%
%TO.P,D21,1,DOUT*%
%TO.N,unconnected-(D21-DOUT-Pad1)*%
X118677000Y-93079347D03*
%TO.P,D21,2,VSS*%
%TO.N,GND*%
X120427000Y-93079347D03*
%TO.P,D21,3,DIN*%
%TO.N,Net-(D20-DOUT)*%
X120427000Y-89579347D03*
%TO.P,D21,4,VDD*%
%TO.N,+5V*%
X118677000Y-89579347D03*
%TD*%
D15*
%TO.P,D19,1,DOUT*%
%TO.N,Net-(D19-DOUT)*%
X120814563Y-129188937D03*
%TO.P,D19,2,VSS*%
%TO.N,GND*%
X122052000Y-127951500D03*
%TO.P,D19,3,DIN*%
%TO.N,Net-(D18-DOUT)*%
X119577127Y-125476627D03*
%TO.P,D19,4,VDD*%
%TO.N,+5V*%
X118339690Y-126714064D03*
%TD*%
D10*
%TO.P,D11,1,DOUT*%
%TO.N,Net-(D11-DOUT)*%
X132802000Y-71576500D03*
%TO.P,D11,2,VSS*%
%TO.N,GND*%
X132802000Y-73326500D03*
%TO.P,D11,3,DIN*%
%TO.N,Net-(D10-DOUT)*%
X136302000Y-73326500D03*
%TO.P,D11,4,VDD*%
%TO.N,+5V*%
X136302000Y-71576500D03*
%TD*%
%TO.P,D17,1,DOUT*%
%TO.N,Net-(D17-DOUT)*%
X158011674Y-128826500D03*
%TO.P,D17,2,VSS*%
%TO.N,GND*%
X158011674Y-127076500D03*
%TO.P,D17,3,DIN*%
%TO.N,Net-(D16-DOUT)*%
X154511674Y-127076500D03*
%TO.P,D17,4,VDD*%
%TO.N,+5V*%
X154511674Y-128826500D03*
%TD*%
D16*
%TO.P,REF\u002A\u002A,1*%
%TO.N,N/C*%
X166422000Y-128791661D03*
%TD*%
D17*
%TO.P,SW4,1,1*%
%TO.N,Net-(D4-A)*%
X130850000Y-95076500D03*
%TO.P,SW4,2,2*%
%TO.N,COL0*%
X124500000Y-97616500D03*
%TD*%
%TO.P,SW1,1,1*%
%TO.N,Net-(D1-A)*%
X130850000Y-76026500D03*
%TO.P,SW1,2,2*%
%TO.N,COL0*%
X124500000Y-78566500D03*
%TD*%
%TO.P,SW9,1,1*%
%TO.N,Net-(D9-A)*%
X168950000Y-114126500D03*
%TO.P,SW9,2,2*%
%TO.N,COL2*%
X162600000Y-116666500D03*
%TD*%
D16*
%TO.P,REF\u002A\u002A,1*%
%TO.N,N/C*%
X118922000Y-100266661D03*
%TD*%
D17*
%TO.P,SW7,1,1*%
%TO.N,Net-(D7-A)*%
X130850000Y-114126500D03*
%TO.P,SW7,2,2*%
%TO.N,COL0*%
X124500000Y-116666500D03*
%TD*%
D16*
%TO.P,REF\u002A\u002A,1*%
%TO.N,N/C*%
X175672000Y-100266661D03*
%TD*%
%TO.P,REF\u002A\u002A,1*%
%TO.N,N/C*%
X128285000Y-72016661D03*
%TD*%
D17*
%TO.P,SW5,1,1*%
%TO.N,Net-(D5-A)*%
X149900000Y-95076500D03*
%TO.P,SW5,2,2*%
%TO.N,COL1*%
X143550000Y-97616500D03*
%TD*%
%TO.P,SW8,1,1*%
%TO.N,Net-(D8-A)*%
X149900000Y-114126500D03*
%TO.P,SW8,2,2*%
%TO.N,COL1*%
X143550000Y-116666500D03*
%TD*%
%TO.P,SW6,1,1*%
%TO.N,Net-(D6-A)*%
X168950000Y-95076500D03*
%TO.P,SW6,2,2*%
%TO.N,COL2*%
X162600000Y-97616500D03*
%TD*%
D16*
%TO.P,REF\u002A\u002A,1*%
%TO.N,N/C*%
X166422000Y-71766661D03*
%TD*%
%TO.P,REF\u002A\u002A,1*%
%TO.N,N/C*%
X128285000Y-128516661D03*
%TD*%
D18*
%TO.P,D7,1,K*%
%TO.N,ROW2*%
X128932000Y-110951500D03*
D19*
%TO.P,D7,2,A*%
%TO.N,Net-(D7-A)*%
X136552000Y-110951500D03*
%TD*%
D18*
%TO.P,D8,1,K*%
%TO.N,ROW2*%
X142052000Y-110951500D03*
D19*
%TO.P,D8,2,A*%
%TO.N,Net-(D8-A)*%
X149672000Y-110951500D03*
%TD*%
D18*
%TO.P,D2,1,K*%
%TO.N,ROW0*%
X141100000Y-90800000D03*
D19*
%TO.P,D2,2,A*%
%TO.N,Net-(D2-A)*%
X148720000Y-90800000D03*
%TD*%
D18*
%TO.P,D6,1,K*%
%TO.N,ROW1*%
X158742000Y-108451500D03*
D19*
%TO.P,D6,2,A*%
%TO.N,Net-(D6-A)*%
X166362000Y-108451500D03*
%TD*%
D18*
%TO.P,D5,1,K*%
%TO.N,ROW1*%
X139552000Y-108451500D03*
D19*
%TO.P,D5,2,A*%
%TO.N,Net-(D5-A)*%
X147172000Y-108451500D03*
%TD*%
D20*
%TO.P,OL1,1,GND*%
%TO.N,GND*%
X157552000Y-103324000D03*
D21*
%TO.P,OL1,2,VCC*%
%TO.N,+3V3*%
X157552000Y-100784000D03*
%TO.P,OL1,3,SCL*%
%TO.N,OL_SCL*%
X157552000Y-98244000D03*
%TO.P,OL1,4,SDA*%
%TO.N,OL_SDA*%
X157552000Y-95704000D03*
%TD*%
D18*
%TO.P,D3,1,K*%
%TO.N,ROW0*%
X154200000Y-91800000D03*
D19*
%TO.P,D3,2,A*%
%TO.N,EN_SW1*%
X161820000Y-91800000D03*
%TD*%
D18*
%TO.P,D9,1,K*%
%TO.N,ROW2*%
X161052000Y-110951500D03*
D19*
%TO.P,D9,2,A*%
%TO.N,Net-(D9-A)*%
X168672000Y-110951500D03*
%TD*%
D18*
%TO.P,D1,1,K*%
%TO.N,ROW0*%
X130552000Y-89451500D03*
D19*
%TO.P,D1,2,A*%
%TO.N,Net-(D1-A)*%
X122932000Y-89451500D03*
%TD*%
D18*
%TO.P,D4,1,K*%
%TO.N,ROW1*%
X125742000Y-108451500D03*
D19*
%TO.P,D4,2,A*%
%TO.N,Net-(D4-A)*%
X133362000Y-108451500D03*
%TD*%
D17*
%TO.P,SW2,1,1*%
%TO.N,Net-(D2-A)*%
X149900000Y-76026500D03*
%TO.P,SW2,2,2*%
%TO.N,COL1*%
X143550000Y-78566500D03*
%TD*%
D22*
%TO.P,U1,1,GPIO26/ADC0/A0*%
%TO.N,ROW0*%
X155875000Y-70500000D03*
D23*
X155040000Y-70500000D03*
D22*
%TO.P,U1,2,GPIO27/ADC1/A1*%
%TO.N,EN_A*%
X155875000Y-73040000D03*
D23*
X155040000Y-73040000D03*
D22*
%TO.P,U1,3,GPIO28/ADC2/A2*%
%TO.N,EN_B*%
X155875000Y-75580000D03*
D23*
X155040000Y-75580000D03*
D22*
%TO.P,U1,4,GPIO29/ADC3/A3*%
%TO.N,COL1*%
X155875000Y-78120000D03*
D23*
X155040000Y-78120000D03*
D22*
%TO.P,U1,5,GPIO6/SDA*%
%TO.N,OL_SDA*%
X155875000Y-80660000D03*
D23*
X155040000Y-80660000D03*
D22*
%TO.P,U1,6,GPIO7/SCL*%
%TO.N,OL_SCL*%
X155875000Y-83200000D03*
D23*
X155040000Y-83200000D03*
D22*
%TO.P,U1,7,GPIO0/TX*%
%TO.N,COL2*%
X155875000Y-85740000D03*
D23*
X155040000Y-85740000D03*
%TO.P,U1,8,GPIO1/RX*%
%TO.N,COL0*%
X139800000Y-85740000D03*
D24*
X138965000Y-85740000D03*
D23*
%TO.P,U1,9,GPIO2/SCK*%
%TO.N,LED*%
X139800000Y-83200000D03*
D24*
X138965000Y-83200000D03*
D23*
%TO.P,U1,10,GPIO4/MISO*%
%TO.N,ROW2*%
X139800000Y-80660000D03*
D24*
X138965000Y-80660000D03*
D23*
%TO.P,U1,11,GPIO3/MOSI*%
%TO.N,ROW1*%
X139800000Y-78120000D03*
D24*
X138965000Y-78120000D03*
D23*
%TO.P,U1,12,3V3*%
%TO.N,+3V3*%
X139800000Y-75580000D03*
D24*
X138965000Y-75580000D03*
D23*
%TO.P,U1,13,GND*%
%TO.N,GND*%
X139800000Y-73040000D03*
D24*
X138965000Y-73040000D03*
D23*
%TO.P,U1,14,VBUS*%
%TO.N,+5V*%
X139800000Y-70500000D03*
D24*
X138965000Y-70500000D03*
%TD*%
D25*
%TO.P,SW3,A,A*%
%TO.N,EN_A*%
X159160000Y-78606500D03*
D26*
%TO.P,SW3,B,B*%
%TO.N,EN_B*%
X159160000Y-83606500D03*
%TO.P,SW3,C,C*%
%TO.N,GND*%
X159160000Y-81106500D03*
D27*
%TO.P,SW3,MP*%
%TO.N,N/C*%
X166660000Y-75506500D03*
X166660000Y-86706500D03*
D26*
%TO.P,SW3,S1,S1*%
%TO.N,COL2*%
X173660000Y-83606500D03*
%TO.P,SW3,S2,S2*%
%TO.N,EN_SW1*%
X173660000Y-78606500D03*
%TD*%
D28*
%TO.N,Net-(D11-DOUT)*%
X132802000Y-71576500D02*
X134524000Y-71576500D01*
X157000000Y-71750000D02*
X157552500Y-72302500D01*
X134524000Y-71576500D02*
X135250000Y-72302500D01*
X135250000Y-72302500D02*
X137383874Y-72302500D01*
X137936374Y-71750000D02*
X157000000Y-71750000D01*
X137383874Y-72302500D02*
X137936374Y-71750000D01*
X157552500Y-72302500D02*
X160226000Y-72302500D01*
X160226000Y-72302500D02*
X161250000Y-73326500D01*
X161250000Y-73326500D02*
X162250000Y-73326500D01*
%TO.N,Net-(D12-DOUT)*%
X158302000Y-71576500D02*
X160576500Y-71576500D01*
X165000000Y-77000000D02*
X168500000Y-77000000D01*
X168500000Y-77000000D02*
X169750000Y-75750000D01*
X169750000Y-73500000D02*
X171965706Y-71284294D01*
X171965706Y-71284294D02*
X172436641Y-71284294D01*
X160576500Y-71576500D02*
X161302500Y-72302500D01*
X163048768Y-72302500D02*
X163750000Y-73003732D01*
X163750000Y-73003732D02*
X163750000Y-75750000D01*
X163750000Y-75750000D02*
X165000000Y-77000000D01*
X169750000Y-75750000D02*
X169750000Y-73500000D01*
X161302500Y-72302500D02*
X163048768Y-72302500D01*
X172436641Y-71284294D02*
X174599000Y-73446652D01*
X174599000Y-73446652D02*
X174599000Y-74473373D01*
X174599000Y-74473373D02*
X175052000Y-74926373D01*
%TO.N,Net-(D15-DOUT)*%
X176052000Y-107402797D02*
X176052000Y-108476000D01*
X176052000Y-108476000D02*
X175326000Y-109202000D01*
X175326000Y-109202000D02*
X175326000Y-109750000D01*
X175250000Y-126542783D02*
X175250000Y-126579937D01*
X175250000Y-126579937D02*
X174230937Y-127599000D01*
X176750000Y-125042783D02*
X175250000Y-126542783D01*
X175326000Y-112076000D02*
X176750000Y-113500000D01*
X175326000Y-109500000D02*
X175326000Y-112076000D01*
X176750000Y-113500000D02*
X176750000Y-125042783D01*
X174230937Y-127599000D02*
X173626683Y-127599000D01*
X173626683Y-127599000D02*
X173155465Y-128070218D01*
X173155465Y-128070218D02*
X172695845Y-128070218D01*
%TO.N,Net-(D16-DOUT)*%
X176408155Y-126832782D02*
X175240937Y-128000000D01*
X161000000Y-126000000D02*
X159197500Y-127802500D01*
X175240937Y-128000000D02*
X173792783Y-128000000D01*
X173792783Y-128000000D02*
X172555359Y-129237424D01*
X172555359Y-129237424D02*
X172237424Y-129237424D01*
X172237424Y-129237424D02*
X169000000Y-126000000D01*
X169000000Y-126000000D02*
X161000000Y-126000000D01*
X159197500Y-127802500D02*
X156802500Y-127802500D01*
X156802500Y-127802500D02*
X156076500Y-127076500D01*
X156076500Y-127076500D02*
X154511674Y-127076500D01*
D29*
%TO.N,GND*%
X158378500Y-73250000D02*
X158302000Y-73326500D01*
%TO.N,+5V*%
X176289437Y-73688936D02*
X176289437Y-72450084D01*
X176289437Y-72450084D02*
X173736210Y-69896857D01*
X173736210Y-69896857D02*
X171853143Y-69896857D01*
X167782339Y-73967661D02*
X165493161Y-73967661D01*
X171853143Y-69896857D02*
X167782339Y-73967661D01*
X165493161Y-73967661D02*
X163102000Y-71576500D01*
X163102000Y-71576500D02*
X161802000Y-71576500D01*
D28*
%TO.N,Net-(D13-DOUT)*%
X174302000Y-93118919D02*
X174302000Y-91500000D01*
X176219206Y-75066859D02*
X175000000Y-73847653D01*
X174302000Y-91500000D02*
X175028000Y-90774000D01*
X175000000Y-72399499D02*
X173814564Y-71214063D01*
X176219206Y-85874713D02*
X176219206Y-75066859D01*
X175028000Y-90774000D02*
X175028000Y-87065919D01*
X175028000Y-87065919D02*
X176219206Y-85874713D01*
X175000000Y-73847653D02*
X175000000Y-72399499D01*
D29*
%TO.N,GND*%
X122052000Y-127951500D02*
X122799500Y-128699000D01*
X122799500Y-128699000D02*
X123250000Y-128699000D01*
X121500000Y-127399500D02*
X121500000Y-126500000D01*
X122052000Y-127951500D02*
X121500000Y-127399500D01*
X158673500Y-127076500D02*
X159500000Y-126250000D01*
X158011674Y-127076500D02*
X158673500Y-127076500D01*
X157576500Y-127076500D02*
X156750000Y-126250000D01*
X157576500Y-127076500D02*
X158011674Y-127076500D01*
X141210000Y-73040000D02*
X141250000Y-73000000D01*
X139800000Y-73040000D02*
X141210000Y-73040000D01*
D28*
%TO.N,Net-(D10-DOUT)*%
X118339690Y-73688936D02*
X119787844Y-73688936D01*
X119787844Y-73688936D02*
X122192486Y-71284294D01*
X129932339Y-74067661D02*
X131500000Y-72500000D01*
X122784294Y-71284294D02*
X125567661Y-74067661D01*
X125567661Y-74067661D02*
X129932339Y-74067661D01*
X122192486Y-71284294D02*
X122784294Y-71284294D01*
X131500000Y-72500000D02*
X134750000Y-72500000D01*
X134750000Y-72500000D02*
X135576500Y-73326500D01*
X135576500Y-73326500D02*
X136302000Y-73326500D01*
D29*
%TO.N,+5V*%
X176289437Y-73688936D02*
X176928000Y-74327499D01*
X176928000Y-74327499D02*
X176928000Y-92242919D01*
X176928000Y-92242919D02*
X176052000Y-93118919D01*
X176052000Y-93118919D02*
X176052000Y-96773976D01*
X176052000Y-96773976D02*
X173471000Y-99354976D01*
X173471000Y-99354976D02*
X173471000Y-102694797D01*
X176928000Y-110026797D02*
X176052000Y-110902797D01*
X173471000Y-102694797D02*
X176928000Y-106151797D01*
X176928000Y-106151797D02*
X176928000Y-110026797D01*
D28*
%TO.N,Net-(D14-DOUT)*%
X174302000Y-110902797D02*
X174302000Y-109198000D01*
X172750000Y-97750000D02*
X175250000Y-95250000D01*
X174302000Y-109198000D02*
X175028000Y-108472000D01*
X175250000Y-92093919D02*
X176052000Y-91291919D01*
X175028000Y-108472000D02*
X175028000Y-105038239D01*
X175250000Y-95250000D02*
X175250000Y-92093919D01*
X175028000Y-105038239D02*
X172750000Y-102760239D01*
X172750000Y-102760239D02*
X172750000Y-97750000D01*
X176052000Y-91291919D02*
X176052000Y-89618919D01*
D29*
%TO.N,+5V*%
X176052000Y-110902797D02*
X177796214Y-112647011D01*
X177796214Y-126683575D02*
X175172134Y-129307655D01*
X177796214Y-112647011D02*
X177796214Y-126683575D01*
X175172134Y-129307655D02*
X173933282Y-129307655D01*
X154511674Y-128826500D02*
X155435174Y-129750000D01*
X155435174Y-129750000D02*
X160250000Y-129750000D01*
X163409339Y-126590661D02*
X168811429Y-126590661D01*
X168811429Y-126590661D02*
X172009192Y-129788424D01*
X160250000Y-129750000D02*
X163409339Y-126590661D01*
X172009192Y-129788424D02*
X173452513Y-129788424D01*
X173452513Y-129788424D02*
X173933282Y-129307655D01*
X136736171Y-128701500D02*
X137612171Y-129577500D01*
X137612171Y-129577500D02*
X153760674Y-129577500D01*
X153760674Y-129577500D02*
X154511674Y-128826500D01*
X118677000Y-107323653D02*
X117801000Y-108199653D01*
X117801000Y-126175374D02*
X118339690Y-126714064D01*
X117801000Y-108199653D02*
X117801000Y-126175374D01*
X118677000Y-89579347D02*
X117801000Y-90455347D01*
X117801000Y-90455347D02*
X117801000Y-94330347D01*
X117801000Y-94330347D02*
X121449000Y-97978347D01*
X121449000Y-97978347D02*
X121449000Y-103251653D01*
X121449000Y-103251653D02*
X118677000Y-106023653D01*
X118677000Y-106023653D02*
X118677000Y-107323653D01*
D28*
%TO.N,Net-(D20-DOUT)*%
X120427000Y-89579347D02*
X120427000Y-91073000D01*
X119701000Y-91799000D02*
X119701000Y-94951000D01*
X120427000Y-91073000D02*
X119701000Y-91799000D01*
X118677000Y-109823000D02*
X118677000Y-110823653D01*
X119701000Y-94951000D02*
X122000000Y-97250000D01*
X122000000Y-97250000D02*
X122000000Y-104000000D01*
X122000000Y-104000000D02*
X119500000Y-106500000D01*
X119500000Y-106500000D02*
X119500000Y-109000000D01*
X119500000Y-109000000D02*
X118677000Y-109823000D01*
%TO.N,Net-(D19-DOUT)*%
X120814563Y-129188937D02*
X119750000Y-128124374D01*
X119750000Y-128124374D02*
X119750000Y-127097654D01*
X120427000Y-108823000D02*
X120427000Y-107323653D01*
X119750000Y-127097654D02*
X119500000Y-126847654D01*
X119500000Y-126847654D02*
X119500000Y-126426220D01*
X119500000Y-126426220D02*
X118409921Y-125336141D01*
X118409921Y-125336141D02*
X118409921Y-124840079D01*
X119701000Y-109549000D02*
X120427000Y-108823000D01*
X118409921Y-124840079D02*
X119701000Y-123549000D01*
X119701000Y-123549000D02*
X119701000Y-109549000D01*
%TO.N,Net-(D18-DOUT)*%
X140236171Y-128701500D02*
X139081900Y-128701500D01*
X135933171Y-127975500D02*
X134423332Y-126465661D01*
X123750000Y-129250000D02*
X122323780Y-129250000D01*
X138355900Y-127975500D02*
X135933171Y-127975500D01*
X120884794Y-127811014D02*
X120884794Y-126784294D01*
X134423332Y-126465661D02*
X126534339Y-126465661D01*
X139081900Y-128701500D02*
X138355900Y-127975500D01*
X126534339Y-126465661D02*
X123750000Y-129250000D01*
X120884794Y-126784294D02*
X119577127Y-125476627D01*
X122323780Y-129250000D02*
X120884794Y-127811014D01*
D29*
%TO.N,+5V*%
X136736171Y-128701500D02*
X134720010Y-130717661D01*
X134720010Y-130717661D02*
X121104435Y-130717661D01*
X118339690Y-127952916D02*
X118339690Y-126714064D01*
X121104435Y-130717661D02*
X118339690Y-127952916D01*
D28*
%TO.N,Net-(D17-DOUT)*%
X136736171Y-126951500D02*
X137899000Y-126951500D01*
X138750000Y-127802500D02*
X155750000Y-127802500D01*
X137899000Y-126951500D02*
X138750000Y-127802500D01*
X156774000Y-128826500D02*
X158011674Y-128826500D01*
X155750000Y-127802500D02*
X156774000Y-128826500D01*
D29*
%TO.N,+5V*%
X120814563Y-71214063D02*
X119575711Y-71214063D01*
X119575711Y-71214063D02*
X117022484Y-73767290D01*
X117022484Y-73767290D02*
X117022484Y-87924831D01*
X117022484Y-87924831D02*
X118677000Y-89579347D01*
X120814563Y-71214063D02*
X122260965Y-69767661D01*
X122260965Y-69767661D02*
X134493161Y-69767661D01*
X134493161Y-69767661D02*
X136302000Y-71576500D01*
X139800000Y-70500000D02*
X137378500Y-70500000D01*
X137378500Y-70500000D02*
X136302000Y-71576500D01*
D28*
%TO.N,LED*%
X139800000Y-83200000D02*
X137461000Y-83200000D01*
X137461000Y-83200000D02*
X132061000Y-77800000D01*
X132061000Y-77800000D02*
X127400500Y-77800000D01*
X127400500Y-77800000D02*
X122052000Y-72451500D01*
%TO.N,ROW0*%
X154100000Y-91900000D02*
X154200000Y-91800000D01*
X141100000Y-90800000D02*
X142200000Y-91900000D01*
X142200000Y-91900000D02*
X154100000Y-91900000D01*
%TO.N,ROW1*%
X140052000Y-108451500D02*
X141152000Y-107351500D01*
X126842000Y-107351500D02*
X138452000Y-107351500D01*
X139820000Y-78120000D02*
X141052000Y-79352000D01*
X139100000Y-89000000D02*
X139100000Y-107999500D01*
X141052000Y-87048000D02*
X139100000Y-89000000D01*
X141152000Y-107351500D02*
X157642000Y-107351500D01*
X139100000Y-107999500D02*
X139552000Y-108451500D01*
X139800000Y-78120000D02*
X139820000Y-78120000D01*
X141052000Y-79352000D02*
X141052000Y-87048000D01*
X125742000Y-108451500D02*
X126842000Y-107351500D01*
X138452000Y-107351500D02*
X139552000Y-108451500D01*
X139552000Y-108451500D02*
X140052000Y-108451500D01*
X157642000Y-107351500D02*
X158742000Y-108451500D01*
%TO.N,ROW2*%
X159952000Y-109851500D02*
X161052000Y-110951500D01*
X143152000Y-109851500D02*
X159952000Y-109851500D01*
X142052000Y-110951500D02*
X143152000Y-109851500D01*
D29*
%TO.N,Net-(D17-DOUT)*%
X158386674Y-128826500D02*
X158011674Y-128826500D01*
%TO.N,Net-(D18-DOUT)*%
X140236171Y-128701500D02*
X140802000Y-128701500D01*
%TO.N,Net-(D12-DOUT)*%
X158302000Y-71602000D02*
X158302000Y-71576500D01*
%TO.N,GND*%
X159160000Y-81106500D02*
X159832161Y-81106500D01*
%TO.N,Net-(D13-DOUT)*%
X174302000Y-93118919D02*
X174302000Y-93636661D01*
D28*
%TO.N,GND*%
X158242161Y-73266661D02*
X158302000Y-73326500D01*
%TO.N,+5V*%
X136302000Y-71576500D02*
X136302000Y-71658214D01*
X173933282Y-129307655D02*
X173925627Y-129300000D01*
%TO.N,COL1*%
X155040000Y-78120000D02*
X154960000Y-78200000D01*
X143916500Y-78200000D02*
X143550000Y-78566500D01*
X154960000Y-78200000D02*
X143916500Y-78200000D01*
%TO.N,GND*%
X175052000Y-125476627D02*
X175170718Y-125595345D01*
D29*
X159832161Y-81106500D02*
X160922000Y-80016661D01*
X138965000Y-73040000D02*
X137255000Y-74750000D01*
X137255000Y-74750000D02*
X137000000Y-74750000D01*
%TD*%
%TA.AperFunction,Conductor*%
%TO.N,GND*%
G36*
X172443684Y-72333903D02*
G01*
X172488031Y-72362404D01*
X172577126Y-72451499D01*
X172578185Y-72450440D01*
X172639508Y-72416953D01*
X172709199Y-72421936D01*
X172753550Y-72450438D01*
X173962181Y-73659069D01*
X173995666Y-73720392D01*
X173998500Y-73746750D01*
X173998500Y-74089326D01*
X173978815Y-74156365D01*
X173962185Y-74177002D01*
X173894093Y-74245096D01*
X173798037Y-74341152D01*
X173760416Y-74387836D01*
X173760414Y-74387838D01*
X173700629Y-74518748D01*
X173700628Y-74518752D01*
X173680148Y-74661208D01*
X173700628Y-74803663D01*
X173700629Y-74803667D01*
X173760415Y-74934578D01*
X173760416Y-74934579D01*
X173760417Y-74934581D01*
X173798036Y-74981264D01*
X173798039Y-74981267D01*
X173798044Y-74981273D01*
X174707038Y-75890265D01*
X174997109Y-76180336D01*
X175043792Y-76217956D01*
X175043793Y-76217956D01*
X175043795Y-76217958D01*
X175174705Y-76277743D01*
X175174706Y-76277743D01*
X175174708Y-76277744D01*
X175317165Y-76298225D01*
X175459622Y-76277744D01*
X175459623Y-76277743D01*
X175459765Y-76277702D01*
X175459915Y-76277701D01*
X175468401Y-76276482D01*
X175468576Y-76277701D01*
X175529635Y-76277698D01*
X175588415Y-76315469D01*
X175617443Y-76379024D01*
X175618706Y-76396677D01*
X175618706Y-85574615D01*
X175599021Y-85641654D01*
X175582387Y-85662296D01*
X174547481Y-86697201D01*
X174547480Y-86697203D01*
X174503491Y-86773396D01*
X174497361Y-86784013D01*
X174497359Y-86784015D01*
X174468425Y-86834128D01*
X174468424Y-86834129D01*
X174468423Y-86834134D01*
X174427499Y-86986862D01*
X174427499Y-86986864D01*
X174427499Y-87154965D01*
X174427500Y-87154978D01*
X174427500Y-89494919D01*
X174407815Y-89561958D01*
X174355011Y-89607713D01*
X174303500Y-89618919D01*
X174302000Y-89618919D01*
X174302000Y-89744919D01*
X174282315Y-89811958D01*
X174229511Y-89857713D01*
X174178000Y-89868919D01*
X173377000Y-89868919D01*
X173377000Y-90466763D01*
X173383401Y-90526291D01*
X173383403Y-90526298D01*
X173433645Y-90661005D01*
X173433649Y-90661012D01*
X173519809Y-90776106D01*
X173519812Y-90776109D01*
X173634906Y-90862269D01*
X173634913Y-90862273D01*
X173769625Y-90912517D01*
X173772128Y-90913109D01*
X173773869Y-90914100D01*
X173776892Y-90915228D01*
X173776709Y-90915717D01*
X173832845Y-90947681D01*
X173865232Y-91009591D01*
X173859006Y-91079183D01*
X173847370Y-91101689D01*
X173840352Y-91112411D01*
X173821480Y-91131284D01*
X173774381Y-91212862D01*
X173772655Y-91215851D01*
X173772654Y-91215853D01*
X173752210Y-91251264D01*
X173742423Y-91268215D01*
X173701499Y-91420943D01*
X173701499Y-91420945D01*
X173701499Y-91589046D01*
X173701500Y-91589059D01*
X173701500Y-91765057D01*
X173681815Y-91832096D01*
X173641581Y-91869556D01*
X173641769Y-91869807D01*
X173639441Y-91871549D01*
X173636932Y-91873886D01*
X173634670Y-91875121D01*
X173519455Y-91961371D01*
X173519452Y-91961374D01*
X173433206Y-92076583D01*
X173433202Y-92076590D01*
X173382908Y-92211436D01*
X173376501Y-92271035D01*
X173376500Y-92271054D01*
X173376500Y-93966789D01*
X173376501Y-93966795D01*
X173382908Y-94026402D01*
X173433202Y-94161247D01*
X173433206Y-94161254D01*
X173519452Y-94276463D01*
X173519455Y-94276466D01*
X173634664Y-94362712D01*
X173634671Y-94362716D01*
X173769517Y-94413010D01*
X173769516Y-94413010D01*
X173776444Y-94413754D01*
X173829127Y-94419419D01*
X174525500Y-94419418D01*
X174592539Y-94439102D01*
X174638294Y-94491906D01*
X174649500Y-94543418D01*
X174649500Y-94949902D01*
X174629815Y-95016941D01*
X174613181Y-95037583D01*
X172269481Y-97381282D01*
X172269480Y-97381284D01*
X172220073Y-97466861D01*
X172190423Y-97518215D01*
X172149499Y-97670943D01*
X172149499Y-97670945D01*
X172149499Y-97839046D01*
X172149500Y-97839059D01*
X172149500Y-99055062D01*
X172129815Y-99122101D01*
X172077011Y-99167856D01*
X172007853Y-99177800D01*
X171969206Y-99165547D01*
X171912450Y-99136629D01*
X171912447Y-99136628D01*
X171912445Y-99136627D01*
X171747701Y-99083098D01*
X171747699Y-99083097D01*
X171747698Y-99083097D01*
X171616271Y-99062281D01*
X171576611Y-99056000D01*
X171403389Y-99056000D01*
X171363728Y-99062281D01*
X171232302Y-99083097D01*
X171067552Y-99136628D01*
X170913211Y-99215268D01*
X170839036Y-99269160D01*
X170773072Y-99317086D01*
X170773070Y-99317088D01*
X170773069Y-99317088D01*
X170650588Y-99439569D01*
X170650588Y-99439570D01*
X170650586Y-99439572D01*
X170626944Y-99472112D01*
X170548768Y-99579711D01*
X170470128Y-99734052D01*
X170416597Y-99898802D01*
X170389500Y-100069889D01*
X170389500Y-100243110D01*
X170416592Y-100414167D01*
X170416598Y-100414201D01*
X170470127Y-100578945D01*
X170548768Y-100733288D01*
X170650586Y-100873428D01*
X170773072Y-100995914D01*
X170913212Y-101097732D01*
X171067555Y-101176373D01*
X171232299Y-101229902D01*
X171403389Y-101257000D01*
X171403390Y-101257000D01*
X171576610Y-101257000D01*
X171576611Y-101257000D01*
X171747701Y-101229902D01*
X171912445Y-101176373D01*
X171969204Y-101147452D01*
X172037874Y-101134556D01*
X172102614Y-101160832D01*
X172142872Y-101217938D01*
X172149500Y-101257937D01*
X172149500Y-102673569D01*
X172149499Y-102673587D01*
X172149499Y-102839293D01*
X172149498Y-102839293D01*
X172149499Y-102839296D01*
X172190423Y-102992024D01*
X172213931Y-103032741D01*
X172269477Y-103128951D01*
X172269481Y-103128956D01*
X172388349Y-103247824D01*
X172388355Y-103247829D01*
X174391181Y-105250655D01*
X174424666Y-105311978D01*
X174427500Y-105338336D01*
X174427500Y-107278797D01*
X174407815Y-107345836D01*
X174355011Y-107391591D01*
X174303500Y-107402797D01*
X174302000Y-107402797D01*
X174302000Y-107528797D01*
X174282315Y-107595836D01*
X174229511Y-107641591D01*
X174178000Y-107652797D01*
X173377000Y-107652797D01*
X173377000Y-108250641D01*
X173383401Y-108310169D01*
X173383403Y-108310176D01*
X173433645Y-108444883D01*
X173433649Y-108444890D01*
X173519809Y-108559984D01*
X173519812Y-108559987D01*
X173634906Y-108646147D01*
X173634915Y-108646152D01*
X173738070Y-108684626D01*
X173753496Y-108696174D01*
X173771389Y-108703337D01*
X173780892Y-108716681D01*
X173794004Y-108726497D01*
X173800737Y-108744550D01*
X173811918Y-108760250D01*
X173812697Y-108776614D01*
X173818422Y-108791961D01*
X173814325Y-108810791D01*
X173815243Y-108830041D01*
X173804064Y-108857963D01*
X173803571Y-108860234D01*
X173802136Y-108862788D01*
X173793327Y-108878047D01*
X173742423Y-108966215D01*
X173701499Y-109118943D01*
X173701499Y-109118945D01*
X173701499Y-109287046D01*
X173701500Y-109287059D01*
X173701500Y-109548935D01*
X173681815Y-109615974D01*
X173641581Y-109653434D01*
X173641769Y-109653685D01*
X173639441Y-109655427D01*
X173636932Y-109657764D01*
X173634670Y-109658999D01*
X173519455Y-109745249D01*
X173519452Y-109745252D01*
X173433206Y-109860461D01*
X173433202Y-109860468D01*
X173382908Y-109995314D01*
X173376501Y-110054913D01*
X173376500Y-110054932D01*
X173376500Y-111750667D01*
X173376501Y-111750673D01*
X173382908Y-111810280D01*
X173433202Y-111945125D01*
X173433206Y-111945132D01*
X173519452Y-112060341D01*
X173519455Y-112060344D01*
X173634664Y-112146590D01*
X173634671Y-112146594D01*
X173769517Y-112196888D01*
X173769516Y-112196888D01*
X173776444Y-112197632D01*
X173829127Y-112203297D01*
X174643276Y-112203296D01*
X174710315Y-112222980D01*
X174754949Y-112273397D01*
X174760028Y-112283921D01*
X174766423Y-112307785D01*
X174795360Y-112357904D01*
X174797648Y-112361868D01*
X174797652Y-112361875D01*
X174845479Y-112444714D01*
X174845481Y-112444717D01*
X174964349Y-112563585D01*
X174964355Y-112563590D01*
X176113181Y-113712416D01*
X176146666Y-113773739D01*
X176149500Y-113800097D01*
X176149500Y-124436287D01*
X176129815Y-124503326D01*
X176077011Y-124549081D01*
X176007853Y-124559025D01*
X175944297Y-124530000D01*
X175937819Y-124523968D01*
X175755615Y-124341764D01*
X175708984Y-124304187D01*
X175708977Y-124304182D01*
X175578204Y-124244460D01*
X175578196Y-124244458D01*
X175435883Y-124223998D01*
X175293569Y-124244458D01*
X175293561Y-124244460D01*
X175162788Y-124304182D01*
X175162781Y-124304187D01*
X175116145Y-124341768D01*
X174693420Y-124764493D01*
X174693420Y-124764494D01*
X175259813Y-125330887D01*
X175293298Y-125392210D01*
X175288314Y-125461901D01*
X175259814Y-125506249D01*
X175170718Y-125595345D01*
X175171779Y-125596406D01*
X175205264Y-125657729D01*
X175200280Y-125727421D01*
X175171779Y-125771768D01*
X174769481Y-126174065D01*
X174769479Y-126174067D01*
X174733930Y-126235643D01*
X174733923Y-126235654D01*
X174726883Y-126247845D01*
X174707183Y-126273516D01*
X174018521Y-126962181D01*
X173957198Y-126995666D01*
X173930840Y-126998500D01*
X173713352Y-126998500D01*
X173713336Y-126998499D01*
X173705740Y-126998499D01*
X173547626Y-126998499D01*
X173547624Y-126998499D01*
X173539570Y-126999560D01*
X173539302Y-126997528D01*
X173480418Y-126996121D01*
X173430505Y-126965694D01*
X173281073Y-126816262D01*
X173281066Y-126816255D01*
X173234383Y-126778635D01*
X173234381Y-126778634D01*
X173234379Y-126778632D01*
X173103469Y-126718847D01*
X173103465Y-126718846D01*
X172961010Y-126698366D01*
X172818554Y-126718846D01*
X172818550Y-126718847D01*
X172687639Y-126778633D01*
X172640944Y-126816262D01*
X171740902Y-127716305D01*
X171679579Y-127749790D01*
X171609887Y-127744806D01*
X171565540Y-127716305D01*
X169709745Y-125860510D01*
X173799371Y-125860510D01*
X173819831Y-126002823D01*
X173819833Y-126002831D01*
X173879555Y-126133604D01*
X173879560Y-126133611D01*
X173917137Y-126180242D01*
X174074702Y-126337807D01*
X174074703Y-126337807D01*
X174817164Y-125595344D01*
X174817164Y-125595343D01*
X174339867Y-125118047D01*
X174339866Y-125118047D01*
X173917141Y-125540772D01*
X173879560Y-125587408D01*
X173879555Y-125587415D01*
X173819833Y-125718188D01*
X173819831Y-125718196D01*
X173799371Y-125860510D01*
X169709745Y-125860510D01*
X169487590Y-125638355D01*
X169487588Y-125638352D01*
X169368717Y-125519481D01*
X169368716Y-125519480D01*
X169280275Y-125468419D01*
X169280274Y-125468418D01*
X169231790Y-125440425D01*
X169231787Y-125440423D01*
X169162008Y-125421726D01*
X169079057Y-125399499D01*
X168920943Y-125399499D01*
X168913347Y-125399499D01*
X168913331Y-125399500D01*
X161086669Y-125399500D01*
X161086653Y-125399499D01*
X161079057Y-125399499D01*
X160920943Y-125399499D01*
X160844579Y-125419961D01*
X160768212Y-125440423D01*
X160768209Y-125440425D01*
X160719726Y-125468418D01*
X160719725Y-125468419D01*
X160719722Y-125468421D01*
X160631285Y-125519479D01*
X160631282Y-125519481D01*
X160519478Y-125631286D01*
X159517792Y-126632971D01*
X159456469Y-126666456D01*
X159386777Y-126661472D01*
X159330844Y-126619600D01*
X159306821Y-126558542D01*
X159305270Y-126544120D01*
X159255028Y-126409413D01*
X159255024Y-126409406D01*
X159168864Y-126294312D01*
X159168861Y-126294309D01*
X159053767Y-126208149D01*
X159053760Y-126208145D01*
X158919053Y-126157903D01*
X158919046Y-126157901D01*
X158859518Y-126151500D01*
X158261674Y-126151500D01*
X158261674Y-126952500D01*
X158241989Y-127019539D01*
X158189185Y-127065294D01*
X158137674Y-127076500D01*
X157885674Y-127076500D01*
X157818635Y-127056815D01*
X157772880Y-127004011D01*
X157761674Y-126952500D01*
X157761674Y-126151500D01*
X157163829Y-126151500D01*
X157104301Y-126157901D01*
X157104294Y-126157903D01*
X156969587Y-126208145D01*
X156969580Y-126208149D01*
X156854486Y-126294309D01*
X156854483Y-126294312D01*
X156768323Y-126409406D01*
X156768319Y-126409413D01*
X156718077Y-126544120D01*
X156718075Y-126544126D01*
X156714258Y-126579629D01*
X156687519Y-126644179D01*
X156630125Y-126684026D01*
X156560300Y-126686519D01*
X156517388Y-126666180D01*
X156509883Y-126660647D01*
X156445216Y-126595980D01*
X156344924Y-126538077D01*
X156338923Y-126534612D01*
X156338920Y-126534610D01*
X156308283Y-126516922D01*
X156252381Y-126501943D01*
X156155557Y-126475999D01*
X155997443Y-126475999D01*
X155989847Y-126475999D01*
X155989831Y-126476000D01*
X155865535Y-126476000D01*
X155798496Y-126456315D01*
X155761036Y-126416081D01*
X155760786Y-126416269D01*
X155759038Y-126413934D01*
X155756701Y-126411424D01*
X155755471Y-126409173D01*
X155755470Y-126409169D01*
X155755467Y-126409165D01*
X155755466Y-126409163D01*
X155669221Y-126293955D01*
X155669218Y-126293952D01*
X155554009Y-126207706D01*
X155554002Y-126207702D01*
X155419156Y-126157408D01*
X155419157Y-126157408D01*
X155359557Y-126151001D01*
X155359555Y-126151000D01*
X155359547Y-126151000D01*
X155359538Y-126151000D01*
X153663803Y-126151000D01*
X153663797Y-126151001D01*
X153604190Y-126157408D01*
X153469345Y-126207702D01*
X153469338Y-126207706D01*
X153354129Y-126293952D01*
X153354126Y-126293955D01*
X153267880Y-126409164D01*
X153267876Y-126409171D01*
X153219798Y-126538077D01*
X153217583Y-126544017D01*
X153211174Y-126603627D01*
X153211174Y-126603634D01*
X153211174Y-126603635D01*
X153211174Y-126603636D01*
X153211175Y-127078000D01*
X153191491Y-127145039D01*
X153138687Y-127190794D01*
X153087175Y-127202000D01*
X141588033Y-127202000D01*
X141586330Y-127201500D01*
X139049598Y-127201500D01*
X138982559Y-127181815D01*
X138961917Y-127165181D01*
X138386590Y-126589855D01*
X138379521Y-126582786D01*
X138379520Y-126582784D01*
X138275391Y-126478655D01*
X138936171Y-126478655D01*
X138936171Y-126701500D01*
X139986171Y-126701500D01*
X140486171Y-126701500D01*
X141536171Y-126701500D01*
X141536171Y-126478672D01*
X141536170Y-126478655D01*
X141529769Y-126419127D01*
X141529767Y-126419120D01*
X141479525Y-126284413D01*
X141479521Y-126284406D01*
X141393361Y-126169312D01*
X141393358Y-126169309D01*
X141278264Y-126083149D01*
X141278257Y-126083145D01*
X141143550Y-126032903D01*
X141143543Y-126032901D01*
X141084015Y-126026500D01*
X140486171Y-126026500D01*
X140486171Y-126701500D01*
X139986171Y-126701500D01*
X139986171Y-126026500D01*
X139388326Y-126026500D01*
X139328798Y-126032901D01*
X139328791Y-126032903D01*
X139194084Y-126083145D01*
X139194077Y-126083149D01*
X139078983Y-126169309D01*
X139078980Y-126169312D01*
X138992820Y-126284406D01*
X138992816Y-126284413D01*
X138942574Y-126419120D01*
X138942572Y-126419127D01*
X138936171Y-126478655D01*
X138275391Y-126478655D01*
X138267716Y-126470980D01*
X138171756Y-126415578D01*
X138130785Y-126391923D01*
X138062661Y-126373668D01*
X138055950Y-126371004D01*
X138033876Y-126353745D01*
X138009959Y-126339166D01*
X138005160Y-126331292D01*
X138000908Y-126327968D01*
X137997921Y-126319416D01*
X137985531Y-126299088D01*
X137979966Y-126284166D01*
X137893718Y-126168955D01*
X137893715Y-126168952D01*
X137778506Y-126082706D01*
X137778499Y-126082702D01*
X137643653Y-126032408D01*
X137643654Y-126032408D01*
X137584054Y-126026001D01*
X137584052Y-126026000D01*
X137584044Y-126026000D01*
X137584035Y-126026000D01*
X135888300Y-126026000D01*
X135888294Y-126026001D01*
X135828687Y-126032408D01*
X135693842Y-126082702D01*
X135693835Y-126082706D01*
X135578626Y-126168952D01*
X135578623Y-126168955D01*
X135492377Y-126284164D01*
X135492374Y-126284169D01*
X135450787Y-126395670D01*
X135408915Y-126451603D01*
X135343451Y-126476020D01*
X135275178Y-126461168D01*
X135246924Y-126440017D01*
X134910922Y-126104016D01*
X134910920Y-126104013D01*
X134792049Y-125985142D01*
X134792048Y-125985141D01*
X134701866Y-125933075D01*
X134701865Y-125933074D01*
X134655115Y-125906083D01*
X134582832Y-125886715D01*
X134502389Y-125865160D01*
X134344275Y-125865160D01*
X134336679Y-125865160D01*
X134336663Y-125865161D01*
X126621008Y-125865161D01*
X126620992Y-125865160D01*
X126613396Y-125865160D01*
X126455282Y-125865160D01*
X126384046Y-125884248D01*
X126302555Y-125906083D01*
X126255803Y-125933076D01*
X126255802Y-125933075D01*
X126165626Y-125985138D01*
X126165621Y-125985142D01*
X123561980Y-128588784D01*
X123500657Y-128622269D01*
X123430965Y-128617285D01*
X123375032Y-128575413D01*
X123350615Y-128509949D01*
X123361505Y-128449591D01*
X123402885Y-128358982D01*
X123402886Y-128358978D01*
X123423346Y-128216665D01*
X123402886Y-128074351D01*
X123402884Y-128074343D01*
X123343162Y-127943570D01*
X123343157Y-127943563D01*
X123305580Y-127896932D01*
X122882850Y-127474202D01*
X122882849Y-127474202D01*
X122316457Y-128040595D01*
X122255134Y-128074080D01*
X122185443Y-128069096D01*
X122141095Y-128040595D01*
X121962904Y-127862404D01*
X121929419Y-127801081D01*
X121934403Y-127731389D01*
X121962904Y-127687042D01*
X122529297Y-127120649D01*
X122106567Y-126697919D01*
X122059936Y-126660342D01*
X122059929Y-126660337D01*
X121929156Y-126600615D01*
X121929148Y-126600613D01*
X121786835Y-126580153D01*
X121644521Y-126600613D01*
X121644519Y-126600614D01*
X121609859Y-126616443D01*
X121540700Y-126626386D01*
X121477145Y-126597361D01*
X121449454Y-126558959D01*
X121448435Y-126559548D01*
X121365318Y-126415584D01*
X121365316Y-126415581D01*
X121365314Y-126415578D01*
X121253510Y-126303774D01*
X121253509Y-126303773D01*
X121249179Y-126299443D01*
X121249168Y-126299433D01*
X120959069Y-126009334D01*
X120925584Y-125948011D01*
X120927546Y-125893072D01*
X120927236Y-125893028D01*
X120927651Y-125890136D01*
X120927774Y-125886715D01*
X120928498Y-125884248D01*
X120944669Y-125771768D01*
X120948979Y-125741792D01*
X120928498Y-125599335D01*
X120927160Y-125596406D01*
X120868711Y-125468421D01*
X120868710Y-125468420D01*
X120868710Y-125468419D01*
X120831091Y-125421736D01*
X120831086Y-125421731D01*
X120831082Y-125421726D01*
X119841975Y-124432620D01*
X119808490Y-124371297D01*
X119813474Y-124301606D01*
X119841973Y-124257260D01*
X120059506Y-124039728D01*
X120059511Y-124039724D01*
X120069714Y-124029520D01*
X120069716Y-124029520D01*
X120181520Y-123917716D01*
X120260577Y-123780784D01*
X120301500Y-123628057D01*
X120301500Y-119119889D01*
X122129500Y-119119889D01*
X122129500Y-119293111D01*
X122156598Y-119464201D01*
X122210127Y-119628945D01*
X122288768Y-119783288D01*
X122390586Y-119923428D01*
X122513072Y-120045914D01*
X122653212Y-120147732D01*
X122807555Y-120226373D01*
X122972299Y-120279902D01*
X123143389Y-120307000D01*
X123143390Y-120307000D01*
X123316610Y-120307000D01*
X123316611Y-120307000D01*
X123487701Y-120279902D01*
X123652445Y-120226373D01*
X123806788Y-120147732D01*
X123946928Y-120045914D01*
X124069414Y-119923428D01*
X124171232Y-119783288D01*
X124249873Y-119628945D01*
X124303402Y-119464201D01*
X124330500Y-119293111D01*
X124330500Y-119119889D01*
X124320854Y-119058986D01*
X126059500Y-119058986D01*
X126059500Y-119354013D01*
X126091571Y-119597613D01*
X126098007Y-119646493D01*
X126172212Y-119923430D01*
X126174361Y-119931451D01*
X126174364Y-119931461D01*
X126287254Y-120204000D01*
X126287258Y-120204010D01*
X126434761Y-120459493D01*
X126614352Y-120693540D01*
X126614358Y-120693547D01*
X126822952Y-120902141D01*
X126822959Y-120902147D01*
X127057006Y-121081738D01*
X127312489Y-121229241D01*
X127312490Y-121229241D01*
X127312493Y-121229243D01*
X127585048Y-121342139D01*
X127870007Y-121418493D01*
X128162494Y-121457000D01*
X128162501Y-121457000D01*
X128457499Y-121457000D01*
X128457506Y-121457000D01*
X128749993Y-121418493D01*
X129034952Y-121342139D01*
X129307507Y-121229243D01*
X129562994Y-121081738D01*
X129797042Y-120902146D01*
X130005646Y-120693542D01*
X130185238Y-120459494D01*
X130332743Y-120204007D01*
X130445639Y-119931452D01*
X130521993Y-119646493D01*
X130560500Y-119354006D01*
X130560500Y-119119889D01*
X132289500Y-119119889D01*
X132289500Y-119293111D01*
X132316598Y-119464201D01*
X132370127Y-119628945D01*
X132448768Y-119783288D01*
X132550586Y-119923428D01*
X132673072Y-120045914D01*
X132813212Y-120147732D01*
X132967555Y-120226373D01*
X133132299Y-120279902D01*
X133303389Y-120307000D01*
X133303390Y-120307000D01*
X133476610Y-120307000D01*
X133476611Y-120307000D01*
X133647701Y-120279902D01*
X133812445Y-120226373D01*
X133966788Y-120147732D01*
X134106928Y-120045914D01*
X134229414Y-119923428D01*
X134331232Y-119783288D01*
X134409873Y-119628945D01*
X134463402Y-119464201D01*
X134490500Y-119293111D01*
X134490500Y-119119889D01*
X141179500Y-119119889D01*
X141179500Y-119293111D01*
X141206598Y-119464201D01*
X141260127Y-119628945D01*
X141338768Y-119783288D01*
X141440586Y-119923428D01*
X141563072Y-120045914D01*
X141703212Y-120147732D01*
X141857555Y-120226373D01*
X142022299Y-120279902D01*
X142193389Y-120307000D01*
X142193390Y-120307000D01*
X142366610Y-120307000D01*
X142366611Y-120307000D01*
X142537701Y-120279902D01*
X142702445Y-120226373D01*
X142856788Y-120147732D01*
X142996928Y-120045914D01*
X143119414Y-119923428D01*
X143221232Y-119783288D01*
X143299873Y-119628945D01*
X143353402Y-119464201D01*
X143380500Y-119293111D01*
X143380500Y-119119889D01*
X143370854Y-119058986D01*
X145109500Y-119058986D01*
X145109500Y-119354013D01*
X145141571Y-119597613D01*
X145148007Y-119646493D01*
X145222212Y-119923430D01*
X145224361Y-119931451D01*
X145224364Y-119931461D01*
X145337254Y-120204000D01*
X145337258Y-120204010D01*
X145484761Y-120459493D01*
X145664352Y-120693540D01*
X145664358Y-120693547D01*
X145872952Y-120902141D01*
X145872959Y-120902147D01*
X146107006Y-121081738D01*
X146362489Y-121229241D01*
X146362490Y-121229241D01*
X146362493Y-121229243D01*
X146635048Y-121342139D01*
X146920007Y-121418493D01*
X147212494Y-121457000D01*
X147212501Y-121457000D01*
X147507499Y-121457000D01*
X147507506Y-121457000D01*
X147799993Y-121418493D01*
X148084952Y-121342139D01*
X148357507Y-121229243D01*
X148612994Y-121081738D01*
X148847042Y-120902146D01*
X149055646Y-120693542D01*
X149235238Y-120459494D01*
X149382743Y-120204007D01*
X149495639Y-119931452D01*
X149571993Y-119646493D01*
X149610500Y-119354006D01*
X149610500Y-119119889D01*
X151339500Y-119119889D01*
X151339500Y-119293111D01*
X151366598Y-119464201D01*
X151420127Y-119628945D01*
X151498768Y-119783288D01*
X151600586Y-119923428D01*
X151723072Y-120045914D01*
X151863212Y-120147732D01*
X152017555Y-120226373D01*
X152182299Y-120279902D01*
X152353389Y-120307000D01*
X152353390Y-120307000D01*
X152526610Y-120307000D01*
X152526611Y-120307000D01*
X152697701Y-120279902D01*
X152862445Y-120226373D01*
X153016788Y-120147732D01*
X153156928Y-120045914D01*
X153279414Y-119923428D01*
X153381232Y-119783288D01*
X153459873Y-119628945D01*
X153513402Y-119464201D01*
X153540500Y-119293111D01*
X153540500Y-119119889D01*
X160229500Y-119119889D01*
X160229500Y-119293111D01*
X160256598Y-119464201D01*
X160310127Y-119628945D01*
X160388768Y-119783288D01*
X160490586Y-119923428D01*
X160613072Y-120045914D01*
X160753212Y-120147732D01*
X160907555Y-120226373D01*
X161072299Y-120279902D01*
X161243389Y-120307000D01*
X161243390Y-120307000D01*
X161416610Y-120307000D01*
X161416611Y-120307000D01*
X161587701Y-120279902D01*
X161752445Y-120226373D01*
X161906788Y-120147732D01*
X162046928Y-120045914D01*
X162169414Y-119923428D01*
X162271232Y-119783288D01*
X162349873Y-119628945D01*
X162403402Y-119464201D01*
X162430500Y-119293111D01*
X162430500Y-119119889D01*
X162420854Y-119058986D01*
X164159500Y-119058986D01*
X164159500Y-119354013D01*
X164191571Y-119597613D01*
X164198007Y-119646493D01*
X164272212Y-119923430D01*
X164274361Y-119931451D01*
X164274364Y-119931461D01*
X164387254Y-120204000D01*
X164387258Y-120204010D01*
X164534761Y-120459493D01*
X164714352Y-120693540D01*
X164714358Y-120693547D01*
X164922952Y-120902141D01*
X164922959Y-120902147D01*
X165157006Y-121081738D01*
X165412489Y-121229241D01*
X165412490Y-121229241D01*
X165412493Y-121229243D01*
X165685048Y-121342139D01*
X165970007Y-121418493D01*
X166262494Y-121457000D01*
X166262501Y-121457000D01*
X166557499Y-121457000D01*
X166557506Y-121457000D01*
X166849993Y-121418493D01*
X167134952Y-121342139D01*
X167407507Y-121229243D01*
X167662994Y-121081738D01*
X167897042Y-120902146D01*
X168105646Y-120693542D01*
X168285238Y-120459494D01*
X168432743Y-120204007D01*
X168545639Y-119931452D01*
X168621993Y-119646493D01*
X168660500Y-119354006D01*
X168660500Y-119119889D01*
X170389500Y-119119889D01*
X170389500Y-119293111D01*
X170416598Y-119464201D01*
X170470127Y-119628945D01*
X170548768Y-119783288D01*
X170650586Y-119923428D01*
X170773072Y-120045914D01*
X170913212Y-120147732D01*
X171067555Y-120226373D01*
X171232299Y-120279902D01*
X171403389Y-120307000D01*
X171403390Y-120307000D01*
X171576610Y-120307000D01*
X171576611Y-120307000D01*
X171747701Y-120279902D01*
X171912445Y-120226373D01*
X172066788Y-120147732D01*
X172206928Y-120045914D01*
X172329414Y-119923428D01*
X172431232Y-119783288D01*
X172509873Y-119628945D01*
X172563402Y-119464201D01*
X172590500Y-119293111D01*
X172590500Y-119119889D01*
X172563402Y-118948799D01*
X172509873Y-118784055D01*
X172431232Y-118629712D01*
X172329414Y-118489572D01*
X172206928Y-118367086D01*
X172066788Y-118265268D01*
X171912445Y-118186627D01*
X171747701Y-118133098D01*
X171747699Y-118133097D01*
X171747698Y-118133097D01*
X171616271Y-118112281D01*
X171576611Y-118106000D01*
X171403389Y-118106000D01*
X171363728Y-118112281D01*
X171232302Y-118133097D01*
X171067552Y-118186628D01*
X170913211Y-118265268D01*
X170856289Y-118306625D01*
X170773072Y-118367086D01*
X170773070Y-118367088D01*
X170773069Y-118367088D01*
X170650588Y-118489569D01*
X170650588Y-118489570D01*
X170650586Y-118489572D01*
X170606859Y-118549756D01*
X170548768Y-118629711D01*
X170470128Y-118784052D01*
X170416597Y-118948802D01*
X170389500Y-119119889D01*
X168660500Y-119119889D01*
X168660500Y-119058994D01*
X168621993Y-118766507D01*
X168545639Y-118481548D01*
X168432743Y-118208993D01*
X168377309Y-118112979D01*
X168285238Y-117953506D01*
X168105647Y-117719459D01*
X168105641Y-117719452D01*
X167897047Y-117510858D01*
X167897040Y-117510852D01*
X167662993Y-117331261D01*
X167407510Y-117183758D01*
X167407500Y-117183754D01*
X167134961Y-117070864D01*
X167134954Y-117070862D01*
X167134952Y-117070861D01*
X166849993Y-116994507D01*
X166801113Y-116988071D01*
X166557513Y-116956000D01*
X166557506Y-116956000D01*
X166262494Y-116956000D01*
X166262486Y-116956000D01*
X165984085Y-116992653D01*
X165970007Y-116994507D01*
X165795428Y-117041285D01*
X165685048Y-117070861D01*
X165685038Y-117070864D01*
X165412499Y-117183754D01*
X165412489Y-117183758D01*
X165157006Y-117331261D01*
X164922959Y-117510852D01*
X164922952Y-117510858D01*
X164714358Y-117719452D01*
X164714352Y-117719459D01*
X164534761Y-117953506D01*
X164387258Y-118208989D01*
X164387254Y-118208999D01*
X164274364Y-118481538D01*
X164274361Y-118481548D01*
X164198008Y-118766504D01*
X164198006Y-118766515D01*
X164159500Y-119058986D01*
X162420854Y-119058986D01*
X162403402Y-118948799D01*
X162349873Y-118784055D01*
X162271232Y-118629712D01*
X162169414Y-118489572D01*
X162117482Y-118437640D01*
X162083997Y-118376317D01*
X162088981Y-118306625D01*
X162130853Y-118250692D01*
X162196317Y-118226275D01*
X162224561Y-118227486D01*
X162225212Y-118227589D01*
X162225215Y-118227590D01*
X162474038Y-118267000D01*
X162474039Y-118267000D01*
X162725961Y-118267000D01*
X162725962Y-118267000D01*
X162974785Y-118227590D01*
X163214379Y-118149741D01*
X163438845Y-118035370D01*
X163642656Y-117887293D01*
X163820793Y-117709156D01*
X163968870Y-117505345D01*
X164083241Y-117280879D01*
X164161090Y-117041285D01*
X164200500Y-116792462D01*
X164200500Y-116540538D01*
X164161090Y-116291715D01*
X164083241Y-116052121D01*
X164083239Y-116052118D01*
X164083239Y-116052116D01*
X164041747Y-115970684D01*
X163968870Y-115827655D01*
X163867107Y-115687590D01*
X163820798Y-115623850D01*
X163820794Y-115623845D01*
X163642654Y-115445705D01*
X163642649Y-115445701D01*
X163438848Y-115297632D01*
X163438847Y-115297631D01*
X163438845Y-115297630D01*
X163368747Y-115261913D01*
X163214383Y-115183260D01*
X162974785Y-115105410D01*
X162725962Y-115066000D01*
X162474038Y-115066000D01*
X162349626Y-115085705D01*
X162225214Y-115105410D01*
X161985616Y-115183260D01*
X161761151Y-115297632D01*
X161557350Y-115445701D01*
X161557345Y-115445705D01*
X161379205Y-115623845D01*
X161379201Y-115623850D01*
X161231132Y-115827651D01*
X161116760Y-116052116D01*
X161038910Y-116291714D01*
X160999500Y-116540538D01*
X160999500Y-116792461D01*
X161038910Y-117041285D01*
X161116760Y-117280883D01*
X161231132Y-117505348D01*
X161379201Y-117709149D01*
X161379205Y-117709154D01*
X161379207Y-117709156D01*
X161557344Y-117887293D01*
X161557345Y-117887294D01*
X161557344Y-117887294D01*
X161563661Y-117891883D01*
X161606327Y-117947214D01*
X161612305Y-118016827D01*
X161579699Y-118078622D01*
X161518860Y-118112979D01*
X161471378Y-118114674D01*
X161416611Y-118106000D01*
X161243389Y-118106000D01*
X161203728Y-118112281D01*
X161072302Y-118133097D01*
X160907552Y-118186628D01*
X160753211Y-118265268D01*
X160696289Y-118306625D01*
X160613072Y-118367086D01*
X160613070Y-118367088D01*
X160613069Y-118367088D01*
X160490588Y-118489569D01*
X160490588Y-118489570D01*
X160490586Y-118489572D01*
X160446859Y-118549756D01*
X160388768Y-118629711D01*
X160310128Y-118784052D01*
X160256597Y-118948802D01*
X160229500Y-119119889D01*
X153540500Y-119119889D01*
X153513402Y-118948799D01*
X153459873Y-118784055D01*
X153381232Y-118629712D01*
X153279414Y-118489572D01*
X153156928Y-118367086D01*
X153016788Y-118265268D01*
X152862445Y-118186627D01*
X152697701Y-118133098D01*
X152697699Y-118133097D01*
X152697698Y-118133097D01*
X152566271Y-118112281D01*
X152526611Y-118106000D01*
X152353389Y-118106000D01*
X152313728Y-118112281D01*
X152182302Y-118133097D01*
X152017552Y-118186628D01*
X151863211Y-118265268D01*
X151806289Y-118306625D01*
X151723072Y-118367086D01*
X151723070Y-118367088D01*
X151723069Y-118367088D01*
X151600588Y-118489569D01*
X151600588Y-118489570D01*
X151600586Y-118489572D01*
X151556859Y-118549756D01*
X151498768Y-118629711D01*
X151420128Y-118784052D01*
X151366597Y-118948802D01*
X151339500Y-119119889D01*
X149610500Y-119119889D01*
X149610500Y-119058994D01*
X149571993Y-118766507D01*
X149495639Y-118481548D01*
X149382743Y-118208993D01*
X149327309Y-118112979D01*
X149235238Y-117953506D01*
X149055647Y-117719459D01*
X149055641Y-117719452D01*
X148847047Y-117510858D01*
X148847040Y-117510852D01*
X148612993Y-117331261D01*
X148357510Y-117183758D01*
X148357500Y-117183754D01*
X148084961Y-117070864D01*
X148084954Y-117070862D01*
X148084952Y-117070861D01*
X147799993Y-116994507D01*
X147751113Y-116988071D01*
X147507513Y-116956000D01*
X147507506Y-116956000D01*
X147212494Y-116956000D01*
X147212486Y-116956000D01*
X146934085Y-116992653D01*
X146920007Y-116994507D01*
X146745428Y-117041285D01*
X146635048Y-117070861D01*
X146635038Y-117070864D01*
X146362499Y-117183754D01*
X146362489Y-117183758D01*
X146107006Y-117331261D01*
X145872959Y-117510852D01*
X145872952Y-117510858D01*
X145664358Y-117719452D01*
X145664352Y-117719459D01*
X145484761Y-117953506D01*
X145337258Y-118208989D01*
X145337254Y-118208999D01*
X145224364Y-118481538D01*
X145224361Y-118481548D01*
X145148008Y-118766504D01*
X145148006Y-118766515D01*
X145109500Y-119058986D01*
X143370854Y-119058986D01*
X143353402Y-118948799D01*
X143299873Y-118784055D01*
X143221232Y-118629712D01*
X143119414Y-118489572D01*
X143067482Y-118437640D01*
X143033997Y-118376317D01*
X143038981Y-118306625D01*
X143080853Y-118250692D01*
X143146317Y-118226275D01*
X143174561Y-118227486D01*
X143175212Y-118227589D01*
X143175215Y-118227590D01*
X143424038Y-118267000D01*
X143424039Y-118267000D01*
X143675961Y-118267000D01*
X143675962Y-118267000D01*
X143924785Y-118227590D01*
X144164379Y-118149741D01*
X144388845Y-118035370D01*
X144592656Y-117887293D01*
X144770793Y-117709156D01*
X144918870Y-117505345D01*
X145033241Y-117280879D01*
X145111090Y-117041285D01*
X145150500Y-116792462D01*
X145150500Y-116540538D01*
X145111090Y-116291715D01*
X145033241Y-116052121D01*
X145033239Y-116052118D01*
X145033239Y-116052116D01*
X144991747Y-115970684D01*
X144918870Y-115827655D01*
X144817107Y-115687590D01*
X144770798Y-115623850D01*
X144770794Y-115623845D01*
X144592654Y-115445705D01*
X144592649Y-115445701D01*
X144388848Y-115297632D01*
X144388847Y-115297631D01*
X144388845Y-115297630D01*
X144318747Y-115261913D01*
X144164383Y-115183260D01*
X143924785Y-115105410D01*
X143675962Y-115066000D01*
X143424038Y-115066000D01*
X143299626Y-115085705D01*
X143175214Y-115105410D01*
X142935616Y-115183260D01*
X142711151Y-115297632D01*
X142507350Y-115445701D01*
X142507345Y-115445705D01*
X142329205Y-115623845D01*
X142329201Y-115623850D01*
X142181132Y-115827651D01*
X142066760Y-116052116D01*
X141988910Y-116291714D01*
X141949500Y-116540538D01*
X141949500Y-116792461D01*
X141988910Y-117041285D01*
X142066760Y-117280883D01*
X142181132Y-117505348D01*
X142329201Y-117709149D01*
X142329205Y-117709154D01*
X142329207Y-117709156D01*
X142507344Y-117887293D01*
X142507345Y-117887294D01*
X142507344Y-117887294D01*
X142513661Y-117891883D01*
X142556327Y-117947214D01*
X142562305Y-118016827D01*
X142529699Y-118078622D01*
X142468860Y-118112979D01*
X142421378Y-118114674D01*
X142366611Y-118106000D01*
X142193389Y-118106000D01*
X142153728Y-118112281D01*
X142022302Y-118133097D01*
X141857552Y-118186628D01*
X141703211Y-118265268D01*
X141646289Y-118306625D01*
X141563072Y-118367086D01*
X141563070Y-118367088D01*
X141563069Y-118367088D01*
X141440588Y-118489569D01*
X141440588Y-118489570D01*
X141440586Y-118489572D01*
X141396859Y-118549756D01*
X141338768Y-118629711D01*
X141260128Y-118784052D01*
X141206597Y-118948802D01*
X141179500Y-119119889D01*
X134490500Y-119119889D01*
X134463402Y-118948799D01*
X134409873Y-118784055D01*
X134331232Y-118629712D01*
X134229414Y-118489572D01*
X134106928Y-118367086D01*
X133966788Y-118265268D01*
X133812445Y-118186627D01*
X133647701Y-118133098D01*
X133647699Y-118133097D01*
X133647698Y-118133097D01*
X133516271Y-118112281D01*
X133476611Y-118106000D01*
X133303389Y-118106000D01*
X133263728Y-118112281D01*
X133132302Y-118133097D01*
X132967552Y-118186628D01*
X132813211Y-118265268D01*
X132756289Y-118306625D01*
X132673072Y-118367086D01*
X132673070Y-118367088D01*
X132673069Y-118367088D01*
X132550588Y-118489569D01*
X132550588Y-118489570D01*
X132550586Y-118489572D01*
X132506859Y-118549756D01*
X132448768Y-118629711D01*
X132370128Y-118784052D01*
X132316597Y-118948802D01*
X132289500Y-119119889D01*
X130560500Y-119119889D01*
X130560500Y-119058994D01*
X130521993Y-118766507D01*
X130445639Y-118481548D01*
X130332743Y-118208993D01*
X130277309Y-118112979D01*
X130185238Y-117953506D01*
X130005647Y-117719459D01*
X130005641Y-117719452D01*
X129797047Y-117510858D01*
X129797040Y-117510852D01*
X129562993Y-117331261D01*
X129307510Y-117183758D01*
X129307500Y-117183754D01*
X129034961Y-117070864D01*
X129034954Y-117070862D01*
X129034952Y-117070861D01*
X128749993Y-116994507D01*
X128701113Y-116988071D01*
X128457513Y-116956000D01*
X128457506Y-116956000D01*
X128162494Y-116956000D01*
X128162486Y-116956000D01*
X127884085Y-116992653D01*
X127870007Y-116994507D01*
X127695428Y-117041285D01*
X127585048Y-117070861D01*
X127585038Y-117070864D01*
X127312499Y-117183754D01*
X127312489Y-117183758D01*
X127057006Y-117331261D01*
X126822959Y-117510852D01*
X126822952Y-117510858D01*
X126614358Y-117719452D01*
X126614352Y-117719459D01*
X126434761Y-117953506D01*
X126287258Y-118208989D01*
X126287254Y-118208999D01*
X126174364Y-118481538D01*
X126174361Y-118481548D01*
X126098008Y-118766504D01*
X126098006Y-118766515D01*
X126059500Y-119058986D01*
X124320854Y-119058986D01*
X124303402Y-118948799D01*
X124249873Y-118784055D01*
X124171232Y-118629712D01*
X124069414Y-118489572D01*
X124017482Y-118437640D01*
X123983997Y-118376317D01*
X123988981Y-118306625D01*
X124030853Y-118250692D01*
X124096317Y-118226275D01*
X124124561Y-118227486D01*
X124125212Y-118227589D01*
X124125215Y-118227590D01*
X124374038Y-118267000D01*
X124374039Y-118267000D01*
X124625961Y-118267000D01*
X124625962Y-118267000D01*
X124874785Y-118227590D01*
X125114379Y-118149741D01*
X125338845Y-118035370D01*
X125542656Y-117887293D01*
X125720793Y-117709156D01*
X125868870Y-117505345D01*
X125983241Y-117280879D01*
X126061090Y-117041285D01*
X126100500Y-116792462D01*
X126100500Y-116540538D01*
X126061090Y-116291715D01*
X125983241Y-116052121D01*
X125983239Y-116052118D01*
X125983239Y-116052116D01*
X125941747Y-115970684D01*
X125868870Y-115827655D01*
X125767107Y-115687590D01*
X125720798Y-115623850D01*
X125720794Y-115623845D01*
X125542654Y-115445705D01*
X125542649Y-115445701D01*
X125338848Y-115297632D01*
X125338847Y-115297631D01*
X125338845Y-115297630D01*
X125268747Y-115261913D01*
X125114383Y-115183260D01*
X124874785Y-115105410D01*
X124625962Y-115066000D01*
X124374038Y-115066000D01*
X124249626Y-115085705D01*
X124125214Y-115105410D01*
X123885616Y-115183260D01*
X123661151Y-115297632D01*
X123457350Y-115445701D01*
X123457345Y-115445705D01*
X123279205Y-115623845D01*
X123279201Y-115623850D01*
X123131132Y-115827651D01*
X123016760Y-116052116D01*
X122938910Y-116291714D01*
X122899500Y-116540538D01*
X122899500Y-116792461D01*
X122938910Y-117041285D01*
X123016760Y-117280883D01*
X123131132Y-117505348D01*
X123279201Y-117709149D01*
X123279205Y-117709154D01*
X123279207Y-117709156D01*
X123457344Y-117887293D01*
X123457345Y-117887294D01*
X123457344Y-117887294D01*
X123463661Y-117891883D01*
X123506327Y-117947214D01*
X123512305Y-118016827D01*
X123479699Y-118078622D01*
X123418860Y-118112979D01*
X123371378Y-118114674D01*
X123316611Y-118106000D01*
X123143389Y-118106000D01*
X123103728Y-118112281D01*
X122972302Y-118133097D01*
X122807552Y-118186628D01*
X122653211Y-118265268D01*
X122596289Y-118306625D01*
X122513072Y-118367086D01*
X122513070Y-118367088D01*
X122513069Y-118367088D01*
X122390588Y-118489569D01*
X122390588Y-118489570D01*
X122390586Y-118489572D01*
X122346859Y-118549756D01*
X122288768Y-118629711D01*
X122210128Y-118784052D01*
X122156597Y-118948802D01*
X122129500Y-119119889D01*
X120301500Y-119119889D01*
X120301500Y-114000538D01*
X129249500Y-114000538D01*
X129249500Y-114252461D01*
X129288910Y-114501285D01*
X129366760Y-114740883D01*
X129481132Y-114965348D01*
X129629201Y-115169149D01*
X129629205Y-115169154D01*
X129807345Y-115347294D01*
X129807350Y-115347298D01*
X129985117Y-115476452D01*
X130011155Y-115495370D01*
X130154184Y-115568247D01*
X130235616Y-115609739D01*
X130235618Y-115609739D01*
X130235621Y-115609741D01*
X130475215Y-115687590D01*
X130724038Y-115727000D01*
X130724039Y-115727000D01*
X130975961Y-115727000D01*
X130975962Y-115727000D01*
X131224785Y-115687590D01*
X131464379Y-115609741D01*
X131688845Y-115495370D01*
X131892656Y-115347293D01*
X132070793Y-115169156D01*
X132218870Y-114965345D01*
X132333241Y-114740879D01*
X132411090Y-114501285D01*
X132450500Y-114252462D01*
X132450500Y-114000538D01*
X148299500Y-114000538D01*
X148299500Y-114252461D01*
X148338910Y-114501285D01*
X148416760Y-114740883D01*
X148531132Y-114965348D01*
X148679201Y-115169149D01*
X148679205Y-115169154D01*
X148857345Y-115347294D01*
X148857350Y-115347298D01*
X149035117Y-115476452D01*
X149061155Y-115495370D01*
X149204184Y-115568247D01*
X149285616Y-115609739D01*
X149285618Y-115609739D01*
X149285621Y-115609741D01*
X149525215Y-115687590D01*
X149774038Y-115727000D01*
X149774039Y-115727000D01*
X150025961Y-115727000D01*
X150025962Y-115727000D01*
X150274785Y-115687590D01*
X150514379Y-115609741D01*
X150738845Y-115495370D01*
X150942656Y-115347293D01*
X151120793Y-115169156D01*
X151268870Y-114965345D01*
X151383241Y-114740879D01*
X151461090Y-114501285D01*
X151500500Y-114252462D01*
X151500500Y-114000538D01*
X167349500Y-114000538D01*
X167349500Y-114252461D01*
X167388910Y-114501285D01*
X167466760Y-114740883D01*
X167581132Y-114965348D01*
X167729201Y-115169149D01*
X167729205Y-115169154D01*
X167907345Y-115347294D01*
X167907350Y-115347298D01*
X168085117Y-115476452D01*
X168111155Y-115495370D01*
X168254184Y-115568247D01*
X168335616Y-115609739D01*
X168335618Y-115609739D01*
X168335621Y-115609741D01*
X168575215Y-115687590D01*
X168824038Y-115727000D01*
X168824039Y-115727000D01*
X169075961Y-115727000D01*
X169075962Y-115727000D01*
X169324785Y-115687590D01*
X169564379Y-115609741D01*
X169788845Y-115495370D01*
X169992656Y-115347293D01*
X170170793Y-115169156D01*
X170318870Y-114965345D01*
X170433241Y-114740879D01*
X170511090Y-114501285D01*
X170550500Y-114252462D01*
X170550500Y-114000538D01*
X170511090Y-113751715D01*
X170433241Y-113512121D01*
X170433239Y-113512118D01*
X170433239Y-113512116D01*
X170391747Y-113430684D01*
X170318870Y-113287655D01*
X170299952Y-113261617D01*
X170170798Y-113083850D01*
X170170794Y-113083845D01*
X169992654Y-112905705D01*
X169992649Y-112905701D01*
X169788848Y-112757632D01*
X169788847Y-112757631D01*
X169788845Y-112757630D01*
X169718747Y-112721913D01*
X169564383Y-112643260D01*
X169324785Y-112565410D01*
X169313262Y-112563585D01*
X169075962Y-112526000D01*
X168824038Y-112526000D01*
X168699626Y-112545705D01*
X168575214Y-112565410D01*
X168335616Y-112643260D01*
X168111151Y-112757632D01*
X167907350Y-112905701D01*
X167907345Y-112905705D01*
X167729205Y-113083845D01*
X167729201Y-113083850D01*
X167581132Y-113287651D01*
X167466760Y-113512116D01*
X167388910Y-113751714D01*
X167349500Y-114000538D01*
X151500500Y-114000538D01*
X151461090Y-113751715D01*
X151383241Y-113512121D01*
X151383239Y-113512118D01*
X151383239Y-113512116D01*
X151341747Y-113430684D01*
X151268870Y-113287655D01*
X151249952Y-113261617D01*
X151120798Y-113083850D01*
X151120794Y-113083845D01*
X150942654Y-112905705D01*
X150942649Y-112905701D01*
X150738848Y-112757632D01*
X150738847Y-112757631D01*
X150738845Y-112757630D01*
X150668747Y-112721913D01*
X150514383Y-112643260D01*
X150274785Y-112565410D01*
X150263262Y-112563585D01*
X150025962Y-112526000D01*
X149774038Y-112526000D01*
X149649626Y-112545705D01*
X149525214Y-112565410D01*
X149285616Y-112643260D01*
X149061151Y-112757632D01*
X148857350Y-112905701D01*
X148857345Y-112905705D01*
X148679205Y-113083845D01*
X148679201Y-113083850D01*
X148531132Y-113287651D01*
X148416760Y-113512116D01*
X148338910Y-113751714D01*
X148299500Y-114000538D01*
X132450500Y-114000538D01*
X132411090Y-113751715D01*
X132333241Y-113512121D01*
X132333239Y-113512118D01*
X132333239Y-113512116D01*
X132291747Y-113430684D01*
X132218870Y-113287655D01*
X132199952Y-113261617D01*
X132070798Y-113083850D01*
X132070794Y-113083845D01*
X131892654Y-112905705D01*
X131892649Y-112905701D01*
X131688848Y-112757632D01*
X131688847Y-112757631D01*
X131688845Y-112757630D01*
X131618747Y-112721913D01*
X131464383Y-112643260D01*
X131224785Y-112565410D01*
X131213262Y-112563585D01*
X130975962Y-112526000D01*
X130724038Y-112526000D01*
X130599626Y-112545705D01*
X130475214Y-112565410D01*
X130235616Y-112643260D01*
X130011151Y-112757632D01*
X129807350Y-112905701D01*
X129807345Y-112905705D01*
X129629205Y-113083845D01*
X129629201Y-113083850D01*
X129481132Y-113287651D01*
X129366760Y-113512116D01*
X129288910Y-113751714D01*
X129249500Y-114000538D01*
X120301500Y-114000538D01*
X120301500Y-112123653D01*
X120677000Y-112123653D01*
X120899828Y-112123653D01*
X120899844Y-112123652D01*
X120959372Y-112117251D01*
X120959379Y-112117249D01*
X121094086Y-112067007D01*
X121094093Y-112067003D01*
X121209187Y-111980843D01*
X121209190Y-111980840D01*
X121295350Y-111865746D01*
X121295354Y-111865739D01*
X121345596Y-111731032D01*
X121345598Y-111731025D01*
X121351999Y-111671497D01*
X121352000Y-111671480D01*
X121352000Y-111073653D01*
X120677000Y-111073653D01*
X120677000Y-112123653D01*
X120301500Y-112123653D01*
X120301500Y-110947653D01*
X120321185Y-110880614D01*
X120373989Y-110834859D01*
X120425500Y-110823653D01*
X120427000Y-110823653D01*
X120427000Y-110697653D01*
X120446685Y-110630614D01*
X120499489Y-110584859D01*
X120551000Y-110573653D01*
X121352000Y-110573653D01*
X121352000Y-110103635D01*
X127631500Y-110103635D01*
X127631500Y-111799370D01*
X127631501Y-111799376D01*
X127637908Y-111858983D01*
X127688202Y-111993828D01*
X127688206Y-111993835D01*
X127774452Y-112109044D01*
X127774455Y-112109047D01*
X127889664Y-112195293D01*
X127889671Y-112195297D01*
X128024517Y-112245591D01*
X128024516Y-112245591D01*
X128031444Y-112246335D01*
X128084127Y-112252000D01*
X129779872Y-112251999D01*
X129839483Y-112245591D01*
X129974331Y-112195296D01*
X130089546Y-112109046D01*
X130175796Y-111993831D01*
X130226091Y-111858983D01*
X130232500Y-111799373D01*
X130232499Y-110849148D01*
X135251500Y-110849148D01*
X135251500Y-111053851D01*
X135283522Y-111256034D01*
X135346781Y-111450723D01*
X135439715Y-111633113D01*
X135560028Y-111798713D01*
X135704786Y-111943471D01*
X135859749Y-112056056D01*
X135870390Y-112063787D01*
X135959212Y-112109044D01*
X136052776Y-112156718D01*
X136052778Y-112156718D01*
X136052781Y-112156720D01*
X136127855Y-112181113D01*
X136247465Y-112219977D01*
X136348557Y-112235988D01*
X136449648Y-112252000D01*
X136449649Y-112252000D01*
X136654351Y-112252000D01*
X136654352Y-112252000D01*
X136856534Y-112219977D01*
X137051219Y-112156720D01*
X137233610Y-112063787D01*
X137347778Y-111980840D01*
X137399213Y-111943471D01*
X137399215Y-111943468D01*
X137399219Y-111943466D01*
X137543966Y-111798719D01*
X137543968Y-111798715D01*
X137543971Y-111798713D01*
X137636397Y-111671497D01*
X137664287Y-111633110D01*
X137757220Y-111450719D01*
X137820477Y-111256034D01*
X137852500Y-111053852D01*
X137852500Y-110849148D01*
X137820477Y-110646966D01*
X137820476Y-110646964D01*
X137774419Y-110505215D01*
X137757220Y-110452281D01*
X137757218Y-110452278D01*
X137757218Y-110452276D01*
X137721555Y-110382285D01*
X137664287Y-110269890D01*
X137646715Y-110245704D01*
X137543971Y-110104286D01*
X137399213Y-109959528D01*
X137233613Y-109839215D01*
X137233612Y-109839214D01*
X137233610Y-109839213D01*
X137152205Y-109797735D01*
X137051223Y-109746281D01*
X136856534Y-109683022D01*
X136669719Y-109653434D01*
X136654352Y-109651000D01*
X136449648Y-109651000D01*
X136434281Y-109653434D01*
X136247465Y-109683022D01*
X136052776Y-109746281D01*
X135870386Y-109839215D01*
X135704786Y-109959528D01*
X135560028Y-110104286D01*
X135439715Y-110269886D01*
X135346781Y-110452276D01*
X135283522Y-110646965D01*
X135251500Y-110849148D01*
X130232499Y-110849148D01*
X130232499Y-110103628D01*
X130226091Y-110044017D01*
X130175796Y-109909169D01*
X130175795Y-109909168D01*
X130175793Y-109909164D01*
X130089547Y-109793955D01*
X130089544Y-109793952D01*
X129974335Y-109707706D01*
X129974328Y-109707702D01*
X129839482Y-109657408D01*
X129839483Y-109657408D01*
X129779883Y-109651001D01*
X129779881Y-109651000D01*
X129779873Y-109651000D01*
X129779864Y-109651000D01*
X128084129Y-109651000D01*
X128084123Y-109651001D01*
X128024516Y-109657408D01*
X127889671Y-109707702D01*
X127889664Y-109707706D01*
X127774455Y-109793952D01*
X127774452Y-109793955D01*
X127688206Y-109909164D01*
X127688202Y-109909171D01*
X127637908Y-110044017D01*
X127636735Y-110054932D01*
X127631501Y-110103623D01*
X127631500Y-110103635D01*
X121352000Y-110103635D01*
X121352000Y-109975825D01*
X121351999Y-109975808D01*
X121345598Y-109916280D01*
X121345596Y-109916273D01*
X121295354Y-109781566D01*
X121295350Y-109781559D01*
X121209190Y-109666465D01*
X121209187Y-109666462D01*
X121094093Y-109580302D01*
X121094086Y-109580298D01*
X120959379Y-109530056D01*
X120959372Y-109530054D01*
X120899844Y-109523653D01*
X120874945Y-109523653D01*
X120807906Y-109503968D01*
X120762151Y-109451164D01*
X120752207Y-109382006D01*
X120781232Y-109318450D01*
X120787264Y-109311972D01*
X120845171Y-109254065D01*
X120907520Y-109191716D01*
X120972563Y-109079057D01*
X120986577Y-109054785D01*
X121027501Y-108902057D01*
X121027501Y-108743943D01*
X121027501Y-108736348D01*
X121027500Y-108736330D01*
X121027500Y-108677514D01*
X121047185Y-108610475D01*
X121087418Y-108573015D01*
X121087231Y-108572765D01*
X121089565Y-108571017D01*
X121092076Y-108568680D01*
X121094323Y-108567451D01*
X121094331Y-108567449D01*
X121209546Y-108481199D01*
X121295796Y-108365984D01*
X121346091Y-108231136D01*
X121352500Y-108171526D01*
X121352499Y-106475781D01*
X121346091Y-106416170D01*
X121295796Y-106281322D01*
X121295795Y-106281321D01*
X121295793Y-106281317D01*
X121209547Y-106166108D01*
X121209544Y-106166105D01*
X121094335Y-106079859D01*
X121094328Y-106079855D01*
X121038435Y-106059009D01*
X120982501Y-106017138D01*
X120958084Y-105951674D01*
X120972935Y-105883401D01*
X120994084Y-105855149D01*
X122368713Y-104480521D01*
X122368716Y-104480520D01*
X122480520Y-104368716D01*
X122530639Y-104281904D01*
X122559577Y-104231785D01*
X122600501Y-104079057D01*
X122600501Y-103920943D01*
X122600501Y-103913348D01*
X122600500Y-103913330D01*
X122600500Y-101273223D01*
X122620185Y-101206184D01*
X122672989Y-101160429D01*
X122742147Y-101150485D01*
X122780796Y-101162739D01*
X122807550Y-101176371D01*
X122807552Y-101176371D01*
X122807555Y-101176373D01*
X122972299Y-101229902D01*
X123143389Y-101257000D01*
X123143390Y-101257000D01*
X123316610Y-101257000D01*
X123316611Y-101257000D01*
X123487701Y-101229902D01*
X123652445Y-101176373D01*
X123806788Y-101097732D01*
X123946928Y-100995914D01*
X124069414Y-100873428D01*
X124171232Y-100733288D01*
X124249873Y-100578945D01*
X124303402Y-100414201D01*
X124330500Y-100243111D01*
X124330500Y-100069889D01*
X124320854Y-100008986D01*
X126059500Y-100008986D01*
X126059500Y-100304013D01*
X126081058Y-100467757D01*
X126098007Y-100596493D01*
X126172212Y-100873430D01*
X126174361Y-100881451D01*
X126174364Y-100881461D01*
X126287254Y-101154000D01*
X126287258Y-101154010D01*
X126434761Y-101409493D01*
X126614352Y-101643540D01*
X126614358Y-101643547D01*
X126822952Y-101852141D01*
X126822959Y-101852147D01*
X127057006Y-102031738D01*
X127312489Y-102179241D01*
X127312490Y-102179241D01*
X127312493Y-102179243D01*
X127585048Y-102292139D01*
X127870007Y-102368493D01*
X128162494Y-102407000D01*
X128162501Y-102407000D01*
X128457499Y-102407000D01*
X128457506Y-102407000D01*
X128749993Y-102368493D01*
X129034952Y-102292139D01*
X129307507Y-102179243D01*
X129562994Y-102031738D01*
X129797042Y-101852146D01*
X130005646Y-101643542D01*
X130185238Y-101409494D01*
X130332743Y-101154007D01*
X130445639Y-100881452D01*
X130521993Y-100596493D01*
X130560500Y-100304006D01*
X130560500Y-100069889D01*
X132289500Y-100069889D01*
X132289500Y-100243110D01*
X132316592Y-100414167D01*
X132316598Y-100414201D01*
X132370127Y-100578945D01*
X132448768Y-100733288D01*
X132550586Y-100873428D01*
X132673072Y-100995914D01*
X132813212Y-101097732D01*
X132967555Y-101176373D01*
X133132299Y-101229902D01*
X133303389Y-101257000D01*
X133303390Y-101257000D01*
X133476610Y-101257000D01*
X133476611Y-101257000D01*
X133647701Y-101229902D01*
X133812445Y-101176373D01*
X133966788Y-101097732D01*
X134106928Y-100995914D01*
X134229414Y-100873428D01*
X134331232Y-100733288D01*
X134409873Y-100578945D01*
X134463402Y-100414201D01*
X134490500Y-100243111D01*
X134490500Y-100069889D01*
X134463402Y-99898799D01*
X134409873Y-99734055D01*
X134331232Y-99579712D01*
X134229414Y-99439572D01*
X134106928Y-99317086D01*
X133966788Y-99215268D01*
X133812445Y-99136627D01*
X133647701Y-99083098D01*
X133647699Y-99083097D01*
X133647698Y-99083097D01*
X133516271Y-99062281D01*
X133476611Y-99056000D01*
X133303389Y-99056000D01*
X133263728Y-99062281D01*
X133132302Y-99083097D01*
X132967552Y-99136628D01*
X132813211Y-99215268D01*
X132739036Y-99269160D01*
X132673072Y-99317086D01*
X132673070Y-99317088D01*
X132673069Y-99317088D01*
X132550588Y-99439569D01*
X132550588Y-99439570D01*
X132550586Y-99439572D01*
X132526944Y-99472112D01*
X132448768Y-99579711D01*
X132370128Y-99734052D01*
X132316597Y-99898802D01*
X132289500Y-100069889D01*
X130560500Y-100069889D01*
X130560500Y-100008994D01*
X130521993Y-99716507D01*
X130445639Y-99431548D01*
X130332743Y-99158993D01*
X130312416Y-99123786D01*
X130185238Y-98903506D01*
X130005647Y-98669459D01*
X130005641Y-98669452D01*
X129797047Y-98460858D01*
X129797040Y-98460852D01*
X129562993Y-98281261D01*
X129307510Y-98133758D01*
X129307500Y-98133754D01*
X129034961Y-98020864D01*
X129034954Y-98020862D01*
X129034952Y-98020861D01*
X128749993Y-97944507D01*
X128701113Y-97938071D01*
X128457513Y-97906000D01*
X128457506Y-97906000D01*
X128162494Y-97906000D01*
X128162486Y-97906000D01*
X127884085Y-97942653D01*
X127870007Y-97944507D01*
X127780945Y-97968371D01*
X127585048Y-98020861D01*
X127585038Y-98020864D01*
X127312499Y-98133754D01*
X127312489Y-98133758D01*
X127057006Y-98281261D01*
X126822959Y-98460852D01*
X126822952Y-98460858D01*
X126614358Y-98669452D01*
X126614352Y-98669459D01*
X126434761Y-98903506D01*
X126287258Y-99158989D01*
X126287254Y-99158999D01*
X126174364Y-99431538D01*
X126174361Y-99431548D01*
X126121468Y-99628951D01*
X126098008Y-99716504D01*
X126098006Y-99716515D01*
X126059500Y-100008986D01*
X124320854Y-100008986D01*
X124303402Y-99898799D01*
X124249873Y-99734055D01*
X124171232Y-99579712D01*
X124069414Y-99439572D01*
X124017482Y-99387640D01*
X123983997Y-99326317D01*
X123988981Y-99256625D01*
X124030853Y-99200692D01*
X124096317Y-99176275D01*
X124124561Y-99177486D01*
X124125212Y-99177589D01*
X124125215Y-99177590D01*
X124374038Y-99217000D01*
X124374039Y-99217000D01*
X124625961Y-99217000D01*
X124625962Y-99217000D01*
X124874785Y-99177590D01*
X125114379Y-99099741D01*
X125338845Y-98985370D01*
X125542656Y-98837293D01*
X125720793Y-98659156D01*
X125868870Y-98455345D01*
X125983241Y-98230879D01*
X126061090Y-97991285D01*
X126100500Y-97742462D01*
X126100500Y-97490538D01*
X126061090Y-97241715D01*
X125983241Y-97002121D01*
X125983239Y-97002118D01*
X125983239Y-97002116D01*
X125921673Y-96881287D01*
X125868870Y-96777655D01*
X125837228Y-96734104D01*
X125720798Y-96573850D01*
X125720794Y-96573845D01*
X125542654Y-96395705D01*
X125542649Y-96395701D01*
X125338848Y-96247632D01*
X125338847Y-96247631D01*
X125338845Y-96247630D01*
X125268747Y-96211913D01*
X125114383Y-96133260D01*
X124874785Y-96055410D01*
X124826327Y-96047735D01*
X124625962Y-96016000D01*
X124374038Y-96016000D01*
X124249626Y-96035705D01*
X124125214Y-96055410D01*
X123885616Y-96133260D01*
X123661151Y-96247632D01*
X123457350Y-96395701D01*
X123457345Y-96395705D01*
X123279205Y-96573845D01*
X123279201Y-96573850D01*
X123131132Y-96777651D01*
X123016760Y-97002116D01*
X122947951Y-97213890D01*
X122938910Y-97241715D01*
X122899500Y-97490538D01*
X122899500Y-97742462D01*
X122913216Y-97829060D01*
X122938910Y-97991285D01*
X123016760Y-98230883D01*
X123131132Y-98455348D01*
X123279201Y-98659149D01*
X123279205Y-98659154D01*
X123279207Y-98659156D01*
X123457344Y-98837293D01*
X123457345Y-98837294D01*
X123457344Y-98837294D01*
X123463661Y-98841883D01*
X123506327Y-98897214D01*
X123512305Y-98966827D01*
X123479699Y-99028622D01*
X123418860Y-99062979D01*
X123371378Y-99064674D01*
X123316611Y-99056000D01*
X123143389Y-99056000D01*
X123103728Y-99062281D01*
X122972302Y-99083097D01*
X122807551Y-99136628D01*
X122780793Y-99150262D01*
X122712123Y-99163157D01*
X122647383Y-99136879D01*
X122607127Y-99079772D01*
X122600500Y-99039776D01*
X122600500Y-97339059D01*
X122600501Y-97339046D01*
X122600501Y-97170945D01*
X122600501Y-97170943D01*
X122559577Y-97018215D01*
X122559576Y-97018214D01*
X122559576Y-97018212D01*
X122559574Y-97018209D01*
X122523402Y-96955558D01*
X122523401Y-96955557D01*
X122480520Y-96881284D01*
X122368716Y-96769480D01*
X122368715Y-96769479D01*
X122364385Y-96765149D01*
X122364374Y-96765139D01*
X120549773Y-94950538D01*
X129249500Y-94950538D01*
X129249500Y-95202461D01*
X129288910Y-95451285D01*
X129366760Y-95690883D01*
X129481132Y-95915348D01*
X129629201Y-96119149D01*
X129629205Y-96119154D01*
X129807345Y-96297294D01*
X129807350Y-96297298D01*
X129964875Y-96411746D01*
X130011155Y-96445370D01*
X130117248Y-96499427D01*
X130235616Y-96559739D01*
X130235618Y-96559739D01*
X130235621Y-96559741D01*
X130475215Y-96637590D01*
X130724038Y-96677000D01*
X130724039Y-96677000D01*
X130975961Y-96677000D01*
X130975962Y-96677000D01*
X131224785Y-96637590D01*
X131464379Y-96559741D01*
X131688845Y-96445370D01*
X131892656Y-96297293D01*
X132070793Y-96119156D01*
X132218870Y-95915345D01*
X132333241Y-95690879D01*
X132411090Y-95451285D01*
X132450500Y-95202462D01*
X132450500Y-94950538D01*
X132411090Y-94701715D01*
X132411089Y-94701713D01*
X132411089Y-94701710D01*
X132333239Y-94462116D01*
X132282590Y-94362712D01*
X132218870Y-94237655D01*
X132163358Y-94161249D01*
X132070798Y-94033850D01*
X132070794Y-94033845D01*
X131892654Y-93855705D01*
X131892649Y-93855701D01*
X131688848Y-93707632D01*
X131688847Y-93707631D01*
X131688845Y-93707630D01*
X131618747Y-93671913D01*
X131464383Y-93593260D01*
X131224785Y-93515410D01*
X130975962Y-93476000D01*
X130724038Y-93476000D01*
X130599626Y-93495705D01*
X130475214Y-93515410D01*
X130235616Y-93593260D01*
X130011151Y-93707632D01*
X129807350Y-93855701D01*
X129807345Y-93855705D01*
X129629205Y-94033845D01*
X129629201Y-94033850D01*
X129481132Y-94237651D01*
X129366760Y-94462116D01*
X129288911Y-94701710D01*
X129288910Y-94701713D01*
X129288910Y-94701715D01*
X129271955Y-94808763D01*
X129249500Y-94950538D01*
X120549773Y-94950538D01*
X120337819Y-94738584D01*
X120304334Y-94677261D01*
X120301500Y-94650903D01*
X120301500Y-94379347D01*
X120677000Y-94379347D01*
X120899828Y-94379347D01*
X120899844Y-94379346D01*
X120959372Y-94372945D01*
X120959379Y-94372943D01*
X121094086Y-94322701D01*
X121094093Y-94322697D01*
X121209187Y-94236537D01*
X121209190Y-94236534D01*
X121295350Y-94121440D01*
X121295354Y-94121433D01*
X121345596Y-93986726D01*
X121345598Y-93986719D01*
X121351999Y-93927191D01*
X121352000Y-93927174D01*
X121352000Y-93329347D01*
X120677000Y-93329347D01*
X120677000Y-94379347D01*
X120301500Y-94379347D01*
X120301500Y-93203347D01*
X120321185Y-93136308D01*
X120373989Y-93090553D01*
X120425500Y-93079347D01*
X120427000Y-93079347D01*
X120427000Y-92953347D01*
X120446685Y-92886308D01*
X120499489Y-92840553D01*
X120551000Y-92829347D01*
X121352000Y-92829347D01*
X121352000Y-92231519D01*
X121351999Y-92231502D01*
X121345598Y-92171974D01*
X121345596Y-92171967D01*
X121295354Y-92037260D01*
X121295350Y-92037253D01*
X121209190Y-91922159D01*
X121209187Y-91922156D01*
X121094093Y-91835996D01*
X121094086Y-91835992D01*
X120959379Y-91785750D01*
X120959372Y-91785748D01*
X120899844Y-91779347D01*
X120869249Y-91779347D01*
X120848010Y-91773110D01*
X120825930Y-91771534D01*
X120815139Y-91763458D01*
X120802210Y-91759662D01*
X120787716Y-91742935D01*
X120769991Y-91729670D01*
X120765278Y-91717041D01*
X120756455Y-91706858D01*
X120753304Y-91684949D01*
X120745566Y-91664209D01*
X120748429Y-91651039D01*
X120746511Y-91637700D01*
X120755706Y-91617564D01*
X120760409Y-91595934D01*
X120773687Y-91578192D01*
X120775536Y-91574144D01*
X120781557Y-91567677D01*
X120782019Y-91567215D01*
X120785493Y-91563740D01*
X120785508Y-91563730D01*
X120785507Y-91563729D01*
X120795716Y-91553520D01*
X120907520Y-91441716D01*
X120978670Y-91318480D01*
X120986577Y-91304785D01*
X121027501Y-91152057D01*
X121027501Y-90993943D01*
X121027501Y-90986348D01*
X121027500Y-90986330D01*
X121027500Y-90933208D01*
X121047185Y-90866169D01*
X121087418Y-90828709D01*
X121087231Y-90828459D01*
X121089565Y-90826711D01*
X121092076Y-90824374D01*
X121094323Y-90823145D01*
X121094331Y-90823143D01*
X121209546Y-90736893D01*
X121295796Y-90621678D01*
X121346091Y-90486830D01*
X121352500Y-90427220D01*
X121352499Y-89349148D01*
X121631500Y-89349148D01*
X121631500Y-89553851D01*
X121663522Y-89756034D01*
X121726781Y-89950723D01*
X121819715Y-90133113D01*
X121940028Y-90298713D01*
X122084786Y-90443471D01*
X122205982Y-90531523D01*
X122250390Y-90563787D01*
X122339212Y-90609044D01*
X122432776Y-90656718D01*
X122432778Y-90656718D01*
X122432781Y-90656720D01*
X122528168Y-90687713D01*
X122627465Y-90719977D01*
X122728557Y-90735988D01*
X122829648Y-90752000D01*
X122829649Y-90752000D01*
X123034351Y-90752000D01*
X123034352Y-90752000D01*
X123236534Y-90719977D01*
X123431219Y-90656720D01*
X123613610Y-90563787D01*
X123719533Y-90486830D01*
X123779213Y-90443471D01*
X123779215Y-90443468D01*
X123779219Y-90443466D01*
X123923966Y-90298719D01*
X123923968Y-90298715D01*
X123923971Y-90298713D01*
X123976732Y-90226090D01*
X124044287Y-90133110D01*
X124137220Y-89950719D01*
X124200477Y-89756034D01*
X124232500Y-89553852D01*
X124232500Y-89349148D01*
X124200477Y-89146966D01*
X124137220Y-88952281D01*
X124137218Y-88952278D01*
X124137218Y-88952276D01*
X124044287Y-88769890D01*
X123974032Y-88673191D01*
X123974031Y-88673188D01*
X123923971Y-88604287D01*
X123923967Y-88604282D01*
X123923320Y-88603635D01*
X129251500Y-88603635D01*
X129251500Y-90299370D01*
X129251501Y-90299376D01*
X129257908Y-90358983D01*
X129308202Y-90493828D01*
X129308206Y-90493835D01*
X129394452Y-90609044D01*
X129394455Y-90609047D01*
X129509664Y-90695293D01*
X129509671Y-90695297D01*
X129644517Y-90745591D01*
X129644516Y-90745591D01*
X129651444Y-90746335D01*
X129704127Y-90752000D01*
X131399872Y-90751999D01*
X131459483Y-90745591D01*
X131594331Y-90695296D01*
X131709546Y-90609046D01*
X131795796Y-90493831D01*
X131846091Y-90358983D01*
X131852500Y-90299373D01*
X131852499Y-88603628D01*
X131846091Y-88544017D01*
X131837389Y-88520687D01*
X131795797Y-88409171D01*
X131795793Y-88409164D01*
X131709547Y-88293955D01*
X131709544Y-88293952D01*
X131594335Y-88207706D01*
X131594328Y-88207702D01*
X131459482Y-88157408D01*
X131459483Y-88157408D01*
X131399883Y-88151001D01*
X131399881Y-88151000D01*
X131399873Y-88151000D01*
X131399864Y-88151000D01*
X129704129Y-88151000D01*
X129704123Y-88151001D01*
X129644516Y-88157408D01*
X129509671Y-88207702D01*
X129509664Y-88207706D01*
X129394455Y-88293952D01*
X129394452Y-88293955D01*
X129308206Y-88409164D01*
X129308202Y-88409171D01*
X129257908Y-88544017D01*
X129251501Y-88603616D01*
X129251501Y-88603623D01*
X129251500Y-88603635D01*
X123923320Y-88603635D01*
X123779213Y-88459528D01*
X123613613Y-88339215D01*
X123613612Y-88339214D01*
X123613610Y-88339213D01*
X123534166Y-88298734D01*
X123431223Y-88246281D01*
X123236534Y-88183022D01*
X123061995Y-88155378D01*
X123034352Y-88151000D01*
X122829648Y-88151000D01*
X122805329Y-88154851D01*
X122627465Y-88183022D01*
X122432776Y-88246281D01*
X122250386Y-88339215D01*
X122084786Y-88459528D01*
X121940028Y-88604286D01*
X121819715Y-88769886D01*
X121726781Y-88952276D01*
X121663522Y-89146965D01*
X121631500Y-89349148D01*
X121352499Y-89349148D01*
X121352499Y-88731475D01*
X121346091Y-88671864D01*
X121320886Y-88604287D01*
X121295797Y-88537018D01*
X121295793Y-88537011D01*
X121209547Y-88421802D01*
X121209544Y-88421799D01*
X121094335Y-88335553D01*
X121094328Y-88335549D01*
X120959482Y-88285255D01*
X120959483Y-88285255D01*
X120899883Y-88278848D01*
X120899881Y-88278847D01*
X120899873Y-88278847D01*
X120899864Y-88278847D01*
X119954129Y-88278847D01*
X119954123Y-88278848D01*
X119894516Y-88285255D01*
X119759671Y-88335549D01*
X119759664Y-88335553D01*
X119644455Y-88421799D01*
X119639681Y-88426574D01*
X119578358Y-88460059D01*
X119508666Y-88455075D01*
X119464319Y-88426574D01*
X119459544Y-88421799D01*
X119344335Y-88335553D01*
X119344328Y-88335549D01*
X119209482Y-88285255D01*
X119209483Y-88285255D01*
X119149883Y-88278848D01*
X119149881Y-88278847D01*
X119149873Y-88278847D01*
X119149865Y-88278847D01*
X118489230Y-88278847D01*
X118422191Y-88259162D01*
X118401549Y-88242528D01*
X117809303Y-87650282D01*
X117775818Y-87588959D01*
X117772984Y-87562601D01*
X117772984Y-81019889D01*
X122129500Y-81019889D01*
X122129500Y-81193111D01*
X122134480Y-81224552D01*
X122152058Y-81335541D01*
X122156598Y-81364201D01*
X122210127Y-81528945D01*
X122288768Y-81683288D01*
X122390586Y-81823428D01*
X122513072Y-81945914D01*
X122653212Y-82047732D01*
X122807555Y-82126373D01*
X122972299Y-82179902D01*
X123143389Y-82207000D01*
X123143390Y-82207000D01*
X123316610Y-82207000D01*
X123316611Y-82207000D01*
X123487701Y-82179902D01*
X123652445Y-82126373D01*
X123806788Y-82047732D01*
X123946928Y-81945914D01*
X124069414Y-81823428D01*
X124171232Y-81683288D01*
X124249873Y-81528945D01*
X124303402Y-81364201D01*
X124330500Y-81193111D01*
X124330500Y-81019889D01*
X124320854Y-80958986D01*
X126059500Y-80958986D01*
X126059500Y-81254013D01*
X126074897Y-81370957D01*
X126098007Y-81546493D01*
X126172212Y-81823430D01*
X126174361Y-81831451D01*
X126174364Y-81831461D01*
X126287254Y-82104000D01*
X126287258Y-82104010D01*
X126434761Y-82359493D01*
X126614352Y-82593540D01*
X126614358Y-82593547D01*
X126822952Y-82802141D01*
X126822959Y-82802147D01*
X127057006Y-82981738D01*
X127312489Y-83129241D01*
X127312490Y-83129241D01*
X127312493Y-83129243D01*
X127585048Y-83242139D01*
X127870007Y-83318493D01*
X128162494Y-83357000D01*
X128162501Y-83357000D01*
X128457499Y-83357000D01*
X128457506Y-83357000D01*
X128749993Y-83318493D01*
X129034952Y-83242139D01*
X129307507Y-83129243D01*
X129562994Y-82981738D01*
X129797042Y-82802146D01*
X130005646Y-82593542D01*
X130185238Y-82359494D01*
X130332743Y-82104007D01*
X130445639Y-81831452D01*
X130521993Y-81546493D01*
X130560500Y-81254006D01*
X130560500Y-80958994D01*
X130521993Y-80666507D01*
X130445639Y-80381548D01*
X130332743Y-80108993D01*
X130332414Y-80108424D01*
X130185238Y-79853506D01*
X130005647Y-79619459D01*
X130005641Y-79619452D01*
X129797047Y-79410858D01*
X129797040Y-79410852D01*
X129562993Y-79231261D01*
X129307510Y-79083758D01*
X129307500Y-79083754D01*
X129034961Y-78970864D01*
X129034954Y-78970862D01*
X129034952Y-78970861D01*
X128749993Y-78894507D01*
X128701113Y-78888071D01*
X128457513Y-78856000D01*
X128457506Y-78856000D01*
X128162494Y-78856000D01*
X128162486Y-78856000D01*
X127884085Y-78892653D01*
X127870007Y-78894507D01*
X127633539Y-78957868D01*
X127585048Y-78970861D01*
X127585038Y-78970864D01*
X127312499Y-79083754D01*
X127312489Y-79083758D01*
X127057006Y-79231261D01*
X126822959Y-79410852D01*
X126822952Y-79410858D01*
X126614358Y-79619452D01*
X126614352Y-79619459D01*
X126434761Y-79853506D01*
X126287258Y-80108989D01*
X126287254Y-80108999D01*
X126174364Y-80381538D01*
X126174361Y-80381548D01*
X126104956Y-80640575D01*
X126098008Y-80666504D01*
X126098006Y-80666515D01*
X126059500Y-80958986D01*
X124320854Y-80958986D01*
X124303402Y-80848799D01*
X124249873Y-80684055D01*
X124171232Y-80529712D01*
X124069414Y-80389572D01*
X124017482Y-80337640D01*
X123983997Y-80276317D01*
X123988981Y-80206625D01*
X124030853Y-80150692D01*
X124096317Y-80126275D01*
X124124561Y-80127486D01*
X124125212Y-80127589D01*
X124125215Y-80127590D01*
X124374038Y-80167000D01*
X124374039Y-80167000D01*
X124625961Y-80167000D01*
X124625962Y-80167000D01*
X124874785Y-80127590D01*
X125114379Y-80049741D01*
X125338845Y-79935370D01*
X125542656Y-79787293D01*
X125720793Y-79609156D01*
X125868870Y-79405345D01*
X125983241Y-79180879D01*
X126061090Y-78941285D01*
X126100500Y-78692462D01*
X126100500Y-78440538D01*
X126061090Y-78191715D01*
X125983241Y-77952121D01*
X125983239Y-77952118D01*
X125983239Y-77952116D01*
X125941747Y-77870684D01*
X125868870Y-77727655D01*
X125797186Y-77628990D01*
X125720798Y-77523850D01*
X125720794Y-77523845D01*
X125542654Y-77345705D01*
X125542649Y-77345701D01*
X125338848Y-77197632D01*
X125338847Y-77197631D01*
X125338845Y-77197630D01*
X125259139Y-77157018D01*
X125114383Y-77083260D01*
X124874785Y-77005410D01*
X124780092Y-76990412D01*
X124625962Y-76966000D01*
X124374038Y-76966000D01*
X124249626Y-76985705D01*
X124125214Y-77005410D01*
X123885616Y-77083260D01*
X123661151Y-77197632D01*
X123457350Y-77345701D01*
X123457345Y-77345705D01*
X123279205Y-77523845D01*
X123279201Y-77523850D01*
X123131132Y-77727651D01*
X123016760Y-77952116D01*
X122938910Y-78191714D01*
X122916906Y-78330639D01*
X122899500Y-78440538D01*
X122899500Y-78692462D01*
X122924707Y-78851614D01*
X122938910Y-78941285D01*
X123016760Y-79180883D01*
X123074887Y-79294962D01*
X123129975Y-79403079D01*
X123131132Y-79405348D01*
X123279201Y-79609149D01*
X123279205Y-79609154D01*
X123279207Y-79609156D01*
X123457344Y-79787293D01*
X123457345Y-79787294D01*
X123457344Y-79787294D01*
X123463661Y-79791883D01*
X123506327Y-79847214D01*
X123512305Y-79916827D01*
X123479699Y-79978622D01*
X123418860Y-80012979D01*
X123371378Y-80014674D01*
X123316611Y-80006000D01*
X123143389Y-80006000D01*
X123103728Y-80012281D01*
X122972302Y-80033097D01*
X122807552Y-80086628D01*
X122653211Y-80165268D01*
X122596289Y-80206625D01*
X122513072Y-80267086D01*
X122513070Y-80267088D01*
X122513069Y-80267088D01*
X122390588Y-80389569D01*
X122390588Y-80389570D01*
X122390586Y-80389572D01*
X122375050Y-80410956D01*
X122288768Y-80529711D01*
X122210128Y-80684052D01*
X122156597Y-80848802D01*
X122135197Y-80983919D01*
X122129500Y-81019889D01*
X117772984Y-81019889D01*
X117772984Y-76022387D01*
X118834664Y-76022387D01*
X118834664Y-76022388D01*
X118992229Y-76179953D01*
X119038860Y-76217530D01*
X119038867Y-76217535D01*
X119169640Y-76277257D01*
X119169648Y-76277259D01*
X119311962Y-76297719D01*
X119454275Y-76277259D01*
X119454283Y-76277257D01*
X119585056Y-76217535D01*
X119585063Y-76217530D01*
X119631694Y-76179953D01*
X120054424Y-75757223D01*
X120054424Y-75757222D01*
X119577127Y-75279926D01*
X118834664Y-76022387D01*
X117772984Y-76022387D01*
X117772984Y-75159240D01*
X117792669Y-75092201D01*
X117845473Y-75046446D01*
X117913965Y-75036408D01*
X117927683Y-75038304D01*
X117932068Y-75040307D01*
X118074525Y-75060788D01*
X118082264Y-75059675D01*
X118098761Y-75061956D01*
X118123157Y-75072937D01*
X118148819Y-75080473D01*
X118154524Y-75087057D01*
X118162474Y-75090636D01*
X118177060Y-75113065D01*
X118194574Y-75133277D01*
X118196770Y-75143372D01*
X118200566Y-75149209D01*
X118200630Y-75161117D01*
X118205780Y-75184788D01*
X118205780Y-75191537D01*
X118226240Y-75333851D01*
X118226242Y-75333859D01*
X118285964Y-75464632D01*
X118285969Y-75464639D01*
X118323546Y-75511270D01*
X118481111Y-75668835D01*
X119223574Y-74926372D01*
X119930680Y-74926372D01*
X119930680Y-74926373D01*
X120407976Y-75403670D01*
X120407977Y-75403670D01*
X120830707Y-74980940D01*
X120868284Y-74934309D01*
X120868289Y-74934302D01*
X120928011Y-74803529D01*
X120928013Y-74803521D01*
X120948473Y-74661208D01*
X120928013Y-74518894D01*
X120928011Y-74518886D01*
X120868289Y-74388113D01*
X120868284Y-74388106D01*
X120830707Y-74341475D01*
X120673142Y-74183910D01*
X120673141Y-74183910D01*
X119930680Y-74926372D01*
X119223574Y-74926372D01*
X119400350Y-74749596D01*
X119834675Y-74315270D01*
X119844233Y-74309186D01*
X119848930Y-74303028D01*
X119869231Y-74293277D01*
X119880055Y-74286389D01*
X119885075Y-74284567D01*
X120019629Y-74248513D01*
X120069748Y-74219575D01*
X120156560Y-74169456D01*
X120268364Y-74057652D01*
X120268364Y-74057650D01*
X120278572Y-74047443D01*
X120278574Y-74047440D01*
X120955984Y-73370030D01*
X121017307Y-73336545D01*
X121086999Y-73341529D01*
X121131346Y-73370030D01*
X121466779Y-73705463D01*
X121513462Y-73743083D01*
X121513463Y-73743083D01*
X121513465Y-73743085D01*
X121644375Y-73802870D01*
X121644376Y-73802870D01*
X121644378Y-73802871D01*
X121786835Y-73823352D01*
X121929292Y-73802871D01*
X122060208Y-73743083D01*
X122106891Y-73705464D01*
X122194129Y-73618224D01*
X122255450Y-73584740D01*
X122325141Y-73589724D01*
X122369490Y-73618225D01*
X126915639Y-78164374D01*
X126915649Y-78164385D01*
X126919979Y-78168715D01*
X126919980Y-78168716D01*
X127031784Y-78280520D01*
X127118595Y-78330639D01*
X127118597Y-78330641D01*
X127168713Y-78359576D01*
X127168715Y-78359577D01*
X127321442Y-78400500D01*
X127321443Y-78400500D01*
X131760903Y-78400500D01*
X131827942Y-78420185D01*
X131848584Y-78436819D01*
X133230042Y-79818277D01*
X133263527Y-79879600D01*
X133258543Y-79949292D01*
X133216671Y-80005225D01*
X133161762Y-80028431D01*
X133132299Y-80033098D01*
X132967552Y-80086628D01*
X132813211Y-80165268D01*
X132756289Y-80206625D01*
X132673072Y-80267086D01*
X132673070Y-80267088D01*
X132673069Y-80267088D01*
X132550588Y-80389569D01*
X132550588Y-80389570D01*
X132550586Y-80389572D01*
X132535050Y-80410956D01*
X132448768Y-80529711D01*
X132370128Y-80684052D01*
X132316597Y-80848802D01*
X132295197Y-80983919D01*
X132289500Y-81019889D01*
X132289500Y-81193111D01*
X132294480Y-81224552D01*
X132312058Y-81335541D01*
X132316598Y-81364201D01*
X132370127Y-81528945D01*
X132448768Y-81683288D01*
X132550586Y-81823428D01*
X132673072Y-81945914D01*
X132813212Y-82047732D01*
X132967555Y-82126373D01*
X133132299Y-82179902D01*
X133303389Y-82207000D01*
X133303390Y-82207000D01*
X133476610Y-82207000D01*
X133476611Y-82207000D01*
X133647701Y-82179902D01*
X133812445Y-82126373D01*
X133966788Y-82047732D01*
X134106928Y-81945914D01*
X134229414Y-81823428D01*
X134331232Y-81683288D01*
X134409873Y-81528945D01*
X134463402Y-81364201D01*
X134468068Y-81334737D01*
X134497996Y-81271606D01*
X134557308Y-81234674D01*
X134627170Y-81235672D01*
X134678222Y-81266457D01*
X136976139Y-83564374D01*
X136976149Y-83564385D01*
X136980479Y-83568715D01*
X136980480Y-83568716D01*
X137092284Y-83680520D01*
X137168620Y-83724592D01*
X137186502Y-83734916D01*
X137212902Y-83762604D01*
X137234714Y-83785479D01*
X137234714Y-83785481D01*
X137234717Y-83785484D01*
X137234723Y-83785519D01*
X137248500Y-83842302D01*
X137248500Y-83875541D01*
X137251412Y-83912546D01*
X137251413Y-83912552D01*
X137297434Y-84070954D01*
X137297435Y-84070957D01*
X137381405Y-84212943D01*
X137381412Y-84212952D01*
X137498047Y-84329587D01*
X137498050Y-84329589D01*
X137498053Y-84329592D01*
X137554996Y-84363268D01*
X137602679Y-84414338D01*
X137615182Y-84483079D01*
X137588536Y-84547669D01*
X137554996Y-84576731D01*
X137542688Y-84584011D01*
X137498053Y-84610408D01*
X137498047Y-84610412D01*
X137381412Y-84727047D01*
X137381405Y-84727056D01*
X137297435Y-84869042D01*
X137297434Y-84869045D01*
X137251413Y-85027447D01*
X137251412Y-85027453D01*
X137248500Y-85064458D01*
X137248500Y-86415541D01*
X137251412Y-86452546D01*
X137251413Y-86452552D01*
X137297434Y-86610954D01*
X137297435Y-86610957D01*
X137381405Y-86752943D01*
X137381412Y-86752952D01*
X137498047Y-86869587D01*
X137498051Y-86869590D01*
X137498053Y-86869592D01*
X137640041Y-86953564D01*
X137681816Y-86965701D01*
X137798447Y-86999586D01*
X137798450Y-86999586D01*
X137798452Y-86999587D01*
X137835466Y-87002500D01*
X137835474Y-87002500D01*
X139948902Y-87002500D01*
X140015941Y-87022185D01*
X140061696Y-87074989D01*
X140071640Y-87144147D01*
X140042615Y-87207703D01*
X140036583Y-87214181D01*
X138619481Y-88631282D01*
X138619479Y-88631284D01*
X138601605Y-88662244D01*
X138594050Y-88675331D01*
X138540423Y-88768215D01*
X138499499Y-88920943D01*
X138499499Y-88920945D01*
X138499499Y-89089046D01*
X138499500Y-89089059D01*
X138499500Y-106626999D01*
X138496951Y-106635678D01*
X138498240Y-106644634D01*
X138487260Y-106668682D01*
X138479815Y-106694038D01*
X138472979Y-106699961D01*
X138469221Y-106708193D01*
X138446980Y-106722488D01*
X138427011Y-106739793D01*
X138416504Y-106742079D01*
X138410447Y-106745973D01*
X138375535Y-106750993D01*
X138375512Y-106750999D01*
X138372943Y-106750999D01*
X138372941Y-106750999D01*
X138365343Y-106751000D01*
X138365340Y-106750999D01*
X138365331Y-106751000D01*
X126928669Y-106751000D01*
X126928653Y-106750999D01*
X126921057Y-106750999D01*
X126762943Y-106750999D01*
X126648397Y-106781692D01*
X126610214Y-106791923D01*
X126566987Y-106816881D01*
X126566986Y-106816881D01*
X126473287Y-106870977D01*
X126473282Y-106870981D01*
X126361480Y-106982783D01*
X126361480Y-106982784D01*
X126361478Y-106982786D01*
X126265753Y-107078511D01*
X126229582Y-107114682D01*
X126168259Y-107148166D01*
X126141901Y-107151000D01*
X124894129Y-107151000D01*
X124894123Y-107151001D01*
X124834516Y-107157408D01*
X124699671Y-107207702D01*
X124699664Y-107207706D01*
X124584455Y-107293952D01*
X124584452Y-107293955D01*
X124498206Y-107409164D01*
X124498202Y-107409171D01*
X124447908Y-107544017D01*
X124441501Y-107603616D01*
X124441501Y-107603623D01*
X124441500Y-107603635D01*
X124441500Y-109299370D01*
X124441501Y-109299376D01*
X124447908Y-109358983D01*
X124498202Y-109493828D01*
X124498206Y-109493835D01*
X124584452Y-109609044D01*
X124584455Y-109609047D01*
X124699664Y-109695293D01*
X124699671Y-109695297D01*
X124834517Y-109745591D01*
X124834516Y-109745591D01*
X124840925Y-109746280D01*
X124894127Y-109752000D01*
X126589872Y-109751999D01*
X126649483Y-109745591D01*
X126784331Y-109695296D01*
X126899546Y-109609046D01*
X126985796Y-109493831D01*
X127036091Y-109358983D01*
X127042500Y-109299373D01*
X127042499Y-108075999D01*
X127062184Y-108008961D01*
X127114987Y-107963206D01*
X127166499Y-107952000D01*
X131986199Y-107952000D01*
X132053238Y-107971685D01*
X132098993Y-108024489D01*
X132108937Y-108093647D01*
X132104130Y-108114317D01*
X132093524Y-108146957D01*
X132093523Y-108146964D01*
X132061500Y-108349148D01*
X132061500Y-108553851D01*
X132093522Y-108756034D01*
X132156781Y-108950723D01*
X132249715Y-109133113D01*
X132370028Y-109298713D01*
X132514786Y-109443471D01*
X132659948Y-109548935D01*
X132680390Y-109563787D01*
X132769212Y-109609044D01*
X132862776Y-109656718D01*
X132862778Y-109656718D01*
X132862781Y-109656720D01*
X132967137Y-109690627D01*
X133057465Y-109719977D01*
X133158557Y-109735988D01*
X133259648Y-109752000D01*
X133259649Y-109752000D01*
X133464351Y-109752000D01*
X133464352Y-109752000D01*
X133666534Y-109719977D01*
X133861219Y-109656720D01*
X134043610Y-109563787D01*
X134139901Y-109493828D01*
X134209213Y-109443471D01*
X134209215Y-109443468D01*
X134209219Y-109443466D01*
X134353966Y-109298719D01*
X134353968Y-109298715D01*
X134353971Y-109298713D01*
X134422699Y-109204115D01*
X134474287Y-109133110D01*
X134567220Y-108950719D01*
X134630477Y-108756034D01*
X134662500Y-108553852D01*
X134662500Y-108349148D01*
X134630477Y-108146966D01*
X134630475Y-108146962D01*
X134630475Y-108146957D01*
X134619870Y-108114317D01*
X134617875Y-108044476D01*
X134653956Y-107984643D01*
X134716657Y-107953816D01*
X134737801Y-107952000D01*
X138127500Y-107952000D01*
X138194539Y-107971685D01*
X138240294Y-108024489D01*
X138251500Y-108076000D01*
X138251500Y-109299370D01*
X138251501Y-109299376D01*
X138257908Y-109358983D01*
X138308202Y-109493828D01*
X138308206Y-109493835D01*
X138394452Y-109609044D01*
X138394455Y-109609047D01*
X138509664Y-109695293D01*
X138509671Y-109695297D01*
X138644517Y-109745591D01*
X138644516Y-109745591D01*
X138650925Y-109746280D01*
X138704127Y-109752000D01*
X140399872Y-109751999D01*
X140459483Y-109745591D01*
X140594331Y-109695296D01*
X140709546Y-109609046D01*
X140795796Y-109493831D01*
X140846091Y-109358983D01*
X140852500Y-109299373D01*
X140852499Y-108551596D01*
X140872183Y-108484558D01*
X140888818Y-108463916D01*
X141364416Y-107988319D01*
X141425739Y-107954834D01*
X141452097Y-107952000D01*
X145796199Y-107952000D01*
X145863238Y-107971685D01*
X145908993Y-108024489D01*
X145918937Y-108093647D01*
X145914130Y-108114317D01*
X145903524Y-108146957D01*
X145903523Y-108146964D01*
X145871500Y-108349148D01*
X145871500Y-108553851D01*
X145903522Y-108756034D01*
X145966781Y-108950723D01*
X146027916Y-109070705D01*
X146040812Y-109139374D01*
X146014536Y-109204115D01*
X145957429Y-109244372D01*
X145917431Y-109251000D01*
X143238669Y-109251000D01*
X143238653Y-109250999D01*
X143231057Y-109250999D01*
X143072943Y-109250999D01*
X142975695Y-109277057D01*
X142920210Y-109291924D01*
X142920209Y-109291925D01*
X142870096Y-109320859D01*
X142870095Y-109320860D01*
X142826689Y-109345920D01*
X142783285Y-109370979D01*
X142783282Y-109370981D01*
X142671480Y-109482783D01*
X142671480Y-109482784D01*
X142671478Y-109482786D01*
X142605329Y-109548935D01*
X142539582Y-109614682D01*
X142478259Y-109648166D01*
X142451901Y-109651000D01*
X141204129Y-109651000D01*
X141204123Y-109651001D01*
X141144516Y-109657408D01*
X141009671Y-109707702D01*
X141009664Y-109707706D01*
X140894455Y-109793952D01*
X140894452Y-109793955D01*
X140808206Y-109909164D01*
X140808202Y-109909171D01*
X140757908Y-110044017D01*
X140756735Y-110054932D01*
X140751501Y-110103623D01*
X140751500Y-110103635D01*
X140751500Y-111799370D01*
X140751501Y-111799376D01*
X140757908Y-111858983D01*
X140808202Y-111993828D01*
X140808206Y-111993835D01*
X140894452Y-112109044D01*
X140894455Y-112109047D01*
X141009664Y-112195293D01*
X141009671Y-112195297D01*
X141144517Y-112245591D01*
X141144516Y-112245591D01*
X141151444Y-112246335D01*
X141204127Y-112252000D01*
X142899872Y-112251999D01*
X142959483Y-112245591D01*
X143094331Y-112195296D01*
X143209546Y-112109046D01*
X143295796Y-111993831D01*
X143346091Y-111858983D01*
X143352500Y-111799373D01*
X143352499Y-110575999D01*
X143372184Y-110508961D01*
X143424987Y-110463206D01*
X143476499Y-110452000D01*
X148296199Y-110452000D01*
X148363238Y-110471685D01*
X148408993Y-110524489D01*
X148418937Y-110593647D01*
X148414130Y-110614317D01*
X148403524Y-110646957D01*
X148403523Y-110646964D01*
X148371500Y-110849148D01*
X148371500Y-111053851D01*
X148403522Y-111256034D01*
X148466781Y-111450723D01*
X148559715Y-111633113D01*
X148680028Y-111798713D01*
X148824786Y-111943471D01*
X148979749Y-112056056D01*
X148990390Y-112063787D01*
X149079212Y-112109044D01*
X149172776Y-112156718D01*
X149172778Y-112156718D01*
X149172781Y-112156720D01*
X149247855Y-112181113D01*
X149367465Y-112219977D01*
X149468557Y-112235988D01*
X149569648Y-112252000D01*
X149569649Y-112252000D01*
X149774351Y-112252000D01*
X149774352Y-112252000D01*
X149976534Y-112219977D01*
X150171219Y-112156720D01*
X150353610Y-112063787D01*
X150467778Y-111980840D01*
X150519213Y-111943471D01*
X150519215Y-111943468D01*
X150519219Y-111943466D01*
X150663966Y-111798719D01*
X150663968Y-111798715D01*
X150663971Y-111798713D01*
X150756397Y-111671497D01*
X150784287Y-111633110D01*
X150877220Y-111450719D01*
X150940477Y-111256034D01*
X150972500Y-111053852D01*
X150972500Y-110849148D01*
X150940477Y-110646966D01*
X150940475Y-110646962D01*
X150940475Y-110646957D01*
X150929870Y-110614317D01*
X150927875Y-110544476D01*
X150963956Y-110484643D01*
X151026657Y-110453816D01*
X151047801Y-110452000D01*
X159627500Y-110452000D01*
X159694539Y-110471685D01*
X159740294Y-110524489D01*
X159751500Y-110576000D01*
X159751500Y-111799370D01*
X159751501Y-111799376D01*
X159757908Y-111858983D01*
X159808202Y-111993828D01*
X159808206Y-111993835D01*
X159894452Y-112109044D01*
X159894455Y-112109047D01*
X160009664Y-112195293D01*
X160009671Y-112195297D01*
X160144517Y-112245591D01*
X160144516Y-112245591D01*
X160151444Y-112246335D01*
X160204127Y-112252000D01*
X161899872Y-112251999D01*
X161959483Y-112245591D01*
X162094331Y-112195296D01*
X162209546Y-112109046D01*
X162295796Y-111993831D01*
X162346091Y-111858983D01*
X162352500Y-111799373D01*
X162352499Y-110849148D01*
X167371500Y-110849148D01*
X167371500Y-111053851D01*
X167403522Y-111256034D01*
X167466781Y-111450723D01*
X167559715Y-111633113D01*
X167680028Y-111798713D01*
X167824786Y-111943471D01*
X167979749Y-112056056D01*
X167990390Y-112063787D01*
X168079212Y-112109044D01*
X168172776Y-112156718D01*
X168172778Y-112156718D01*
X168172781Y-112156720D01*
X168247855Y-112181113D01*
X168367465Y-112219977D01*
X168468557Y-112235988D01*
X168569648Y-112252000D01*
X168569649Y-112252000D01*
X168774351Y-112252000D01*
X168774352Y-112252000D01*
X168976534Y-112219977D01*
X169171219Y-112156720D01*
X169353610Y-112063787D01*
X169467778Y-111980840D01*
X169519213Y-111943471D01*
X169519215Y-111943468D01*
X169519219Y-111943466D01*
X169663966Y-111798719D01*
X169663968Y-111798715D01*
X169663971Y-111798713D01*
X169756397Y-111671497D01*
X169784287Y-111633110D01*
X169877220Y-111450719D01*
X169940477Y-111256034D01*
X169972500Y-111053852D01*
X169972500Y-110849148D01*
X169940477Y-110646966D01*
X169940476Y-110646964D01*
X169894419Y-110505215D01*
X169877220Y-110452281D01*
X169877218Y-110452278D01*
X169877218Y-110452276D01*
X169841555Y-110382285D01*
X169784287Y-110269890D01*
X169766715Y-110245704D01*
X169663971Y-110104286D01*
X169519213Y-109959528D01*
X169353613Y-109839215D01*
X169353612Y-109839214D01*
X169353610Y-109839213D01*
X169272205Y-109797735D01*
X169171223Y-109746281D01*
X168976534Y-109683022D01*
X168789719Y-109653434D01*
X168774352Y-109651000D01*
X168569648Y-109651000D01*
X168554281Y-109653434D01*
X168367465Y-109683022D01*
X168172776Y-109746281D01*
X167990386Y-109839215D01*
X167824786Y-109959528D01*
X167680028Y-110104286D01*
X167559715Y-110269886D01*
X167466781Y-110452276D01*
X167403522Y-110646965D01*
X167371500Y-110849148D01*
X162352499Y-110849148D01*
X162352499Y-110103628D01*
X162346091Y-110044017D01*
X162295796Y-109909169D01*
X162295795Y-109909168D01*
X162295793Y-109909164D01*
X162209547Y-109793955D01*
X162209544Y-109793952D01*
X162094335Y-109707706D01*
X162094328Y-109707702D01*
X161959482Y-109657408D01*
X161959483Y-109657408D01*
X161899883Y-109651001D01*
X161899881Y-109651000D01*
X161899873Y-109651000D01*
X161899865Y-109651000D01*
X160652097Y-109651000D01*
X160622656Y-109642355D01*
X160592670Y-109635832D01*
X160587654Y-109632077D01*
X160585058Y-109631315D01*
X160564416Y-109614681D01*
X160439590Y-109489855D01*
X160439588Y-109489852D01*
X160320717Y-109370981D01*
X160320716Y-109370980D01*
X160233904Y-109320860D01*
X160183785Y-109291923D01*
X160126178Y-109276487D01*
X160118327Y-109273177D01*
X160097591Y-109256251D01*
X160074744Y-109242324D01*
X160070942Y-109234497D01*
X160064200Y-109228994D01*
X160055907Y-109203546D01*
X160044216Y-109179477D01*
X160042889Y-109163596D01*
X160042553Y-109162563D01*
X160042742Y-109161837D01*
X160042499Y-109158916D01*
X160042499Y-108349148D01*
X165061500Y-108349148D01*
X165061500Y-108553851D01*
X165093522Y-108756034D01*
X165156781Y-108950723D01*
X165249715Y-109133113D01*
X165370028Y-109298713D01*
X165514786Y-109443471D01*
X165659948Y-109548935D01*
X165680390Y-109563787D01*
X165769212Y-109609044D01*
X165862776Y-109656718D01*
X165862778Y-109656718D01*
X165862781Y-109656720D01*
X165967137Y-109690627D01*
X166057465Y-109719977D01*
X166158557Y-109735988D01*
X166259648Y-109752000D01*
X166259649Y-109752000D01*
X166464351Y-109752000D01*
X166464352Y-109752000D01*
X166666534Y-109719977D01*
X166861219Y-109656720D01*
X167043610Y-109563787D01*
X167139901Y-109493828D01*
X167209213Y-109443471D01*
X167209215Y-109443468D01*
X167209219Y-109443466D01*
X167353966Y-109298719D01*
X167353968Y-109298715D01*
X167353971Y-109298713D01*
X167422699Y-109204115D01*
X167474287Y-109133110D01*
X167567220Y-108950719D01*
X167630477Y-108756034D01*
X167662500Y-108553852D01*
X167662500Y-108349148D01*
X167646898Y-108250641D01*
X167630477Y-108146965D01*
X167577735Y-107984643D01*
X167567220Y-107952281D01*
X167567218Y-107952278D01*
X167567218Y-107952276D01*
X167512128Y-107844158D01*
X167474287Y-107769890D01*
X167438937Y-107721234D01*
X167353971Y-107604286D01*
X167209213Y-107459528D01*
X167043613Y-107339215D01*
X167043612Y-107339214D01*
X167043610Y-107339213D01*
X166986653Y-107310191D01*
X166861223Y-107246281D01*
X166666534Y-107183022D01*
X166487681Y-107154695D01*
X166464352Y-107151000D01*
X166259648Y-107151000D01*
X166236319Y-107154695D01*
X166057465Y-107183022D01*
X165862776Y-107246281D01*
X165680386Y-107339215D01*
X165514786Y-107459528D01*
X165370028Y-107604286D01*
X165249715Y-107769886D01*
X165156781Y-107952276D01*
X165093522Y-108146965D01*
X165061500Y-108349148D01*
X160042499Y-108349148D01*
X160042499Y-107603629D01*
X160042498Y-107603623D01*
X160042497Y-107603616D01*
X160036091Y-107544017D01*
X160030414Y-107528797D01*
X159985797Y-107409171D01*
X159985793Y-107409164D01*
X159899547Y-107293955D01*
X159899544Y-107293952D01*
X159784335Y-107207706D01*
X159784328Y-107207702D01*
X159649482Y-107157408D01*
X159649483Y-107157408D01*
X159589883Y-107151001D01*
X159589881Y-107151000D01*
X159589873Y-107151000D01*
X159589865Y-107151000D01*
X158342097Y-107151000D01*
X158312656Y-107142355D01*
X158282670Y-107135832D01*
X158277654Y-107132077D01*
X158275058Y-107131315D01*
X158254416Y-107114681D01*
X158129590Y-106989855D01*
X158129588Y-106989852D01*
X158010717Y-106870981D01*
X158010716Y-106870980D01*
X157917013Y-106816881D01*
X157873785Y-106791923D01*
X157721057Y-106750999D01*
X157562943Y-106750999D01*
X157555347Y-106750999D01*
X157555331Y-106751000D01*
X141238669Y-106751000D01*
X141238653Y-106750999D01*
X141231057Y-106750999D01*
X141072943Y-106750999D01*
X140958397Y-106781692D01*
X140920214Y-106791923D01*
X140876987Y-106816881D01*
X140876986Y-106816881D01*
X140783287Y-106870977D01*
X140783282Y-106870981D01*
X140671480Y-106982783D01*
X140671480Y-106982784D01*
X140671478Y-106982786D01*
X140575753Y-107078511D01*
X140535177Y-107119087D01*
X140473854Y-107152571D01*
X140434244Y-107154695D01*
X140406933Y-107151759D01*
X140399873Y-107151000D01*
X140399872Y-107151000D01*
X139824500Y-107151000D01*
X139757461Y-107131315D01*
X139711706Y-107078511D01*
X139700500Y-107027000D01*
X139700500Y-106554952D01*
X173377000Y-106554952D01*
X173377000Y-107152797D01*
X174052000Y-107152797D01*
X174052000Y-106102797D01*
X173829155Y-106102797D01*
X173769627Y-106109198D01*
X173769620Y-106109200D01*
X173634913Y-106159442D01*
X173634906Y-106159446D01*
X173519812Y-106245606D01*
X173519809Y-106245609D01*
X173433649Y-106360703D01*
X173433645Y-106360710D01*
X173383403Y-106495417D01*
X173383401Y-106495424D01*
X173377000Y-106554952D01*
X139700500Y-106554952D01*
X139700500Y-100069889D01*
X141179500Y-100069889D01*
X141179500Y-100243110D01*
X141206592Y-100414167D01*
X141206598Y-100414201D01*
X141260127Y-100578945D01*
X141338768Y-100733288D01*
X141440586Y-100873428D01*
X141563072Y-100995914D01*
X141703212Y-101097732D01*
X141857555Y-101176373D01*
X142022299Y-101229902D01*
X142193389Y-101257000D01*
X142193390Y-101257000D01*
X142366610Y-101257000D01*
X142366611Y-101257000D01*
X142537701Y-101229902D01*
X142702445Y-101176373D01*
X142856788Y-101097732D01*
X142996928Y-100995914D01*
X143119414Y-100873428D01*
X143221232Y-100733288D01*
X143299873Y-100578945D01*
X143353402Y-100414201D01*
X143380500Y-100243111D01*
X143380500Y-100069889D01*
X143370854Y-100008986D01*
X145109500Y-100008986D01*
X145109500Y-100304013D01*
X145131058Y-100467757D01*
X145148007Y-100596493D01*
X145222212Y-100873430D01*
X145224361Y-100881451D01*
X145224364Y-100881461D01*
X145337254Y-101154000D01*
X145337258Y-101154010D01*
X145484761Y-101409493D01*
X145664352Y-101643540D01*
X145664358Y-101643547D01*
X145872952Y-101852141D01*
X145872959Y-101852147D01*
X146107006Y-102031738D01*
X146362489Y-102179241D01*
X146362490Y-102179241D01*
X146362493Y-102179243D01*
X146635048Y-102292139D01*
X146920007Y-102368493D01*
X147212494Y-102407000D01*
X147212501Y-102407000D01*
X147507499Y-102407000D01*
X147507506Y-102407000D01*
X147799993Y-102368493D01*
X148084952Y-102292139D01*
X148357507Y-102179243D01*
X148612994Y-102031738D01*
X148847042Y-101852146D01*
X149055646Y-101643542D01*
X149235238Y-101409494D01*
X149382743Y-101154007D01*
X149495639Y-100881452D01*
X149571993Y-100596493D01*
X149610500Y-100304006D01*
X149610500Y-100069889D01*
X151339500Y-100069889D01*
X151339500Y-100243110D01*
X151366592Y-100414167D01*
X151366598Y-100414201D01*
X151420127Y-100578945D01*
X151498768Y-100733288D01*
X151600586Y-100873428D01*
X151723072Y-100995914D01*
X151863212Y-101097732D01*
X152017555Y-101176373D01*
X152182299Y-101229902D01*
X152353389Y-101257000D01*
X152353390Y-101257000D01*
X152526610Y-101257000D01*
X152526611Y-101257000D01*
X152697701Y-101229902D01*
X152862445Y-101176373D01*
X153016788Y-101097732D01*
X153156928Y-100995914D01*
X153279414Y-100873428D01*
X153381232Y-100733288D01*
X153459873Y-100578945D01*
X153513402Y-100414201D01*
X153540500Y-100243111D01*
X153540500Y-100069889D01*
X153513402Y-99898799D01*
X153459873Y-99734055D01*
X153381232Y-99579712D01*
X153279414Y-99439572D01*
X153156928Y-99317086D01*
X153016788Y-99215268D01*
X152862445Y-99136627D01*
X152697701Y-99083098D01*
X152697699Y-99083097D01*
X152697698Y-99083097D01*
X152566271Y-99062281D01*
X152526611Y-99056000D01*
X152353389Y-99056000D01*
X152313728Y-99062281D01*
X152182302Y-99083097D01*
X152017552Y-99136628D01*
X151863211Y-99215268D01*
X151789036Y-99269160D01*
X151723072Y-99317086D01*
X151723070Y-99317088D01*
X151723069Y-99317088D01*
X151600588Y-99439569D01*
X151600588Y-99439570D01*
X151600586Y-99439572D01*
X151576944Y-99472112D01*
X151498768Y-99579711D01*
X151420128Y-99734052D01*
X151366597Y-99898802D01*
X151339500Y-100069889D01*
X149610500Y-100069889D01*
X149610500Y-100008994D01*
X149571993Y-99716507D01*
X149495639Y-99431548D01*
X149382743Y-99158993D01*
X149362416Y-99123786D01*
X149235238Y-98903506D01*
X149055647Y-98669459D01*
X149055641Y-98669452D01*
X148847047Y-98460858D01*
X148847040Y-98460852D01*
X148612993Y-98281261D01*
X148357510Y-98133758D01*
X148357500Y-98133754D01*
X148084961Y-98020864D01*
X148084954Y-98020862D01*
X148084952Y-98020861D01*
X147799993Y-97944507D01*
X147751113Y-97938071D01*
X147507513Y-97906000D01*
X147507506Y-97906000D01*
X147212494Y-97906000D01*
X147212486Y-97906000D01*
X146934085Y-97942653D01*
X146920007Y-97944507D01*
X146830945Y-97968371D01*
X146635048Y-98020861D01*
X146635038Y-98020864D01*
X146362499Y-98133754D01*
X146362489Y-98133758D01*
X146107006Y-98281261D01*
X145872959Y-98460852D01*
X145872952Y-98460858D01*
X145664358Y-98669452D01*
X145664352Y-98669459D01*
X145484761Y-98903506D01*
X145337258Y-99158989D01*
X145337254Y-99158999D01*
X145224364Y-99431538D01*
X145224361Y-99431548D01*
X145171468Y-99628951D01*
X145148008Y-99716504D01*
X145148006Y-99716515D01*
X145109500Y-100008986D01*
X143370854Y-100008986D01*
X143353402Y-99898799D01*
X143299873Y-99734055D01*
X143221232Y-99579712D01*
X143119414Y-99439572D01*
X143067482Y-99387640D01*
X143033997Y-99326317D01*
X143038981Y-99256625D01*
X143080853Y-99200692D01*
X143146317Y-99176275D01*
X143174561Y-99177486D01*
X143175212Y-99177589D01*
X143175215Y-99177590D01*
X143424038Y-99217000D01*
X143424039Y-99217000D01*
X143675961Y-99217000D01*
X143675962Y-99217000D01*
X143924785Y-99177590D01*
X144164379Y-99099741D01*
X144388845Y-98985370D01*
X144592656Y-98837293D01*
X144770793Y-98659156D01*
X144918870Y-98455345D01*
X145033241Y-98230879D01*
X145111090Y-97991285D01*
X145150500Y-97742462D01*
X145150500Y-97490538D01*
X145111090Y-97241715D01*
X145033241Y-97002121D01*
X145033239Y-97002118D01*
X145033239Y-97002116D01*
X144971673Y-96881287D01*
X144918870Y-96777655D01*
X144887228Y-96734104D01*
X144770798Y-96573850D01*
X144770794Y-96573845D01*
X144592654Y-96395705D01*
X144592649Y-96395701D01*
X144388848Y-96247632D01*
X144388847Y-96247631D01*
X144388845Y-96247630D01*
X144318747Y-96211913D01*
X144164383Y-96133260D01*
X143924785Y-96055410D01*
X143876327Y-96047735D01*
X143675962Y-96016000D01*
X143424038Y-96016000D01*
X143299626Y-96035705D01*
X143175214Y-96055410D01*
X142935616Y-96133260D01*
X142711151Y-96247632D01*
X142507350Y-96395701D01*
X142507345Y-96395705D01*
X142329205Y-96573845D01*
X142329201Y-96573850D01*
X142181132Y-96777651D01*
X142066760Y-97002116D01*
X141997951Y-97213890D01*
X141988910Y-97241715D01*
X141949500Y-97490538D01*
X141949500Y-97742462D01*
X141963216Y-97829060D01*
X141988910Y-97991285D01*
X142066760Y-98230883D01*
X142181132Y-98455348D01*
X142329201Y-98659149D01*
X142329205Y-98659154D01*
X142329207Y-98659156D01*
X142507344Y-98837293D01*
X142507345Y-98837294D01*
X142507344Y-98837294D01*
X142513661Y-98841883D01*
X142556327Y-98897214D01*
X142562305Y-98966827D01*
X142529699Y-99028622D01*
X142468860Y-99062979D01*
X142421378Y-99064674D01*
X142366611Y-99056000D01*
X142193389Y-99056000D01*
X142153728Y-99062281D01*
X142022302Y-99083097D01*
X141857552Y-99136628D01*
X141703211Y-99215268D01*
X141629036Y-99269160D01*
X141563072Y-99317086D01*
X141563070Y-99317088D01*
X141563069Y-99317088D01*
X141440588Y-99439569D01*
X141440588Y-99439570D01*
X141440586Y-99439572D01*
X141416944Y-99472112D01*
X141338768Y-99579711D01*
X141260128Y-99734052D01*
X141206597Y-99898802D01*
X141179500Y-100069889D01*
X139700500Y-100069889D01*
X139700500Y-94950538D01*
X148299500Y-94950538D01*
X148299500Y-95202461D01*
X148338910Y-95451285D01*
X148416760Y-95690883D01*
X148531132Y-95915348D01*
X148679201Y-96119149D01*
X148679205Y-96119154D01*
X148857345Y-96297294D01*
X148857350Y-96297298D01*
X149014875Y-96411746D01*
X149061155Y-96445370D01*
X149167248Y-96499427D01*
X149285616Y-96559739D01*
X149285618Y-96559739D01*
X149285621Y-96559741D01*
X149525215Y-96637590D01*
X149774038Y-96677000D01*
X149774039Y-96677000D01*
X150025961Y-96677000D01*
X150025962Y-96677000D01*
X150274785Y-96637590D01*
X150514379Y-96559741D01*
X150738845Y-96445370D01*
X150942656Y-96297293D01*
X151120793Y-96119156D01*
X151268870Y-95915345D01*
X151383241Y-95690879D01*
X151413513Y-95597713D01*
X156201500Y-95597713D01*
X156201500Y-95810287D01*
X156234754Y-96020243D01*
X156271475Y-96133259D01*
X156300444Y-96222414D01*
X156396951Y-96411820D01*
X156521890Y-96583786D01*
X156672213Y-96734109D01*
X156844182Y-96859050D01*
X156852946Y-96863516D01*
X156903742Y-96911491D01*
X156920536Y-96979312D01*
X156897998Y-97045447D01*
X156852946Y-97084484D01*
X156844182Y-97088949D01*
X156672213Y-97213890D01*
X156521890Y-97364213D01*
X156396951Y-97536179D01*
X156300444Y-97725585D01*
X156234753Y-97927760D01*
X156214653Y-98054667D01*
X156201500Y-98137713D01*
X156201500Y-98350287D01*
X156234754Y-98560243D01*
X156270240Y-98669458D01*
X156300444Y-98762414D01*
X156396951Y-98951820D01*
X156521890Y-99123786D01*
X156672213Y-99274109D01*
X156844182Y-99399050D01*
X156852946Y-99403516D01*
X156903742Y-99451491D01*
X156920536Y-99519312D01*
X156897998Y-99585447D01*
X156852946Y-99624484D01*
X156844182Y-99628949D01*
X156672213Y-99753890D01*
X156521890Y-99904213D01*
X156396951Y-100076179D01*
X156300444Y-100265585D01*
X156234753Y-100467760D01*
X156201500Y-100677713D01*
X156201500Y-100890286D01*
X156228571Y-101061209D01*
X156234754Y-101100243D01*
X156288014Y-101264161D01*
X156300444Y-101302414D01*
X156396951Y-101491820D01*
X156521890Y-101663786D01*
X156635818Y-101777714D01*
X156669303Y-101839037D01*
X156664319Y-101908729D01*
X156622447Y-101964662D01*
X156591471Y-101981577D01*
X156459912Y-102030646D01*
X156459906Y-102030649D01*
X156344812Y-102116809D01*
X156344809Y-102116812D01*
X156258649Y-102231906D01*
X156258645Y-102231913D01*
X156208403Y-102366620D01*
X156208401Y-102366627D01*
X156202000Y-102426155D01*
X156202000Y-103074000D01*
X157118988Y-103074000D01*
X157086075Y-103131007D01*
X157052000Y-103258174D01*
X157052000Y-103389826D01*
X157086075Y-103516993D01*
X157118988Y-103574000D01*
X156202000Y-103574000D01*
X156202000Y-104221844D01*
X156208401Y-104281372D01*
X156208403Y-104281379D01*
X156258645Y-104416086D01*
X156258649Y-104416093D01*
X156344809Y-104531187D01*
X156344812Y-104531190D01*
X156459906Y-104617350D01*
X156459913Y-104617354D01*
X156594620Y-104667596D01*
X156594627Y-104667598D01*
X156654155Y-104673999D01*
X156654172Y-104674000D01*
X157302000Y-104674000D01*
X157302000Y-103757012D01*
X157359007Y-103789925D01*
X157486174Y-103824000D01*
X157617826Y-103824000D01*
X157744993Y-103789925D01*
X157802000Y-103757012D01*
X157802000Y-104674000D01*
X158449828Y-104674000D01*
X158449844Y-104673999D01*
X158509372Y-104667598D01*
X158509379Y-104667596D01*
X158644086Y-104617354D01*
X158644093Y-104617350D01*
X158759187Y-104531190D01*
X158759190Y-104531187D01*
X158845350Y-104416093D01*
X158845354Y-104416086D01*
X158895596Y-104281379D01*
X158895598Y-104281372D01*
X158901999Y-104221844D01*
X158902000Y-104221827D01*
X158902000Y-103574000D01*
X157985012Y-103574000D01*
X158017925Y-103516993D01*
X158052000Y-103389826D01*
X158052000Y-103258174D01*
X158017925Y-103131007D01*
X157985012Y-103074000D01*
X158902000Y-103074000D01*
X158902000Y-102426172D01*
X158901999Y-102426155D01*
X158895598Y-102366627D01*
X158895596Y-102366620D01*
X158845354Y-102231913D01*
X158845350Y-102231906D01*
X158759190Y-102116812D01*
X158759187Y-102116809D01*
X158644093Y-102030649D01*
X158644088Y-102030646D01*
X158512528Y-101981577D01*
X158456595Y-101939705D01*
X158432178Y-101874241D01*
X158447030Y-101805968D01*
X158468175Y-101777720D01*
X158582104Y-101663792D01*
X158596817Y-101643542D01*
X158707048Y-101491820D01*
X158707047Y-101491820D01*
X158707051Y-101491816D01*
X158803557Y-101302412D01*
X158869246Y-101100243D01*
X158902500Y-100890287D01*
X158902500Y-100677713D01*
X158869246Y-100467757D01*
X158803557Y-100265588D01*
X158707051Y-100076184D01*
X158702477Y-100069889D01*
X160229500Y-100069889D01*
X160229500Y-100243110D01*
X160256592Y-100414167D01*
X160256598Y-100414201D01*
X160310127Y-100578945D01*
X160388768Y-100733288D01*
X160490586Y-100873428D01*
X160613072Y-100995914D01*
X160753212Y-101097732D01*
X160907555Y-101176373D01*
X161072299Y-101229902D01*
X161243389Y-101257000D01*
X161243390Y-101257000D01*
X161416610Y-101257000D01*
X161416611Y-101257000D01*
X161587701Y-101229902D01*
X161752445Y-101176373D01*
X161906788Y-101097732D01*
X162046928Y-100995914D01*
X162169414Y-100873428D01*
X162271232Y-100733288D01*
X162349873Y-100578945D01*
X162403402Y-100414201D01*
X162430500Y-100243111D01*
X162430500Y-100069889D01*
X162420854Y-100008986D01*
X164159500Y-100008986D01*
X164159500Y-100304013D01*
X164181058Y-100467757D01*
X164198007Y-100596493D01*
X164272212Y-100873430D01*
X164274361Y-100881451D01*
X164274364Y-100881461D01*
X164387254Y-101154000D01*
X164387258Y-101154010D01*
X164534761Y-101409493D01*
X164714352Y-101643540D01*
X164714358Y-101643547D01*
X164922952Y-101852141D01*
X164922959Y-101852147D01*
X165157006Y-102031738D01*
X165412489Y-102179241D01*
X165412490Y-102179241D01*
X165412493Y-102179243D01*
X165685048Y-102292139D01*
X165970007Y-102368493D01*
X166262494Y-102407000D01*
X166262501Y-102407000D01*
X166557499Y-102407000D01*
X166557506Y-102407000D01*
X166849993Y-102368493D01*
X167134952Y-102292139D01*
X167407507Y-102179243D01*
X167662994Y-102031738D01*
X167897042Y-101852146D01*
X168105646Y-101643542D01*
X168285238Y-101409494D01*
X168432743Y-101154007D01*
X168545639Y-100881452D01*
X168621993Y-100596493D01*
X168660500Y-100304006D01*
X168660500Y-100008994D01*
X168621993Y-99716507D01*
X168545639Y-99431548D01*
X168432743Y-99158993D01*
X168412416Y-99123786D01*
X168285238Y-98903506D01*
X168105647Y-98669459D01*
X168105641Y-98669452D01*
X167897047Y-98460858D01*
X167897040Y-98460852D01*
X167662993Y-98281261D01*
X167407510Y-98133758D01*
X167407500Y-98133754D01*
X167134961Y-98020864D01*
X167134954Y-98020862D01*
X167134952Y-98020861D01*
X166849993Y-97944507D01*
X166801113Y-97938071D01*
X166557513Y-97906000D01*
X166557506Y-97906000D01*
X166262494Y-97906000D01*
X166262486Y-97906000D01*
X165984085Y-97942653D01*
X165970007Y-97944507D01*
X165880945Y-97968371D01*
X165685048Y-98020861D01*
X165685038Y-98020864D01*
X165412499Y-98133754D01*
X165412489Y-98133758D01*
X165157006Y-98281261D01*
X164922959Y-98460852D01*
X164922952Y-98460858D01*
X164714358Y-98669452D01*
X164714352Y-98669459D01*
X164534761Y-98903506D01*
X164387258Y-99158989D01*
X164387254Y-99158999D01*
X164274364Y-99431538D01*
X164274361Y-99431548D01*
X164221468Y-99628951D01*
X164198008Y-99716504D01*
X164198006Y-99716515D01*
X164159500Y-100008986D01*
X162420854Y-100008986D01*
X162403402Y-99898799D01*
X162349873Y-99734055D01*
X162271232Y-99579712D01*
X162169414Y-99439572D01*
X162117482Y-99387640D01*
X162083997Y-99326317D01*
X162088981Y-99256625D01*
X162130853Y-99200692D01*
X162196317Y-99176275D01*
X162224561Y-99177486D01*
X162225212Y-99177589D01*
X162225215Y-99177590D01*
X162474038Y-99217000D01*
X162474039Y-99217000D01*
X162725961Y-99217000D01*
X162725962Y-99217000D01*
X162974785Y-99177590D01*
X163214379Y-99099741D01*
X163438845Y-98985370D01*
X163642656Y-98837293D01*
X163820793Y-98659156D01*
X163968870Y-98455345D01*
X164083241Y-98230879D01*
X164161090Y-97991285D01*
X164200500Y-97742462D01*
X164200500Y-97490538D01*
X164161090Y-97241715D01*
X164083241Y-97002121D01*
X164083239Y-97002118D01*
X164083239Y-97002116D01*
X164021673Y-96881287D01*
X163968870Y-96777655D01*
X163937228Y-96734104D01*
X163820798Y-96573850D01*
X163820794Y-96573845D01*
X163642654Y-96395705D01*
X163642649Y-96395701D01*
X163438848Y-96247632D01*
X163438847Y-96247631D01*
X163438845Y-96247630D01*
X163368747Y-96211913D01*
X163214383Y-96133260D01*
X162974785Y-96055410D01*
X162926327Y-96047735D01*
X162725962Y-96016000D01*
X162474038Y-96016000D01*
X162349626Y-96035705D01*
X162225214Y-96055410D01*
X161985616Y-96133260D01*
X161761151Y-96247632D01*
X161557350Y-96395701D01*
X161557345Y-96395705D01*
X161379205Y-96573845D01*
X161379201Y-96573850D01*
X161231132Y-96777651D01*
X161116760Y-97002116D01*
X161047951Y-97213890D01*
X161038910Y-97241715D01*
X160999500Y-97490538D01*
X160999500Y-97742462D01*
X161013216Y-97829060D01*
X161038910Y-97991285D01*
X161116760Y-98230883D01*
X161231132Y-98455348D01*
X161379201Y-98659149D01*
X161379205Y-98659154D01*
X161379207Y-98659156D01*
X161557344Y-98837293D01*
X161557345Y-98837294D01*
X161557344Y-98837294D01*
X161563661Y-98841883D01*
X161606327Y-98897214D01*
X161612305Y-98966827D01*
X161579699Y-99028622D01*
X161518860Y-99062979D01*
X161471378Y-99064674D01*
X161416611Y-99056000D01*
X161243389Y-99056000D01*
X161203728Y-99062281D01*
X161072302Y-99083097D01*
X160907552Y-99136628D01*
X160753211Y-99215268D01*
X160679036Y-99269160D01*
X160613072Y-99317086D01*
X160613070Y-99317088D01*
X160613069Y-99317088D01*
X160490588Y-99439569D01*
X160490588Y-99439570D01*
X160490586Y-99439572D01*
X160466944Y-99472112D01*
X160388768Y-99579711D01*
X160310128Y-99734052D01*
X160256597Y-99898802D01*
X160229500Y-100069889D01*
X158702477Y-100069889D01*
X158669379Y-100024332D01*
X158582109Y-99904213D01*
X158431786Y-99753890D01*
X158259820Y-99628951D01*
X158259115Y-99628591D01*
X158251054Y-99624485D01*
X158200259Y-99576512D01*
X158183463Y-99508692D01*
X158205999Y-99442556D01*
X158251054Y-99403515D01*
X158259816Y-99399051D01*
X158281789Y-99383086D01*
X158431786Y-99274109D01*
X158431788Y-99274106D01*
X158431792Y-99274104D01*
X158582104Y-99123792D01*
X158582106Y-99123788D01*
X158582109Y-99123786D01*
X158707048Y-98951820D01*
X158707047Y-98951820D01*
X158707051Y-98951816D01*
X158803557Y-98762412D01*
X158869246Y-98560243D01*
X158902500Y-98350287D01*
X158902500Y-98137713D01*
X158869246Y-97927757D01*
X158803557Y-97725588D01*
X158707051Y-97536184D01*
X158707049Y-97536181D01*
X158707048Y-97536179D01*
X158582109Y-97364213D01*
X158431786Y-97213890D01*
X158259820Y-97088951D01*
X158259115Y-97088591D01*
X158251054Y-97084485D01*
X158200259Y-97036512D01*
X158183463Y-96968692D01*
X158205999Y-96902556D01*
X158251054Y-96863515D01*
X158259816Y-96859051D01*
X158371849Y-96777655D01*
X158431786Y-96734109D01*
X158431788Y-96734106D01*
X158431792Y-96734104D01*
X158582104Y-96583792D01*
X158582106Y-96583788D01*
X158582109Y-96583786D01*
X158707048Y-96411820D01*
X158707047Y-96411820D01*
X158707051Y-96411816D01*
X158803557Y-96222412D01*
X158869246Y-96020243D01*
X158902500Y-95810287D01*
X158902500Y-95597713D01*
X158869246Y-95387757D01*
X158803557Y-95185588D01*
X158709640Y-95001265D01*
X158707050Y-94996181D01*
X158673889Y-94950538D01*
X167349500Y-94950538D01*
X167349500Y-95202461D01*
X167388910Y-95451285D01*
X167466760Y-95690883D01*
X167581132Y-95915348D01*
X167729201Y-96119149D01*
X167729205Y-96119154D01*
X167907345Y-96297294D01*
X167907350Y-96297298D01*
X168064875Y-96411746D01*
X168111155Y-96445370D01*
X168217248Y-96499427D01*
X168335616Y-96559739D01*
X168335618Y-96559739D01*
X168335621Y-96559741D01*
X168575215Y-96637590D01*
X168824038Y-96677000D01*
X168824039Y-96677000D01*
X169075961Y-96677000D01*
X169075962Y-96677000D01*
X169324785Y-96637590D01*
X169564379Y-96559741D01*
X169788845Y-96445370D01*
X169992656Y-96297293D01*
X170170793Y-96119156D01*
X170318870Y-95915345D01*
X170433241Y-95690879D01*
X170511090Y-95451285D01*
X170550500Y-95202462D01*
X170550500Y-94950538D01*
X170511090Y-94701715D01*
X170511089Y-94701713D01*
X170511089Y-94701710D01*
X170433239Y-94462116D01*
X170382590Y-94362712D01*
X170318870Y-94237655D01*
X170263358Y-94161249D01*
X170170798Y-94033850D01*
X170170794Y-94033845D01*
X169992654Y-93855705D01*
X169992649Y-93855701D01*
X169788848Y-93707632D01*
X169788847Y-93707631D01*
X169788845Y-93707630D01*
X169718747Y-93671913D01*
X169564383Y-93593260D01*
X169324785Y-93515410D01*
X169075962Y-93476000D01*
X168824038Y-93476000D01*
X168699626Y-93495705D01*
X168575214Y-93515410D01*
X168335616Y-93593260D01*
X168111151Y-93707632D01*
X167907350Y-93855701D01*
X167907345Y-93855705D01*
X167729205Y-94033845D01*
X167729201Y-94033850D01*
X167581132Y-94237651D01*
X167466760Y-94462116D01*
X167388911Y-94701710D01*
X167388910Y-94701713D01*
X167388910Y-94701715D01*
X167371955Y-94808763D01*
X167349500Y-94950538D01*
X158673889Y-94950538D01*
X158582109Y-94824213D01*
X158431786Y-94673890D01*
X158259820Y-94548951D01*
X158070414Y-94452444D01*
X158070413Y-94452443D01*
X158070412Y-94452443D01*
X157868243Y-94386754D01*
X157868241Y-94386753D01*
X157868240Y-94386753D01*
X157706957Y-94361208D01*
X157658287Y-94353500D01*
X157445713Y-94353500D01*
X157397042Y-94361208D01*
X157235760Y-94386753D01*
X157033585Y-94452444D01*
X156844179Y-94548951D01*
X156672213Y-94673890D01*
X156521890Y-94824213D01*
X156396951Y-94996179D01*
X156300444Y-95185585D01*
X156234753Y-95387760D01*
X156224692Y-95451285D01*
X156201500Y-95597713D01*
X151413513Y-95597713D01*
X151461090Y-95451285D01*
X151500500Y-95202462D01*
X151500500Y-94950538D01*
X151461090Y-94701715D01*
X151461089Y-94701713D01*
X151461089Y-94701710D01*
X151383239Y-94462116D01*
X151332590Y-94362712D01*
X151268870Y-94237655D01*
X151213358Y-94161249D01*
X151120798Y-94033850D01*
X151120794Y-94033845D01*
X150942654Y-93855705D01*
X150942649Y-93855701D01*
X150738848Y-93707632D01*
X150738847Y-93707631D01*
X150738845Y-93707630D01*
X150668747Y-93671913D01*
X150514383Y-93593260D01*
X150274785Y-93515410D01*
X150025962Y-93476000D01*
X149774038Y-93476000D01*
X149649626Y-93495705D01*
X149525214Y-93515410D01*
X149285616Y-93593260D01*
X149061151Y-93707632D01*
X148857350Y-93855701D01*
X148857345Y-93855705D01*
X148679205Y-94033845D01*
X148679201Y-94033850D01*
X148531132Y-94237651D01*
X148416760Y-94462116D01*
X148338911Y-94701710D01*
X148338910Y-94701713D01*
X148338910Y-94701715D01*
X148321955Y-94808763D01*
X148299500Y-94950538D01*
X139700500Y-94950538D01*
X139700500Y-92006893D01*
X139720185Y-91939854D01*
X139772989Y-91894099D01*
X139842147Y-91884155D01*
X139905703Y-91913180D01*
X139923767Y-91932583D01*
X139942454Y-91957546D01*
X139942455Y-91957547D01*
X140057664Y-92043793D01*
X140057671Y-92043797D01*
X140192517Y-92094091D01*
X140192516Y-92094091D01*
X140199444Y-92094835D01*
X140252127Y-92100500D01*
X141499902Y-92100499D01*
X141529342Y-92109143D01*
X141559329Y-92115667D01*
X141564344Y-92119421D01*
X141566941Y-92120184D01*
X141587583Y-92136818D01*
X141715139Y-92264374D01*
X141715149Y-92264385D01*
X141719479Y-92268715D01*
X141719480Y-92268716D01*
X141831284Y-92380520D01*
X141918095Y-92430639D01*
X141918097Y-92430641D01*
X141956151Y-92452611D01*
X141968215Y-92459577D01*
X142120943Y-92500501D01*
X142120946Y-92500501D01*
X142286653Y-92500501D01*
X142286669Y-92500500D01*
X152775501Y-92500500D01*
X152842540Y-92520185D01*
X152888295Y-92572989D01*
X152899501Y-92624500D01*
X152899501Y-92647876D01*
X152905908Y-92707483D01*
X152956202Y-92842328D01*
X152956206Y-92842335D01*
X153042452Y-92957544D01*
X153042455Y-92957547D01*
X153157664Y-93043793D01*
X153157671Y-93043797D01*
X153292517Y-93094091D01*
X153292516Y-93094091D01*
X153299444Y-93094835D01*
X153352127Y-93100500D01*
X155047872Y-93100499D01*
X155107483Y-93094091D01*
X155242331Y-93043796D01*
X155357546Y-92957546D01*
X155443796Y-92842331D01*
X155494091Y-92707483D01*
X155500500Y-92647873D01*
X155500499Y-91697648D01*
X160519500Y-91697648D01*
X160519500Y-91902351D01*
X160551522Y-92104534D01*
X160614781Y-92299223D01*
X160707715Y-92481613D01*
X160828028Y-92647213D01*
X160972786Y-92791971D01*
X161127749Y-92904556D01*
X161138390Y-92912287D01*
X161218975Y-92953347D01*
X161320776Y-93005218D01*
X161320778Y-93005218D01*
X161320781Y-93005220D01*
X161425137Y-93039127D01*
X161515465Y-93068477D01*
X161584095Y-93079347D01*
X161717648Y-93100500D01*
X161717649Y-93100500D01*
X161922351Y-93100500D01*
X161922352Y-93100500D01*
X162124534Y-93068477D01*
X162319219Y-93005220D01*
X162501610Y-92912287D01*
X162615768Y-92829347D01*
X162667213Y-92791971D01*
X162667215Y-92791968D01*
X162667219Y-92791966D01*
X162811966Y-92647219D01*
X162811968Y-92647215D01*
X162811971Y-92647213D01*
X162865897Y-92572989D01*
X162932287Y-92481610D01*
X163025220Y-92299219D01*
X163088477Y-92104534D01*
X163120500Y-91902352D01*
X163120500Y-91697648D01*
X163088477Y-91495466D01*
X163088476Y-91495464D01*
X163088477Y-91495464D01*
X163030971Y-91318481D01*
X163025220Y-91300781D01*
X163025218Y-91300778D01*
X163025218Y-91300776D01*
X162949441Y-91152057D01*
X162932287Y-91118390D01*
X162903802Y-91079183D01*
X162811971Y-90952786D01*
X162667213Y-90808028D01*
X162501613Y-90687715D01*
X162501612Y-90687714D01*
X162501610Y-90687713D01*
X162440779Y-90656718D01*
X162319223Y-90594781D01*
X162124534Y-90531522D01*
X161949995Y-90503878D01*
X161922352Y-90499500D01*
X161717648Y-90499500D01*
X161693329Y-90503351D01*
X161515465Y-90531522D01*
X161320776Y-90594781D01*
X161138386Y-90687715D01*
X160972786Y-90808028D01*
X160828028Y-90952786D01*
X160707715Y-91118386D01*
X160614781Y-91300776D01*
X160551523Y-91495464D01*
X160519500Y-91697648D01*
X155500499Y-91697648D01*
X155500499Y-90952128D01*
X155495148Y-90902351D01*
X155494091Y-90892516D01*
X155443797Y-90757671D01*
X155443793Y-90757664D01*
X155357547Y-90642455D01*
X155357544Y-90642452D01*
X155242335Y-90556206D01*
X155242328Y-90556202D01*
X155107482Y-90505908D01*
X155107483Y-90505908D01*
X155047883Y-90499501D01*
X155047881Y-90499500D01*
X155047873Y-90499500D01*
X155047864Y-90499500D01*
X153352129Y-90499500D01*
X153352123Y-90499501D01*
X153292516Y-90505908D01*
X153157671Y-90556202D01*
X153157664Y-90556206D01*
X153042455Y-90642452D01*
X153042452Y-90642455D01*
X152956206Y-90757664D01*
X152956202Y-90757671D01*
X152905908Y-90892517D01*
X152901534Y-90933208D01*
X152899501Y-90952123D01*
X152899500Y-90952135D01*
X152899500Y-91175500D01*
X152879815Y-91242539D01*
X152827011Y-91288294D01*
X152775500Y-91299500D01*
X150095801Y-91299500D01*
X150028762Y-91279815D01*
X149983007Y-91227011D01*
X149973063Y-91157853D01*
X149977870Y-91137183D01*
X149988475Y-91104542D01*
X149988475Y-91104538D01*
X149988477Y-91104534D01*
X150020500Y-90902352D01*
X150020500Y-90697648D01*
X149999298Y-90563784D01*
X149988477Y-90495465D01*
X149944131Y-90358983D01*
X149925220Y-90300781D01*
X149925218Y-90300778D01*
X149925218Y-90300776D01*
X149891503Y-90234607D01*
X149832287Y-90118390D01*
X149818823Y-90099858D01*
X149711971Y-89952786D01*
X149567213Y-89808028D01*
X149401613Y-89687715D01*
X149401612Y-89687714D01*
X149401610Y-89687713D01*
X149344653Y-89658691D01*
X149219223Y-89594781D01*
X149024534Y-89531522D01*
X148849995Y-89503878D01*
X148822352Y-89499500D01*
X148617648Y-89499500D01*
X148593329Y-89503351D01*
X148415465Y-89531522D01*
X148220776Y-89594781D01*
X148038386Y-89687715D01*
X147872786Y-89808028D01*
X147728028Y-89952786D01*
X147607715Y-90118386D01*
X147514781Y-90300776D01*
X147451522Y-90495465D01*
X147421074Y-90687713D01*
X147419500Y-90697648D01*
X147419500Y-90902352D01*
X147421617Y-90915717D01*
X147451523Y-91104535D01*
X147451524Y-91104542D01*
X147462130Y-91137183D01*
X147464125Y-91207024D01*
X147428044Y-91266857D01*
X147365343Y-91297684D01*
X147344199Y-91299500D01*
X142524499Y-91299500D01*
X142457460Y-91279815D01*
X142411705Y-91227011D01*
X142400499Y-91175500D01*
X142400499Y-89952129D01*
X142400498Y-89952123D01*
X142400347Y-89950719D01*
X142394091Y-89892517D01*
X142364044Y-89811958D01*
X142343797Y-89757671D01*
X142343793Y-89757664D01*
X142257547Y-89642455D01*
X142257544Y-89642452D01*
X142142335Y-89556206D01*
X142142328Y-89556202D01*
X142007482Y-89505908D01*
X142007483Y-89505908D01*
X141947883Y-89499501D01*
X141947881Y-89499500D01*
X141947873Y-89499500D01*
X141947864Y-89499500D01*
X140252129Y-89499500D01*
X140252123Y-89499501D01*
X140192516Y-89505908D01*
X140057671Y-89556202D01*
X140057664Y-89556206D01*
X139942455Y-89642452D01*
X139923766Y-89667418D01*
X139867832Y-89709288D01*
X139798140Y-89714272D01*
X139736818Y-89680786D01*
X139703333Y-89619462D01*
X139700500Y-89593106D01*
X139700500Y-89300096D01*
X139720185Y-89233057D01*
X139736814Y-89212420D01*
X140178160Y-88771074D01*
X173377000Y-88771074D01*
X173377000Y-89368919D01*
X174052000Y-89368919D01*
X174052000Y-88318919D01*
X173829155Y-88318919D01*
X173769627Y-88325320D01*
X173769620Y-88325322D01*
X173634913Y-88375564D01*
X173634906Y-88375568D01*
X173519812Y-88461728D01*
X173519809Y-88461731D01*
X173433649Y-88576825D01*
X173433645Y-88576832D01*
X173383403Y-88711539D01*
X173383401Y-88711546D01*
X173377000Y-88771074D01*
X140178160Y-88771074D01*
X141410506Y-87538727D01*
X141410511Y-87538724D01*
X141420714Y-87528520D01*
X141420716Y-87528520D01*
X141532520Y-87416716D01*
X141536202Y-87410336D01*
X141601230Y-87297707D01*
X141601231Y-87297704D01*
X141611577Y-87279785D01*
X141652501Y-87127057D01*
X141652501Y-86968943D01*
X141652501Y-86961348D01*
X141652500Y-86961330D01*
X141652500Y-82224242D01*
X141672185Y-82157203D01*
X141724989Y-82111448D01*
X141794147Y-82101504D01*
X141832796Y-82113758D01*
X141857550Y-82126371D01*
X141857552Y-82126371D01*
X141857555Y-82126373D01*
X142022299Y-82179902D01*
X142193389Y-82207000D01*
X142193390Y-82207000D01*
X142366610Y-82207000D01*
X142366611Y-82207000D01*
X142537701Y-82179902D01*
X142702445Y-82126373D01*
X142856788Y-82047732D01*
X142996928Y-81945914D01*
X143119414Y-81823428D01*
X143221232Y-81683288D01*
X143299873Y-81528945D01*
X143353402Y-81364201D01*
X143380500Y-81193111D01*
X143380500Y-81019889D01*
X143353402Y-80848799D01*
X143299873Y-80684055D01*
X143221232Y-80529712D01*
X143119414Y-80389572D01*
X143067482Y-80337640D01*
X143033997Y-80276317D01*
X143038981Y-80206625D01*
X143080853Y-80150692D01*
X143146317Y-80126275D01*
X143174561Y-80127486D01*
X143175212Y-80127589D01*
X143175215Y-80127590D01*
X143424038Y-80167000D01*
X143424039Y-80167000D01*
X143675961Y-80167000D01*
X143675962Y-80167000D01*
X143924785Y-80127590D01*
X144164379Y-80049741D01*
X144388845Y-79935370D01*
X144592656Y-79787293D01*
X144770793Y-79609156D01*
X144918870Y-79405345D01*
X145033241Y-79180879D01*
X145111090Y-78941285D01*
X145116821Y-78905102D01*
X145146750Y-78841967D01*
X145206062Y-78805036D01*
X145239294Y-78800500D01*
X146422945Y-78800500D01*
X146489984Y-78820185D01*
X146535739Y-78872989D01*
X146545683Y-78942147D01*
X146516658Y-79005703D01*
X146470398Y-79039061D01*
X146362499Y-79083754D01*
X146362489Y-79083758D01*
X146107006Y-79231261D01*
X145872959Y-79410852D01*
X145872952Y-79410858D01*
X145664358Y-79619452D01*
X145664352Y-79619459D01*
X145484761Y-79853506D01*
X145337258Y-80108989D01*
X145337254Y-80108999D01*
X145224364Y-80381538D01*
X145224361Y-80381548D01*
X145154956Y-80640575D01*
X145148008Y-80666504D01*
X145148006Y-80666515D01*
X145109500Y-80958986D01*
X145109500Y-81254013D01*
X145124897Y-81370957D01*
X145148007Y-81546493D01*
X145222212Y-81823430D01*
X145224361Y-81831451D01*
X145224364Y-81831461D01*
X145337254Y-82104000D01*
X145337258Y-82104010D01*
X145484761Y-82359493D01*
X145664352Y-82593540D01*
X145664358Y-82593547D01*
X145872952Y-82802141D01*
X145872959Y-82802147D01*
X146107006Y-82981738D01*
X146362489Y-83129241D01*
X146362490Y-83129241D01*
X146362493Y-83129243D01*
X146635048Y-83242139D01*
X146920007Y-83318493D01*
X147212494Y-83357000D01*
X147212501Y-83357000D01*
X147507499Y-83357000D01*
X147507506Y-83357000D01*
X147799993Y-83318493D01*
X148084952Y-83242139D01*
X148357507Y-83129243D01*
X148612994Y-82981738D01*
X148847042Y-82802146D01*
X149055646Y-82593542D01*
X149235238Y-82359494D01*
X149382743Y-82104007D01*
X149495639Y-81831452D01*
X149571993Y-81546493D01*
X149610500Y-81254006D01*
X149610500Y-81019889D01*
X151339500Y-81019889D01*
X151339500Y-81193111D01*
X151344480Y-81224552D01*
X151362058Y-81335541D01*
X151366598Y-81364201D01*
X151420127Y-81528945D01*
X151498768Y-81683288D01*
X151600586Y-81823428D01*
X151723072Y-81945914D01*
X151863212Y-82047732D01*
X152017555Y-82126373D01*
X152182299Y-82179902D01*
X152353389Y-82207000D01*
X152353390Y-82207000D01*
X152526610Y-82207000D01*
X152526611Y-82207000D01*
X152697701Y-82179902D01*
X152862445Y-82126373D01*
X153016788Y-82047732D01*
X153156928Y-81945914D01*
X153279414Y-81823428D01*
X153381232Y-81683288D01*
X153459873Y-81528945D01*
X153513402Y-81364201D01*
X153540500Y-81193111D01*
X153540500Y-81019889D01*
X153513402Y-80848799D01*
X153459873Y-80684055D01*
X153381232Y-80529712D01*
X153279414Y-80389572D01*
X153156928Y-80267086D01*
X153016788Y-80165268D01*
X152862445Y-80086627D01*
X152697701Y-80033098D01*
X152697699Y-80033097D01*
X152697698Y-80033097D01*
X152566271Y-80012281D01*
X152526611Y-80006000D01*
X152353389Y-80006000D01*
X152313728Y-80012281D01*
X152182302Y-80033097D01*
X152017552Y-80086628D01*
X151863211Y-80165268D01*
X151806289Y-80206625D01*
X151723072Y-80267086D01*
X151723070Y-80267088D01*
X151723069Y-80267088D01*
X151600588Y-80389569D01*
X151600588Y-80389570D01*
X151600586Y-80389572D01*
X151585050Y-80410956D01*
X151498768Y-80529711D01*
X151420128Y-80684052D01*
X151366597Y-80848802D01*
X151345197Y-80983919D01*
X151339500Y-81019889D01*
X149610500Y-81019889D01*
X149610500Y-80958994D01*
X149571993Y-80666507D01*
X149495639Y-80381548D01*
X149382743Y-80108993D01*
X149382414Y-80108424D01*
X149235238Y-79853506D01*
X149055647Y-79619459D01*
X149055641Y-79619452D01*
X148847047Y-79410858D01*
X148847040Y-79410852D01*
X148612993Y-79231261D01*
X148357510Y-79083758D01*
X148357500Y-79083754D01*
X148249602Y-79039061D01*
X148195199Y-78995220D01*
X148173134Y-78928926D01*
X148190413Y-78861227D01*
X148241550Y-78813616D01*
X148297055Y-78800500D01*
X153910695Y-78800500D01*
X153977734Y-78820185D01*
X154011011Y-78851612D01*
X154077019Y-78942464D01*
X154077021Y-78942466D01*
X154217539Y-79082984D01*
X154297060Y-79140758D01*
X154303824Y-79146039D01*
X154307998Y-79149537D01*
X154408053Y-79249592D01*
X154473737Y-79288437D01*
X154481522Y-79294962D01*
X154495488Y-79315926D01*
X154512679Y-79334338D01*
X154514528Y-79344506D01*
X154520260Y-79353110D01*
X154520674Y-79378297D01*
X154525182Y-79403079D01*
X154521239Y-79412634D01*
X154521410Y-79422970D01*
X154508143Y-79444381D01*
X154498536Y-79467669D01*
X154488122Y-79476692D01*
X154484609Y-79482363D01*
X154477871Y-79485575D01*
X154464996Y-79496732D01*
X154408053Y-79530408D01*
X154408046Y-79530413D01*
X154311854Y-79626604D01*
X154297061Y-79639239D01*
X154217536Y-79697018D01*
X154077021Y-79837533D01*
X153960213Y-79998305D01*
X153869994Y-80175367D01*
X153869993Y-80175370D01*
X153808587Y-80364362D01*
X153777500Y-80560639D01*
X153777500Y-80759360D01*
X153808587Y-80955637D01*
X153869993Y-81144629D01*
X153869994Y-81144632D01*
X153948901Y-81299493D01*
X153960213Y-81321694D01*
X154077019Y-81482464D01*
X154077021Y-81482466D01*
X154217539Y-81622984D01*
X154297060Y-81680758D01*
X154303824Y-81686039D01*
X154307998Y-81689537D01*
X154408053Y-81789592D01*
X154473737Y-81828437D01*
X154481522Y-81834962D01*
X154495488Y-81855926D01*
X154512679Y-81874338D01*
X154514528Y-81884506D01*
X154520260Y-81893110D01*
X154520674Y-81918297D01*
X154525182Y-81943079D01*
X154521239Y-81952634D01*
X154521410Y-81962970D01*
X154508143Y-81984381D01*
X154498536Y-82007669D01*
X154488122Y-82016692D01*
X154484609Y-82022363D01*
X154477871Y-82025575D01*
X154464996Y-82036731D01*
X154446396Y-82047732D01*
X154408053Y-82070408D01*
X154408046Y-82070413D01*
X154311854Y-82166604D01*
X154297061Y-82179239D01*
X154217536Y-82237018D01*
X154077021Y-82377533D01*
X153960213Y-82538305D01*
X153869994Y-82715367D01*
X153869993Y-82715370D01*
X153808587Y-82904362D01*
X153777500Y-83100639D01*
X153777500Y-83299360D01*
X153808587Y-83495637D01*
X153869993Y-83684629D01*
X153869994Y-83684632D01*
X153950332Y-83842302D01*
X153960213Y-83861694D01*
X154077019Y-84022464D01*
X154077021Y-84022466D01*
X154217539Y-84162984D01*
X154297060Y-84220758D01*
X154303824Y-84226039D01*
X154307998Y-84229537D01*
X154408053Y-84329592D01*
X154473737Y-84368437D01*
X154481522Y-84374962D01*
X154495488Y-84395926D01*
X154512679Y-84414338D01*
X154514528Y-84424506D01*
X154520260Y-84433110D01*
X154520674Y-84458297D01*
X154525182Y-84483079D01*
X154521239Y-84492634D01*
X154521410Y-84502970D01*
X154508143Y-84524381D01*
X154498536Y-84547669D01*
X154488122Y-84556692D01*
X154484609Y-84562363D01*
X154477871Y-84565575D01*
X154464996Y-84576731D01*
X154452688Y-84584011D01*
X154408053Y-84610408D01*
X154408046Y-84610413D01*
X154311854Y-84706604D01*
X154297061Y-84719239D01*
X154217536Y-84777018D01*
X154077021Y-84917533D01*
X153960213Y-85078305D01*
X153869994Y-85255367D01*
X153869993Y-85255370D01*
X153808587Y-85444362D01*
X153777500Y-85640639D01*
X153777500Y-85839360D01*
X153808587Y-86035637D01*
X153869993Y-86224629D01*
X153869994Y-86224632D01*
X153960213Y-86401694D01*
X154077019Y-86562464D01*
X154077021Y-86562466D01*
X154217539Y-86702984D01*
X154297060Y-86760758D01*
X154311851Y-86773390D01*
X154408053Y-86869592D01*
X154550041Y-86953564D01*
X154591816Y-86965701D01*
X154708447Y-86999586D01*
X154708450Y-86999586D01*
X154708452Y-86999587D01*
X154745466Y-87002500D01*
X154745474Y-87002500D01*
X157004526Y-87002500D01*
X157004534Y-87002500D01*
X157041548Y-86999587D01*
X157041550Y-86999586D01*
X157041552Y-86999586D01*
X157083323Y-86987449D01*
X157199959Y-86953564D01*
X157341947Y-86869592D01*
X157458592Y-86752947D01*
X157542564Y-86610959D01*
X157588587Y-86452548D01*
X157591500Y-86415534D01*
X157591500Y-85658635D01*
X164559500Y-85658635D01*
X164559500Y-87754370D01*
X164559501Y-87754376D01*
X164565908Y-87813983D01*
X164616202Y-87948828D01*
X164616206Y-87948835D01*
X164702452Y-88064044D01*
X164702455Y-88064047D01*
X164817664Y-88150293D01*
X164817671Y-88150297D01*
X164952517Y-88200591D01*
X164952516Y-88200591D01*
X164959444Y-88201335D01*
X165012127Y-88207000D01*
X168307872Y-88206999D01*
X168367483Y-88200591D01*
X168502331Y-88150296D01*
X168617546Y-88064046D01*
X168703796Y-87948831D01*
X168754091Y-87813983D01*
X168760500Y-87754373D01*
X168760499Y-85658628D01*
X168754091Y-85599017D01*
X168703796Y-85464169D01*
X168703795Y-85464168D01*
X168703793Y-85464164D01*
X168617547Y-85348955D01*
X168617544Y-85348952D01*
X168502335Y-85262706D01*
X168502328Y-85262702D01*
X168367482Y-85212408D01*
X168367483Y-85212408D01*
X168307883Y-85206001D01*
X168307881Y-85206000D01*
X168307873Y-85206000D01*
X168307864Y-85206000D01*
X165012129Y-85206000D01*
X165012123Y-85206001D01*
X164952516Y-85212408D01*
X164817671Y-85262702D01*
X164817664Y-85262706D01*
X164702455Y-85348952D01*
X164702452Y-85348955D01*
X164616206Y-85464164D01*
X164616202Y-85464171D01*
X164565908Y-85599017D01*
X164559501Y-85658616D01*
X164559501Y-85658623D01*
X164559500Y-85658635D01*
X157591500Y-85658635D01*
X157591500Y-85064466D01*
X157588587Y-85027452D01*
X157542564Y-84869041D01*
X157458592Y-84727053D01*
X157458590Y-84727051D01*
X157458587Y-84727047D01*
X157341952Y-84610412D01*
X157341944Y-84610406D01*
X157285004Y-84576732D01*
X157237321Y-84525663D01*
X157224817Y-84456921D01*
X157251462Y-84392332D01*
X157285004Y-84363268D01*
X157341947Y-84329592D01*
X157458592Y-84212947D01*
X157525800Y-84099304D01*
X157576868Y-84051623D01*
X157645610Y-84039119D01*
X157710199Y-84065764D01*
X157750129Y-84123100D01*
X157750462Y-84124108D01*
X157769433Y-84182496D01*
X157861542Y-84363268D01*
X157876657Y-84392933D01*
X158015483Y-84584010D01*
X158182490Y-84751017D01*
X158373567Y-84889843D01*
X158427912Y-84917533D01*
X158584003Y-84997066D01*
X158584005Y-84997066D01*
X158584008Y-84997068D01*
X158677505Y-85027447D01*
X158808631Y-85070053D01*
X159041903Y-85107000D01*
X159041908Y-85107000D01*
X159278097Y-85107000D01*
X159511368Y-85070053D01*
X159528563Y-85064466D01*
X159735992Y-84997068D01*
X159946433Y-84889843D01*
X160137510Y-84751017D01*
X160304517Y-84584010D01*
X160443343Y-84392933D01*
X160550568Y-84182492D01*
X160623553Y-83957868D01*
X160636592Y-83875541D01*
X160660500Y-83724597D01*
X160660500Y-83488402D01*
X172159500Y-83488402D01*
X172159500Y-83724597D01*
X172196446Y-83957868D01*
X172269433Y-84182496D01*
X172361542Y-84363268D01*
X172376657Y-84392933D01*
X172515483Y-84584010D01*
X172682490Y-84751017D01*
X172873567Y-84889843D01*
X172927912Y-84917533D01*
X173084003Y-84997066D01*
X173084005Y-84997066D01*
X173084008Y-84997068D01*
X173177505Y-85027447D01*
X173308631Y-85070053D01*
X173541903Y-85107000D01*
X173541908Y-85107000D01*
X173778097Y-85107000D01*
X174011368Y-85070053D01*
X174028563Y-85064466D01*
X174235992Y-84997068D01*
X174446433Y-84889843D01*
X174637510Y-84751017D01*
X174804517Y-84584010D01*
X174943343Y-84392933D01*
X175050568Y-84182492D01*
X175123553Y-83957868D01*
X175136592Y-83875541D01*
X175160500Y-83724597D01*
X175160500Y-83488402D01*
X175123553Y-83255131D01*
X175050566Y-83030503D01*
X174943342Y-82820066D01*
X174930323Y-82802147D01*
X174804517Y-82628990D01*
X174637510Y-82461983D01*
X174446433Y-82323157D01*
X174235996Y-82215933D01*
X174011368Y-82142946D01*
X173778097Y-82106000D01*
X173778092Y-82106000D01*
X173541908Y-82106000D01*
X173541903Y-82106000D01*
X173308631Y-82142946D01*
X173084003Y-82215933D01*
X172873566Y-82323157D01*
X172814896Y-82365784D01*
X172682490Y-82461983D01*
X172682488Y-82461985D01*
X172682487Y-82461985D01*
X172515485Y-82628987D01*
X172515485Y-82628988D01*
X172515483Y-82628990D01*
X172455862Y-82711050D01*
X172376657Y-82820066D01*
X172269433Y-83030503D01*
X172196446Y-83255131D01*
X172159500Y-83488402D01*
X160660500Y-83488402D01*
X160623553Y-83255131D01*
X160550566Y-83030503D01*
X160443342Y-82820066D01*
X160430323Y-82802147D01*
X160304517Y-82628990D01*
X160137510Y-82461983D01*
X160081259Y-82421114D01*
X160038595Y-82365784D01*
X160033902Y-82333955D01*
X159289409Y-81589462D01*
X159352993Y-81572425D01*
X159467007Y-81506599D01*
X159560099Y-81413507D01*
X159625925Y-81299493D01*
X159642962Y-81235909D01*
X160382658Y-81975605D01*
X160382658Y-81975604D01*
X160442914Y-81892669D01*
X160442918Y-81892663D01*
X160550102Y-81682302D01*
X160623065Y-81457747D01*
X160660000Y-81224552D01*
X160660000Y-80988447D01*
X160623065Y-80755252D01*
X160550102Y-80530697D01*
X160442914Y-80320328D01*
X160373394Y-80224642D01*
X160349914Y-80158835D01*
X160365739Y-80090781D01*
X160399401Y-80052489D01*
X160402329Y-80050296D01*
X160402331Y-80050296D01*
X160517546Y-79964046D01*
X160603796Y-79848831D01*
X160654091Y-79713983D01*
X160660500Y-79654373D01*
X160660499Y-78488402D01*
X172159500Y-78488402D01*
X172159500Y-78724597D01*
X172196446Y-78957868D01*
X172269433Y-79182496D01*
X172337420Y-79315926D01*
X172376657Y-79392933D01*
X172515483Y-79584010D01*
X172682490Y-79751017D01*
X172873567Y-79889843D01*
X172949966Y-79928770D01*
X173084003Y-79997066D01*
X173084005Y-79997066D01*
X173084008Y-79997068D01*
X173194897Y-80033098D01*
X173308631Y-80070053D01*
X173541903Y-80107000D01*
X173541908Y-80107000D01*
X173778097Y-80107000D01*
X174011368Y-80070053D01*
X174065424Y-80052489D01*
X174235992Y-79997068D01*
X174446433Y-79889843D01*
X174637510Y-79751017D01*
X174804517Y-79584010D01*
X174943343Y-79392933D01*
X175050568Y-79182492D01*
X175123553Y-78957868D01*
X175126043Y-78942147D01*
X175160500Y-78724597D01*
X175160500Y-78488402D01*
X175123553Y-78255131D01*
X175050566Y-78030503D01*
X174943342Y-77820066D01*
X174804517Y-77628990D01*
X174637510Y-77461983D01*
X174446433Y-77323157D01*
X174235996Y-77215933D01*
X174011368Y-77142946D01*
X173778097Y-77106000D01*
X173778092Y-77106000D01*
X173541908Y-77106000D01*
X173541903Y-77106000D01*
X173308631Y-77142946D01*
X173084003Y-77215933D01*
X172873566Y-77323157D01*
X172801961Y-77375182D01*
X172682490Y-77461983D01*
X172682488Y-77461985D01*
X172682487Y-77461985D01*
X172515485Y-77628987D01*
X172515485Y-77628988D01*
X172515483Y-77628990D01*
X172510848Y-77635370D01*
X172376657Y-77820066D01*
X172269433Y-78030503D01*
X172196446Y-78255131D01*
X172159500Y-78488402D01*
X160660499Y-78488402D01*
X160660499Y-77558628D01*
X160654091Y-77499017D01*
X160647192Y-77480521D01*
X160603797Y-77364171D01*
X160603793Y-77364164D01*
X160517547Y-77248955D01*
X160517544Y-77248952D01*
X160402335Y-77162706D01*
X160402328Y-77162702D01*
X160267482Y-77112408D01*
X160267483Y-77112408D01*
X160207883Y-77106001D01*
X160207881Y-77106000D01*
X160207873Y-77106000D01*
X160207864Y-77106000D01*
X158112129Y-77106000D01*
X158112123Y-77106001D01*
X158052516Y-77112408D01*
X157917671Y-77162702D01*
X157917664Y-77162706D01*
X157802455Y-77248952D01*
X157802453Y-77248954D01*
X157764190Y-77300066D01*
X157708256Y-77341936D01*
X157638564Y-77346919D01*
X157577242Y-77313432D01*
X157545848Y-77260344D01*
X157542565Y-77249044D01*
X157542564Y-77249042D01*
X157542564Y-77249041D01*
X157461759Y-77112408D01*
X157458594Y-77107056D01*
X157458587Y-77107047D01*
X157341952Y-76990412D01*
X157341944Y-76990406D01*
X157312389Y-76972927D01*
X157285003Y-76956731D01*
X157237321Y-76905663D01*
X157224817Y-76836921D01*
X157251462Y-76772332D01*
X157285004Y-76743268D01*
X157341947Y-76709592D01*
X157458592Y-76592947D01*
X157542564Y-76450959D01*
X157588587Y-76292548D01*
X157591500Y-76255534D01*
X157591500Y-74904466D01*
X157588587Y-74867452D01*
X157586335Y-74859702D01*
X157542565Y-74709045D01*
X157542564Y-74709042D01*
X157542564Y-74709041D01*
X157458592Y-74567053D01*
X157458590Y-74567051D01*
X157458587Y-74567047D01*
X157341952Y-74450412D01*
X157341944Y-74450406D01*
X157312389Y-74432927D01*
X157285003Y-74416731D01*
X157237321Y-74365663D01*
X157224817Y-74296921D01*
X157251462Y-74232332D01*
X157270195Y-74213548D01*
X157277221Y-74207870D01*
X157341947Y-74169592D01*
X157414944Y-74096594D01*
X157420048Y-74092471D01*
X157446486Y-74081480D01*
X157471619Y-74067757D01*
X157478342Y-74068237D01*
X157484565Y-74065651D01*
X157512747Y-74070698D01*
X157541311Y-74072741D01*
X157546709Y-74076780D01*
X157553340Y-74077968D01*
X157574270Y-74097404D01*
X157584155Y-74104802D01*
X157586540Y-74102418D01*
X157592812Y-74108690D01*
X157707906Y-74194850D01*
X157707913Y-74194854D01*
X157842620Y-74245096D01*
X157842627Y-74245098D01*
X157902155Y-74251499D01*
X157902172Y-74251500D01*
X158500000Y-74251500D01*
X159000000Y-74251500D01*
X159597828Y-74251500D01*
X159597844Y-74251499D01*
X159657372Y-74245098D01*
X159657379Y-74245096D01*
X159792086Y-74194854D01*
X159792093Y-74194850D01*
X159907187Y-74108690D01*
X159907190Y-74108687D01*
X159993350Y-73993593D01*
X159993354Y-73993586D01*
X160043596Y-73858879D01*
X160043598Y-73858872D01*
X160049999Y-73799344D01*
X160050000Y-73799327D01*
X160050000Y-73576500D01*
X159000000Y-73576500D01*
X159000000Y-74251500D01*
X158500000Y-74251500D01*
X158500000Y-73450500D01*
X158519685Y-73383461D01*
X158572489Y-73337706D01*
X158624000Y-73326500D01*
X158750000Y-73326500D01*
X158750000Y-73200500D01*
X158769685Y-73133461D01*
X158822489Y-73087706D01*
X158874000Y-73076500D01*
X160099403Y-73076500D01*
X160166442Y-73096185D01*
X160187082Y-73112818D01*
X160881284Y-73807020D01*
X160881285Y-73807021D01*
X160881287Y-73807022D01*
X160913084Y-73825380D01*
X160961299Y-73875947D01*
X160967266Y-73889434D01*
X161006202Y-73993828D01*
X161006206Y-73993835D01*
X161092452Y-74109044D01*
X161092455Y-74109047D01*
X161207664Y-74195293D01*
X161207671Y-74195297D01*
X161342517Y-74245591D01*
X161342516Y-74245591D01*
X161349444Y-74246335D01*
X161402127Y-74252000D01*
X163025500Y-74251999D01*
X163092539Y-74271684D01*
X163138294Y-74324487D01*
X163149500Y-74375999D01*
X163149500Y-75663330D01*
X163149499Y-75663348D01*
X163149499Y-75829054D01*
X163149498Y-75829054D01*
X163190423Y-75981785D01*
X163193160Y-75986525D01*
X163193163Y-75986531D01*
X163269477Y-76118712D01*
X163269481Y-76118717D01*
X163388349Y-76237585D01*
X163388355Y-76237590D01*
X164515139Y-77364374D01*
X164515149Y-77364385D01*
X164519479Y-77368715D01*
X164519480Y-77368716D01*
X164631284Y-77480520D01*
X164698800Y-77519500D01*
X164768215Y-77559577D01*
X164920943Y-77600501D01*
X164920946Y-77600501D01*
X165086653Y-77600501D01*
X165086669Y-77600500D01*
X168413331Y-77600500D01*
X168413347Y-77600501D01*
X168420943Y-77600501D01*
X168579054Y-77600501D01*
X168579057Y-77600501D01*
X168731785Y-77559577D01*
X168801200Y-77519500D01*
X168868716Y-77480520D01*
X168980520Y-77368716D01*
X168980520Y-77368714D01*
X168990724Y-77358511D01*
X168990728Y-77358506D01*
X170108506Y-76240728D01*
X170108511Y-76240724D01*
X170118714Y-76230520D01*
X170118716Y-76230520D01*
X170230520Y-76118716D01*
X170306840Y-75986525D01*
X170309577Y-75981785D01*
X170350501Y-75829057D01*
X170350501Y-75670943D01*
X170350501Y-75663348D01*
X170350500Y-75663330D01*
X170350500Y-73800096D01*
X170370185Y-73733057D01*
X170386814Y-73712420D01*
X170816884Y-73282350D01*
X172099829Y-73282350D01*
X172522559Y-73705080D01*
X172569190Y-73742657D01*
X172569197Y-73742662D01*
X172699970Y-73802384D01*
X172699978Y-73802386D01*
X172842292Y-73822846D01*
X172984605Y-73802386D01*
X172984613Y-73802384D01*
X173115386Y-73742662D01*
X173115393Y-73742657D01*
X173162024Y-73705080D01*
X173319589Y-73547515D01*
X173319589Y-73547514D01*
X172577126Y-72805053D01*
X172099829Y-73282350D01*
X170816884Y-73282350D01*
X171370678Y-72728556D01*
X171431998Y-72695073D01*
X171501690Y-72700057D01*
X171546037Y-72728558D01*
X171746276Y-72928797D01*
X172312669Y-72362404D01*
X172373992Y-72328919D01*
X172443684Y-72333903D01*
G37*
%TD.AperFunction*%
%TA.AperFunction,Conductor*%
G36*
X134516942Y-73120185D02*
G01*
X134537584Y-73136819D01*
X134965181Y-73564417D01*
X134998666Y-73625740D01*
X135001500Y-73652097D01*
X135001500Y-73799369D01*
X135001501Y-73799376D01*
X135007908Y-73858983D01*
X135058202Y-73993828D01*
X135058206Y-73993835D01*
X135144452Y-74109044D01*
X135144455Y-74109047D01*
X135259664Y-74195293D01*
X135259671Y-74195297D01*
X135394517Y-74245591D01*
X135394516Y-74245591D01*
X135401444Y-74246335D01*
X135454127Y-74252000D01*
X137149872Y-74251999D01*
X137209483Y-74245591D01*
X137344331Y-74195296D01*
X137365565Y-74179399D01*
X137384214Y-74172443D01*
X137400547Y-74161069D01*
X137416276Y-74160484D01*
X137431026Y-74154983D01*
X137450477Y-74159214D01*
X137470369Y-74158475D01*
X137496343Y-74169190D01*
X137499300Y-74169834D01*
X137502995Y-74171935D01*
X137555485Y-74202977D01*
X137603169Y-74254045D01*
X137615673Y-74322787D01*
X137589028Y-74387377D01*
X137555487Y-74416440D01*
X137498058Y-74450403D01*
X137498047Y-74450412D01*
X137381412Y-74567047D01*
X137381405Y-74567056D01*
X137297435Y-74709042D01*
X137297434Y-74709045D01*
X137251413Y-74867447D01*
X137251412Y-74867453D01*
X137248500Y-74904458D01*
X137248500Y-76255541D01*
X137251412Y-76292546D01*
X137251413Y-76292552D01*
X137297434Y-76450954D01*
X137297435Y-76450957D01*
X137381405Y-76592943D01*
X137381412Y-76592952D01*
X137498047Y-76709587D01*
X137498050Y-76709589D01*
X137498053Y-76709592D01*
X137554996Y-76743268D01*
X137602679Y-76794338D01*
X137615182Y-76863079D01*
X137588536Y-76927669D01*
X137554996Y-76956731D01*
X137498056Y-76990406D01*
X137498053Y-76990408D01*
X137498047Y-76990412D01*
X137381412Y-77107047D01*
X137381405Y-77107056D01*
X137297435Y-77249042D01*
X137297434Y-77249045D01*
X137251413Y-77407447D01*
X137251412Y-77407453D01*
X137248500Y-77444458D01*
X137248500Y-78795541D01*
X137251412Y-78832546D01*
X137251413Y-78832552D01*
X137297434Y-78990954D01*
X137297435Y-78990957D01*
X137381405Y-79132943D01*
X137381412Y-79132952D01*
X137498047Y-79249587D01*
X137498050Y-79249589D01*
X137498053Y-79249592D01*
X137554996Y-79283268D01*
X137602679Y-79334338D01*
X137615182Y-79403079D01*
X137588536Y-79467669D01*
X137554996Y-79496732D01*
X137498053Y-79530408D01*
X137498047Y-79530412D01*
X137381412Y-79647047D01*
X137381405Y-79647056D01*
X137297435Y-79789042D01*
X137297434Y-79789045D01*
X137251413Y-79947447D01*
X137251412Y-79947453D01*
X137248500Y-79984458D01*
X137248500Y-81335541D01*
X137251412Y-81372546D01*
X137251413Y-81372552D01*
X137297434Y-81530954D01*
X137297435Y-81530957D01*
X137381405Y-81672943D01*
X137381412Y-81672952D01*
X137498047Y-81789587D01*
X137498050Y-81789589D01*
X137498053Y-81789592D01*
X137554996Y-81823268D01*
X137602679Y-81874338D01*
X137615182Y-81943079D01*
X137588536Y-82007669D01*
X137570000Y-82026293D01*
X137562882Y-82032067D01*
X137498053Y-82070408D01*
X137422481Y-82145979D01*
X137417473Y-82150043D01*
X137390940Y-82161136D01*
X137365704Y-82174916D01*
X137359111Y-82174444D01*
X137353011Y-82176995D01*
X137324691Y-82171982D01*
X137296013Y-82169931D01*
X137289517Y-82165756D01*
X137284210Y-82164817D01*
X137275452Y-82156717D01*
X137251666Y-82141431D01*
X132548590Y-77438355D01*
X132548588Y-77438352D01*
X132429717Y-77319481D01*
X132429716Y-77319480D01*
X132342904Y-77269360D01*
X132292785Y-77240423D01*
X132171555Y-77207939D01*
X132166197Y-77205959D01*
X132142570Y-77188383D01*
X132117424Y-77173056D01*
X132114854Y-77167766D01*
X132110137Y-77164257D01*
X132099762Y-77136697D01*
X132086895Y-77110209D01*
X132087593Y-77104371D01*
X132085521Y-77098867D01*
X132091694Y-77070068D01*
X132095190Y-77040833D01*
X132099642Y-77032992D01*
X132100166Y-77030549D01*
X132102181Y-77028521D01*
X132108857Y-77016765D01*
X132218870Y-76865345D01*
X132333241Y-76640879D01*
X132411090Y-76401285D01*
X132450500Y-76152462D01*
X132450500Y-75900538D01*
X132411090Y-75651715D01*
X132333241Y-75412121D01*
X132333239Y-75412118D01*
X132333239Y-75412116D01*
X132291747Y-75330684D01*
X132218870Y-75187655D01*
X132198225Y-75159240D01*
X132070798Y-74983849D01*
X131892654Y-74805705D01*
X131892649Y-74805701D01*
X131688848Y-74657632D01*
X131688847Y-74657631D01*
X131688845Y-74657630D01*
X131609139Y-74617018D01*
X131464383Y-74543260D01*
X131224785Y-74465410D01*
X131130092Y-74450412D01*
X130975962Y-74426000D01*
X130724038Y-74426000D01*
X130722596Y-74426000D01*
X130655557Y-74406315D01*
X130609802Y-74353511D01*
X130599858Y-74284353D01*
X130628883Y-74220797D01*
X130634915Y-74214319D01*
X131060074Y-73789160D01*
X131290320Y-73558914D01*
X131351642Y-73525430D01*
X131421334Y-73530414D01*
X131477267Y-73572286D01*
X131501684Y-73637750D01*
X131502000Y-73646596D01*
X131502000Y-73799344D01*
X131508401Y-73858872D01*
X131508403Y-73858879D01*
X131558645Y-73993586D01*
X131558649Y-73993593D01*
X131644809Y-74108687D01*
X131644812Y-74108690D01*
X131759906Y-74194850D01*
X131759913Y-74194854D01*
X131894620Y-74245096D01*
X131894627Y-74245098D01*
X131954155Y-74251499D01*
X131954172Y-74251500D01*
X132552000Y-74251500D01*
X133052000Y-74251500D01*
X133649828Y-74251500D01*
X133649844Y-74251499D01*
X133709372Y-74245098D01*
X133709379Y-74245096D01*
X133844086Y-74194854D01*
X133844093Y-74194850D01*
X133959187Y-74108690D01*
X133959190Y-74108687D01*
X134045350Y-73993593D01*
X134045354Y-73993586D01*
X134095596Y-73858879D01*
X134095598Y-73858872D01*
X134101999Y-73799344D01*
X134102000Y-73799327D01*
X134102000Y-73576500D01*
X133052000Y-73576500D01*
X133052000Y-74251500D01*
X132552000Y-74251500D01*
X132552000Y-73450500D01*
X132571685Y-73383461D01*
X132624489Y-73337706D01*
X132676000Y-73326500D01*
X132802000Y-73326500D01*
X132802000Y-73224500D01*
X132821685Y-73157461D01*
X132874489Y-73111706D01*
X132926000Y-73100500D01*
X134449903Y-73100500D01*
X134516942Y-73120185D01*
G37*
%TD.AperFunction*%
%TA.AperFunction,Conductor*%
G36*
X153839070Y-72370185D02*
G01*
X153884825Y-72422989D01*
X153894769Y-72492147D01*
X153882515Y-72530797D01*
X153869994Y-72555368D01*
X153869993Y-72555370D01*
X153808587Y-72744362D01*
X153788937Y-72868429D01*
X153777500Y-72940639D01*
X153777500Y-73139361D01*
X153788937Y-73211571D01*
X153808587Y-73335637D01*
X153869993Y-73524629D01*
X153869994Y-73524632D01*
X153932139Y-73646596D01*
X153960213Y-73701694D01*
X154077019Y-73862464D01*
X154077021Y-73862466D01*
X154217539Y-74002984D01*
X154278395Y-74047197D01*
X154292780Y-74057649D01*
X154297060Y-74060758D01*
X154303824Y-74066039D01*
X154307998Y-74069537D01*
X154408053Y-74169592D01*
X154473737Y-74208437D01*
X154481522Y-74214962D01*
X154495488Y-74235926D01*
X154512679Y-74254338D01*
X154514528Y-74264506D01*
X154520260Y-74273110D01*
X154520674Y-74298297D01*
X154525182Y-74323079D01*
X154521239Y-74332634D01*
X154521410Y-74342970D01*
X154508143Y-74364381D01*
X154498536Y-74387669D01*
X154488122Y-74396692D01*
X154484609Y-74402363D01*
X154477871Y-74405575D01*
X154464996Y-74416731D01*
X154431783Y-74436374D01*
X154408053Y-74450408D01*
X154408046Y-74450413D01*
X154311854Y-74546604D01*
X154297061Y-74559239D01*
X154217536Y-74617018D01*
X154077021Y-74757533D01*
X153960213Y-74918305D01*
X153869994Y-75095367D01*
X153869993Y-75095370D01*
X153808587Y-75284362D01*
X153808587Y-75284364D01*
X153777500Y-75480639D01*
X153777500Y-75679361D01*
X153789832Y-75757222D01*
X153808587Y-75875637D01*
X153869993Y-76064629D01*
X153869994Y-76064632D01*
X153954520Y-76230521D01*
X153960213Y-76241694D01*
X154077019Y-76402464D01*
X154077021Y-76402466D01*
X154217539Y-76542984D01*
X154297060Y-76600758D01*
X154303824Y-76606039D01*
X154307998Y-76609537D01*
X154408053Y-76709592D01*
X154473737Y-76748437D01*
X154481522Y-76754962D01*
X154495488Y-76775926D01*
X154512679Y-76794338D01*
X154514528Y-76804506D01*
X154520260Y-76813110D01*
X154520674Y-76838297D01*
X154525182Y-76863079D01*
X154521239Y-76872634D01*
X154521410Y-76882970D01*
X154508143Y-76904381D01*
X154498536Y-76927669D01*
X154488122Y-76936692D01*
X154484609Y-76942363D01*
X154477871Y-76945575D01*
X154464996Y-76956731D01*
X154408056Y-76990406D01*
X154408053Y-76990408D01*
X154408046Y-76990413D01*
X154311854Y-77086604D01*
X154297061Y-77099239D01*
X154217536Y-77157018D01*
X154077021Y-77297533D01*
X153960211Y-77458307D01*
X153922769Y-77531794D01*
X153874795Y-77582591D01*
X153812284Y-77599500D01*
X150839517Y-77599500D01*
X150772478Y-77579815D01*
X150726723Y-77527011D01*
X150716779Y-77457853D01*
X150745804Y-77394297D01*
X150766632Y-77375182D01*
X150924693Y-77260344D01*
X150942656Y-77247293D01*
X151120793Y-77069156D01*
X151268870Y-76865345D01*
X151383241Y-76640879D01*
X151461090Y-76401285D01*
X151500500Y-76152462D01*
X151500500Y-75900538D01*
X151461090Y-75651715D01*
X151383241Y-75412121D01*
X151383239Y-75412118D01*
X151383239Y-75412116D01*
X151341747Y-75330684D01*
X151268870Y-75187655D01*
X151248225Y-75159240D01*
X151120798Y-74983849D01*
X150942654Y-74805705D01*
X150942649Y-74805701D01*
X150738848Y-74657632D01*
X150738847Y-74657631D01*
X150738845Y-74657630D01*
X150659139Y-74617018D01*
X150514383Y-74543260D01*
X150274785Y-74465410D01*
X150180092Y-74450412D01*
X150025962Y-74426000D01*
X149774038Y-74426000D01*
X149708540Y-74436374D01*
X149525214Y-74465410D01*
X149285616Y-74543260D01*
X149061151Y-74657632D01*
X148857350Y-74805701D01*
X148857345Y-74805705D01*
X148679205Y-74983845D01*
X148679202Y-74983849D01*
X148531132Y-75187651D01*
X148416760Y-75412116D01*
X148338910Y-75651714D01*
X148329351Y-75712069D01*
X148299500Y-75900538D01*
X148299500Y-76152462D01*
X148313481Y-76240732D01*
X148338910Y-76401285D01*
X148416760Y-76640883D01*
X148485569Y-76775926D01*
X148529975Y-76863079D01*
X148531132Y-76865348D01*
X148679201Y-77069149D01*
X148679205Y-77069154D01*
X148857345Y-77247294D01*
X148857350Y-77247298D01*
X149033368Y-77375182D01*
X149076034Y-77430511D01*
X149082013Y-77500125D01*
X149049408Y-77561920D01*
X148988569Y-77596277D01*
X148960483Y-77599500D01*
X144888942Y-77599500D01*
X144821903Y-77579815D01*
X144788624Y-77548385D01*
X144770798Y-77523850D01*
X144770794Y-77523845D01*
X144592654Y-77345705D01*
X144592649Y-77345701D01*
X144388848Y-77197632D01*
X144388847Y-77197631D01*
X144388845Y-77197630D01*
X144309139Y-77157018D01*
X144164383Y-77083260D01*
X143924785Y-77005410D01*
X143830092Y-76990412D01*
X143675962Y-76966000D01*
X143424038Y-76966000D01*
X143299626Y-76985705D01*
X143175214Y-77005410D01*
X142935616Y-77083260D01*
X142711151Y-77197632D01*
X142507350Y-77345701D01*
X142507345Y-77345705D01*
X142329205Y-77523845D01*
X142329201Y-77523850D01*
X142181132Y-77727651D01*
X142066760Y-77952116D01*
X141988910Y-78191714D01*
X141966906Y-78330639D01*
X141949500Y-78440538D01*
X141949500Y-78692462D01*
X141974707Y-78851614D01*
X141988910Y-78941285D01*
X142066760Y-79180883D01*
X142124887Y-79294962D01*
X142179975Y-79403079D01*
X142181132Y-79405348D01*
X142329201Y-79609149D01*
X142329205Y-79609154D01*
X142329207Y-79609156D01*
X142507344Y-79787293D01*
X142507345Y-79787294D01*
X142507344Y-79787294D01*
X142513661Y-79791883D01*
X142556327Y-79847214D01*
X142562305Y-79916827D01*
X142529699Y-79978622D01*
X142468860Y-80012979D01*
X142421378Y-80014674D01*
X142366611Y-80006000D01*
X142193389Y-80006000D01*
X142153728Y-80012281D01*
X142022302Y-80033097D01*
X141857551Y-80086628D01*
X141832793Y-80099243D01*
X141764123Y-80112138D01*
X141699383Y-80085860D01*
X141659127Y-80028753D01*
X141652500Y-79988757D01*
X141652500Y-79272946D01*
X141652499Y-79272939D01*
X141641332Y-79231262D01*
X141611577Y-79120215D01*
X141558731Y-79028684D01*
X141532520Y-78983284D01*
X141420716Y-78871480D01*
X141420713Y-78871478D01*
X141066990Y-78517755D01*
X141033505Y-78456432D01*
X141032198Y-78410679D01*
X141062500Y-78219361D01*
X141062500Y-78020639D01*
X141031413Y-77824364D01*
X140970005Y-77635368D01*
X140970005Y-77635367D01*
X140910967Y-77519500D01*
X140879787Y-77458306D01*
X140762981Y-77297536D01*
X140622464Y-77157019D01*
X140558035Y-77110209D01*
X140542938Y-77099240D01*
X140536175Y-77093960D01*
X140532000Y-77090461D01*
X140431947Y-76990408D01*
X140366259Y-76951560D01*
X140358477Y-76945038D01*
X140344510Y-76924073D01*
X140327321Y-76905663D01*
X140325471Y-76895492D01*
X140319740Y-76886890D01*
X140319324Y-76861702D01*
X140314817Y-76836921D01*
X140318758Y-76827366D01*
X140318588Y-76817030D01*
X140331856Y-76795616D01*
X140341462Y-76772332D01*
X140351874Y-76763309D01*
X140355389Y-76757638D01*
X140362127Y-76754425D01*
X140375004Y-76743268D01*
X140431947Y-76709592D01*
X140528148Y-76613389D01*
X140542939Y-76600758D01*
X140622464Y-76542981D01*
X140762981Y-76402464D01*
X140879787Y-76241694D01*
X140970005Y-76064632D01*
X141031413Y-75875636D01*
X141062500Y-75679361D01*
X141062500Y-75480639D01*
X141031413Y-75284364D01*
X140970005Y-75095368D01*
X140970005Y-75095367D01*
X140892318Y-74942900D01*
X140879787Y-74918306D01*
X140762981Y-74757536D01*
X140622464Y-74617019D01*
X140542937Y-74559239D01*
X140536213Y-74553992D01*
X140532019Y-74550480D01*
X140431947Y-74450408D01*
X140365791Y-74411283D01*
X140358024Y-74404779D01*
X140344036Y-74383800D01*
X140326829Y-74365371D01*
X140324983Y-74355225D01*
X140319263Y-74346646D01*
X140318837Y-74321434D01*
X140314326Y-74296630D01*
X140318258Y-74287098D01*
X140318084Y-74276787D01*
X140331356Y-74255347D01*
X140340972Y-74232040D01*
X140351355Y-74223042D01*
X140354862Y-74217379D01*
X140361606Y-74214160D01*
X140374514Y-74202976D01*
X140431635Y-74169195D01*
X140503639Y-74097191D01*
X139884094Y-73477647D01*
X139971571Y-73454208D01*
X140072930Y-73395689D01*
X140155689Y-73312930D01*
X140214208Y-73211571D01*
X140237647Y-73124094D01*
X140852268Y-73738715D01*
X140879362Y-73701425D01*
X140969542Y-73524437D01*
X141030924Y-73335523D01*
X141030924Y-73335520D01*
X141062000Y-73139321D01*
X141062000Y-72940678D01*
X141030924Y-72744479D01*
X141030924Y-72744476D01*
X140969541Y-72555560D01*
X140969541Y-72555559D01*
X140956923Y-72530794D01*
X140944027Y-72462125D01*
X140970304Y-72397385D01*
X141027411Y-72357128D01*
X141067408Y-72350500D01*
X153772031Y-72350500D01*
X153839070Y-72370185D01*
G37*
%TD.AperFunction*%
%TD*%
M02*
