G04 #@! TF.GenerationSoftware,KiCad,Pcbnew,9.0.3*
G04 #@! TF.CreationDate,2025-07-27T16:58:03-04:00*
G04 #@! TF.ProjectId,hackpad,6861636b-7061-4642-9e6b-696361645f70,rev?*
G04 #@! TF.SameCoordinates,Original*
G04 #@! TF.FileFunction,Paste,Bot*
G04 #@! TF.FilePolarity,Positive*
%FSLAX46Y46*%
G04 Gerber Fmt 4.6, Leading zero omitted, Abs format (unit mm)*
G04 Created by KiCad (PCBNEW 9.0.3) date 2025-07-27 16:58:03*
%MOMM*%
%LPD*%
G01*
G04 APERTURE LIST*
G04 Aperture macros list*
%AMRotRect*
0 Rectangle, with rotation*
0 The origin of the aperture is its center*
0 $1 length*
0 $2 width*
0 $3 Rotation angle, in degrees counterclockwise*
0 Add horizontal line*
21,1,$1,$2,0,0,$3*%
G04 Aperture macros list end*
%ADD10R,1.600000X0.850000*%
%ADD11R,0.850000X1.600000*%
%ADD12RotRect,1.600000X0.850000X225.000000*%
%ADD13RotRect,1.600000X0.850000X45.000000*%
%ADD14RotRect,1.600000X0.850000X135.000000*%
%ADD15RotRect,1.600000X0.850000X315.000000*%
G04 APERTURE END LIST*
D10*
X158750000Y-71576500D03*
X158750000Y-73326500D03*
X162250000Y-73326500D03*
X162250000Y-71576500D03*
D11*
X118677000Y-110823653D03*
X120427000Y-110823653D03*
X120427000Y-107323653D03*
X118677000Y-107323653D03*
D12*
X118339690Y-73688936D03*
X119577127Y-74926373D03*
X122052000Y-72451500D03*
X120814563Y-71214063D03*
D11*
X176052000Y-107402797D03*
X174302000Y-107402797D03*
X174302000Y-110902797D03*
X176052000Y-110902797D03*
D10*
X140236171Y-128701500D03*
X140236171Y-126951500D03*
X136736171Y-126951500D03*
X136736171Y-128701500D03*
D13*
X176408155Y-126832782D03*
X175170718Y-125595345D03*
X172695845Y-128070218D03*
X173933282Y-129307655D03*
D14*
X173814564Y-71214063D03*
X172577127Y-72451500D03*
X175052000Y-74926373D03*
X176289437Y-73688936D03*
D11*
X176052000Y-89618919D03*
X174302000Y-89618919D03*
X174302000Y-93118919D03*
X176052000Y-93118919D03*
X118677000Y-93079347D03*
X120427000Y-93079347D03*
X120427000Y-89579347D03*
X118677000Y-89579347D03*
D15*
X120814563Y-129188937D03*
X122052000Y-127951500D03*
X119577127Y-125476627D03*
X118339690Y-126714064D03*
D10*
X132802000Y-71576500D03*
X132802000Y-73326500D03*
X136302000Y-73326500D03*
X136302000Y-71576500D03*
X158011674Y-128826500D03*
X158011674Y-127076500D03*
X154511674Y-127076500D03*
X154511674Y-128826500D03*
M02*
