G04 #@! TF.GenerationSoftware,KiCad,Pcbnew,9.0.3*
G04 #@! TF.CreationDate,2025-07-27T16:58:03-04:00*
G04 #@! TF.ProjectId,hackpad,6861636b-7061-4642-9e6b-696361645f70,rev?*
G04 #@! TF.SameCoordinates,Original*
G04 #@! TF.FileFunction,Soldermask,Top*
G04 #@! TF.FilePolarity,Negative*
%FSLAX46Y46*%
G04 Gerber Fmt 4.6, Leading zero omitted, Abs format (unit mm)*
G04 Created by KiCad (PCBNEW 9.0.3) date 2025-07-27 16:58:03*
%MOMM*%
%LPD*%
G01*
G04 APERTURE LIST*
%ADD10C,3.500000*%
%ADD11C,1.700000*%
%ADD12C,4.000000*%
%ADD13C,2.200000*%
%ADD14R,1.600000X1.600000*%
%ADD15O,1.600000X1.600000*%
%ADD16R,1.700000X1.700000*%
%ADD17O,1.700000X1.700000*%
%ADD18C,1.524000*%
%ADD19R,2.000000X2.000000*%
%ADD20C,2.000000*%
%ADD21R,3.200000X2.000000*%
G04 APERTURE END LIST*
D10*
X166422000Y-128791661D03*
D11*
X123230000Y-100156500D03*
D12*
X128310000Y-100156500D03*
D11*
X133390000Y-100156500D03*
D13*
X130850000Y-95076500D03*
X124500000Y-97616500D03*
D11*
X123230000Y-81106500D03*
D12*
X128310000Y-81106500D03*
D11*
X133390000Y-81106500D03*
D13*
X130850000Y-76026500D03*
X124500000Y-78566500D03*
D11*
X161330000Y-119206500D03*
D12*
X166410000Y-119206500D03*
D11*
X171490000Y-119206500D03*
D13*
X168950000Y-114126500D03*
X162600000Y-116666500D03*
D10*
X118922000Y-100266661D03*
D11*
X123230000Y-119206500D03*
D12*
X128310000Y-119206500D03*
D11*
X133390000Y-119206500D03*
D13*
X130850000Y-114126500D03*
X124500000Y-116666500D03*
D10*
X175672000Y-100266661D03*
X128285000Y-72016661D03*
D11*
X142280000Y-100156500D03*
D12*
X147360000Y-100156500D03*
D11*
X152440000Y-100156500D03*
D13*
X149900000Y-95076500D03*
X143550000Y-97616500D03*
D11*
X142280000Y-119206500D03*
D12*
X147360000Y-119206500D03*
D11*
X152440000Y-119206500D03*
D13*
X149900000Y-114126500D03*
X143550000Y-116666500D03*
D11*
X161330000Y-100156500D03*
D12*
X166410000Y-100156500D03*
D11*
X171490000Y-100156500D03*
D13*
X168950000Y-95076500D03*
X162600000Y-97616500D03*
D10*
X166422000Y-71766661D03*
X128285000Y-128516661D03*
D14*
X128932000Y-110951500D03*
D15*
X136552000Y-110951500D03*
D14*
X142052000Y-110951500D03*
D15*
X149672000Y-110951500D03*
D14*
X141100000Y-90800000D03*
D15*
X148720000Y-90800000D03*
D14*
X158742000Y-108451500D03*
D15*
X166362000Y-108451500D03*
D14*
X139552000Y-108451500D03*
D15*
X147172000Y-108451500D03*
D16*
X157552000Y-103324000D03*
D17*
X157552000Y-100784000D03*
X157552000Y-98244000D03*
X157552000Y-95704000D03*
D14*
X154200000Y-91800000D03*
D15*
X161820000Y-91800000D03*
D14*
X161052000Y-110951500D03*
D15*
X168672000Y-110951500D03*
D14*
X130552000Y-89451500D03*
D15*
X122932000Y-89451500D03*
D14*
X125742000Y-108451500D03*
D15*
X133362000Y-108451500D03*
D11*
X142280000Y-81106500D03*
D12*
X147360000Y-81106500D03*
D11*
X152440000Y-81106500D03*
D13*
X149900000Y-76026500D03*
X143550000Y-78566500D03*
D18*
X155040000Y-70500000D03*
X155040000Y-73040000D03*
X155040000Y-75580000D03*
X155040000Y-78120000D03*
X155040000Y-80660000D03*
X155040000Y-83200000D03*
X155040000Y-85740000D03*
X139800000Y-85740000D03*
X139800000Y-83200000D03*
X139800000Y-80660000D03*
X139800000Y-78120000D03*
X139800000Y-75580000D03*
X139800000Y-73040000D03*
X139800000Y-70500000D03*
D19*
X159160000Y-78606500D03*
D20*
X159160000Y-83606500D03*
X159160000Y-81106500D03*
D21*
X166660000Y-75506500D03*
X166660000Y-86706500D03*
D20*
X173660000Y-83606500D03*
X173660000Y-78606500D03*
M02*
