G04 #@! TF.GenerationSoftware,KiCad,Pcbnew,9.0.3*
G04 #@! TF.CreationDate,2025-07-27T16:58:03-04:00*
G04 #@! TF.ProjectId,hackpad,6861636b-7061-4642-9e6b-696361645f70,rev?*
G04 #@! TF.SameCoordinates,Original*
G04 #@! TF.FileFunction,Legend,Top*
G04 #@! TF.FilePolarity,Positive*
%FSLAX46Y46*%
G04 Gerber Fmt 4.6, Leading zero omitted, Abs format (unit mm)*
G04 Created by KiCad (PCBNEW 9.0.3) date 2025-07-27 16:58:03*
%MOMM*%
%LPD*%
G01*
G04 APERTURE LIST*
%ADD10C,0.150000*%
%ADD11C,0.120000*%
%ADD12C,3.500000*%
%ADD13C,1.700000*%
%ADD14C,4.000000*%
%ADD15C,2.200000*%
%ADD16R,1.600000X1.600000*%
%ADD17O,1.600000X1.600000*%
%ADD18R,1.700000X1.700000*%
%ADD19O,1.700000X1.700000*%
%ADD20C,1.524000*%
%ADD21R,2.000000X2.000000*%
%ADD22C,2.000000*%
%ADD23R,3.200000X2.000000*%
G04 APERTURE END LIST*
D10*
X126976667Y-92689700D02*
X127119524Y-92737319D01*
X127119524Y-92737319D02*
X127357619Y-92737319D01*
X127357619Y-92737319D02*
X127452857Y-92689700D01*
X127452857Y-92689700D02*
X127500476Y-92642080D01*
X127500476Y-92642080D02*
X127548095Y-92546842D01*
X127548095Y-92546842D02*
X127548095Y-92451604D01*
X127548095Y-92451604D02*
X127500476Y-92356366D01*
X127500476Y-92356366D02*
X127452857Y-92308747D01*
X127452857Y-92308747D02*
X127357619Y-92261128D01*
X127357619Y-92261128D02*
X127167143Y-92213509D01*
X127167143Y-92213509D02*
X127071905Y-92165890D01*
X127071905Y-92165890D02*
X127024286Y-92118271D01*
X127024286Y-92118271D02*
X126976667Y-92023033D01*
X126976667Y-92023033D02*
X126976667Y-91927795D01*
X126976667Y-91927795D02*
X127024286Y-91832557D01*
X127024286Y-91832557D02*
X127071905Y-91784938D01*
X127071905Y-91784938D02*
X127167143Y-91737319D01*
X127167143Y-91737319D02*
X127405238Y-91737319D01*
X127405238Y-91737319D02*
X127548095Y-91784938D01*
X127881429Y-91737319D02*
X128119524Y-92737319D01*
X128119524Y-92737319D02*
X128310000Y-92023033D01*
X128310000Y-92023033D02*
X128500476Y-92737319D01*
X128500476Y-92737319D02*
X128738572Y-91737319D01*
X129548095Y-92070652D02*
X129548095Y-92737319D01*
X129310000Y-91689700D02*
X129071905Y-92403985D01*
X129071905Y-92403985D02*
X129690952Y-92403985D01*
X122838667Y-73673861D02*
X122981524Y-73721480D01*
X122981524Y-73721480D02*
X123219619Y-73721480D01*
X123219619Y-73721480D02*
X123314857Y-73673861D01*
X123314857Y-73673861D02*
X123362476Y-73626241D01*
X123362476Y-73626241D02*
X123410095Y-73531003D01*
X123410095Y-73531003D02*
X123410095Y-73435765D01*
X123410095Y-73435765D02*
X123362476Y-73340527D01*
X123362476Y-73340527D02*
X123314857Y-73292908D01*
X123314857Y-73292908D02*
X123219619Y-73245289D01*
X123219619Y-73245289D02*
X123029143Y-73197670D01*
X123029143Y-73197670D02*
X122933905Y-73150051D01*
X122933905Y-73150051D02*
X122886286Y-73102432D01*
X122886286Y-73102432D02*
X122838667Y-73007194D01*
X122838667Y-73007194D02*
X122838667Y-72911956D01*
X122838667Y-72911956D02*
X122886286Y-72816718D01*
X122886286Y-72816718D02*
X122933905Y-72769099D01*
X122933905Y-72769099D02*
X123029143Y-72721480D01*
X123029143Y-72721480D02*
X123267238Y-72721480D01*
X123267238Y-72721480D02*
X123410095Y-72769099D01*
X123743429Y-72721480D02*
X123981524Y-73721480D01*
X123981524Y-73721480D02*
X124172000Y-73007194D01*
X124172000Y-73007194D02*
X124362476Y-73721480D01*
X124362476Y-73721480D02*
X124600572Y-72721480D01*
X125505333Y-73721480D02*
X124933905Y-73721480D01*
X125219619Y-73721480D02*
X125219619Y-72721480D01*
X125219619Y-72721480D02*
X125124381Y-72864337D01*
X125124381Y-72864337D02*
X125029143Y-72959575D01*
X125029143Y-72959575D02*
X124933905Y-73007194D01*
X163838667Y-111739700D02*
X163981524Y-111787319D01*
X163981524Y-111787319D02*
X164219619Y-111787319D01*
X164219619Y-111787319D02*
X164314857Y-111739700D01*
X164314857Y-111739700D02*
X164362476Y-111692080D01*
X164362476Y-111692080D02*
X164410095Y-111596842D01*
X164410095Y-111596842D02*
X164410095Y-111501604D01*
X164410095Y-111501604D02*
X164362476Y-111406366D01*
X164362476Y-111406366D02*
X164314857Y-111358747D01*
X164314857Y-111358747D02*
X164219619Y-111311128D01*
X164219619Y-111311128D02*
X164029143Y-111263509D01*
X164029143Y-111263509D02*
X163933905Y-111215890D01*
X163933905Y-111215890D02*
X163886286Y-111168271D01*
X163886286Y-111168271D02*
X163838667Y-111073033D01*
X163838667Y-111073033D02*
X163838667Y-110977795D01*
X163838667Y-110977795D02*
X163886286Y-110882557D01*
X163886286Y-110882557D02*
X163933905Y-110834938D01*
X163933905Y-110834938D02*
X164029143Y-110787319D01*
X164029143Y-110787319D02*
X164267238Y-110787319D01*
X164267238Y-110787319D02*
X164410095Y-110834938D01*
X164743429Y-110787319D02*
X164981524Y-111787319D01*
X164981524Y-111787319D02*
X165172000Y-111073033D01*
X165172000Y-111073033D02*
X165362476Y-111787319D01*
X165362476Y-111787319D02*
X165600572Y-110787319D01*
X166029143Y-111787319D02*
X166219619Y-111787319D01*
X166219619Y-111787319D02*
X166314857Y-111739700D01*
X166314857Y-111739700D02*
X166362476Y-111692080D01*
X166362476Y-111692080D02*
X166457714Y-111549223D01*
X166457714Y-111549223D02*
X166505333Y-111358747D01*
X166505333Y-111358747D02*
X166505333Y-110977795D01*
X166505333Y-110977795D02*
X166457714Y-110882557D01*
X166457714Y-110882557D02*
X166410095Y-110834938D01*
X166410095Y-110834938D02*
X166314857Y-110787319D01*
X166314857Y-110787319D02*
X166124381Y-110787319D01*
X166124381Y-110787319D02*
X166029143Y-110834938D01*
X166029143Y-110834938D02*
X165981524Y-110882557D01*
X165981524Y-110882557D02*
X165933905Y-110977795D01*
X165933905Y-110977795D02*
X165933905Y-111215890D01*
X165933905Y-111215890D02*
X165981524Y-111311128D01*
X165981524Y-111311128D02*
X166029143Y-111358747D01*
X166029143Y-111358747D02*
X166124381Y-111406366D01*
X166124381Y-111406366D02*
X166314857Y-111406366D01*
X166314857Y-111406366D02*
X166410095Y-111358747D01*
X166410095Y-111358747D02*
X166457714Y-111311128D01*
X166457714Y-111311128D02*
X166505333Y-111215890D01*
X124588667Y-111673861D02*
X124731524Y-111721480D01*
X124731524Y-111721480D02*
X124969619Y-111721480D01*
X124969619Y-111721480D02*
X125064857Y-111673861D01*
X125064857Y-111673861D02*
X125112476Y-111626241D01*
X125112476Y-111626241D02*
X125160095Y-111531003D01*
X125160095Y-111531003D02*
X125160095Y-111435765D01*
X125160095Y-111435765D02*
X125112476Y-111340527D01*
X125112476Y-111340527D02*
X125064857Y-111292908D01*
X125064857Y-111292908D02*
X124969619Y-111245289D01*
X124969619Y-111245289D02*
X124779143Y-111197670D01*
X124779143Y-111197670D02*
X124683905Y-111150051D01*
X124683905Y-111150051D02*
X124636286Y-111102432D01*
X124636286Y-111102432D02*
X124588667Y-111007194D01*
X124588667Y-111007194D02*
X124588667Y-110911956D01*
X124588667Y-110911956D02*
X124636286Y-110816718D01*
X124636286Y-110816718D02*
X124683905Y-110769099D01*
X124683905Y-110769099D02*
X124779143Y-110721480D01*
X124779143Y-110721480D02*
X125017238Y-110721480D01*
X125017238Y-110721480D02*
X125160095Y-110769099D01*
X125493429Y-110721480D02*
X125731524Y-111721480D01*
X125731524Y-111721480D02*
X125922000Y-111007194D01*
X125922000Y-111007194D02*
X126112476Y-111721480D01*
X126112476Y-111721480D02*
X126350572Y-110721480D01*
X126636286Y-110721480D02*
X127302952Y-110721480D01*
X127302952Y-110721480D02*
X126874381Y-111721480D01*
X143838667Y-92689700D02*
X143981524Y-92737319D01*
X143981524Y-92737319D02*
X144219619Y-92737319D01*
X144219619Y-92737319D02*
X144314857Y-92689700D01*
X144314857Y-92689700D02*
X144362476Y-92642080D01*
X144362476Y-92642080D02*
X144410095Y-92546842D01*
X144410095Y-92546842D02*
X144410095Y-92451604D01*
X144410095Y-92451604D02*
X144362476Y-92356366D01*
X144362476Y-92356366D02*
X144314857Y-92308747D01*
X144314857Y-92308747D02*
X144219619Y-92261128D01*
X144219619Y-92261128D02*
X144029143Y-92213509D01*
X144029143Y-92213509D02*
X143933905Y-92165890D01*
X143933905Y-92165890D02*
X143886286Y-92118271D01*
X143886286Y-92118271D02*
X143838667Y-92023033D01*
X143838667Y-92023033D02*
X143838667Y-91927795D01*
X143838667Y-91927795D02*
X143886286Y-91832557D01*
X143886286Y-91832557D02*
X143933905Y-91784938D01*
X143933905Y-91784938D02*
X144029143Y-91737319D01*
X144029143Y-91737319D02*
X144267238Y-91737319D01*
X144267238Y-91737319D02*
X144410095Y-91784938D01*
X144743429Y-91737319D02*
X144981524Y-92737319D01*
X144981524Y-92737319D02*
X145172000Y-92023033D01*
X145172000Y-92023033D02*
X145362476Y-92737319D01*
X145362476Y-92737319D02*
X145600572Y-91737319D01*
X146457714Y-91737319D02*
X145981524Y-91737319D01*
X145981524Y-91737319D02*
X145933905Y-92213509D01*
X145933905Y-92213509D02*
X145981524Y-92165890D01*
X145981524Y-92165890D02*
X146076762Y-92118271D01*
X146076762Y-92118271D02*
X146314857Y-92118271D01*
X146314857Y-92118271D02*
X146410095Y-92165890D01*
X146410095Y-92165890D02*
X146457714Y-92213509D01*
X146457714Y-92213509D02*
X146505333Y-92308747D01*
X146505333Y-92308747D02*
X146505333Y-92546842D01*
X146505333Y-92546842D02*
X146457714Y-92642080D01*
X146457714Y-92642080D02*
X146410095Y-92689700D01*
X146410095Y-92689700D02*
X146314857Y-92737319D01*
X146314857Y-92737319D02*
X146076762Y-92737319D01*
X146076762Y-92737319D02*
X145981524Y-92689700D01*
X145981524Y-92689700D02*
X145933905Y-92642080D01*
X144588667Y-111739700D02*
X144731524Y-111787319D01*
X144731524Y-111787319D02*
X144969619Y-111787319D01*
X144969619Y-111787319D02*
X145064857Y-111739700D01*
X145064857Y-111739700D02*
X145112476Y-111692080D01*
X145112476Y-111692080D02*
X145160095Y-111596842D01*
X145160095Y-111596842D02*
X145160095Y-111501604D01*
X145160095Y-111501604D02*
X145112476Y-111406366D01*
X145112476Y-111406366D02*
X145064857Y-111358747D01*
X145064857Y-111358747D02*
X144969619Y-111311128D01*
X144969619Y-111311128D02*
X144779143Y-111263509D01*
X144779143Y-111263509D02*
X144683905Y-111215890D01*
X144683905Y-111215890D02*
X144636286Y-111168271D01*
X144636286Y-111168271D02*
X144588667Y-111073033D01*
X144588667Y-111073033D02*
X144588667Y-110977795D01*
X144588667Y-110977795D02*
X144636286Y-110882557D01*
X144636286Y-110882557D02*
X144683905Y-110834938D01*
X144683905Y-110834938D02*
X144779143Y-110787319D01*
X144779143Y-110787319D02*
X145017238Y-110787319D01*
X145017238Y-110787319D02*
X145160095Y-110834938D01*
X145493429Y-110787319D02*
X145731524Y-111787319D01*
X145731524Y-111787319D02*
X145922000Y-111073033D01*
X145922000Y-111073033D02*
X146112476Y-111787319D01*
X146112476Y-111787319D02*
X146350572Y-110787319D01*
X146874381Y-111215890D02*
X146779143Y-111168271D01*
X146779143Y-111168271D02*
X146731524Y-111120652D01*
X146731524Y-111120652D02*
X146683905Y-111025414D01*
X146683905Y-111025414D02*
X146683905Y-110977795D01*
X146683905Y-110977795D02*
X146731524Y-110882557D01*
X146731524Y-110882557D02*
X146779143Y-110834938D01*
X146779143Y-110834938D02*
X146874381Y-110787319D01*
X146874381Y-110787319D02*
X147064857Y-110787319D01*
X147064857Y-110787319D02*
X147160095Y-110834938D01*
X147160095Y-110834938D02*
X147207714Y-110882557D01*
X147207714Y-110882557D02*
X147255333Y-110977795D01*
X147255333Y-110977795D02*
X147255333Y-111025414D01*
X147255333Y-111025414D02*
X147207714Y-111120652D01*
X147207714Y-111120652D02*
X147160095Y-111168271D01*
X147160095Y-111168271D02*
X147064857Y-111215890D01*
X147064857Y-111215890D02*
X146874381Y-111215890D01*
X146874381Y-111215890D02*
X146779143Y-111263509D01*
X146779143Y-111263509D02*
X146731524Y-111311128D01*
X146731524Y-111311128D02*
X146683905Y-111406366D01*
X146683905Y-111406366D02*
X146683905Y-111596842D01*
X146683905Y-111596842D02*
X146731524Y-111692080D01*
X146731524Y-111692080D02*
X146779143Y-111739700D01*
X146779143Y-111739700D02*
X146874381Y-111787319D01*
X146874381Y-111787319D02*
X147064857Y-111787319D01*
X147064857Y-111787319D02*
X147160095Y-111739700D01*
X147160095Y-111739700D02*
X147207714Y-111692080D01*
X147207714Y-111692080D02*
X147255333Y-111596842D01*
X147255333Y-111596842D02*
X147255333Y-111406366D01*
X147255333Y-111406366D02*
X147207714Y-111311128D01*
X147207714Y-111311128D02*
X147160095Y-111263509D01*
X147160095Y-111263509D02*
X147064857Y-111215890D01*
X165076667Y-92689700D02*
X165219524Y-92737319D01*
X165219524Y-92737319D02*
X165457619Y-92737319D01*
X165457619Y-92737319D02*
X165552857Y-92689700D01*
X165552857Y-92689700D02*
X165600476Y-92642080D01*
X165600476Y-92642080D02*
X165648095Y-92546842D01*
X165648095Y-92546842D02*
X165648095Y-92451604D01*
X165648095Y-92451604D02*
X165600476Y-92356366D01*
X165600476Y-92356366D02*
X165552857Y-92308747D01*
X165552857Y-92308747D02*
X165457619Y-92261128D01*
X165457619Y-92261128D02*
X165267143Y-92213509D01*
X165267143Y-92213509D02*
X165171905Y-92165890D01*
X165171905Y-92165890D02*
X165124286Y-92118271D01*
X165124286Y-92118271D02*
X165076667Y-92023033D01*
X165076667Y-92023033D02*
X165076667Y-91927795D01*
X165076667Y-91927795D02*
X165124286Y-91832557D01*
X165124286Y-91832557D02*
X165171905Y-91784938D01*
X165171905Y-91784938D02*
X165267143Y-91737319D01*
X165267143Y-91737319D02*
X165505238Y-91737319D01*
X165505238Y-91737319D02*
X165648095Y-91784938D01*
X165981429Y-91737319D02*
X166219524Y-92737319D01*
X166219524Y-92737319D02*
X166410000Y-92023033D01*
X166410000Y-92023033D02*
X166600476Y-92737319D01*
X166600476Y-92737319D02*
X166838572Y-91737319D01*
X167648095Y-91737319D02*
X167457619Y-91737319D01*
X167457619Y-91737319D02*
X167362381Y-91784938D01*
X167362381Y-91784938D02*
X167314762Y-91832557D01*
X167314762Y-91832557D02*
X167219524Y-91975414D01*
X167219524Y-91975414D02*
X167171905Y-92165890D01*
X167171905Y-92165890D02*
X167171905Y-92546842D01*
X167171905Y-92546842D02*
X167219524Y-92642080D01*
X167219524Y-92642080D02*
X167267143Y-92689700D01*
X167267143Y-92689700D02*
X167362381Y-92737319D01*
X167362381Y-92737319D02*
X167552857Y-92737319D01*
X167552857Y-92737319D02*
X167648095Y-92689700D01*
X167648095Y-92689700D02*
X167695714Y-92642080D01*
X167695714Y-92642080D02*
X167743333Y-92546842D01*
X167743333Y-92546842D02*
X167743333Y-92308747D01*
X167743333Y-92308747D02*
X167695714Y-92213509D01*
X167695714Y-92213509D02*
X167648095Y-92165890D01*
X167648095Y-92165890D02*
X167552857Y-92118271D01*
X167552857Y-92118271D02*
X167362381Y-92118271D01*
X167362381Y-92118271D02*
X167267143Y-92165890D01*
X167267143Y-92165890D02*
X167219524Y-92213509D01*
X167219524Y-92213509D02*
X167171905Y-92308747D01*
X146026667Y-73639700D02*
X146169524Y-73687319D01*
X146169524Y-73687319D02*
X146407619Y-73687319D01*
X146407619Y-73687319D02*
X146502857Y-73639700D01*
X146502857Y-73639700D02*
X146550476Y-73592080D01*
X146550476Y-73592080D02*
X146598095Y-73496842D01*
X146598095Y-73496842D02*
X146598095Y-73401604D01*
X146598095Y-73401604D02*
X146550476Y-73306366D01*
X146550476Y-73306366D02*
X146502857Y-73258747D01*
X146502857Y-73258747D02*
X146407619Y-73211128D01*
X146407619Y-73211128D02*
X146217143Y-73163509D01*
X146217143Y-73163509D02*
X146121905Y-73115890D01*
X146121905Y-73115890D02*
X146074286Y-73068271D01*
X146074286Y-73068271D02*
X146026667Y-72973033D01*
X146026667Y-72973033D02*
X146026667Y-72877795D01*
X146026667Y-72877795D02*
X146074286Y-72782557D01*
X146074286Y-72782557D02*
X146121905Y-72734938D01*
X146121905Y-72734938D02*
X146217143Y-72687319D01*
X146217143Y-72687319D02*
X146455238Y-72687319D01*
X146455238Y-72687319D02*
X146598095Y-72734938D01*
X146931429Y-72687319D02*
X147169524Y-73687319D01*
X147169524Y-73687319D02*
X147360000Y-72973033D01*
X147360000Y-72973033D02*
X147550476Y-73687319D01*
X147550476Y-73687319D02*
X147788572Y-72687319D01*
X148121905Y-72782557D02*
X148169524Y-72734938D01*
X148169524Y-72734938D02*
X148264762Y-72687319D01*
X148264762Y-72687319D02*
X148502857Y-72687319D01*
X148502857Y-72687319D02*
X148598095Y-72734938D01*
X148598095Y-72734938D02*
X148645714Y-72782557D01*
X148645714Y-72782557D02*
X148693333Y-72877795D01*
X148693333Y-72877795D02*
X148693333Y-72973033D01*
X148693333Y-72973033D02*
X148645714Y-73115890D01*
X148645714Y-73115890D02*
X148074286Y-73687319D01*
X148074286Y-73687319D02*
X148693333Y-73687319D01*
X169218667Y-74858700D02*
X169361524Y-74906319D01*
X169361524Y-74906319D02*
X169599619Y-74906319D01*
X169599619Y-74906319D02*
X169694857Y-74858700D01*
X169694857Y-74858700D02*
X169742476Y-74811080D01*
X169742476Y-74811080D02*
X169790095Y-74715842D01*
X169790095Y-74715842D02*
X169790095Y-74620604D01*
X169790095Y-74620604D02*
X169742476Y-74525366D01*
X169742476Y-74525366D02*
X169694857Y-74477747D01*
X169694857Y-74477747D02*
X169599619Y-74430128D01*
X169599619Y-74430128D02*
X169409143Y-74382509D01*
X169409143Y-74382509D02*
X169313905Y-74334890D01*
X169313905Y-74334890D02*
X169266286Y-74287271D01*
X169266286Y-74287271D02*
X169218667Y-74192033D01*
X169218667Y-74192033D02*
X169218667Y-74096795D01*
X169218667Y-74096795D02*
X169266286Y-74001557D01*
X169266286Y-74001557D02*
X169313905Y-73953938D01*
X169313905Y-73953938D02*
X169409143Y-73906319D01*
X169409143Y-73906319D02*
X169647238Y-73906319D01*
X169647238Y-73906319D02*
X169790095Y-73953938D01*
X170123429Y-73906319D02*
X170361524Y-74906319D01*
X170361524Y-74906319D02*
X170552000Y-74192033D01*
X170552000Y-74192033D02*
X170742476Y-74906319D01*
X170742476Y-74906319D02*
X170980572Y-73906319D01*
X171266286Y-73906319D02*
X171885333Y-73906319D01*
X171885333Y-73906319D02*
X171552000Y-74287271D01*
X171552000Y-74287271D02*
X171694857Y-74287271D01*
X171694857Y-74287271D02*
X171790095Y-74334890D01*
X171790095Y-74334890D02*
X171837714Y-74382509D01*
X171837714Y-74382509D02*
X171885333Y-74477747D01*
X171885333Y-74477747D02*
X171885333Y-74715842D01*
X171885333Y-74715842D02*
X171837714Y-74811080D01*
X171837714Y-74811080D02*
X171790095Y-74858700D01*
X171790095Y-74858700D02*
X171694857Y-74906319D01*
X171694857Y-74906319D02*
X171409143Y-74906319D01*
X171409143Y-74906319D02*
X171313905Y-74858700D01*
X171313905Y-74858700D02*
X171266286Y-74811080D01*
D11*
X121325000Y-93171500D02*
X135295000Y-93171500D01*
X121325000Y-107141500D02*
X121325000Y-93171500D01*
X135295000Y-93171500D02*
X135295000Y-107141500D01*
X135295000Y-107141500D02*
X121325000Y-107141500D01*
X121325000Y-74121500D02*
X135295000Y-74121500D01*
X121325000Y-88091500D02*
X121325000Y-74121500D01*
X135295000Y-74121500D02*
X135295000Y-88091500D01*
X135295000Y-88091500D02*
X121325000Y-88091500D01*
X159425000Y-112221500D02*
X173395000Y-112221500D01*
X159425000Y-126191500D02*
X159425000Y-112221500D01*
X173395000Y-112221500D02*
X173395000Y-126191500D01*
X173395000Y-126191500D02*
X159425000Y-126191500D01*
X121325000Y-112221500D02*
X135295000Y-112221500D01*
X121325000Y-126191500D02*
X121325000Y-112221500D01*
X135295000Y-112221500D02*
X135295000Y-126191500D01*
X135295000Y-126191500D02*
X121325000Y-126191500D01*
X140375000Y-93171500D02*
X154345000Y-93171500D01*
X140375000Y-107141500D02*
X140375000Y-93171500D01*
X154345000Y-93171500D02*
X154345000Y-107141500D01*
X154345000Y-107141500D02*
X140375000Y-107141500D01*
X140375000Y-112221500D02*
X154345000Y-112221500D01*
X140375000Y-126191500D02*
X140375000Y-112221500D01*
X154345000Y-112221500D02*
X154345000Y-126191500D01*
X154345000Y-126191500D02*
X140375000Y-126191500D01*
X159425000Y-93171500D02*
X173395000Y-93171500D01*
X159425000Y-107141500D02*
X159425000Y-93171500D01*
X173395000Y-93171500D02*
X173395000Y-107141500D01*
X173395000Y-107141500D02*
X159425000Y-107141500D01*
X140375000Y-74121500D02*
X154345000Y-74121500D01*
X140375000Y-88091500D02*
X140375000Y-74121500D01*
X154345000Y-74121500D02*
X154345000Y-88091500D01*
X154345000Y-88091500D02*
X140375000Y-88091500D01*
X158860000Y-77006500D02*
X159460000Y-77006500D01*
X159160000Y-77306500D02*
X158860000Y-77006500D01*
X159460000Y-77006500D02*
X159160000Y-77306500D01*
X160560000Y-75206500D02*
X160560000Y-87006500D01*
X164660000Y-75206500D02*
X160560000Y-75206500D01*
X164660000Y-87006500D02*
X160560000Y-87006500D01*
X166160000Y-81106500D02*
X167160000Y-81106500D01*
X166660000Y-80606500D02*
X166660000Y-81606500D01*
X168660000Y-75206500D02*
X172760000Y-75206500D01*
X172760000Y-75206500D02*
X172760000Y-77606500D01*
X172760000Y-79806500D02*
X172760000Y-82406500D01*
X172760000Y-84606500D02*
X172760000Y-87006500D01*
X172760000Y-87006500D02*
X168660000Y-87006500D01*
X169660000Y-81106500D02*
G75*
G02*
X163660000Y-81106500I-3000000J0D01*
G01*
X163660000Y-81106500D02*
G75*
G02*
X169660000Y-81106500I3000000J0D01*
G01*
%LPC*%
D12*
X166422000Y-128791661D03*
D13*
X123230000Y-100156500D03*
D14*
X128310000Y-100156500D03*
D13*
X133390000Y-100156500D03*
D15*
X130850000Y-95076500D03*
X124500000Y-97616500D03*
D13*
X123230000Y-81106500D03*
D14*
X128310000Y-81106500D03*
D13*
X133390000Y-81106500D03*
D15*
X130850000Y-76026500D03*
X124500000Y-78566500D03*
D13*
X161330000Y-119206500D03*
D14*
X166410000Y-119206500D03*
D13*
X171490000Y-119206500D03*
D15*
X168950000Y-114126500D03*
X162600000Y-116666500D03*
D12*
X118922000Y-100266661D03*
D13*
X123230000Y-119206500D03*
D14*
X128310000Y-119206500D03*
D13*
X133390000Y-119206500D03*
D15*
X130850000Y-114126500D03*
X124500000Y-116666500D03*
D12*
X175672000Y-100266661D03*
X128285000Y-72016661D03*
D13*
X142280000Y-100156500D03*
D14*
X147360000Y-100156500D03*
D13*
X152440000Y-100156500D03*
D15*
X149900000Y-95076500D03*
X143550000Y-97616500D03*
D13*
X142280000Y-119206500D03*
D14*
X147360000Y-119206500D03*
D13*
X152440000Y-119206500D03*
D15*
X149900000Y-114126500D03*
X143550000Y-116666500D03*
D13*
X161330000Y-100156500D03*
D14*
X166410000Y-100156500D03*
D13*
X171490000Y-100156500D03*
D15*
X168950000Y-95076500D03*
X162600000Y-97616500D03*
D12*
X166422000Y-71766661D03*
X128285000Y-128516661D03*
D16*
X128932000Y-110951500D03*
D17*
X136552000Y-110951500D03*
D16*
X142052000Y-110951500D03*
D17*
X149672000Y-110951500D03*
D16*
X141100000Y-90800000D03*
D17*
X148720000Y-90800000D03*
D16*
X158742000Y-108451500D03*
D17*
X166362000Y-108451500D03*
D16*
X139552000Y-108451500D03*
D17*
X147172000Y-108451500D03*
D18*
X157552000Y-103324000D03*
D19*
X157552000Y-100784000D03*
X157552000Y-98244000D03*
X157552000Y-95704000D03*
D16*
X154200000Y-91800000D03*
D17*
X161820000Y-91800000D03*
D16*
X161052000Y-110951500D03*
D17*
X168672000Y-110951500D03*
D16*
X130552000Y-89451500D03*
D17*
X122932000Y-89451500D03*
D16*
X125742000Y-108451500D03*
D17*
X133362000Y-108451500D03*
D13*
X142280000Y-81106500D03*
D14*
X147360000Y-81106500D03*
D13*
X152440000Y-81106500D03*
D15*
X149900000Y-76026500D03*
X143550000Y-78566500D03*
D20*
X155040000Y-70500000D03*
X155040000Y-73040000D03*
X155040000Y-75580000D03*
X155040000Y-78120000D03*
X155040000Y-80660000D03*
X155040000Y-83200000D03*
X155040000Y-85740000D03*
X139800000Y-85740000D03*
X139800000Y-83200000D03*
X139800000Y-80660000D03*
X139800000Y-78120000D03*
X139800000Y-75580000D03*
X139800000Y-73040000D03*
X139800000Y-70500000D03*
D21*
X159160000Y-78606500D03*
D22*
X159160000Y-83606500D03*
X159160000Y-81106500D03*
D23*
X166660000Y-75506500D03*
X166660000Y-86706500D03*
D22*
X173660000Y-83606500D03*
X173660000Y-78606500D03*
%LPD*%
M02*
